<svg width="55" height="258" viewBox="0 0 55 258" fill="none" xmlns="http://www.w3.org/2000/svg">
<line x1="28.2758" y1="257.352" x2="28.2758" y2="49.1312" stroke="#FFB800" stroke-width="4.50693"/>
<path fill-rule="evenodd" clip-rule="evenodd" d="M35.4817 18.8535C37.1374 20.5958 38.1424 22.8835 38.1424 25.3874C38.1424 30.8424 33.3729 35.2711 27.4984 35.2711C21.6238 35.2711 16.8544 30.8424 16.8544 25.3874C16.8544 22.8573 17.8806 20.5479 19.5672 18.799C20.2588 18.0819 20.1932 16.9783 19.4209 16.3361C18.6486 15.6939 17.4601 15.7548 16.7685 16.4719C14.4862 18.8386 13.0977 21.9636 13.0977 25.3874C13.0977 32.7677 19.5504 38.7595 27.4984 38.7595C35.4464 38.7595 41.8991 32.7677 41.8991 25.3874C41.8991 21.999 40.5391 18.9032 38.2986 16.5455C37.6127 15.8236 36.4247 15.7547 35.6473 16.3916C34.87 17.0285 34.7958 18.1316 35.4817 18.8535Z" fill="#515BE0"/>
<path fill-rule="evenodd" clip-rule="evenodd" d="M27.4992 0.000976562C12.64 0.000976562 0.576172 11.2031 0.576172 25.001C0.576172 38.7989 12.64 50.001 27.4992 50.001C42.3585 50.001 54.4223 38.7989 54.4223 25.001C54.4223 11.2031 42.3585 0.000976562 27.4992 0.000976562ZM27.4992 3.48935C40.2851 3.48935 50.6656 13.1284 50.6656 25.001C50.6656 36.8736 40.2851 46.5126 27.4992 46.5126C14.7134 46.5126 4.33288 36.8736 4.33288 25.001C4.33288 13.1284 14.7134 3.48935 27.4992 3.48935ZM29.3776 27.3266V13.3731C29.3776 12.4104 28.5359 11.6289 27.4992 11.6289C26.4625 11.6289 25.6209 12.4104 25.6209 13.3731V27.3266C25.6209 28.2892 26.4625 29.0707 27.4992 29.0707C28.5359 29.0707 29.3776 28.2892 29.3776 27.3266Z" fill="#FFB800"/>
</svg>
