<svg width="380" height="99" viewBox="0 0 380 99" fill="none" xmlns="http://www.w3.org/2000/svg">
<path d="M353.5 96C353.5 97.3807 354.619 98.5 356 98.5C357.381 98.5 358.5 97.3807 358.5 96H353.5ZM358.5 54C358.5 52.6193 357.381 51.5 356 51.5C354.619 51.5 353.5 52.6193 353.5 54H358.5ZM355.511 98.5035C356.892 98.5016 358.009 97.3807 358.007 96C358.005 94.6193 356.885 93.5016 355.504 93.5035L355.511 98.5035ZM2.5 93.9965C1.11929 93.9984 0.001569 95.1193 0.00349736 96.5C0.00542571 97.8807 1.12628 98.9984 2.50699 98.9965L2.5 93.9965ZM5 3C5 1.61929 3.88071 0.5 2.5 0.5C1.11929 0.5 0 1.61929 0 3H5ZM335 51C333.619 51 332.5 52.1193 332.5 53.5C332.5 54.8807 333.619 56 335 56V51ZM377 56C378.381 56 379.5 54.8807 379.5 53.5C379.5 52.1193 378.381 51 377 51V56ZM347 40.5C345.619 40.5 344.5 41.6193 344.5 43C344.5 44.3807 345.619 45.5 347 45.5V40.5ZM365 45.5C366.381 45.5 367.5 44.3807 367.5 43C367.5 41.6193 366.381 40.5 365 40.5V45.5ZM358.5 96V54H353.5V96H358.5ZM355.504 93.5035L2.5 93.9965L2.50699 98.9965L355.511 98.5035L355.504 93.5035ZM5 96V3H0V96H5ZM335 56H377V51H335V56ZM347 45.5H365V40.5H347V45.5Z" fill="#FFB800"/>
</svg>