<svg width="54" height="195" viewBox="0 0 54 195" fill="none" xmlns="http://www.w3.org/2000/svg">
<line y1="-2.25347" x2="146.942" y2="-2.25347" transform="matrix(-6.61363e-05 -1 1 -5.70256e-05 29.1797 194.942)" stroke="#FFB800" stroke-width="4.50693"/>
<path fill-rule="evenodd" clip-rule="evenodd" d="M34.9836 18.8545C36.6393 20.5967 37.6444 22.8845 37.6444 25.3884C37.6444 30.8434 32.8749 35.2721 27.0003 35.2721C21.1258 35.2721 16.3563 30.8434 16.3563 25.3884C16.3563 22.8583 17.3825 20.5489 19.0691 18.8C19.7607 18.0828 19.6952 16.9793 18.9228 16.3371C18.1506 15.6949 16.9621 15.7558 16.2705 16.4729C13.9882 18.8396 12.5996 21.9646 12.5996 25.3884C12.5996 32.7687 19.0524 38.7605 27.0003 38.7605C34.9483 38.7605 41.4011 32.7687 41.4011 25.3884C41.4011 22 40.041 18.9041 37.8006 16.5464C37.1146 15.8246 35.9267 15.7557 35.1493 16.3926C34.372 17.0295 34.2978 18.1326 34.9836 18.8545Z" fill="#515BE0"/>
<path fill-rule="evenodd" clip-rule="evenodd" d="M27.0012 0C12.142 0 0.078125 11.2021 0.078125 25C0.078125 38.7979 12.142 50 27.0012 50C41.8604 50 53.9243 38.7979 53.9243 25C53.9243 11.2021 41.8604 0 27.0012 0ZM27.0012 3.48837C39.7871 3.48837 50.1676 13.1274 50.1676 25C50.1676 36.8726 39.7871 46.5116 27.0012 46.5116C14.2153 46.5116 3.83483 36.8726 3.83483 25C3.83483 13.1274 14.2153 3.48837 27.0012 3.48837ZM28.8795 27.3256V13.3721C28.8795 12.4095 28.0379 11.6279 27.0012 11.6279C25.9645 11.6279 25.1228 12.4095 25.1228 13.3721V27.3256C25.1228 28.2883 25.9645 29.0698 27.0012 29.0698C28.0379 29.0698 28.8795 28.2883 28.8795 27.3256Z" fill="#FFB800"/>
</svg>
