<svg width="344" height="171" viewBox="0 0 344 171" fill="none" xmlns="http://www.w3.org/2000/svg">
<path fill-rule="evenodd" clip-rule="evenodd" d="M309.858 56.106L91.9132 9.63803C72.9997 5.60548 55.2257 19.9765 55.2257 39.3015V72.7789H46.2727V39.27C46.2727 14.2612 69.2743 -4.33659 93.7506 0.882L311.695 47.35C353.44 56.2504 353.44 115.853 311.695 124.46L93.7506 169.395C69.2743 174.441 46.2727 155.682 46.2727 130.673V94.7359H55.2257V130.704C55.2257 150.029 72.9997 164.525 91.9132 160.626L309.858 115.691C342.115 109.04 342.115 62.9836 309.858 56.106Z" fill="#580925"/>
<rect x="0.996338" y="89.2676" width="102.164" height="9.98045" fill="#FFB800"/>
<rect x="24.2158" y="66.7913" width="55.7259" height="9.98045" fill="#FFB800"/>
</svg>
