<svg width="82" height="83" viewBox="0 0 82 83" fill="none" xmlns="http://www.w3.org/2000/svg">
<rect x="35.541" y="25.103" width="3.93875" height="6.56458" fill="#515BE0"/>
<rect x="22.4102" y="34.2944" width="3.93875" height="6.56458" fill="#515BE0"/>
<rect x="35.541" y="43.4839" width="3.93875" height="6.56458" fill="#515BE0"/>
<rect x="65.7383" y="40.8589" width="3.93875" height="6.56458" fill="#515BE0"/>
<rect x="59.1719" y="28.3862" width="3.93875" height="6.56458" fill="#515BE0"/>
<rect x="52.6094" y="34.2944" width="3.93875" height="6.56458" fill="#515BE0"/>
<rect x="65.7383" y="59.2397" width="3.93875" height="6.56458" fill="#515BE0"/>
<rect x="52.6094" y="65.8042" width="3.93875" height="6.56458" fill="#515BE0"/>
<rect x="15.8477" y="52.6753" width="3.93875" height="6.56458" fill="#515BE0"/>
<rect x="22.4102" y="15.2573" width="3.93875" height="6.56458" fill="#515BE0"/>
<g filter="url(#filter0_d_1189_2354)">
<path d="M12.6667 5.40967V11.4966H6V75.4097H24.3333V61.714H31V75.4097H49.3333V11.4966H42.6667V5.40967H12.6667ZM16 17.5836H19.3333V20.6271H16V17.5836ZM22.6667 17.5836H26V20.6271H22.6667V17.5836ZM29.3333 17.5836H32.6667V20.6271H29.3333V17.5836ZM36 17.5836H39.3333V20.6271H36V17.5836ZM52.6667 23.6705V29.7575H56V32.801H52.6667V35.8445H56V38.8879H52.6667V41.9314H56V44.9749H52.6667V48.0184H56V51.0618H52.6667V54.1053H56V57.1488H52.6667V60.1923H56V63.2358H52.6667V66.2792H56V69.3227H52.6667V75.4097H76V23.6705H52.6667ZM16 25.1923H19.3333V31.2792H16V25.1923ZM22.6667 25.1923H26V31.2792H22.6667V25.1923ZM29.3333 25.1923H32.6667V31.2792H29.3333V25.1923ZM36 25.1923H39.3333V31.2792H36V25.1923ZM59.3333 29.7575H62.6667V32.801H59.3333V29.7575ZM66 29.7575H69.3333V32.801H66V29.7575ZM16 34.3227H19.3333V40.4097H16V34.3227ZM22.6667 34.3227H26V40.4097H22.6667V34.3227ZM29.3333 34.3227H32.6667V40.4097H29.3333V34.3227ZM36 34.3227H39.3333V40.4097H36V34.3227ZM59.3333 35.8445H62.6667V38.8879H59.3333V35.8445ZM66 35.8445H69.3333V38.8879H66V35.8445ZM59.3333 41.9314H62.6667V44.9749H59.3333V41.9314ZM66 41.9314H69.3333V44.9749H66V41.9314ZM16 43.4531H19.3333V49.5401H16V43.4531ZM22.6667 43.4531H26V49.5401H22.6667V43.4531ZM29.3333 43.4531H32.6667V49.5401H29.3333V43.4531ZM36 43.4531H39.3333V49.5401H36V43.4531ZM59.3333 48.0184H62.6667V51.0618H59.3333V48.0184ZM66 48.0184H69.3333V51.0618H66V48.0184ZM16 52.5836H19.3333V58.6705H16V52.5836ZM22.6667 52.5836H26V58.6705H22.6667V52.5836ZM29.3333 52.5836H32.6667V58.6705H29.3333V52.5836ZM36 52.5836H39.3333V58.6705H36V52.5836ZM59.3333 54.1053H62.6667V57.1488H59.3333V54.1053ZM66 54.1053H69.3333V57.1488H66V54.1053ZM59.3333 60.1923H62.6667V63.2358H59.3333V60.1923ZM66 60.1923H69.3333V63.2358H66V60.1923ZM16 61.714H19.3333V69.3227H16V61.714ZM36 61.714H39.3333V69.3227H36V61.714ZM59.3333 66.2792H62.6667V69.3227H59.3333V66.2792ZM66 66.2792H69.3333V69.3227H66V66.2792Z" fill="#313846"/>
</g>
<defs>
<filter id="filter0_d_1189_2354" x="0" y="0.409668" width="82" height="82" filterUnits="userSpaceOnUse" color-interpolation-filters="sRGB">
<feFlood flood-opacity="0" result="BackgroundImageFix"/>
<feColorMatrix in="SourceAlpha" type="matrix" values="0 0 0 0 0 0 0 0 0 0 0 0 0 0 0 0 0 0 127 0" result="hardAlpha"/>
<feOffset dy="1"/>
<feGaussianBlur stdDeviation="3"/>
<feComposite in2="hardAlpha" operator="out"/>
<feColorMatrix type="matrix" values="0 0 0 0 0 0 0 0 0 0 0 0 0 0 0 0 0 0 0.25 0"/>
<feBlend mode="normal" in2="BackgroundImageFix" result="effect1_dropShadow_1189_2354"/>
<feBlend mode="normal" in="SourceGraphic" in2="effect1_dropShadow_1189_2354" result="shape"/>
</filter>
</defs>
</svg>
