<svg width="81" height="80" viewBox="0 0 81 80" fill="none" xmlns="http://www.w3.org/2000/svg">
<path d="M43.5039 50.077V36.0771H37.5039V50.077H43.5039Z" stroke="#313846" stroke-width="2"/>
<path d="M32 47.1538H1.50005V73.8459C1.50005 75.2722 1.96216 76.6086 2.74062 77.5667C3.51448 78.5191 4.51412 78.9997 5.50005 78.9997H75.5C76.4859 78.9997 77.4856 78.5191 78.2594 77.5667C79.0379 76.6086 79.5 75.2722 79.5 73.8459V47.1538H49V52.3076C49 53.3294 48.672 54.3409 48.0439 55.1139C47.4112 55.8926 46.5032 56.3845 45.5 56.3845H35.5C34.4968 56.3845 33.5888 55.8926 32.9561 55.1139C32.3281 54.3409 32 53.3294 32 52.3076V47.1538Z" stroke="#313846" stroke-width="2"/>
<path d="M1.49999 27.9416L1.5 38.9997H32V33.8459C32 32.8241 32.328 31.8126 32.9561 31.0396C33.5888 30.2609 34.4968 29.769 35.5 29.769H45.5C46.5032 29.769 47.4112 30.2609 48.0438 31.0396C48.6719 31.8126 49 32.8241 49 33.8459V38.9997H79.5L79.4999 27.969L79.5 27.9643C79.5014 27.6652 79.4546 27.3719 79.3653 27.1027C79.276 26.8338 79.1483 26.6007 78.997 26.4128C78.9968 26.4125 78.9966 26.4122 78.9963 26.4119L68.8014 13.8336C68.8009 13.833 68.8004 13.8324 68.7999 13.8318C68.6482 13.647 68.4796 13.5144 68.3106 13.4294C68.1422 13.3448 67.9719 13.3064 67.8071 13.3076L67.8071 13.3076H67.8H55.5H54.5V12.3076V6.30764V6.27977L54.5015 6.25195C54.5395 5.57106 54.4658 4.88963 54.2869 4.24986C54.108 3.60996 53.8294 3.03165 53.4754 2.54623C53.1216 2.06101 52.7029 1.68278 52.2522 1.42207C51.8096 1.1661 51.3417 1.02627 50.874 1H30.5261C29.5555 1.05469 28.5843 1.57609 27.8448 2.54788C27.0959 3.53194 26.6702 4.87412 26.6998 6.28668L26.7 6.29716V6.30764V12.3076V13.3076H25.7H13.203C12.8843 13.3099 12.5263 13.4647 12.2248 13.8321C12.2244 13.8326 12.224 13.8331 12.2236 13.8336L2.00362 26.4119C2.00312 26.4125 2.00262 26.4131 2.00211 26.4138C1.69799 26.7921 1.50249 27.338 1.5 27.9396C1.5 27.9403 1.49999 27.941 1.49999 27.9416ZM30.5 13.3076H29.5V12.3076V6.15379V5.15379H30.5H50.5H51.5V6.15379V12.3076V13.3076H50.5H30.5Z" stroke="#313846" stroke-width="2"/>
<rect x="36.332" y="35.1138" width="8.25233" height="15.4416" fill="#515BE0" stroke="#313846"/>
</svg>
