<svg width="59" height="59" viewBox="0 0 59 59" fill="none" xmlns="http://www.w3.org/2000/svg">
<g filter="url(#filter0_d_2167_2668)">
<path d="M53.9467 23.3883L46.8646 21.0047V15.2248C46.8646 14.896 46.6955 14.5965 46.4263 14.452L27.301 4.08311C27.2989 4.08197 27.2946 4.08197 27.2861 4.08197C27.2499 4.06092 27.1074 3.98874 26.8999 4.0015C26.6839 4.01436 26.5265 4.12853 26.4967 4.15424L12.8568 14.8098C12.6493 14.9717 12.5259 15.2328 12.5259 15.5115V22.9512L9.99173 22.6201C9.99068 22.6201 9.98321 22.6213 9.96939 22.6237C9.93645 22.6213 9.85978 22.6178 9.78747 22.6283C9.69594 22.6412 9.61728 22.6738 9.58747 22.6866C9.58321 22.6877 9.58008 22.6889 9.58008 22.6889L4.96814 24.9269C4.68305 25.0644 4.5 25.3744 4.5 25.7148V40.1291C4.5 40.445 4.6575 40.7352 4.90851 40.8844L9.53106 43.6608C9.53106 43.6608 9.6524 43.7378 9.79807 43.7576C9.92793 43.7761 10.0226 43.7576 10.0226 43.7576L12.5248 43.3589V44.9476C12.5248 45.2635 12.6823 45.5526 12.9333 45.704L26.5711 53.892C26.5711 53.892 26.7232 53.9888 26.9222 53.9992C27.0743 54.0074 27.2233 53.9468 27.2233 53.9468V53.9421C27.2253 53.9421 27.2275 53.9421 27.2275 53.9421L46.3539 45.9756L53.9925 42.7935C54.2978 42.6665 54.5 42.346 54.5 41.9882V24.2134C54.5031 23.8336 54.2775 23.499 53.9467 23.3883ZM6.69476 36.5463C6.69476 36.636 6.65643 36.7211 6.59046 36.7746C6.54361 36.8131 6.48833 36.834 6.43192 36.834C6.40845 36.834 6.38507 36.8306 6.36169 36.8236L5.48617 36.5566C5.37231 36.5217 5.29365 36.4087 5.29365 36.2792V33.6055C5.29365 33.525 5.3245 33.447 5.37978 33.3922C5.43411 33.3375 5.50746 33.3117 5.58082 33.3199L6.45635 33.4132C6.59037 33.4283 6.69354 33.5507 6.69354 33.6987V36.5462L6.69476 36.5463ZM6.69476 30.8525C6.69476 31.0028 6.58942 31.1264 6.45322 31.1392L5.57769 31.2185C5.57126 31.2185 5.56387 31.2185 5.5564 31.2185C5.49147 31.2185 5.42767 31.1928 5.37874 31.1439C5.3245 31.0891 5.29365 31.0134 5.29365 30.9317V28.2579C5.29365 28.1274 5.37448 28.0132 5.48939 27.9806L6.36499 27.7276C6.44374 27.7055 6.52666 27.7241 6.59159 27.779C6.65652 27.8326 6.69372 27.9165 6.69372 28.0051V30.8525L6.69476 30.8525ZM9.25449 37.326C9.25449 37.4157 9.21625 37.4996 9.15123 37.5543C9.10438 37.5928 9.0491 37.6126 8.99269 37.6126C8.96931 37.6126 8.94584 37.6091 8.92246 37.6021L7.72239 37.2362C7.60853 37.2024 7.52987 37.0881 7.52987 36.9599V33.8443C7.52987 33.764 7.56064 33.6859 7.616 33.6311C7.67024 33.5764 7.74368 33.5507 7.81817 33.5589L9.01825 33.687C9.1534 33.701 9.25545 33.8245 9.25545 33.9726V37.326H9.25449ZM9.25449 30.6216C9.25449 30.7708 9.14914 30.8956 9.01407 30.9084L7.81296 31.0168C7.80557 31.0168 7.79914 31.0168 7.79166 31.0168C7.72569 31.0168 7.66189 30.9901 7.614 30.9411C7.55968 30.8864 7.52891 30.8106 7.52891 30.7289V27.6146C7.52891 27.4841 7.60983 27.3699 7.72465 27.3361L8.92577 26.9911C9.00451 26.9677 9.08743 26.9864 9.15236 27.0412C9.21625 27.0959 9.25449 27.1798 9.25449 27.2685V30.6216ZM15.8239 39.3238C15.8239 39.4135 15.7856 39.4986 15.7206 39.5521C15.6749 39.5906 15.6185 39.6116 15.5621 39.6116C15.5377 39.6116 15.5142 39.6081 15.4919 39.6011L13.944 39.1303C13.8301 39.0953 13.7514 38.9822 13.7514 38.854V34.51C13.7514 34.4284 13.7822 34.3514 13.8376 34.2967C13.8918 34.2419 13.9653 34.2163 14.0386 34.2221L15.5865 34.3888C15.7216 34.4027 15.8237 34.5263 15.8237 34.6743L15.8239 39.3238ZM15.8239 30.0272C15.8239 30.1765 15.7196 30.3012 15.5835 30.3128L14.0355 30.4527C14.0291 30.4539 14.0217 30.4539 14.0142 30.4539C13.9482 30.4539 13.8844 30.4271 13.8365 30.3781C13.7822 30.3234 13.7514 30.2464 13.7514 30.166V25.822C13.7514 25.6914 13.8323 25.5773 13.9472 25.5446L15.4951 25.0982C15.5738 25.0761 15.6579 25.0947 15.7217 25.1495C15.7855 25.2031 15.8238 25.287 15.8238 25.3757L15.8239 30.0272ZM15.8239 20.7285C15.8239 20.8427 15.7632 20.9465 15.6686 20.9919L14.1207 21.7424C14.0866 21.7588 14.0504 21.7682 14.0143 21.7682C13.9643 21.7682 13.9143 21.7519 13.8707 21.7215C13.7962 21.6679 13.7515 21.5769 13.7515 21.4802V17.1362C13.7515 17.0371 13.7984 16.945 13.875 16.8925L15.4229 15.8366C15.5038 15.7807 15.6058 15.7783 15.6888 15.8285C15.7718 15.8798 15.824 15.9753 15.824 16.0803L15.8239 20.7285ZM19.6804 40.4974C19.6804 40.5871 19.6421 40.6723 19.5772 40.7259C19.5315 40.7643 19.4751 40.7853 19.4187 40.7853C19.3953 40.7853 19.3718 40.7818 19.3484 40.7748L17.2749 40.1431C17.1611 40.1093 17.0824 39.995 17.0824 39.8669V34.8655C17.0824 34.7851 17.1132 34.707 17.1685 34.6522C17.2229 34.5987 17.2962 34.573 17.3696 34.5799L19.4441 34.8013C19.5781 34.8165 19.6803 34.9389 19.6803 35.0869L19.6804 40.4974ZM19.6804 29.6776C19.6804 29.8279 19.5761 29.9515 19.4399 29.9643L17.3665 30.152C17.3591 30.152 17.3517 30.1532 17.3442 30.1532C17.2782 30.1532 17.2155 30.1252 17.1665 30.0763C17.1123 30.0215 17.0814 29.9457 17.0814 29.8641V24.8638C17.0814 24.7333 17.1623 24.6191 17.2772 24.5864L19.3506 23.9885C19.4293 23.9652 19.5134 23.9839 19.5772 24.0386C19.6421 24.0934 19.6793 24.1773 19.6793 24.2659V29.6776H19.6804ZM19.6804 18.8578C19.6804 18.9721 19.6198 19.0758 19.5251 19.1213L17.4516 20.1271C17.4175 20.1447 17.3814 20.1516 17.3452 20.1516C17.2953 20.1516 17.2453 20.1353 17.2027 20.105C17.1283 20.0526 17.0835 19.9616 17.0835 19.8637V14.8635C17.0835 14.7643 17.1304 14.6723 17.2069 14.6199L19.2804 13.2037C19.3612 13.1478 19.4633 13.1454 19.5463 13.1955C19.6293 13.2468 19.6815 13.3423 19.6815 13.4473V18.8578H19.6804ZM25.0466 42.1305C25.0466 42.2156 25.0168 42.2971 24.9615 42.3554C24.8657 42.4614 24.737 42.4614 24.6923 42.4614C24.6923 42.4614 24.6923 42.4614 24.6913 42.4614C24.1742 42.4614 22.1678 41.67 21.772 41.5126C21.6677 41.4718 21.5996 41.3635 21.5996 41.2422V35.3491C21.5996 35.2687 21.6305 35.1906 21.6847 35.1359C21.74 35.0811 21.8134 35.0554 21.8869 35.0636L24.8093 35.3759C24.9433 35.3911 25.0465 35.5146 25.0465 35.6614C25.0466 35.7245 25.0445 41.8541 25.0466 42.1305ZM25.0466 29.1927C25.0466 29.3418 24.9413 29.4666 24.8051 29.4783L21.8826 29.7428C21.8752 29.7428 21.8677 29.744 21.8613 29.744C21.7953 29.744 21.7315 29.716 21.6836 29.667C21.6293 29.6122 21.5986 29.5365 21.5986 29.4548V23.5618C21.5986 23.4324 21.6783 23.3171 21.7943 23.2844L24.7167 22.4429C24.7955 22.4196 24.8785 22.4383 24.9433 22.493C25.0082 22.5478 25.0454 22.6318 25.0454 22.7203V29.1926L25.0466 29.1927ZM25.0466 16.2539C25.0466 16.3681 24.9849 16.4707 24.8902 16.5162L21.9678 17.9347C21.9337 17.9522 21.8975 17.9591 21.8614 17.9591C21.8114 17.9591 21.7614 17.9429 21.7178 17.9126C21.6433 17.859 21.5986 17.7692 21.5986 17.6713V11.7793C21.5986 11.6791 21.6455 11.587 21.7221 11.5346L24.6446 9.54037C24.7254 9.48448 24.8275 9.4821 24.9106 9.53218C24.9936 9.58351 25.0456 9.67902 25.0456 9.78396V16.2539H25.0466ZM36.6641 13.0289C36.6641 12.9321 36.7089 12.8424 36.7822 12.7888C36.8556 12.7352 36.9492 12.727 37.0301 12.7643L40.1494 14.2422C40.2452 14.2877 40.3079 14.3914 40.3079 14.5068V19.6107C40.3079 19.7017 40.2686 19.7878 40.2015 19.8415C40.1558 19.8788 40.1015 19.8986 40.0462 19.8986C40.0206 19.8986 39.994 19.8939 39.9696 19.8857L36.8503 18.8356C36.7396 18.7983 36.6651 18.6865 36.6651 18.5617V13.0289H36.6641ZM36.6641 24.0912C36.6641 24.006 36.6982 23.9245 36.7577 23.8709C36.8173 23.8162 36.8971 23.794 36.9727 23.8091L40.093 24.4315C40.2175 24.4572 40.3079 24.5749 40.3079 24.7136V29.8653C40.3079 29.9445 40.2781 30.0215 40.2238 30.0763C40.175 30.1264 40.1111 30.1532 40.0451 30.1532C40.0387 30.1532 40.0323 30.152 40.0269 30.152L36.9077 29.9084C36.7705 29.8979 36.664 29.7732 36.664 29.6228L36.6641 24.0912ZM28.5435 9.18252C28.5435 9.08577 28.5882 8.99607 28.6617 8.94245C28.735 8.88999 28.8286 8.88065 28.9096 8.91912L33.3406 11.0183C33.4364 11.0638 33.4991 11.1675 33.4991 11.2829V17.3193C33.4991 17.4103 33.4598 17.4965 33.3927 17.5502C33.347 17.5875 33.2916 17.6073 33.2374 17.6073C33.2118 17.6073 33.1852 17.6026 33.1597 17.5944L28.7287 16.1025C28.618 16.0664 28.5435 15.9545 28.5435 15.8287V9.18252ZM28.5435 29.1135V22.4698C28.5435 22.3846 28.5776 22.3031 28.6372 22.2495C28.6968 22.1948 28.7754 22.1726 28.8521 22.1877L33.2831 23.0725C33.4075 23.0981 33.499 23.217 33.499 23.3557V29.392C33.499 29.4713 33.4692 29.547 33.4161 29.6018C33.3671 29.6519 33.3022 29.6799 33.2363 29.6799C33.2309 29.6799 33.2256 29.6799 33.2214 29.6787L28.7904 29.4013C28.6521 29.3908 28.5435 29.2662 28.5435 29.1135ZM37.1886 48.9828C37.1886 49.1029 37.1205 49.2077 37.0195 49.2508L31.2203 51.6658C31.1905 51.6786 31.1585 51.6844 31.1278 51.6844C31.0755 51.6844 31.0224 51.6669 30.9788 51.6343C30.9075 51.5807 30.866 51.4921 30.866 51.3978V35.5835C30.866 35.4319 30.9725 35.3073 31.1107 35.2967L36.9099 34.8666C36.9833 34.8608 37.0535 34.8899 37.1067 34.9436C37.1599 34.9971 37.1897 35.0729 37.1897 35.1534V48.9828H37.1886ZM44.1772 46.0711C44.1772 46.1912 44.1102 46.2972 44.008 46.3391L40.1386 47.9511C40.1079 47.964 40.077 47.9709 40.0451 47.9709C39.9929 47.9709 39.9408 47.9523 39.8961 47.9197C39.8259 47.8661 39.7833 47.7775 39.7833 47.6831V34.9226C39.7833 34.7711 39.8898 34.6464 40.028 34.6358L43.8973 34.349C43.9707 34.3432 44.0409 34.3712 44.0942 34.4248C44.1474 34.4784 44.1772 34.5554 44.1772 34.6346V46.0711ZM45.2953 30.131C45.2953 30.2103 45.2655 30.2861 45.2123 30.3408C45.1633 30.3909 45.0984 30.4189 45.0325 30.4189C45.0271 30.4189 45.0219 30.4189 45.0176 30.4189L42.7026 30.2732C42.5643 30.2639 42.4558 30.1391 42.4558 29.9865V25.2474C42.4558 25.1623 42.4909 25.0808 42.5494 25.0259C42.6101 24.9711 42.6888 24.9501 42.7653 24.9641L45.0792 25.4268C45.2038 25.4513 45.2952 25.5701 45.2952 25.7089L45.2953 30.131ZM45.2953 21.2891C45.2953 21.38 45.2559 21.4663 45.1888 21.5199C45.1431 21.5572 45.0878 21.577 45.0335 21.577C45.008 21.577 44.9813 21.5724 44.9558 21.563L42.6419 20.7845C42.5313 20.7471 42.4568 20.6353 42.4568 20.5106V15.7714C42.4568 15.6747 42.5015 15.585 42.5749 15.5314C42.6482 15.4778 42.7419 15.4696 42.8227 15.508L45.1378 16.6037C45.2336 16.6492 45.2962 16.7528 45.2962 16.8682V21.2892L45.2953 21.2891ZM49.921 37.9973C49.921 38.1348 49.8317 38.2537 49.7083 38.2794L48.0262 38.6348C48.0092 38.6384 47.9932 38.6395 47.9773 38.6395C47.9167 38.6395 47.8571 38.6163 47.8103 38.5731C47.7497 38.5195 47.7156 38.4379 47.7156 38.3529V34.3352C47.7156 34.1837 47.822 34.0591 47.9603 34.0485L49.6423 33.9238C49.7146 33.9191 49.7859 33.947 49.8391 34.0007C49.8923 34.0542 49.9221 34.13 49.9221 34.2105V37.9974L49.921 37.9973ZM49.921 30.4223C49.921 30.5004 49.8912 30.5762 49.838 30.631C49.7891 30.681 49.7252 30.7089 49.6583 30.7089C49.6529 30.7089 49.6487 30.7089 49.6434 30.7089L47.9613 30.603C47.823 30.5936 47.7146 30.469 47.7146 30.3162V26.2987C47.7146 26.2137 47.7486 26.1332 47.8081 26.0784C47.8677 26.0237 47.9465 26.0015 48.023 26.0155L49.704 26.3512C49.8285 26.3756 49.9199 26.4957 49.9199 26.6344V30.4223H49.921ZM52.7647 37.396C52.7647 37.5335 52.6754 37.6523 52.552 37.678L51.2062 37.9624C51.1893 37.9659 51.1733 37.967 51.1574 37.967C51.0967 37.967 51.0371 37.9438 50.9903 37.9006C50.9296 37.8459 50.8956 37.7654 50.8956 37.6804V34.0974C50.8956 33.9471 51.003 33.8223 51.1403 33.8119L52.485 33.7116C52.5574 33.7058 52.6286 33.7349 52.6819 33.7874C52.735 33.8421 52.7648 33.9179 52.7648 33.9984L52.7647 37.396ZM52.7647 30.5995C52.7647 30.6789 52.7349 30.7546 52.6829 30.8093C52.634 30.8594 52.5701 30.8874 52.5031 30.8874C52.4977 30.8874 52.4936 30.8874 52.4882 30.8863L51.1435 30.8023C51.0051 30.7941 50.8966 30.6683 50.8966 30.5155V26.9793C50.8966 26.8954 50.9296 26.8149 50.9881 26.7601C51.0456 26.7054 51.1222 26.6821 51.1977 26.6937L52.5434 26.9163C52.6722 26.9373 52.7659 27.0586 52.7659 27.2008V30.5994L52.7647 30.5995Z" fill="#515BE0"/>
</g>
<defs>
<filter id="filter0_d_2167_2668" x="0.586939" y="0.739116" width="57.8261" height="57.8261" filterUnits="userSpaceOnUse" color-interpolation-filters="sRGB">
<feFlood flood-opacity="0" result="BackgroundImageFix"/>
<feColorMatrix in="SourceAlpha" type="matrix" values="0 0 0 0 0 0 0 0 0 0 0 0 0 0 0 0 0 0 127 0" result="hardAlpha"/>
<feOffset dy="0.652177"/>
<feGaussianBlur stdDeviation="1.95653"/>
<feComposite in2="hardAlpha" operator="out"/>
<feColorMatrix type="matrix" values="0 0 0 0 0 0 0 0 0 0 0 0 0 0 0 0 0 0 0.25 0"/>
<feBlend mode="normal" in2="BackgroundImageFix" result="effect1_dropShadow_2167_2668"/>
<feBlend mode="normal" in="SourceGraphic" in2="effect1_dropShadow_2167_2668" result="shape"/>
</filter>
</defs>
</svg>
