<svg width="89" height="84" viewBox="0 0 89 84" fill="none" xmlns="http://www.w3.org/2000/svg">
<g filter="url(#filter0_d_1189_2368)">
<path d="M42.2009 30.1926C42.1002 30.2744 42.041 30.3935 42.041 30.5199V43.2431C42.041 43.429 42.1689 43.5926 42.3577 43.6522L51.2253 46.403C51.2733 46.4179 51.3229 46.4254 51.3724 46.4254C51.4683 46.4254 51.5643 46.3971 51.6427 46.3435C51.7642 46.2617 51.8361 46.1322 51.8361 45.9939V31.7281C51.8361 31.5138 51.6683 31.3323 51.4395 31.301L42.5719 30.0929C42.4392 30.0736 42.3033 30.1109 42.2009 30.1926Z" fill="#515BE0"/>
<path d="M69.9533 48.4939C70.0688 48.6082 70.1367 48.7746 70.1367 48.9512V66.7276C70.1367 66.9874 69.99 67.216 69.7734 67.2992L59.6 71.1426C59.545 71.1633 59.488 71.1738 59.4312 71.1738C59.3212 71.1738 59.2111 71.1343 59.1212 71.0594C58.9818 70.9451 58.8992 70.7642 58.8992 70.571V50.6393C58.8992 50.3399 59.0918 50.0863 59.3542 50.0425L69.5277 48.3547C69.6799 48.3277 69.8358 48.3798 69.9533 48.4939Z" fill="#515BE0"/>
<path d="M23.2042 15.8302C23.1248 15.9021 23.0781 16.0067 23.0781 16.1177V27.2914C23.0781 27.4547 23.179 27.5984 23.3279 27.6507L30.3221 30.0665C30.3599 30.0796 30.3991 30.0862 30.4381 30.0862C30.5138 30.0862 30.5895 30.0613 30.6513 30.0142C30.7471 29.9424 30.8039 29.8287 30.8039 29.7072V17.1787C30.8039 16.9905 30.6715 16.8312 30.4911 16.8036L23.4969 15.7427C23.3922 15.7257 23.285 15.7585 23.2042 15.8302Z" fill="#515BE0"/>
<path d="M83.9918 33.0829L72.5512 29.5074V20.8373C72.5512 20.3443 72.278 19.895 71.8432 19.6782L40.948 4.12467C40.9447 4.12295 40.9378 4.12295 40.924 4.12295C40.8656 4.09138 40.6353 3.98311 40.3002 4.00225C39.9513 4.02154 39.697 4.1928 39.6488 4.23137L17.6149 20.2148C17.2797 20.4578 17.0803 20.8495 17.0803 21.2674V32.4272L12.9866 31.9306C12.9849 31.9306 12.9728 31.9323 12.9505 31.9358C12.8973 31.9323 12.7735 31.927 12.6566 31.9428C12.5088 31.9621 12.3817 32.0111 12.3336 32.0303C12.3267 32.032 12.3216 32.0337 12.3216 32.0337L4.87147 35.3907C4.41093 35.597 4.11523 36.0621 4.11523 36.5726V58.1944C4.11523 58.6682 4.36965 59.1035 4.77515 59.3274L12.2424 63.492C12.2424 63.492 12.4384 63.6074 12.6738 63.6371C12.8835 63.665 13.0364 63.6371 13.0364 63.6371L17.0785 63.0391V65.4222C17.0785 65.896 17.3329 66.3297 17.7384 66.5568L39.769 78.839C39.769 78.839 40.0148 78.9841 40.3361 78.9998C40.5819 79.0121 40.8225 78.9211 40.8225 78.9211V78.9141C40.8259 78.9141 40.8294 78.9141 40.8294 78.9141L71.7262 66.9641L84.0656 62.191C84.5589 62.0005 84.8855 61.5198 84.8855 60.983V34.3206C84.8905 33.7508 84.5262 33.2488 83.9918 33.0829ZM7.66066 52.82C7.66066 52.9546 7.59874 53.0823 7.49217 53.1625C7.41649 53.2203 7.3272 53.2517 7.23607 53.2517C7.19816 53.2517 7.16039 53.2465 7.12262 53.2361L5.7083 52.8356C5.52436 52.7832 5.39729 52.6136 5.39729 52.4195V48.4088C5.39729 48.2881 5.44714 48.171 5.53644 48.0889C5.62419 48.0067 5.7427 47.9682 5.8612 47.9805L7.27553 48.1203C7.49203 48.143 7.6587 48.3266 7.6587 48.5487V52.8199L7.66066 52.82ZM7.66066 44.2792C7.66066 44.5047 7.49049 44.6902 7.27047 44.7093L5.85615 44.8283C5.84576 44.8283 5.83382 44.8283 5.82175 44.8283C5.71686 44.8283 5.6138 44.7897 5.53475 44.7164C5.44714 44.6342 5.39729 44.5206 5.39729 44.398V40.3874C5.39729 40.1916 5.52787 40.0203 5.71349 39.9713L7.12796 39.5919C7.25517 39.5588 7.38911 39.5866 7.494 39.6689C7.59888 39.7493 7.65898 39.8752 7.65898 40.0081V44.2793L7.66066 44.2792ZM11.7957 53.9896C11.7957 54.1241 11.7339 54.25 11.6289 54.3321C11.5532 54.3898 11.4639 54.4195 11.3728 54.4195C11.335 54.4195 11.2971 54.4143 11.2593 54.4038L9.3207 53.8549C9.13677 53.8042 9.0097 53.6328 9.0097 53.4405V48.7671C9.0097 48.6465 9.0594 48.5294 9.14884 48.4473C9.23646 48.3651 9.3551 48.3266 9.47543 48.3389L11.414 48.5311C11.6324 48.5521 11.7972 48.7374 11.7972 48.9595V53.9896H11.7957ZM11.7957 43.933C11.7957 44.1568 11.6255 44.3439 11.4073 44.3632L9.46701 44.5257C9.45507 44.5257 9.44468 44.5257 9.4326 44.5257C9.32604 44.5257 9.22298 44.4856 9.14561 44.4122C9.05786 44.3301 9.00815 44.2164 9.00815 44.0939V39.4224C9.00815 39.2265 9.13887 39.0553 9.32435 39.0046L11.2646 38.487C11.3919 38.4521 11.5258 38.4801 11.6307 38.5622C11.7339 38.6443 11.7957 38.7702 11.7957 38.9031V43.933ZM22.4079 56.9864C22.4079 57.1209 22.346 57.2486 22.2411 57.3289C22.1673 57.3866 22.0762 57.418 21.985 57.418C21.9456 57.418 21.9077 57.4129 21.8716 57.4023L19.3711 56.6961C19.1871 56.6437 19.0599 56.474 19.0599 56.2817V49.7655C19.0599 49.6433 19.1098 49.5277 19.1992 49.4456C19.2868 49.3634 19.4055 49.325 19.524 49.3337L22.0245 49.5838C22.2427 49.6047 22.4077 49.7901 22.4077 50.0121L22.4079 56.9864ZM22.4079 43.0414C22.4079 43.2652 22.2394 43.4523 22.0196 43.4697L19.5189 43.6796C19.5087 43.6814 19.4966 43.6814 19.4845 43.6814C19.3779 43.6814 19.2749 43.6411 19.1975 43.5677C19.1098 43.4856 19.0601 43.3702 19.0601 43.2495V36.7334C19.0601 36.5376 19.1906 36.3663 19.3763 36.3173L21.8768 35.6477C22.004 35.6145 22.1398 35.6424 22.2428 35.7247C22.3459 35.8051 22.4078 35.9309 22.4078 36.0639L22.4079 43.0414ZM22.4079 29.0931C22.4079 29.2643 22.3099 29.42 22.157 29.4881L19.6565 30.614C19.6015 30.6386 19.5431 30.6526 19.4847 30.6526C19.4039 30.6526 19.3232 30.6281 19.2527 30.5826C19.1324 30.5022 19.0602 30.3658 19.0602 30.2206V23.7046C19.0602 23.5559 19.1359 23.4177 19.2596 23.339L21.7601 21.7551C21.8908 21.6712 22.0557 21.6677 22.1897 21.7429C22.3238 21.8199 22.4081 21.9632 22.4081 22.1206L22.4079 29.0931ZM28.6378 58.7469C28.6378 58.8814 28.5759 59.0091 28.471 59.0895C28.3972 59.1471 28.306 59.1787 28.2149 59.1787C28.1771 59.1787 28.1392 59.1734 28.1015 59.163L24.7519 58.2154C24.568 58.1647 24.4409 57.9932 24.4409 57.801V50.2989C24.4409 50.1782 24.4907 50.0611 24.58 49.9789C24.6678 49.8987 24.7863 49.8601 24.9048 49.8705L28.2561 50.2026C28.4726 50.2253 28.6375 50.4089 28.6375 50.631L28.6378 58.7469ZM28.6378 42.5168C28.6378 42.7424 28.4693 42.9278 28.2493 42.9469L24.8999 43.2285C24.8878 43.2285 24.8759 43.2303 24.8638 43.2303C24.7572 43.2303 24.6559 43.1883 24.5768 43.1149C24.4892 43.0328 24.4394 42.9191 24.4394 42.7967V35.2962C24.4394 35.1003 24.5699 34.9291 24.7556 34.8801L28.105 33.9832C28.2322 33.9482 28.368 33.9762 28.471 34.0583C28.5759 34.1404 28.636 34.2663 28.636 34.3993V42.5168H28.6378ZM28.6378 26.287C28.6378 26.4584 28.5398 26.6139 28.3869 26.6822L25.0373 28.191C24.9823 28.2173 24.9239 28.2277 24.8655 28.2277C24.7848 28.2277 24.704 28.2033 24.6352 28.1579C24.515 28.0792 24.4427 27.9428 24.4427 27.7959V20.2954C24.4427 20.1467 24.5184 20.0087 24.6421 19.93L27.9915 17.8057C28.1221 17.7219 28.2871 17.7183 28.4212 17.7934C28.5553 17.8704 28.6395 18.0137 28.6395 18.1711V26.287H28.6378ZM37.3063 61.1964C37.3063 61.3241 37.2581 61.4464 37.1688 61.5338C37.0141 61.6928 36.8062 61.6928 36.734 61.6928C36.734 61.6928 36.734 61.6928 36.7323 61.6928C35.897 61.6928 32.6559 60.5057 32.0164 60.2697C31.8481 60.2084 31.738 60.046 31.738 59.864V51.0242C31.738 50.9037 31.7879 50.7866 31.8755 50.7044C31.9648 50.6223 32.0834 50.5837 32.2021 50.596L36.923 51.0645C37.1395 51.0872 37.3062 51.2725 37.3062 51.4928C37.3063 51.5873 37.3029 60.7819 37.3063 61.1964ZM37.3063 41.7895C37.3063 42.0132 37.1363 42.2005 36.9162 42.2179L32.1952 42.6147C32.1832 42.6147 32.1712 42.6166 32.1608 42.6166C32.0542 42.6166 31.9512 42.5746 31.8738 42.501C31.786 42.4189 31.7363 42.3053 31.7363 42.1827V33.3431C31.7363 33.149 31.8652 32.976 32.0525 32.927L36.7734 31.6647C36.9007 31.6297 37.0347 31.6577 37.1395 31.7399C37.2442 31.822 37.3045 31.948 37.3045 32.0808V41.7894L37.3063 41.7895ZM37.3063 22.3812C37.3063 22.5524 37.2066 22.7063 37.0537 22.7745L32.3328 24.9023C32.2777 24.9286 32.2193 24.939 32.1609 24.939C32.0802 24.939 31.9995 24.9146 31.929 24.8691C31.8086 24.7887 31.7365 24.654 31.7365 24.5072V15.6691C31.7365 15.5188 31.8121 15.3806 31.9358 15.302L36.6569 12.3107C36.7875 12.2268 36.9525 12.2233 37.0866 12.2984C37.2206 12.3754 37.3047 12.5186 37.3047 12.6761V22.3812H37.3063ZM56.0733 17.5435C56.0733 17.3983 56.1456 17.2638 56.2641 17.1834C56.3826 17.1029 56.5338 17.0907 56.6645 17.1467L61.7035 19.3635C61.8582 19.4318 61.9595 19.5874 61.9595 19.7603V27.4164C61.9595 27.5528 61.896 27.6821 61.7876 27.7625C61.7137 27.8185 61.6261 27.8482 61.5367 27.8482C61.4954 27.8482 61.4524 27.8412 61.413 27.8289L56.374 26.2537C56.1953 26.1977 56.075 26.03 56.075 25.8429V17.5435H56.0733ZM56.0733 34.1371C56.0733 34.0095 56.1283 33.8872 56.2245 33.8068C56.3208 33.7246 56.4497 33.6913 56.5717 33.7141L61.6124 34.6477C61.8134 34.6862 61.9595 34.8628 61.9595 35.0708V42.7984C61.9595 42.9172 61.9113 43.0328 61.8237 43.1149C61.7448 43.19 61.6416 43.2303 61.535 43.2303C61.5246 43.2303 61.5144 43.2285 61.5057 43.2285L56.4669 42.8631C56.2452 42.8474 56.0732 42.6603 56.0732 42.4347L56.0733 34.1371ZM42.9553 11.7739C42.9553 11.6288 43.0275 11.4942 43.1461 11.4138C43.2646 11.3351 43.4158 11.3211 43.5466 11.3788L50.7045 14.5275C50.8593 14.5958 50.9605 14.7514 50.9605 14.9245V23.9792C50.9605 24.1157 50.897 24.2451 50.7886 24.3255C50.7148 24.3815 50.6253 24.4112 50.5377 24.4112C50.4965 24.4112 50.4535 24.4042 50.4122 24.3919L43.2544 22.154C43.0756 22.0999 42.9553 21.9319 42.9553 21.7432V11.7739ZM42.9553 41.6707V31.705C42.9553 31.5773 43.0103 31.455 43.1065 31.3746C43.2028 31.2925 43.3299 31.2592 43.4538 31.2819L50.6116 32.6091C50.8127 32.6475 50.9604 32.8259 50.9604 33.0339V42.0885C50.9604 42.2075 50.9122 42.321 50.8264 42.4031C50.7474 42.4783 50.6425 42.5203 50.536 42.5203C50.5273 42.5203 50.5188 42.5203 50.5119 42.5186L43.3541 42.1025C43.1307 42.0868 42.9553 41.8998 42.9553 41.6707ZM56.9205 71.475C56.9205 71.6552 56.8106 71.8124 56.6474 71.8771L47.2793 75.4997C47.2311 75.5188 47.1796 75.5275 47.1299 75.5275C47.0455 75.5275 46.9597 75.5013 46.8892 75.4524C46.7741 75.372 46.707 75.2391 46.707 75.0976V51.3759C46.707 51.1485 46.879 50.9615 47.1022 50.9457L56.4704 50.3005C56.5889 50.2918 56.7023 50.3355 56.7882 50.416C56.8742 50.4963 56.9223 50.61 56.9223 50.7307V71.475H56.9205ZM68.21 67.1074C68.21 67.2875 68.1017 67.4467 67.9367 67.5095L61.6861 69.9275C61.6364 69.9468 61.5865 69.9572 61.535 69.9572C61.4506 69.9572 61.3665 69.9294 61.2943 69.8804C61.1809 69.7999 61.1121 69.6671 61.1121 69.5256V50.3845C61.1121 50.1572 61.2841 49.9702 61.5073 49.9544L67.7579 49.5241C67.8765 49.5154 67.9898 49.5574 68.0759 49.6378C68.1618 49.7183 68.21 49.8337 68.21 49.9525V67.1074ZM70.0162 43.197C70.0162 43.3159 69.968 43.4296 69.8821 43.5117C69.803 43.5869 69.6982 43.6289 69.5917 43.6289C69.583 43.6289 69.5746 43.6289 69.5676 43.6289L65.828 43.4103C65.6046 43.3963 65.4292 43.2092 65.4292 42.9802V35.8715C65.4292 35.7438 65.4859 35.6215 65.5804 35.5393C65.6784 35.4571 65.8056 35.4256 65.9292 35.4466L69.6671 36.1406C69.8683 36.1773 70.016 36.3556 70.016 36.5637L70.0162 43.197ZM70.0162 29.9339C70.0162 30.0704 69.9526 30.1998 69.8442 30.2802C69.7703 30.3362 69.681 30.3659 69.5933 30.3659C69.5521 30.3659 69.509 30.3589 69.4677 30.3449L65.7298 29.177C65.5512 29.121 65.4309 28.9532 65.4309 28.7662V21.6574C65.4309 21.5123 65.5031 21.3777 65.6216 21.2973C65.7401 21.2169 65.8914 21.2046 66.022 21.2623L69.7618 22.9058C69.9165 22.9741 70.0177 23.1295 70.0177 23.3026V29.9341L70.0162 29.9339ZM77.4885 54.9966C77.4885 55.2029 77.3443 55.3813 77.1449 55.4197L74.4278 55.9529C74.4003 55.9582 74.3744 55.9599 74.3487 55.9599C74.2509 55.9599 74.1545 55.9251 74.0789 55.8604C73.981 55.7799 73.926 55.6575 73.926 55.53V49.5034C73.926 49.2762 74.0978 49.0892 74.3212 49.0733L77.0384 48.8862C77.1552 48.8792 77.2703 48.9211 77.3563 49.0016C77.4422 49.0819 77.4903 49.1956 77.4903 49.3163V54.9968L77.4885 54.9966ZM77.4885 43.634C77.4885 43.7511 77.4405 43.8648 77.3546 43.947C77.2755 44.0221 77.1723 44.0639 77.0642 44.0639C77.0555 44.0639 77.0488 44.0639 77.0401 44.0639L74.3229 43.905C74.0995 43.891 73.9243 43.704 73.9243 43.4749V37.4485C73.9243 37.3209 73.9793 37.2002 74.0754 37.1181C74.1717 37.0359 74.2989 37.0027 74.4226 37.0237L77.1381 37.5272C77.3391 37.5639 77.4868 37.744 77.4868 37.952V43.634H77.4885ZM82.0824 54.0946C82.0824 54.3008 81.938 54.4791 81.7386 54.5177L79.5647 54.9442C79.5373 54.9495 79.5115 54.9512 79.4858 54.9512C79.3878 54.9512 79.2915 54.9163 79.216 54.8516C79.118 54.7695 79.0629 54.6488 79.0629 54.5212V49.1468C79.0629 48.9212 79.2365 48.7341 79.4582 48.7184L81.6305 48.568C81.7474 48.5593 81.8625 48.603 81.9486 48.6817C82.0343 48.7638 82.0825 48.8775 82.0825 48.9982L82.0824 54.0946ZM82.0824 43.8998C82.0824 44.0188 82.0342 44.1324 81.9501 44.2145C81.8712 44.2896 81.768 44.3316 81.6597 44.3316C81.651 44.3316 81.6443 44.3316 81.6356 44.3299L79.4633 44.2039C79.2398 44.1916 79.0646 44.0029 79.0646 43.7738V38.4693C79.0646 38.3435 79.1178 38.2228 79.2124 38.1407C79.3052 38.0585 79.4289 38.0235 79.551 38.041L81.7249 38.3749C81.9328 38.4063 82.0842 38.5883 82.0842 38.8016V43.8997L82.0824 43.8998Z" fill="#313846"/>
</g>
<defs>
<filter id="filter0_d_1189_2368" x="0.202173" y="0.739116" width="88.5957" height="82.8271" filterUnits="userSpaceOnUse" color-interpolation-filters="sRGB">
<feFlood flood-opacity="0" result="BackgroundImageFix"/>
<feColorMatrix in="SourceAlpha" type="matrix" values="0 0 0 0 0 0 0 0 0 0 0 0 0 0 0 0 0 0 127 0" result="hardAlpha"/>
<feOffset dy="0.652177"/>
<feGaussianBlur stdDeviation="1.95653"/>
<feComposite in2="hardAlpha" operator="out"/>
<feColorMatrix type="matrix" values="0 0 0 0 0 0 0 0 0 0 0 0 0 0 0 0 0 0 0.25 0"/>
<feBlend mode="normal" in2="BackgroundImageFix" result="effect1_dropShadow_1189_2368"/>
<feBlend mode="normal" in="SourceGraphic" in2="effect1_dropShadow_1189_2368" result="shape"/>
</filter>
</defs>
</svg>
