<svg width="70" height="70" viewBox="0 0 70 70" fill="none" xmlns="http://www.w3.org/2000/svg">
<path d="M37.5039 31.6924H32.5039V43.6923H37.5039V31.6924Z" stroke="#313846" stroke-width="2"/>
<path d="M28.3021 48.3037C27.7327 47.6028 27.4375 46.6891 27.4375 45.7693V41.3848H1.00004V64.6153C1.00004 65.8376 1.39631 66.9784 2.05756 67.7922C2.7142 68.6004 3.55488 68.9999 4.37504 68.9999H65.625C66.4452 68.9999 67.2858 68.6004 67.9425 67.7922C68.6037 66.9784 69 65.8376 69 64.6153V41.3848H42.5625V45.7693C42.5625 46.6891 42.2674 47.6028 41.6979 48.3037C41.1239 49.0102 40.2953 49.4616 39.375 49.4616H30.625C29.7047 49.4616 28.8762 49.0102 28.3021 48.3037Z" stroke="#313846" stroke-width="2"/>
<path d="M23.05 10.7691V11.7691H22.05H11.1156C10.8787 11.771 10.5993 11.8858 10.356 12.1821C10.3556 12.1826 10.3552 12.1831 10.3548 12.1836L1.41299 23.1888C1.41251 23.1894 1.41201 23.19 1.41152 23.1907C1.16508 23.4974 1.00214 23.9466 1 24.4474C1 24.448 0.999992 24.4487 0.999992 24.4494L1 33.9997H27.4375V29.6151C27.4375 28.6953 27.7326 27.7817 28.3021 27.0808C28.8761 26.3743 29.7047 25.9228 30.625 25.9228H39.375C40.2953 25.9228 41.1238 26.3743 41.6979 27.0808C42.2673 27.7817 42.5625 28.6953 42.5625 29.6151V33.9997H69L69 24.4729L69 24.4682C69.0011 24.2197 68.9623 23.9766 68.8885 23.7543C68.8148 23.5324 68.7101 23.3419 68.5879 23.19C68.5876 23.1896 68.5873 23.1892 68.587 23.1888L59.667 12.1836C59.6665 12.183 59.6661 12.1825 59.6656 12.1819C59.543 12.0327 59.4091 11.9283 59.2781 11.8624C59.1478 11.7969 59.0183 11.7682 58.8946 11.7691L58.8946 11.7691H58.8875H48.125H47.125V10.7691V5.51918V5.49132L47.1265 5.4635C47.159 4.88116 47.0959 4.29864 46.9432 3.75229C46.7903 3.2058 46.5529 2.7135 46.2525 2.3016C45.9522 1.8899 45.5986 1.57121 45.2205 1.35251C44.8506 1.13855 44.4613 1.02233 44.0737 1H26.2764C25.4696 1.04658 24.6533 1.48091 24.0261 2.30509C23.3896 3.1416 23.0244 4.28775 23.0498 5.49823L23.05 5.5087V5.51918V10.7691ZM26.25 11.7691H25.25V10.7691V5.38457V4.38457H26.25H43.75H44.75V5.38457V10.7691V11.7691H43.75H26.25Z" stroke="#313846" stroke-width="2"/>
<rect x="31.416" y="30.7871" width="7.09579" height="13.3864" fill="#515BE0" stroke="#313846"/>
</svg>
