<svg width="13" height="13" viewBox="0 0 13 13" fill="none" xmlns="http://www.w3.org/2000/svg">
<path d="M11.8083 11.8078C12.2102 11.4059 12.2102 10.7544 11.8083 10.3525L8.14853 6.69268C8.08122 6.62537 8.08122 6.51624 8.14853 6.44893L11.8083 2.78913C12.228 2.36943 12.228 1.68897 11.8083 1.26927V1.26927C11.3886 0.849572 10.7082 0.849571 10.2885 1.26927L6.62954 4.9282C6.56175 4.99599 6.45184 4.99599 6.38405 4.9282L2.72512 1.26927C2.32324 0.867394 1.67167 0.867393 1.26979 1.26927V1.26927C0.867917 1.67115 0.867917 2.32272 1.26979 2.72459L4.87469 6.32949C4.97233 6.42712 4.97233 6.58542 4.87469 6.68305L1.26979 10.2879C0.850095 10.7076 0.850095 11.3881 1.26979 11.8078V11.8078C1.68949 12.2275 2.36996 12.2275 2.78965 11.8078L6.44946 8.148C6.51677 8.0807 6.6259 8.0807 6.69321 8.148L10.353 11.8078C10.7549 12.2097 11.4065 12.2097 11.8083 11.8078V11.8078Z" fill="#515BE0"/>
</svg>
