<svg width="70" height="80" viewBox="0 0 70 80" fill="none" xmlns="http://www.w3.org/2000/svg">
<path d="M37.4057 28.3333H36.6007L36.4288 29.1197L34.3965 38.4125C34.3965 38.4127 34.3965 38.4129 34.3964 38.413C33.9572 40.4152 32.4319 41.6667 30.8443 41.6667H27.4167H26.6118L26.4398 42.453L23.1118 57.6667H6.4924L12.6436 29.547L12.9091 28.3333H11.6667H2.33333C1.71887 28.3333 1 27.716 1 26.6667V2.66667C1 1.61735 1.71887 1 2.33333 1H49C49.6145 1 50.3333 1.61734 50.3333 2.66667V26.6667C50.3333 27.716 49.6145 28.3333 49 28.3333H37.4057ZM35.9769 29.5472L36.2426 28.3333H35H30.3333H29.5284L29.3564 29.1196L27.0231 39.7863L26.7576 41H28H30.8443C32.4694 41 33.7447 39.7532 34.0848 38.1914L35.9769 29.5472ZM59.6667 13.3333V14.3333H60.6667H68.8333C68.8372 14.3333 68.8423 14.3337 68.8519 14.3384C68.8629 14.3437 68.8826 14.3562 68.9056 14.3825C68.9528 14.4365 69 14.534 69 14.6667C69 14.7993 68.9528 14.8969 68.9056 14.9508C68.8826 14.9771 68.8629 14.9896 68.8519 14.9949C68.8423 14.9996 68.8372 15 68.8333 15H60.6667H59.6667V16V17.0187C59.6667 17.7181 59.3205 18.2836 58.8813 18.5338L58.8799 18.5346L55.5036 20.4652L55 20.7532V21.3333C55 21.7846 54.8671 22.1559 54.6667 22.4327V6.90069C54.8671 7.17742 55 7.54877 55 8V8.58012L55.5036 8.8681L58.8799 10.7988L58.8813 10.7995C59.3205 11.0498 59.6667 11.6152 59.6667 12.3147V13.3333ZM27 64V77.3333C27 78.3827 26.2811 79 25.6667 79H2.33333C1.71887 79 1 78.3827 1 77.3333V64C1 62.9507 1.71887 62.3333 2.33333 62.3333H25.6667C26.2811 62.3333 27 62.9507 27 64ZM8 22.6667C8 21.508 7.15087 20.3333 5.83333 20.3333H3.5C2.18246 20.3333 1.33333 21.508 1.33333 22.6667C1.33333 23.8253 2.18246 25 3.5 25H5.83333C7.15087 25 8 23.8254 8 22.6667ZM8 17.3333C8 16.1747 7.15087 15 5.83333 15H3.5C2.18246 15 1.33333 16.1747 1.33333 17.3333C1.33333 18.492 2.18246 19.6667 3.5 19.6667H5.83333C7.15087 19.6667 8 18.492 8 17.3333ZM8 12C8 10.8413 7.15087 9.66667 5.83333 9.66667H3.5C2.18246 9.66667 1.33333 10.8413 1.33333 12C1.33333 13.1587 2.18246 14.3333 3.5 14.3333H5.83333C7.15087 14.3333 8 13.1587 8 12ZM8 6.66667C8 5.50799 7.15087 4.33333 5.83333 4.33333H3.5C2.18246 4.33333 1.33333 5.50799 1.33333 6.66667C1.33333 7.82535 2.18246 9 3.5 9H5.83333C7.15087 9 8 7.82535 8 6.66667Z" stroke="#313846" stroke-width="2"/>
<path d="M22.2715 52.8562L22.2504 52.8279L26.2263 32.5613L26.2474 32.5896L22.2715 52.8562Z" fill="#515BE0" stroke="#313846"/>
<path d="M19.4083 52.5638L19.3871 52.5354L23.363 32.2688L23.3841 32.2971L19.4083 52.5638Z" fill="#515BE0" stroke="#313846"/>
<rect x="36.5" y="7.5" width="8.25233" height="15.4416" fill="#515BE0" stroke="#313846"/>
</svg>
