<svg width="71" height="71" viewBox="0 0 71 71" fill="none" xmlns="http://www.w3.org/2000/svg">
<path d="M3.7998 64.667H67.9665" stroke="#313846" stroke-width="2" stroke-miterlimit="10" stroke-linecap="round" stroke-linejoin="round"/>
<path d="M58.5757 64.6952V51.6869V64.6952Z" fill="#313846"/>
<path d="M58.5757 64.6952V51.6869" stroke="#313846" stroke-width="2" stroke-miterlimit="10" stroke-linecap="round" stroke-linejoin="round"/>
<path d="M58.632 32.2629C55.0737 32.2629 52.2153 35.1212 52.2153 38.6795V45.3004C52.2153 48.8587 55.0737 51.717 58.632 51.717C62.1903 51.717 65.0487 48.8587 65.0487 45.3004V38.6795C65.0487 35.1212 62.1903 32.2629 58.632 32.2629Z" stroke="#515BE0" stroke-width="3" stroke-miterlimit="10" stroke-linecap="round" stroke-linejoin="round"/>
<path d="M7.00732 64.6661V18.0869C7.00732 12.2244 9.92414 9.27855 15.7283 9.27855H33.899C39.7031 9.27855 42.5906 12.2244 42.5906 18.0869V64.6661" stroke="#313846" stroke-width="2" stroke-miterlimit="10" stroke-linecap="round" stroke-linejoin="round"/>
<path d="M14.4316 24.7742H16.7189" stroke="#515BE0" stroke-width="3" stroke-miterlimit="10" stroke-linecap="round" stroke-linejoin="round"/>
<path d="M14.4316 40.5806H16.7189" stroke="#515BE0" stroke-width="3" stroke-miterlimit="10" stroke-linecap="round" stroke-linejoin="round"/>
<path d="M24.0283 24.7742H26.3156" stroke="#515BE0" stroke-width="3" stroke-miterlimit="10" stroke-linecap="round" stroke-linejoin="round"/>
<path d="M24.0283 40.5806H26.3156" stroke="#515BE0" stroke-width="3" stroke-miterlimit="10" stroke-linecap="round" stroke-linejoin="round"/>
<path d="M33.0605 24.7742H35.3478" stroke="#515BE0" stroke-width="3" stroke-miterlimit="10" stroke-linecap="round" stroke-linejoin="round"/>
<path d="M33.0605 40.5806H35.3478" stroke="#515BE0" stroke-width="3" stroke-miterlimit="10" stroke-linecap="round" stroke-linejoin="round"/>
<path d="M33.0605 18.5645H35.3478" stroke="#515BE0" stroke-width="3" stroke-miterlimit="10" stroke-linecap="round" stroke-linejoin="round"/>
<path d="M14.4316 18.5645H16.7189" stroke="#515BE0" stroke-width="3" stroke-miterlimit="10" stroke-linecap="round" stroke-linejoin="round"/>
<path d="M24.0283 18.5645H26.3156" stroke="#515BE0" stroke-width="3" stroke-miterlimit="10" stroke-linecap="round" stroke-linejoin="round"/>
<path d="M24.0283 34.371H26.3156" stroke="#515BE0" stroke-width="3" stroke-miterlimit="10" stroke-linecap="round" stroke-linejoin="round"/>
<path d="M14.4316 34.371H16.7189" stroke="#515BE0" stroke-width="3" stroke-miterlimit="10" stroke-linecap="round" stroke-linejoin="round"/>
<path d="M33.0605 34.371H35.3478" stroke="#515BE0" stroke-width="3" stroke-miterlimit="10" stroke-linecap="round" stroke-linejoin="round"/>
<path d="M25.0518 58.6469V52.0341V58.6469Z" fill="#515BE0"/>
<path d="M25.0518 58.6469V52.0341" stroke="#515BE0" stroke-width="3" stroke-miterlimit="10" stroke-linecap="round" stroke-linejoin="round"/>
</svg>
