<svg width="83" height="99" viewBox="0 0 83 99" fill="none" xmlns="http://www.w3.org/2000/svg">
<path d="M24.0616 48.5001C19.6601 48.5001 16.0938 44.9024 16.0938 40.4623V8.31218C16.0942 3.87206 19.6606 0.274414 24.0616 0.274414C28.4632 0.274414 32.0295 3.87206 32.0295 8.31218V40.4628C32.0295 44.9024 28.4632 48.5001 24.0616 48.5001Z" fill="#171C26"/>
<g filter="url(#filter0_d_1833_5567)">
<path d="M55.9327 48.5001C51.5312 48.5001 47.9648 44.9024 47.9648 40.4623V8.31218C47.9648 3.87206 51.5312 0.274414 55.9327 0.274414C60.3342 0.274414 63.9006 3.87206 63.9006 8.31218V40.4628C63.9006 44.9024 60.3342 48.5001 55.9327 48.5001Z" fill="#FFB800"/>
</g>
<path d="M55.9344 96.726H24.0633C10.8826 96.726 0.160156 85.9095 0.160156 72.6132V40.4626C0.160156 36.0224 3.72653 32.4248 8.12805 32.4248H71.8697C76.2683 32.4248 79.8376 36.0224 79.8376 40.4626V72.6132C79.8376 85.9095 69.1151 96.726 55.9344 96.726Z" fill="#580925"/>
<g filter="url(#filter1_d_1833_5567)">
<path d="M71.8711 32.4248H40V96.7255H55.9353C69.116 96.7255 79.8385 85.909 79.8385 72.6127V40.4621C79.839 36.0224 76.2697 32.4248 71.8711 32.4248Z" fill="#515BE0"/>
</g>
<ellipse cx="20.6436" cy="52.2129" rx="13.2882" ry="13.2046" fill="#E1FFF9"/>
<ellipse cx="60.7218" cy="52.2129" rx="13.2882" ry="13.2046" fill="#E1FFF9"/>
<ellipse cx="22.3198" cy="46.6886" rx="7.59323" ry="7.54549" fill="#171C26"/>
<ellipse cx="63.1831" cy="47.1114" rx="7.59323" ry="7.54549" fill="#171C26"/>
<path d="M26.7852 75.9805C37.5205 89.5596 43.4993 89.2305 54.2473 75.9805" stroke="#E1FFF9" stroke-width="5.29715"/>
<ellipse cx="22.8822" cy="45.155" rx="4.76894" ry="4.73895" fill="#515BE0"/>
<ellipse cx="63.8392" cy="45.7126" rx="4.76894" ry="4.73895" fill="#515BE0"/>
<defs>
<filter id="filter0_d_1833_5567" x="47.9648" y="0.274414" width="18.4536" height="49.903" filterUnits="userSpaceOnUse" color-interpolation-filters="sRGB">
<feFlood flood-opacity="0" result="BackgroundImageFix"/>
<feColorMatrix in="SourceAlpha" type="matrix" values="0 0 0 0 0 0 0 0 0 0 0 0 0 0 0 0 0 0 127 0" result="hardAlpha"/>
<feOffset dx="1.67742" dy="0.83871"/>
<feGaussianBlur stdDeviation="0.419355"/>
<feComposite in2="hardAlpha" operator="out"/>
<feColorMatrix type="matrix" values="0 0 0 0 1 0 0 0 0 1 0 0 0 0 1 0 0 0 0.1 0"/>
<feBlend mode="normal" in2="BackgroundImageFix" result="effect1_dropShadow_1833_5567"/>
<feBlend mode="normal" in="SourceGraphic" in2="effect1_dropShadow_1833_5567" result="shape"/>
</filter>
<filter id="filter1_d_1833_5567" x="40" y="32.4248" width="42.356" height="65.9782" filterUnits="userSpaceOnUse" color-interpolation-filters="sRGB">
<feFlood flood-opacity="0" result="BackgroundImageFix"/>
<feColorMatrix in="SourceAlpha" type="matrix" values="0 0 0 0 0 0 0 0 0 0 0 0 0 0 0 0 0 0 127 0" result="hardAlpha"/>
<feOffset dx="1.67742" dy="0.83871"/>
<feGaussianBlur stdDeviation="0.419355"/>
<feComposite in2="hardAlpha" operator="out"/>
<feColorMatrix type="matrix" values="0 0 0 0 1 0 0 0 0 1 0 0 0 0 1 0 0 0 0.1 0"/>
<feBlend mode="normal" in2="BackgroundImageFix" result="effect1_dropShadow_1833_5567"/>
<feBlend mode="normal" in="SourceGraphic" in2="effect1_dropShadow_1833_5567" result="shape"/>
</filter>
</defs>
</svg>
