<svg width="73" height="87" viewBox="0 0 73 87" fill="none" xmlns="http://www.w3.org/2000/svg">
<g id="T&#195;&#170;te Preezeo">
<path id="Vector" d="M21.0001 42.4999C17.1332 42.4999 14 39.3294 14 35.4164V7.08345C14.0004 3.1705 17.1336 0 21.0001 0C24.8671 0 28.0003 3.1705 28.0003 7.08345V35.4168C28.0003 39.3294 24.8671 42.4999 21.0001 42.4999Z" fill="#171C26"/>
<g id="Vector_2" filter="url(#filter0_d_2228_1975)">
<path d="M49.0001 42.4999C45.1332 42.4999 42 39.3294 42 35.4164V7.08345C42 3.1705 45.1332 0 49.0001 0C52.867 0 56.0003 3.1705 56.0003 7.08345V35.4168C56.0003 39.3294 52.867 42.4999 49.0001 42.4999Z" fill="#171C26"/>
</g>
<path id="Vector_3" d="M49 85.0002H21C9.42015 85.0002 0 75.468 0 63.7503V35.4169C0 31.504 3.13321 28.3335 7.00013 28.3335H62.9999C66.8643 28.3335 70 31.504 70 35.4169V63.7503C70 75.468 60.5798 85.0002 49 85.0002Z" fill="#580925"/>
<g id="Vector_4" filter="url(#filter1_d_2228_1975)">
<path d="M63.0001 28.3335H35V84.9998H48.9998C60.5796 84.9998 69.9998 75.4676 69.9998 63.7499V35.4165C70.0002 31.504 66.8645 28.3335 63.0001 28.3335Z" fill="#FFB800"/>
</g>
<ellipse id="Ellipse 58" cx="17.9945" cy="45.7716" rx="11.6742" ry="11.6368" fill="#E1FFF9"/>
<ellipse id="Ellipse 59" cx="53.2055" cy="45.7716" rx="11.6742" ry="11.6368" fill="#E1FFF9"/>
<ellipse id="Ellipse 60" cx="19.4679" cy="40.9035" rx="6.67098" ry="6.64962" fill="#171C26"/>
<ellipse id="Ellipse 61" cx="55.3663" cy="41.2761" rx="6.67098" ry="6.64962" fill="#171C26"/>
<path id="Vector 25" d="M23.3906 66.7178C32.8221 78.6846 38.0747 78.3946 47.5173 66.7178" stroke="#E1FFF9" stroke-width="6.31583"/>
<ellipse id="Ellipse 62" cx="19.9632" cy="39.5518" rx="4.18972" ry="4.1763" fill="#515BE0"/>
<ellipse id="Ellipse 63" cx="55.9436" cy="40.0435" rx="4.18971" ry="4.1763" fill="#515BE0"/>
</g>
<defs>
<filter id="filter0_d_2228_1975" x="42" y="0" width="17" height="44.5" filterUnits="userSpaceOnUse" color-interpolation-filters="sRGB">
<feFlood flood-opacity="0" result="BackgroundImageFix"/>
<feColorMatrix in="SourceAlpha" type="matrix" values="0 0 0 0 0 0 0 0 0 0 0 0 0 0 0 0 0 0 127 0" result="hardAlpha"/>
<feOffset dx="2" dy="1"/>
<feGaussianBlur stdDeviation="0.5"/>
<feComposite in2="hardAlpha" operator="out"/>
<feColorMatrix type="matrix" values="0 0 0 0 1 0 0 0 0 1 0 0 0 0 1 0 0 0 0.1 0"/>
<feBlend mode="normal" in2="BackgroundImageFix" result="effect1_dropShadow_2228_1975"/>
<feBlend mode="normal" in="SourceGraphic" in2="effect1_dropShadow_2228_1975" result="shape"/>
</filter>
<filter id="filter1_d_2228_1975" x="35" y="28.3335" width="38" height="58.6665" filterUnits="userSpaceOnUse" color-interpolation-filters="sRGB">
<feFlood flood-opacity="0" result="BackgroundImageFix"/>
<feColorMatrix in="SourceAlpha" type="matrix" values="0 0 0 0 0 0 0 0 0 0 0 0 0 0 0 0 0 0 127 0" result="hardAlpha"/>
<feOffset dx="2" dy="1"/>
<feGaussianBlur stdDeviation="0.5"/>
<feComposite in2="hardAlpha" operator="out"/>
<feColorMatrix type="matrix" values="0 0 0 0 1 0 0 0 0 1 0 0 0 0 1 0 0 0 0.1 0"/>
<feBlend mode="normal" in2="BackgroundImageFix" result="effect1_dropShadow_2228_1975"/>
<feBlend mode="normal" in="SourceGraphic" in2="effect1_dropShadow_2228_1975" result="shape"/>
</filter>
</defs>
</svg>
