<svg width="75" height="75" viewBox="0 0 75 75" fill="none" xmlns="http://www.w3.org/2000/svg">
<path d="M25 37.5H28.125M50 37.5H37.5" stroke="#FFB800" stroke-width="4" stroke-linecap="round"/>
<path d="M50 25H46.875M37.5 25H25" stroke="#FFB800" stroke-width="4" stroke-linecap="round"/>
<path d="M25 50H40.625" stroke="#515BE0" stroke-width="4" stroke-linecap="round"/>
<path d="M9.375 43.75V31.25C9.375 19.4649 9.375 13.5723 13.0362 9.91116C16.6973 6.25 22.5899 6.25 34.375 6.25H40.625C52.41 6.25 58.3028 6.25 61.9637 9.91116C64.005 11.9524 64.9081 14.6872 65.3078 18.75M65.625 31.25V43.75C65.625 55.535 65.625 61.4278 61.9637 65.0887C58.3028 68.75 52.41 68.75 40.625 68.75H34.375C22.5899 68.75 16.6973 68.75 13.0362 65.0887C10.995 63.0475 10.0918 60.3128 9.69216 56.25" stroke="#313846" stroke-width="4" stroke-linecap="round"/>
</svg>
