<svg width="39" height="31" viewBox="0 0 39 31" fill="none" xmlns="http://www.w3.org/2000/svg">
<path fill-rule="evenodd" clip-rule="evenodd" d="M8.03924 8.2207e-07H30.9608C31.7941 -1.81779e-05 32.5133 -3.73537e-05 33.1086 0.0405656C33.7352 0.0833346 34.362 0.177385 34.9814 0.433885C36.3779 1.0124 37.4877 2.12205 38.066 3.51871C38.3225 4.13797 38.4166 4.7648 38.4595 5.39148C38.5 5.98667 38.5 6.70578 38.5 7.53922V22.8608C38.5 23.6941 38.5 24.4133 38.4595 25.0086C38.4166 25.6352 38.3225 26.262 38.066 26.8814C37.4877 28.2779 36.3779 29.3877 34.9814 29.966C34.362 30.2225 33.7352 30.3166 33.1086 30.3595C32.5133 30.4 31.7941 30.4 30.9608 30.4H8.03922C7.20579 30.4 6.48667 30.4 5.89148 30.3595C5.2648 30.3166 4.63797 30.2225 4.01871 29.966C2.62205 29.3877 1.5124 28.2779 0.933885 26.8814C0.677385 26.262 0.583335 25.6352 0.540566 25.0086C0.499963 24.4133 0.499982 23.6941 0.500001 22.8608V7.53924C0.499982 6.7058 0.499963 5.98667 0.540566 5.39148C0.583335 4.7648 0.677385 4.13797 0.933885 3.51871C1.5124 2.12205 2.62205 1.0124 4.01871 0.433885C4.63797 0.177385 5.2648 0.0833346 5.89148 0.0405656C6.48667 -3.73537e-05 7.2058 -1.81779e-05 8.03924 8.2207e-07ZM4.90316 4.32776C5.59417 3.53807 6.79451 3.45804 7.58423 4.14903L18.2489 13.4805C18.9652 14.1073 20.0349 14.1073 20.7512 13.4805L31.4159 4.14903C32.2055 3.45804 33.4059 3.53807 34.0968 4.32776C34.7878 5.11748 34.7078 6.31782 33.9182 7.00882L23.2535 16.3404C21.1044 18.2208 17.8956 18.2208 15.7466 16.3404L5.08191 7.00882C4.29219 6.31782 4.21216 5.11748 4.90316 4.32776Z" fill="#515BE0"/>
</svg>
