<svg width="36" height="49" viewBox="0 0 36 49" fill="none" xmlns="http://www.w3.org/2000/svg">
<path d="M16.9575 31.2574C16.9116 31.2256 11.6019 22.2991 11.5843 22.1844C10.4863 19.7855 9.60021 17.3319 11.4466 16.2428L3.78395 3.32171C1.79813 4.80623 -3.81866 12.8625 6.69473 31.1197C17.7695 50.3601 28.3093 49.5605 30.4222 48.2578L22.9555 35.6456C21.1904 36.6836 19.7041 34.9731 16.9575 31.2574ZM35.5465 43.3612L35.5483 43.3506C35.5483 43.3506 29.7179 33.5257 29.7144 33.5221C29.2519 32.7437 28.2581 32.4983 27.4832 32.9502L23.9105 35.0631L31.3984 47.7124C31.3984 47.7124 34.9711 45.6101 34.9693 45.603H34.9764C35.7972 45.1158 35.9861 44.1097 35.5465 43.3612ZM15.9954 13.5633V13.5562C16.8163 13.0708 17.0087 12.0646 16.5691 11.3233L16.5727 11.3127C16.5727 11.3127 10.5746 1.19997 10.5711 1.1982C10.1103 0.41623 9.11302 0.174401 8.34164 0.626286L4.76892 2.7392L12.4227 15.6674C12.4227 15.6674 15.9937 13.5686 15.9954 13.5633Z" fill="#515BE0"/>
</svg>
