<svg width="62" height="62" viewBox="0 0 62 62" fill="none" xmlns="http://www.w3.org/2000/svg">
<g filter="url(#filter0_d_2167_2656)">
<path d="M10.7619 5V9.34783H6V55H19.0952V45.2174H23.8571V55H36.9524V9.34783H32.1905V5H10.7619ZM13.1429 13.6957H15.5238V15.8696H13.1429V13.6957ZM17.9048 13.6957H20.2857V15.8696H17.9048V13.6957ZM22.6667 13.6957H25.0476V15.8696H22.6667V13.6957ZM27.4286 13.6957H29.8095V15.8696H27.4286V13.6957ZM39.3333 18.0435V22.3913H41.7143V24.5652H39.3333V26.7391H41.7143V28.913H39.3333V31.087H41.7143V33.2609H39.3333V35.4348H41.7143V37.6087H39.3333V39.7826H41.7143V41.9565H39.3333V44.1304H41.7143V46.3044H39.3333V48.4783H41.7143V50.6522H39.3333V55H56V18.0435H39.3333ZM13.1429 19.1304H15.5238V23.4783H13.1429V19.1304ZM17.9048 19.1304H20.2857V23.4783H17.9048V19.1304ZM22.6667 19.1304H25.0476V23.4783H22.6667V19.1304ZM27.4286 19.1304H29.8095V23.4783H27.4286V19.1304ZM44.0952 22.3913H46.4762V24.5652H44.0952V22.3913ZM48.8571 22.3913H51.2381V24.5652H48.8571V22.3913ZM13.1429 25.6522H15.5238V30H13.1429V25.6522ZM17.9048 25.6522H20.2857V30H17.9048V25.6522ZM22.6667 25.6522H25.0476V30H22.6667V25.6522ZM27.4286 25.6522H29.8095V30H27.4286V25.6522ZM44.0952 26.7391H46.4762V28.913H44.0952V26.7391ZM48.8571 26.7391H51.2381V28.913H48.8571V26.7391ZM44.0952 31.087H46.4762V33.2609H44.0952V31.087ZM48.8571 31.087H51.2381V33.2609H48.8571V31.087ZM13.1429 32.1739H15.5238V36.5217H13.1429V32.1739ZM17.9048 32.1739H20.2857V36.5217H17.9048V32.1739ZM22.6667 32.1739H25.0476V36.5217H22.6667V32.1739ZM27.4286 32.1739H29.8095V36.5217H27.4286V32.1739ZM44.0952 35.4348H46.4762V37.6087H44.0952V35.4348ZM48.8571 35.4348H51.2381V37.6087H48.8571V35.4348ZM13.1429 38.6957H15.5238V43.0435H13.1429V38.6957ZM17.9048 38.6957H20.2857V43.0435H17.9048V38.6957ZM22.6667 38.6957H25.0476V43.0435H22.6667V38.6957ZM27.4286 38.6957H29.8095V43.0435H27.4286V38.6957ZM44.0952 39.7826H46.4762V41.9565H44.0952V39.7826ZM48.8571 39.7826H51.2381V41.9565H48.8571V39.7826ZM44.0952 44.1304H46.4762V46.3044H44.0952V44.1304ZM48.8571 44.1304H51.2381V46.3044H48.8571V44.1304ZM13.1429 45.2174H15.5238V50.6522H13.1429V45.2174ZM27.4286 45.2174H29.8095V50.6522H27.4286V45.2174ZM44.0952 48.4783H46.4762V50.6522H44.0952V48.4783ZM48.8571 48.4783H51.2381V50.6522H48.8571V48.4783Z" fill="#515BE0"/>
</g>
<defs>
<filter id="filter0_d_2167_2656" x="0" y="0" width="62" height="62" filterUnits="userSpaceOnUse" color-interpolation-filters="sRGB">
<feFlood flood-opacity="0" result="BackgroundImageFix"/>
<feColorMatrix in="SourceAlpha" type="matrix" values="0 0 0 0 0 0 0 0 0 0 0 0 0 0 0 0 0 0 127 0" result="hardAlpha"/>
<feOffset dy="1"/>
<feGaussianBlur stdDeviation="3"/>
<feComposite in2="hardAlpha" operator="out"/>
<feColorMatrix type="matrix" values="0 0 0 0 0 0 0 0 0 0 0 0 0 0 0 0 0 0 0.25 0"/>
<feBlend mode="normal" in2="BackgroundImageFix" result="effect1_dropShadow_2167_2656"/>
<feBlend mode="normal" in="SourceGraphic" in2="effect1_dropShadow_2167_2656" result="shape"/>
</filter>
</defs>
</svg>
