<svg width="70" height="73" viewBox="0 0 70 73" fill="none" xmlns="http://www.w3.org/2000/svg">
<mask id="path-1-inside-1_2269_3270" fill="white">
<path d="M25.6659 54.2858V51.9786C25.6659 50.5762 24.9892 49.2417 23.8225 48.4048C19.2724 45.1023 16.3324 39.8546 16.3324 33.9284C16.3324 23.252 25.8759 14.7471 37.1227 15.9459C45.3362 16.8281 52.1496 23.1163 53.433 31.0331C54.5763 38.113 51.4496 44.5821 46.1762 48.4048C45.0095 49.2417 44.3328 50.5762 44.3328 52.0013V54.3084"/>
</mask>
<path d="M23.8225 48.4048L22.6567 50.0299L22.6477 50.0234L23.8225 48.4048ZM37.1227 15.9459L37.3347 13.9572L37.3363 13.9574L37.1227 15.9459ZM53.433 31.0331L55.4072 30.713L55.4074 30.7142L53.433 31.0331ZM46.1762 48.4048L47.35 50.0241L47.342 50.0299L46.1762 48.4048ZM23.6659 54.2858V51.9786H27.6659V54.2858H23.6659ZM23.6659 51.9786C23.6659 51.2209 23.2999 50.4913 22.6567 50.0299L24.9883 46.7797C26.6785 47.9921 27.6659 49.9316 27.6659 51.9786H23.6659ZM22.6477 50.0234C17.616 46.3713 14.3324 40.5393 14.3324 33.9284H18.3324C18.3324 39.17 20.9289 43.8333 24.9973 46.7862L22.6477 50.0234ZM14.3324 33.9284C14.3324 22.0061 24.964 12.6386 37.3347 13.9572L36.9107 17.9347C26.7878 16.8556 18.3324 24.4979 18.3324 33.9284H14.3324ZM37.3363 13.9574C46.4037 14.9312 53.9731 21.8663 55.4072 30.713L51.4588 31.3531C50.3262 24.3663 44.2687 18.7249 36.9091 17.9345L37.3363 13.9574ZM55.4074 30.7142C56.6805 38.5974 53.1858 45.7938 47.35 50.0241L45.0024 46.7855C49.7135 43.3704 52.4722 37.6285 51.4586 31.3519L55.4074 30.7142ZM47.342 50.0299C46.7033 50.488 46.3328 51.2153 46.3328 52.0013H42.3328C42.3328 49.9372 43.3157 47.9954 45.0104 46.7797L47.342 50.0299ZM46.3328 52.0013V54.3084H42.3328V52.0013H46.3328Z" fill="#515BE0" mask="url(#path-1-inside-1_2269_3270)"/>
<path d="M32.6653 36.1914H37.332V54.2869H32.6653V36.1914Z" fill="#515BE0"/>
<path d="M25.6637 54.2871H44.3307C45.6194 54.2871 46.6641 55.2998 46.6641 56.549V61.0729C46.6641 62.3222 45.6194 63.3349 44.3307 63.3349H25.6637C24.375 63.3349 23.3303 62.3222 23.3303 61.0729V56.549C23.3303 55.2998 24.375 54.2871 25.6637 54.2871Z" fill="#515BE0"/>
<path d="M25.669 63.334C25.669 68.3329 29.8457 72.3817 35.0025 72.3817C40.1592 72.3817 44.3359 68.3329 44.3359 63.334" fill="#313846"/>
<path d="M35.0012 38.453C32.4239 38.453 30.3345 36.4276 30.3345 33.9292C30.3345 31.4307 32.4239 29.4053 35.0012 29.4053C37.5786 29.4053 39.668 31.4307 39.668 33.9292C39.668 36.4276 37.5786 38.453 35.0012 38.453Z" fill="#FFB800"/>
<path d="M32.6653 0H37.332V9.04776H32.6653V0Z" fill="#FFB800"/>
<path d="M58.0986 8.33629L61.3984 11.5352L54.7987 17.9329L51.4988 14.734L58.0986 8.33629Z" fill="#FFB800"/>
<path d="M60.6665 31.668H70V36.1919H60.6665V31.668Z" fill="#FFB800"/>
<path d="M-0.0014534 31.668H9.33203V36.1918H-0.0014534V31.668Z" fill="#FFB800"/>
<path d="M11.8963 8.3425L18.4961 14.7402L15.1962 17.9391L8.59644 11.5414L11.8963 8.3425Z" fill="#FFB800"/>
</svg>
