<svg width="52" height="55" viewBox="0 0 52 55" fill="none" xmlns="http://www.w3.org/2000/svg">
<mask id="path-1-inside-1_2166_2651" fill="white">
<path d="M19.0661 40.8562V39.1198C19.0661 38.0643 18.5635 37.0599 17.6968 36.43C14.3168 33.9446 12.1329 29.9951 12.1329 25.5349C12.1329 17.4997 19.2221 11.0987 27.5767 12.001C33.678 12.6649 38.7393 17.3975 39.6926 23.3558C40.542 28.6843 38.2193 33.553 34.302 36.43C33.4354 37.0599 32.9327 38.0643 32.9327 39.1368V40.8732"/>
</mask>
<path d="M17.6968 36.43L16.521 38.0479L16.512 38.0413L17.6968 36.43ZM27.5767 12.001L27.7915 10.0126L27.7931 10.0127L27.5767 12.001ZM39.6926 23.3558L41.6675 23.0398L41.6677 23.041L39.6926 23.3558ZM34.302 36.43L35.4859 38.042L35.4778 38.0479L34.302 36.43ZM17.0661 40.8562V39.1198H21.0661V40.8562H17.0661ZM17.0661 39.1198C17.0661 38.698 16.8647 38.2977 16.521 38.0479L18.8727 34.8122C20.2622 35.8221 21.0661 37.4306 21.0661 39.1198H17.0661ZM16.512 38.0413C12.6504 35.2017 10.1329 30.6686 10.1329 25.5349H14.1329C14.1329 29.3215 15.9833 32.6875 18.8817 34.8188L16.512 38.0413ZM10.1329 25.5349C10.1329 16.281 18.2833 8.98573 27.7915 10.0126L27.362 13.9894C20.1609 13.2118 14.1329 18.7183 14.1329 25.5349H10.1329ZM27.7931 10.0127C34.7649 10.7714 40.5678 16.1664 41.6675 23.0398L37.7178 23.6718C36.9108 18.6286 32.5912 14.5585 27.3604 13.9893L27.7931 10.0127ZM41.6677 23.041C42.6429 29.159 39.9652 34.7522 35.4859 38.042L33.1181 34.8181C36.4734 32.3538 38.441 28.2095 37.7176 23.6706L41.6677 23.041ZM35.4778 38.0479C35.1386 38.2945 34.9327 38.6925 34.9327 39.1368H30.9327C30.9327 37.4362 31.7321 35.8254 33.1262 34.8122L35.4778 38.0479ZM34.9327 39.1368V40.8732H30.9327V39.1368H34.9327Z" fill="#515BE0" mask="url(#path-1-inside-1_2166_2651)"/>
<path d="M24.2638 27.2383H27.7305V40.8573H24.2638V27.2383Z" fill="#515BE0"/>
<path d="M19.0642 40.8574H32.9307C33.888 40.8574 34.6641 41.6196 34.6641 42.5598V45.9645C34.6641 46.9047 33.888 47.6669 32.9307 47.6669H19.0642C18.1069 47.6669 17.3309 46.9047 17.3309 45.9645V42.5598C17.3309 41.6196 18.1069 40.8574 19.0642 40.8574Z" fill="#515BE0"/>
<path d="M19.067 47.666C19.067 51.4283 22.1697 54.4755 26.0003 54.4755C29.831 54.4755 32.9336 51.4283 32.9336 47.666" fill="#515BE0"/>
<path d="M25.9982 28.9403C24.0836 28.9403 22.5316 27.416 22.5316 25.5356C22.5316 23.6552 24.0836 22.1309 25.9982 22.1309C27.9128 22.1309 29.4648 23.6552 29.4648 25.5356C29.4648 27.416 27.9128 28.9403 25.9982 28.9403Z" fill="#515BE0"/>
<path d="M24.2638 0H27.7305V6.80949H24.2638V0Z" fill="#515BE0"/>
<path d="M43.1561 6.27412L45.6074 8.68164L40.7049 13.4967L38.2536 11.0892L43.1561 6.27412Z" fill="#515BE0"/>
<path d="M45.0648 23.834H51.998V27.2387H45.0648V23.834Z" fill="#515BE0"/>
<path d="M0.000319481 23.834H6.93359V27.2387H0.000319481V23.834Z" fill="#515BE0"/>
<path d="M8.83572 6.27871L13.7383 11.0938L11.287 13.5013L6.38443 8.68623L8.83572 6.27871Z" fill="#515BE0"/>
</svg>
