<svg width="50" height="50" viewBox="0 0 50 50" fill="none" xmlns="http://www.w3.org/2000/svg">
<path d="M33.7458 8.86646L33.7591 8.8804L33.7727 8.89399L41.1893 16.3107L41.2029 16.3243L41.2169 16.3375C42.261 17.3295 42.261 19.0039 41.2169 19.9958L41.2041 20.008L41.1916 20.0204L24.4167 36.723V14.4547L29.9773 8.89399L29.9909 8.8804L30.0042 8.86646C30.9961 7.82229 32.7539 7.82229 33.7458 8.86646ZM48.5 35.4167V45.8333C48.5 47.3382 47.3382 48.5 45.8333 48.5H23.4547L39.2047 32.75H45.8333C47.3188 32.75 48.5 33.9755 48.5 35.4167ZM1.5 40.6667V4.16667C1.5 2.66176 2.66176 1.5 4.16667 1.5H14.5833C16.0882 1.5 17.25 2.66176 17.25 4.16667V40.6667C17.25 45.0049 13.7549 48.5 9.41667 48.5C5.06102 48.5 1.5 44.9876 1.5 40.6667ZM9.33333 46.3333C12.4951 46.3333 15 43.8284 15 40.6667C15 37.5049 12.4951 35 9.33333 35C6.17157 35 3.66667 37.5049 3.66667 40.6667C3.66667 43.8479 6.27448 46.3333 9.33333 46.3333Z" stroke="#515BE0" stroke-width="3"/>
</svg>
