<svg width="14" height="14" viewBox="0 0 14 14" fill="none" xmlns="http://www.w3.org/2000/svg">
<path d="M5.72727 1.27273C5.72727 0.56982 6.29709 0 7 0C7.70291 0 8.27273 0.56982 8.27273 1.27273V12.7273C8.27273 13.4302 7.70291 14 7 14C6.29709 14 5.72727 13.4302 5.72727 12.7273V1.27273Z" fill="#515BE0"/>
<path d="M12.7273 5.72727C13.4302 5.72727 14 6.29709 14 7C14 7.70291 13.4302 8.27273 12.7273 8.27273H1.27273C0.56982 8.27273 2.4907e-08 7.70291 5.56313e-08 7C8.63556e-08 6.29709 0.56982 5.72727 1.27273 5.72727L12.7273 5.72727Z" fill="#515BE0"/>
</svg>
