<svg width="62" height="70" viewBox="0 0 62 70" fill="none" xmlns="http://www.w3.org/2000/svg">
<path d="M32.3279 24.6667H33.1307H43.4C43.8779 24.6667 44.4667 24.1866 44.4667 23.3333V2.33333C44.4667 1.48009 43.8779 1 43.4 1H2.06667C1.58877 1 1 1.48009 1 2.33333V23.3333C1 24.1866 1.58877 24.6667 2.06667 24.6667H10.3333H11.579L11.3097 25.8829L5.89565 50.3333H20.3805L23.307 37.1171L23.4805 36.3333H24.2833H27.3193C28.6707 36.3333 29.9772 35.2803 30.3543 33.5822L32.3279 24.6667ZM32.3279 24.6667L32.1544 25.4505L30.3544 33.5817L32.3279 24.6667ZM31.9763 25.883L32.2458 24.6667H31H26.8667H26.0639L25.8903 25.4505L23.8237 34.7838L23.5544 36H24.8H27.3193C28.813 36 29.9871 34.8673 30.3004 33.4472C30.3004 33.447 30.3005 33.4468 30.3005 33.4466L31.9763 25.883ZM52.7333 11.6667V12.6667H53.7333H60.9441C60.9454 12.668 60.947 12.6697 60.9486 12.6715C60.9701 12.6958 61 12.7502 61 12.8333C61 12.9165 60.9701 12.9709 60.9486 12.9951C60.947 12.997 60.9454 12.9986 60.9441 13H53.7333H52.7333V14V14.8913C52.7333 15.4586 52.4492 15.9093 52.1 16.1059L52.0986 16.1067L49.1082 17.796L48.6 18.083V18.6667C48.6 18.8395 48.5758 18.997 48.5333 19.1384V6.52829C48.5758 6.66962 48.6 6.82715 48.6 7V7.58362L49.1082 7.87068L52.0986 9.56001L52.1 9.56078C52.4492 9.75734 52.7333 10.2081 52.7333 10.7753V11.6667ZM23.8 56V67.6667C23.8 68.5199 23.2112 69 22.7333 69H2.06667C1.58877 69 1 68.5199 1 67.6667V56C1 55.1468 1.58877 54.6667 2.06667 54.6667H22.7333C23.2112 54.6667 23.8 55.1468 23.8 56ZM7.2 19.8333C7.2 18.7546 6.39997 17.6667 5.16667 17.6667H3.1C1.8667 17.6667 1.06667 18.7546 1.06667 19.8333C1.06667 20.9121 1.8667 22 3.1 22H5.16667C6.39997 22 7.2 20.9121 7.2 19.8333ZM7.2 15.1667C7.2 14.0879 6.39997 13 5.16667 13H3.1C1.8667 13 1.06667 14.0879 1.06667 15.1667C1.06667 16.2454 1.8667 17.3333 3.1 17.3333H5.16667C6.39997 17.3333 7.2 16.2454 7.2 15.1667ZM7.2 10.5C7.2 9.42124 6.39997 8.33333 5.16667 8.33333H3.1C1.8667 8.33333 1.06667 9.42124 1.06667 10.5C1.06667 11.5788 1.8667 12.6667 3.1 12.6667H5.16667C6.39997 12.6667 7.2 11.5788 7.2 10.5ZM7.2 5.83333C7.2 4.75457 6.39997 3.66667 5.16667 3.66667H3.1C1.8667 3.66667 1.06667 4.75457 1.06667 5.83333C1.06667 6.91209 1.8667 8 3.1 8H5.16667C6.39997 8 7.2 6.91209 7.2 5.83333Z" stroke="#313846" stroke-width="2"/>
<mask id="path-2-inside-1_997_11820" fill="white">
<path d="M19.2336 46.3379L22.9883 27.4303L23.7212 28.4021L19.9665 47.3099L19.2336 46.3379Z"/>
</mask>
<path d="M19.2336 46.3379L22.9883 27.4303L23.7212 28.4021L19.9665 47.3099L19.2336 46.3379Z" fill="#515BE0"/>
<path d="M19.2336 46.3379L18.2473 46.1731L18.162 46.6027L18.4216 46.947L19.2336 46.3379ZM22.9883 27.4303L23.8002 26.8211L22.4466 25.0263L22.0019 27.2655L22.9883 27.4303ZM23.7212 28.4021L24.7075 28.5669L24.7928 28.1373L24.5331 27.7929L23.7212 28.4021ZM19.9665 47.3099L19.1545 47.919L20.5081 49.7142L20.9528 47.4747L19.9665 47.3099ZM20.2199 46.5027L23.9746 27.5951L22.0019 27.2655L18.2473 46.1731L20.2199 46.5027ZM22.1763 28.0395L22.9093 29.0113L24.5331 27.7929L23.8002 26.8211L22.1763 28.0395ZM22.7349 28.2373L18.9802 47.1451L20.9528 47.4747L24.7075 28.5669L22.7349 28.2373ZM20.7785 46.7008L20.0456 45.7288L18.4216 46.947L19.1545 47.919L20.7785 46.7008Z" fill="#313846" mask="url(#path-2-inside-1_997_11820)"/>
<mask id="path-4-inside-2_997_11820" fill="white">
<path d="M16.6965 46.0821L20.4512 27.1745L21.1841 28.1463L17.4294 47.054L16.6965 46.0821Z"/>
</mask>
<path d="M16.6965 46.0821L20.4512 27.1745L21.1841 28.1463L17.4294 47.054L16.6965 46.0821Z" fill="#515BE0"/>
<path d="M16.6965 46.0821L15.7102 45.9172L15.6249 46.3468L15.8845 46.6912L16.6965 46.0821ZM20.4512 27.1745L21.2631 26.5652L19.9095 24.7705L19.4648 27.0096L20.4512 27.1745ZM21.1841 28.1463L22.1704 28.3111L22.2557 27.8814L21.996 27.5371L21.1841 28.1463ZM17.4294 47.054L16.6174 47.6632L17.971 49.4584L18.4157 47.2189L17.4294 47.054ZM17.6828 46.2469L21.4375 27.3393L19.4648 27.0096L15.7102 45.9172L17.6828 46.2469ZM19.6392 27.7837L20.3722 28.7555L21.996 27.5371L21.2631 26.5652L19.6392 27.7837ZM20.1978 27.9815L16.4431 46.8892L18.4157 47.2189L22.1704 28.3111L20.1978 27.9815ZM18.2414 46.4449L17.5085 45.4729L15.8845 46.6912L16.6174 47.6632L18.2414 46.4449Z" fill="#313846" mask="url(#path-4-inside-2_997_11820)"/>
<rect x="32.3848" y="6.625" width="7.19492" height="13.3864" fill="#515BE0" stroke="#313846"/>
</svg>
