<svg width="71" height="71" viewBox="0 0 71 71" fill="none" xmlns="http://www.w3.org/2000/svg">
<path d="M62.2391 35.3423C62.2391 35.3301 62.2391 35.3301 62.2391 35.3423C62.2148 34.7477 62.1663 34.1652 62.0813 33.5707C61.9721 32.9033 61.7901 32.248 61.6323 31.6049C61.3532 31.1438 60.965 31.1317 60.6616 31.2045C60.6373 31.2166 60.6131 31.2166 60.5888 31.2287C60.431 31.2773 60.2733 31.2409 60.1519 31.1195L52.8713 23.8511C52.7985 23.7782 52.75 23.669 52.75 23.5598L52.5316 16.2671V16.2064L52.4466 16.0365C52.4102 15.9637 51.5244 14.1678 49.8135 13.9616C48.6243 13.8159 47.4473 14.4591 46.2945 15.8545L46.0882 16.1093V16.2792C46.0882 16.4612 45.9912 16.6068 45.8213 16.6675C45.6635 16.7403 45.4815 16.7039 45.3602 16.5826L37.8369 9.10782C37.667 8.90154 37.1088 8.30696 36.1624 8.18561C35.2401 8.06427 34.2694 8.41617 33.2865 9.2413C31.1509 11.0129 12.1242 30.2944 9.9643 32.4786L9.91576 32.5392L9.83082 32.6727C9.68521 32.9275 8.45964 35.1603 9.51533 36.762C10.1949 37.8055 11.5782 38.2181 13.641 37.9997L13.9565 37.9633L35.41 16.4976C35.5799 16.3278 35.8469 16.3278 36.0046 16.4976L57.6765 37.9997L57.9678 38.0482C58.0284 38.0604 58.3197 38.0968 58.7322 38.0968C59.6666 38.0968 60.9528 37.9026 61.7658 36.9925C61.9842 36.7499 62.142 36.4708 62.2633 36.1674C62.2512 35.8762 62.2512 35.6092 62.2391 35.3423ZM13.2406 36.1067C13.1678 36.1795 13.0707 36.2281 12.9736 36.2281C11.9422 36.2888 11.2505 36.1189 11.02 35.7548C10.7409 35.3301 10.9715 34.3837 11.3233 33.692C11.3355 33.6556 11.3598 33.6313 11.3962 33.5949C12.2577 32.7213 32.3886 12.3113 34.4514 10.6003C35.0096 10.1392 35.5314 9.90869 35.9318 9.94509C36.2594 9.9815 36.4414 10.1999 36.4536 10.212L46.161 19.871C46.4523 20.1622 46.8648 20.2472 47.241 20.1015L47.3017 20.1622V20.0894C47.6778 19.9195 47.8963 19.5676 47.8963 19.1551V16.9223C47.8963 16.8131 47.9327 16.7039 48.0176 16.6311C48.4302 16.1943 49.049 15.6846 49.6072 15.7453C50.1047 15.806 50.493 16.2792 50.6872 16.5583C50.7357 16.619 50.76 16.7039 50.76 16.7889L50.9784 24.0816C50.9905 24.3486 51.0876 24.5912 51.2817 24.7733L60.5038 33.9954L60.5403 34.1288C60.7465 34.8933 60.7101 35.4515 60.431 35.767C60.0185 36.2402 59.0841 36.2766 58.6958 36.2766C58.5866 36.2766 58.4774 36.2281 58.3925 36.1553L36.4293 14.362C36.3347 14.2668 36.2222 14.1913 36.0983 14.1398C35.9744 14.0882 35.8415 14.0617 35.7073 14.0617C35.5731 14.0617 35.4402 14.0882 35.3163 14.1398C35.1924 14.1913 35.0799 14.2668 34.9853 14.362L13.2406 36.1067Z" fill="#515BE0"/>
<path d="M57.5045 40.0746L57.4924 39.7105L36.415 18.524C36.0631 18.1721 35.4928 18.1721 35.1409 18.524L14.1849 39.298C14.015 39.4678 13.918 39.6984 13.918 39.9411V57.9727L13.9301 58.0941C13.9422 58.179 14.3063 60.254 17.6432 60.351C18.4319 60.3753 20.7617 60.3875 24.5719 60.3875C31.0517 60.3875 39.6306 60.351 39.7156 60.351C40.2131 60.351 40.6135 59.9506 40.6135 59.4531V41.2152C40.6135 41.0453 40.747 40.9118 40.9169 40.9118H48.2703C48.4402 40.9118 48.5737 41.0453 48.5737 41.2152V59.4774C48.5737 59.9749 48.9741 60.3753 49.4716 60.3753H54.6651L54.7864 60.3632C54.8835 60.351 57.0798 59.9749 57.4803 57.6451C57.7958 55.8613 57.5167 40.7177 57.5045 40.0746ZM50.3817 58.2761V40.0139C50.3817 39.5164 49.9812 39.1159 49.4837 39.1159H39.7277C39.2302 39.1159 38.8298 39.5164 38.8298 40.0139V58.2518C38.8298 58.4096 38.6963 58.543 38.5386 58.543C34.2066 58.5552 19.9123 58.6037 17.7039 58.543C16.3812 58.5066 15.9201 58.0819 15.7867 57.8999C15.7503 57.8514 15.726 57.7907 15.726 57.7179V40.4386C15.726 40.3537 15.7624 40.2808 15.8109 40.2202L35.5656 20.6353C35.687 20.514 35.869 20.514 35.9903 20.6353L55.6237 40.3779C55.6844 40.4386 55.7086 40.5114 55.7086 40.5842C55.8057 45.8384 55.9271 56.0919 55.7086 57.3296C55.563 58.1911 54.8714 58.4702 54.5923 58.5552C54.568 58.5673 54.5438 58.5673 54.5195 58.5673H50.6729C50.5152 58.5794 50.3817 58.446 50.3817 58.2761Z" fill="#313846"/>
<path d="M31.7652 39.1159H22.2397C21.7422 39.1159 21.3418 39.5163 21.3418 40.0138V49.7456C21.3418 50.2431 21.7422 50.6435 22.2397 50.6435H31.7652C32.2627 50.6435 32.6631 50.2431 32.6631 49.7456V40.0138C32.6753 39.5163 32.2627 39.1159 31.7652 39.1159ZM23.1377 48.5443V41.2151C23.1377 41.0453 23.2712 40.9118 23.441 40.9118H30.5639C30.7338 40.9118 30.8673 41.0453 30.8673 41.2151V48.5443C30.8673 48.7142 30.7338 48.8476 30.5639 48.8476H23.441C23.2833 48.8355 23.1377 48.702 23.1377 48.5443Z" fill="#515BE0"/>
</svg>
