<svg width="71" height="71" viewBox="0 0 71 71" fill="none" xmlns="http://www.w3.org/2000/svg">
<g clip-path="url(#clip0_996_11816)">
<path d="M67.1743 16.282C66.7498 15.3632 66.0363 14.6358 65.1734 14.1566C64.3106 13.6772 63.3026 13.4344 62.2389 13.4344C60.3746 13.4344 58.3308 14.1812 56.5223 15.7791C55.0158 17.1083 53.6855 19.0318 52.7237 21.5902V2.73617C52.7237 1.5027 51.72 0.5 50.4874 0.5H19.105C17.8704 0.5 16.8688 1.5027 16.8688 2.73617V21.0574L12.1333 19.2737C11.4122 19.0028 10.6686 18.8739 9.93687 18.8739C8.67318 18.8739 7.45146 19.2564 6.42635 19.9549C5.40014 20.6513 4.56943 21.6656 4.09994 22.9122C3.82801 23.6321 3.69922 24.3778 3.69922 25.1075C3.69922 26.3701 4.08395 27.5918 4.78012 28.6181C5.47643 29.6422 6.49184 30.4738 7.73844 30.9433L11.9387 32.5251C11.6809 32.6498 11.4316 32.7938 11.193 32.9561C10.2237 33.617 9.43184 34.5787 8.98914 35.7596C8.7302 36.4398 8.60879 37.1458 8.60879 37.8389C8.60879 39.0371 8.96986 40.1922 9.63281 41.1667C10.2948 42.1372 11.2554 42.9227 12.4375 43.3719L12.749 43.4878C12.6341 43.5555 12.5202 43.6275 12.4105 43.7016C11.4348 44.3603 10.6471 45.3209 10.2044 46.5063C9.94549 47.1864 9.82408 47.8914 9.82408 48.5855C9.82408 49.7848 10.1863 50.9377 10.8503 51.9082C11.5057 52.8838 12.4674 53.6703 13.6474 54.1132L13.9579 54.2313C13.8375 54.299 13.7225 54.3721 13.6086 54.4505C12.6372 55.107 11.8464 56.0688 11.4025 57.2487C11.1436 57.9332 11.0232 58.6392 11.0232 59.3334C11.0232 60.5261 11.3854 61.6867 12.0473 62.6559C12.7091 63.6274 13.6709 64.4182 14.8519 64.861L18.8858 66.3804C19.566 66.6361 20.2731 66.7608 20.9661 66.7608C21.9344 66.7608 22.8725 66.5179 23.7106 66.0795C24.9882 66.952 26.4625 67.7773 28.1646 68.4715C30.9511 69.6083 34.323 70.3982 38.3428 70.4917C38.5975 70.4982 38.8478 70.5004 39.0972 70.5004C43.0117 70.5025 46.2816 69.7546 48.9971 68.3963C51.0333 67.3778 52.7494 66.0195 54.1851 64.4152C56.3428 62.0092 57.8751 59.067 59.0324 55.8488C60.1854 52.6391 60.9677 49.1469 61.6007 45.5964C61.6167 45.5212 61.6983 45.1558 61.8305 44.5595C62.3517 42.2137 63.6585 36.3326 64.8747 30.8955C65.483 28.1779 66.0685 25.5709 66.5231 23.5746C66.7489 22.5773 66.9422 21.7317 67.0894 21.1031C67.1624 20.7892 67.2238 20.5293 67.2722 20.3315C67.3173 20.138 67.3538 19.9984 67.3635 19.9651C67.5257 19.3966 67.6053 18.8411 67.6053 18.3049C67.6063 17.5801 67.4569 16.8924 67.1743 16.282ZM8.52498 28.8501C7.72025 28.5472 7.07973 28.0183 6.63047 27.3609C6.18244 26.7011 5.93525 25.9144 5.93525 25.1075C5.93525 24.64 6.01687 24.1673 6.19311 23.6987C6.49717 22.8951 7.02367 22.2525 7.68361 21.8032C8.34123 21.3562 9.12982 21.108 9.93687 21.108C10.4023 21.108 10.8771 21.1907 11.3434 21.3659L16.8688 23.4452V31.9923L8.52498 28.8501ZM11.4843 39.9095C11.0727 39.3012 10.845 38.5812 10.845 37.8387C10.845 37.41 10.9212 36.976 11.0812 36.546C11.3585 35.8089 11.8464 35.218 12.4503 34.8053C13.0542 34.3949 13.7784 34.167 14.5167 34.167C14.9454 34.167 15.3795 34.2444 15.8083 34.4035H15.8126L16.8689 34.8031L19.8475 35.9251C20.3976 36.1303 20.8619 36.4527 21.238 36.8556C21.3627 36.9887 21.4798 37.1369 21.5872 37.2939C21.9977 37.8968 22.2223 38.622 22.2223 39.3592C22.2223 39.789 22.146 40.2231 21.9848 40.6572C21.8106 41.1224 21.555 41.5233 21.238 41.8629C21.0499 42.0659 20.8448 42.239 20.616 42.3958C20.0121 42.8075 19.2931 43.0321 18.5506 43.0321C18.1207 43.0321 17.6866 42.9557 17.2579 42.7935L16.8689 42.6452L13.224 41.2783C12.4857 40.9969 11.8947 40.5133 11.4843 39.9095ZM12.6952 50.6528C12.2858 50.0478 12.0613 49.3236 12.0613 48.5854C12.0613 48.1555 12.1365 47.7216 12.2988 47.2938C12.575 46.5513 13.0573 45.9657 13.6668 45.5487C14.2696 45.1381 14.9949 44.9124 15.7332 44.9124C16.1093 44.9124 16.4897 44.9683 16.8691 45.0973C16.9228 45.1101 16.9723 45.1338 17.026 45.151L21.0599 46.6705C21.1222 46.693 21.1802 46.7156 21.2383 46.7435C21.8959 47.0294 22.4237 47.4805 22.7986 48.0351C23.2112 48.6433 23.4378 49.3642 23.4378 50.1068C23.4378 50.5366 23.3627 50.9686 23.2026 51.3985C23.2026 51.4027 23.1971 51.4071 23.1971 51.4113C22.9198 52.1463 22.432 52.732 21.8335 53.1392C21.2296 53.5507 20.5043 53.7775 19.766 53.7775C19.3372 53.7775 18.9043 53.7022 18.4744 53.5421L16.8691 52.9371L14.4407 52.0195C13.6979 51.7425 13.1112 51.2589 12.6952 50.6528ZM24.4489 61.9938C24.4349 62.0433 24.4177 62.0969 24.4005 62.1464C24.1223 62.8835 23.6387 63.4733 23.0326 63.8849C22.4276 64.2965 21.7088 64.5264 20.9662 64.5264C20.5364 64.5264 20.1023 64.4501 19.6736 64.2878L15.6386 62.7673C14.8961 62.4902 14.3105 62.0023 13.899 61.3984C13.4875 60.7954 13.2595 60.0723 13.2595 59.3331C13.2595 58.9032 13.3347 58.4649 13.4972 58.0404C13.7743 57.299 14.2612 56.7069 14.865 56.2964C15.4506 55.8968 16.1535 55.6744 16.8691 55.6614H16.9314C17.3602 55.6614 17.7941 55.7333 18.2241 55.8968L18.3991 55.9613L22.2567 57.4151C22.9993 57.6956 23.5859 58.1803 24.0018 58.7842C24.4135 59.3912 24.638 60.1112 24.638 60.8548C24.638 61.2297 24.5799 61.6134 24.4489 61.9938ZM21.8515 44.5784L21.5302 44.457C21.6463 44.3903 21.7591 44.3184 21.8731 44.2443C22.8476 43.5866 23.6343 42.6239 24.0781 41.444C24.337 40.7594 24.4585 40.0514 24.4585 39.3593C24.4585 38.1622 24.0963 37.0081 23.4332 36.0368C22.8928 35.2374 22.1459 34.5603 21.2379 34.1006V7.20852H48.4425V51.1881H25.5652C25.6319 50.8269 25.6737 50.4659 25.6737 50.1069C25.6737 48.9077 25.3125 47.7537 24.6508 46.7781C23.9888 45.8087 23.0271 45.02 21.8515 44.5784ZM36.3624 55.7784C36.3624 56.6425 35.6608 57.3452 34.7969 57.3452C33.9317 57.3452 33.2312 56.6425 33.2312 55.7784C33.2312 54.9156 33.9317 54.2139 34.7969 54.2139C35.6606 54.2141 36.3624 54.9157 36.3624 55.7784ZM65.2132 19.3522C65.1777 19.4725 65.1368 19.641 65.0746 19.899C64.8479 20.8479 64.3814 22.8907 63.8089 25.433C62.0917 33.0538 59.415 45.1276 59.415 45.1276L59.4095 45.1511L59.4053 45.1748C58.8529 48.2824 58.1878 51.3031 57.2798 54.0667C56.5997 56.1417 55.7829 58.0694 54.7814 59.7854C53.277 62.3622 51.3751 64.4565 48.8606 65.9287C46.3429 67.3976 43.187 68.2625 39.0972 68.2647C38.8672 68.2647 38.6329 68.2603 38.3945 68.256C34.6377 68.1668 31.5464 67.4371 29.0104 66.4024C27.7069 65.8684 26.5518 65.2537 25.5277 64.6025C25.9285 64.1136 26.2605 63.5559 26.4927 62.9326C26.6097 62.6253 26.699 62.3073 26.757 61.9935C26.8032 61.7743 26.8322 61.5541 26.8494 61.3359L50.4875 61.5464C51.7202 61.5464 52.7237 60.5451 52.7237 59.3114V29.4744C53.1299 28.0462 53.6531 26.2045 54.3312 23.8233C55.2027 20.7673 56.563 18.7267 58.003 17.4534C59.444 16.1811 60.9741 15.6696 62.2389 15.6696C63.2039 15.6696 64.0023 15.9662 64.532 16.4197C64.7964 16.6474 65.0005 16.9108 65.1434 17.2203C65.2851 17.5286 65.368 17.8832 65.3691 18.3045C65.3691 18.6172 65.3229 18.9652 65.2132 19.3522Z" fill="#313846"/>
<circle cx="35.1523" cy="56.5" r="3" fill="#515BE0"/>
</g>
<defs>
<clipPath id="clip0_996_11816">
<rect width="70" height="70" fill="white" transform="translate(0.652344 0.5)"/>
</clipPath>
</defs>
</svg>
