<svg width="51" height="50" viewBox="0 0 51 50" fill="none" xmlns="http://www.w3.org/2000/svg">
<path d="M15.04 25.0208C14.973 25.0794 14.9336 25.1648 14.9336 25.2553V34.3717C14.9336 34.5049 15.0187 34.6221 15.1443 34.6648L21.0442 36.6358C21.0761 36.6465 21.1091 36.6519 21.1421 36.6519C21.2059 36.6519 21.2698 36.6316 21.3219 36.5932C21.4027 36.5346 21.4506 36.4418 21.4506 36.3427V26.121C21.4506 25.9675 21.3389 25.8374 21.1868 25.815L15.2868 24.9494C15.1985 24.9355 15.1081 24.9623 15.04 25.0208Z" fill="#515BE0"/>
<path d="M12.0048 24.473L7.84631 23.8653C7.75801 23.8515 7.66753 23.8792 7.60052 23.9367C7.53247 23.9954 7.49414 24.0806 7.49414 24.1712V31.8858C7.49414 32.0191 7.57923 32.1364 7.70482 32.179L11.8633 33.5679C11.8953 33.5786 11.9282 33.5839 11.9601 33.5839C12.0239 33.5839 12.0878 33.5637 12.141 33.5253C12.2208 33.4667 12.2686 33.3739 12.2686 33.2748V24.7779C12.2686 24.6243 12.1569 24.4943 12.0048 24.473Z" fill="#515BE0"/>
<path d="M50.3166 17.6868L37.4103 0.370983C37.4103 0.370983 37.2869 0.175902 37.0018 0.0618137C36.7167 -0.0533195 36.439 0.0276743 36.439 0.0276743L16.1604 5.23505V3.43777C16.1604 3.00607 15.8636 2.63193 15.4445 2.53387L13.7498 2.14161C13.7498 2.14161 13.6402 2.11174 13.4859 2.12028C13.3317 2.12881 13.2327 2.17035 13.2327 2.17035L10.1763 3.25549C9.80721 3.38657 9.56038 3.73623 9.56038 4.12849V6.93096L6.35084 7.75387C6.09227 7.82102 5.87525 7.99581 5.754 8.23461L0.599944 18.4703C0.456276 18.7549 0.468009 19.0928 0.631841 19.3658C0.795673 19.6386 1.08822 19.8082 1.40633 19.8157L3.84886 19.8668V38.0301C3.84886 38.3766 4.04033 38.6932 4.3467 38.852L25.5241 49.8944C25.5241 49.8944 25.7082 49.9968 25.9497 50C26.1911 50.0021 26.3774 49.8944 26.3774 49.8944L46.8975 39.1856C47.2028 39.0257 47.3943 38.7101 47.3953 38.3637L47.4315 19.0213L49.5102 19.1652C49.5102 19.1652 50.0538 19.227 50.3602 18.7282C50.6985 18.1825 50.3166 17.6868 50.3166 17.6868ZM25.0274 47.545L5.69986 37.4672V19.9051L21.1242 20.2302C21.1242 20.2302 21.1242 20.2302 21.1253 20.2302H21.1274L25.0284 20.3006V47.5451L25.0274 47.545ZM46.573 17.1047C46.3166 17.0866 46.0655 17.1761 45.8783 17.351C45.6911 17.5258 45.5847 17.772 45.5836 18.0279L45.5474 37.8009L40.2508 40.5661V23.4292C40.2508 23.3418 40.2145 23.2597 40.1507 23.201C40.0869 23.1423 40.0029 23.1137 39.9167 23.1211L34.821 23.5454C34.6614 23.5592 34.538 23.6935 34.538 23.8534V43.5454L26.8763 47.5439V19.3902C26.8763 18.8839 26.4721 18.4724 25.9678 18.4628L23.1083 18.4106L36.623 2.41447L47.6272 17.1773L46.573 17.1047Z" fill="#515BE0"/>
</svg>
