<svg width="70" height="71" viewBox="0 0 70 71" fill="none" xmlns="http://www.w3.org/2000/svg">
<path d="M20.356 35.2974C20.2622 35.3794 20.207 35.4989 20.207 35.6257V48.3886C20.207 48.5751 20.3262 48.7393 20.502 48.799L28.7619 51.5584C28.8066 51.5733 28.8528 51.5809 28.8989 51.5809C28.9882 51.5809 29.0777 51.5525 29.1507 51.4987C29.2638 51.4166 29.3309 51.2868 29.3309 51.148V36.8377C29.3309 36.6227 29.1745 36.4407 28.9615 36.4092L20.7015 35.1974C20.5779 35.178 20.4514 35.2155 20.356 35.2974Z" fill="#515BE0"/>
<path d="M16.1079 34.5304L10.286 33.6797C10.1624 33.6603 10.0357 33.6991 9.9419 33.7797C9.84663 33.8618 9.79297 33.9811 9.79297 34.1079V44.9084C9.79297 45.0949 9.91209 45.2592 10.0879 45.3188L15.9098 47.2633C15.9545 47.2783 16.0007 47.2857 16.0453 47.2857C16.1346 47.2857 16.2241 47.2574 16.2985 47.2037C16.4102 47.1216 16.4773 46.9917 16.4773 46.853V34.9573C16.4772 34.7423 16.3208 34.5603 16.1079 34.5304Z" fill="#515BE0"/>
<path d="M69.7432 25.03L51.6744 0.787932C51.6744 0.787932 51.5017 0.514817 51.1025 0.355094C50.7034 0.193907 50.3146 0.307299 50.3146 0.307299L21.9246 7.59763V5.08144C21.9246 4.47705 21.5091 3.95326 20.9223 3.81597L18.5497 3.26681C18.5497 3.26681 18.3963 3.22499 18.1803 3.23694C17.9644 3.24889 17.8258 3.30705 17.8258 3.30705L13.5469 4.82625C13.0301 5.00975 12.6845 5.49928 12.6845 6.04843V9.9719L8.19117 11.124C7.82918 11.218 7.52535 11.4627 7.3556 11.797L0.139922 26.127C-0.0612135 26.5254 -0.0447869 26.9985 0.184578 27.3806C0.413943 27.7626 0.823514 28 1.26886 28.0105L4.6884 28.0821V53.5107C4.6884 53.9958 4.95646 54.439 5.38538 54.6614L35.0338 70.1207C35.0338 70.1207 35.2915 70.2641 35.6295 70.2685C35.9676 70.2714 36.2283 70.1207 36.2283 70.1207L64.9565 55.1283C65.3839 54.9045 65.652 54.4627 65.6534 53.9777L65.7041 26.8984L68.6143 27.0998C68.6143 27.0998 69.3754 27.1864 69.8043 26.488C70.2778 25.724 69.7432 25.03 69.7432 25.03ZM34.3384 66.8315L7.2798 52.7226V28.1357L28.8739 28.5909C28.8739 28.5909 28.8739 28.5909 28.8754 28.5909H28.8783L34.3397 28.6894V66.8317L34.3384 66.8315ZM64.5022 24.2152C64.1433 24.1898 63.7917 24.3152 63.5297 24.56C63.2676 24.8047 63.1186 25.1494 63.117 25.5076L63.0664 53.1898L55.6511 57.0611V33.0695C55.6511 32.947 55.6003 32.8322 55.511 32.75C55.4217 32.6678 55.304 32.6277 55.1834 32.6381L48.0494 33.2321C47.826 33.2515 47.6532 33.4395 47.6532 33.6634V61.2321L36.9269 66.8301V27.4149C36.9269 26.706 36.3609 26.1299 35.655 26.1165L31.6516 26.0433L50.5722 3.64881L65.9781 24.3167L64.5022 24.2152Z" fill="#313846"/>
</svg>
