<svg width="40" height="48" viewBox="0 0 40 48" fill="none" xmlns="http://www.w3.org/2000/svg">
<path id="Vector" fill-rule="evenodd" clip-rule="evenodd" d="M18.7236 47.0293L18.7187 47.0256L18.7067 47.0161L18.6641 46.9827C18.6276 46.9537 18.575 46.9122 18.5073 46.858C18.3721 46.7499 18.1766 46.5918 17.9296 46.3879C17.4358 45.9804 16.7351 45.3886 15.8961 44.6428C14.2209 43.1537 11.9815 41.0395 9.73587 38.5443C7.49582 36.0553 5.21225 33.1465 3.47979 30.0666C1.75745 27.0046 0.5 23.633 0.5 20.2559C0.5 15.1063 2.54566 10.1676 6.18696 6.52631C9.82827 2.88502 14.7669 0.839355 19.9165 0.839355C25.0661 0.839355 30.0047 2.88502 33.6461 6.52631C37.2873 10.1676 39.333 15.1063 39.333 20.2559C39.333 23.633 38.0756 27.0046 36.3531 30.0666C34.6208 33.1465 32.3372 36.0553 30.0972 38.5443C27.8514 41.0395 25.6121 43.1537 23.9369 44.6428C23.0979 45.3886 22.3972 45.9804 21.9034 46.3879C21.6564 46.5918 21.4609 46.7499 21.3257 46.858C21.258 46.9122 21.2054 46.9537 21.1689 46.9827L21.1263 47.0161L21.1143 47.0256L21.1106 47.0283C21.1106 47.0283 21.1085 47.03 19.9165 45.4973L21.1085 47.03C20.4074 47.5753 19.4247 47.5747 18.7236 47.0293ZM19.9165 45.4973L18.7236 47.0293C18.7236 47.0293 18.7245 47.03 19.9165 45.4973ZM25.7415 20.2559C25.7415 23.473 23.1336 26.0808 19.9165 26.0808C16.6994 26.0808 14.0915 23.473 14.0915 20.2559C14.0915 17.0388 16.6994 14.4309 19.9165 14.4309C23.1336 14.4309 25.7415 17.0388 25.7415 20.2559Z" fill="#515BE0"/>
</svg>
