<svg width="75" height="75" viewBox="0 0 75 75" fill="none" xmlns="http://www.w3.org/2000/svg">
<rect x="12" y="30" width="25" height="6" fill="#515BE0"/>
<rect x="12" y="41" width="15" height="5" fill="#515BE0"/>
<path d="M28.8759 57.6575L14.2351 72.5557V58.3584V57.3584H13.2351H1V18.9552L47.5286 18.9552V57.3584H29.5892H29.1698L28.8759 57.6575ZM52.9371 12.4677H27.4714V1.00004L74 1V39.4032H66.1766H65.1766V40.4032V54.614L53.9371 43.177V13.4677V12.4677H52.9371ZM27.4745 42.3984V41.3984H26.4745H13.235H12.235L12.235 42.3984L12.2351 44.8907L12.2351 45.8906H13.2351H26.4745H27.4745V44.8906V42.3984ZM36.2935 31.423L36.2935 30.423H35.2935H13.235H12.235V31.423V35.9166V36.9166H13.235H35.2934H36.2934L36.2934 35.9166L36.2935 31.423Z" stroke="#313846" stroke-width="2"/>
</svg>
