<svg width="90" height="65" viewBox="0 0 90 65" fill="none" xmlns="http://www.w3.org/2000/svg">
<path d="M73.5139 33.6779C73.9974 33.6779 74.4809 33.4422 74.8673 33.089L89.3694 16.7211C90.1429 15.8964 90.2393 14.3662 89.4658 13.4239C88.7887 12.4818 87.5324 12.3643 86.7588 13.3065L72.7403 28.9678H52.5341V23.1977H73.5138C73.9973 23.1977 74.4808 22.9619 74.8672 22.6087L89.3693 6.24084C89.9493 5.53444 90.1428 4.59232 89.8528 3.65024C89.5628 2.7081 88.8857 2.11918 88.0157 2.11918L68.0996 2.12C68.0996 1.88426 68.0996 1.7668 68.0032 1.53106C67.7132 0.588921 67.0361 0 66.1661 0H39.3856C38.9021 0 38.4186 0.235741 38.0321 0.588942L36.7751 2.00174H16.4722C15.9887 2.00174 15.5052 2.23748 15.1188 2.59068L0.616719 18.9586C0.0367408 19.665 -0.15681 20.6071 0.133179 21.5492C0.423168 22.4912 1.10026 23.0802 1.97028 23.0802H21.7897V28.8504L1.97028 28.8496C0.906758 28.8496 0.0368439 29.9092 0.0368439 31.2045C0.0368439 32.4997 0.90681 33.5593 1.97028 33.5593L21.7897 33.5602V39.3303H1.97028C0.906758 39.3303 0.0368439 40.3899 0.0368439 41.6852C0.0368439 42.9805 0.90681 44.0401 1.97028 44.0401H21.7897V49.8103H1.97028C0.906758 49.8103 0.0368439 50.8699 0.0368439 52.1652C0.0368439 53.4605 0.90681 54.5201 1.97028 54.5201H21.7897V60.2902H1.97028C0.906758 60.2902 0.0368439 61.3498 0.0368439 62.6451C0.0368439 63.9405 0.90681 65 1.97028 65H73.5137C73.9972 65 74.4807 64.7643 74.8671 64.4111L89.3692 48.0432C90.1427 47.2185 90.2391 45.6883 89.4656 44.7461C88.7885 43.8039 87.5322 43.6865 86.7586 44.6286L72.7401 60.525H52.5339V54.7548H73.5135C73.9971 54.7548 74.4806 54.5191 74.867 54.1659L89.3691 37.798C90.1426 36.9734 90.239 35.4431 89.4655 34.5009C88.7884 33.5588 87.5321 33.4413 86.7585 34.3834L72.74 49.9275H52.5338V44.1573H73.5134C73.997 44.1573 74.4805 43.9215 74.8669 43.5683L89.369 27.2005C90.1425 26.3758 90.2389 24.8456 89.4654 23.9033C88.7883 22.9612 87.532 22.8437 86.7584 23.7859L72.7399 39.4472H52.5337V33.677L73.5139 33.6779ZM72.7403 18.3696H54.8545L65.1024 6.71169H65.1989H82.988L72.7403 18.3696ZM17.2459 6.82986H32.7151L22.4671 18.3696H6.99794L17.2459 6.82986ZM25.6569 60.5259V21.0782L40.1589 4.71028H61.3319L49.2469 18.3692C48.8604 18.8398 48.6669 19.4288 48.6669 20.1352V60.525L25.6569 60.5259Z" fill="#313846"/>
<path d="M43.4476 46.2764C41.9977 48.0424 40.7406 49.1028 38.5171 49.1028C36.1001 49.1028 33.9731 47.6899 32.8132 45.2168H39.097C39.8706 45.2168 40.547 44.3922 40.547 43.4509C40.547 42.5087 39.8699 41.6849 39.097 41.6849H31.846V40.7427V40.507H39.097C39.8706 40.507 40.547 39.6823 40.547 38.741C40.547 37.7989 39.8699 36.975 39.097 36.975L32.4259 36.9734C33.5859 34.2653 35.9064 32.4985 38.4199 32.4985C40.6434 32.4985 41.9004 33.5581 43.3504 35.3248C43.9304 36.0312 44.8004 36.0312 45.3811 35.3248C45.9611 34.6184 45.9611 33.5589 45.3811 32.8516C43.9311 31.0856 41.8041 29.083 38.4201 29.083C34.2632 29.083 30.6855 32.2626 29.332 37.0899H28.0749C27.3014 37.0899 26.625 37.9146 26.625 38.8559C26.625 39.798 27.3021 40.6219 28.0749 40.6219H28.8485V40.8576V41.7997H28.0749C27.3014 41.7997 26.625 42.6244 26.625 43.5657C26.625 44.5079 27.3021 45.3317 28.0749 45.3317H29.5249C30.9748 49.6884 34.4554 52.6323 38.4194 52.6323C41.8036 52.6323 43.9306 50.6305 45.3804 48.7464C45.6704 48.3932 45.7668 48.04 45.7668 47.5685C45.7668 47.0978 45.5733 46.6263 45.3804 46.3906C44.8982 45.57 44.0276 45.57 43.4476 46.2764Z" fill="#515BE0"/>
</svg>
