<svg width="100" height="100" viewBox="0 0 100 100" fill="none" xmlns="http://www.w3.org/2000/svg">
<g id="Products icon">
<path id="Vector" d="M84.2639 90.0339H15.9106C12.6818 90.0339 10.0625 87.4146 10.0625 84.1858V42.2363C10.0625 39.0075 12.6818 36.3882 15.9106 36.3882H84.2639C87.4928 36.3882 90.1121 39.0075 90.1121 42.2363V84.1858C90.1121 87.4146 87.4928 90.0339 84.2639 90.0339Z" stroke="#515BE0" stroke-width="2"/>
<path id="Vector_2" d="M76.5651 22.2227H23.4279C20.2601 22.2227 17.6875 24.7953 17.6875 27.963V32.4491H82.3054V27.963C82.3054 24.7861 79.7328 22.2227 76.5651 22.2227Z" fill="#515BE0"/>
<path id="Vector_3" d="M70.4373 8.92041H29.9435C26.7758 8.92041 24.2031 11.493 24.2031 14.6608V19.1469H76.1868V14.6608C76.1776 11.493 73.6141 8.92041 70.4373 8.92041Z" fill="#FFB800"/>
</g>
</svg>
