<svg width="277" height="140" viewBox="0 0 277 140" fill="none" xmlns="http://www.w3.org/2000/svg">
<path d="M251.5 116C248.167 116 246.5 117.667 246.5 121V126C246.5 129.333 248.167 131 251.5 131H266.5C269.834 131 271.5 129.333 271.5 126V121C271.5 117.667 269.834 116 266.5 116H251.5ZM251.5 111H266.5C273.167 111 276.5 114.333 276.5 121V126C276.5 132.667 273.167 136 266.5 136H251.5C244.834 136 241.5 132.667 241.5 126V121C241.5 114.333 244.834 111 251.5 111Z" fill="#FFB800"/>
<path d="M236.5 136H211.5C204.834 136 201.5 132.667 201.5 126V121C201.5 114.333 204.834 111 211.5 111H236.5V116H211.5C208.167 116 206.5 117.667 206.5 121V126C206.5 129.333 208.167 131 211.5 131H236.5V136ZM236.5 121V126H211.5V121H236.5Z" fill="#E1FFF9"/>
<path d="M196.5 136H161.5L184 116H161.5V111H196.5L174 131H196.5V136Z" fill="#E1FFF9"/>
<path d="M121.5 136H146.5C153.167 136 156.5 132.667 156.5 126V121C156.5 114.333 153.167 111 146.5 111H121.5V116H146.5C149.833 116 151.5 117.667 151.5 121V126C151.5 129.333 149.833 131 146.5 131H121.5V136ZM121.5 121V126H146.5V121H121.5Z" fill="#515BE0"/>
<path d="M116.5 136H91.5C84.8333 136 81.5 132.667 81.5 126V121C81.5 114.333 84.8333 111 91.5 111H116.5V116H91.5C88.1667 116 86.5 117.667 86.5 121V126C86.5 129.333 88.1667 131 91.5 131H116.5V136ZM116.5 121V126H91.5V121H116.5Z" fill="#E1FFF9"/>
<path d="M61.5 126H46.5V136H41.5V111H66.5C73.1667 111 76.5 113.5 76.5 118.5C76.5 123.5 73.1667 126 66.5 126C66.5 129.333 68.1667 131 71.5 131H76.5V136H71.5C64.8333 136 61.5 132.667 61.5 126ZM66.5 121C69.8333 121 71.5 120.167 71.5 118.5C71.5 116.833 69.8333 116 66.5 116H46.5V121H66.5Z" fill="#E1FFF9"/>
<path d="M26.5 121C29.8333 121 31.5 120.167 31.5 118.5C31.5 116.833 29.8333 116 26.5 116H6.5V121H26.5ZM6.5 136H1.5V111H26.5C33.1667 111 36.5 113.5 36.5 118.5C36.5 123.5 33.1667 126 26.5 126H6.5V136Z" fill="#E1FFF9"/>
<path fill-rule="evenodd" clip-rule="evenodd" d="M215.489 31.3334L93.7741 5.38253C83.2115 3.13048 73.2854 11.1562 73.2854 21.9486V40.6448H68.2854V21.931C68.2854 7.96443 81.131 -2.42185 94.8002 0.492568L216.515 26.4434C239.828 31.414 239.828 64.7002 216.515 69.5069L94.8002 94.6016C81.131 97.4198 68.2854 86.9432 68.2854 72.9766V52.907H73.2854V72.9942C73.2854 83.7866 83.2115 91.8821 93.7741 89.7044L215.489 64.6097C233.504 60.8955 233.504 35.1743 215.489 31.3334Z" fill="#515BE0"/>
<rect x="43" y="49.8531" width="57.0554" height="5.57376" fill="#FFB800"/>
<rect x="55.9673" y="37.3007" width="31.1211" height="5.57376" fill="#FFB800"/>
</svg>
