<svg width="116" height="245" viewBox="0 0 116 245" fill="none" xmlns="http://www.w3.org/2000/svg">
<path d="M81.5137 18.7818H2M81.5137 18.7818L114.278 2M81.5137 18.7818V243.338M2 18.7818L34.7644 2M2 18.7818V243.338M34.7644 2H114.278M34.7644 2V227.355M114.278 2V227.355M81.5137 243.338L114.278 227.355M81.5137 243.338H2M114.278 227.355H34.7644M2 243.338L34.7644 227.355" stroke="#515BE0" stroke-width="2.3974"/>
<path d="M55.6928 122.701C56.9935 124.707 57.9271 126.984 58.3957 129.43L57.2184 129.656C57.4291 130.756 57.5397 131.893 57.5397 133.058C57.5397 134.223 57.4291 135.36 57.2184 136.46L58.3957 136.686C57.9271 139.132 56.9935 141.409 55.6928 143.415L54.687 142.763C53.4394 144.687 51.8321 146.345 49.9649 147.636L50.6467 148.622C48.6665 149.991 46.411 150.976 43.9829 151.472L43.7429 150.298C42.6496 150.521 41.5179 150.639 40.3583 150.639C39.1987 150.639 38.0671 150.521 36.9738 150.298L36.7338 151.472C34.3056 150.976 32.0502 149.991 30.07 148.622L30.7517 147.636C28.8845 146.345 27.2772 144.687 26.0297 142.763L25.0238 143.415C23.7231 141.409 22.7896 139.132 22.3209 136.686L23.4982 136.46C23.2876 135.36 23.177 134.223 23.177 133.058C23.177 131.893 23.2876 130.756 23.4982 129.656L22.3209 129.43C22.7896 126.984 23.7231 124.707 25.0238 122.701L26.0297 123.353C27.2772 121.428 28.8846 119.771 30.7517 118.48L30.07 117.494C32.0502 116.125 34.3056 115.14 36.7338 114.643L36.9738 115.818C38.0671 115.594 39.1987 115.477 40.3583 115.477C41.5179 115.477 42.6496 115.594 43.7429 115.818L43.9829 114.643C46.411 115.14 48.6665 116.125 50.6467 117.494L49.9649 118.48C51.8321 119.771 53.4394 121.428 54.687 123.353L55.6928 122.701Z" stroke="#FFB800" stroke-width="2.3974" stroke-dasharray="7.19 7.19"/>
<circle cx="39.9589" cy="132.259" r="9.58959" fill="#FFB800" stroke="#FFB800" stroke-width="0.799133"/>
<mask id="path-4-inside-1_274_1454" fill="white">
<rect x="22.0713" y="43.8296" width="39.8406" height="42.557" rx="0.603646"/>
</mask>
<rect x="22.0713" y="43.8296" width="39.8406" height="42.557" rx="0.603646" fill="#515BE0" stroke="#515BE0" stroke-width="4.7948" mask="url(#path-4-inside-1_274_1454)"/>
</svg>
