<svg width="296" height="127" viewBox="0 0 296 127" fill="none" xmlns="http://www.w3.org/2000/svg">
<path d="M157.005 108.507H247.83C272.05 108.507 284.16 96.3974 284.16 72.1773V54.0122C284.16 29.7922 272.05 17.6821 247.83 17.6821H157.005V35.8472H247.83C259.94 35.8472 265.995 41.9022 265.995 54.0122V72.1773C265.995 84.2873 259.94 90.3424 247.83 90.3424H157.005V108.507ZM157.005 54.0122V72.1773H247.83V54.0122H157.005Z" fill="#515BE0"/>
<path d="M138.84 108.507H48.0142C23.7941 108.507 11.6841 96.3974 11.6841 72.1773V54.0122C11.6841 29.7922 23.7941 17.6821 48.0142 17.6821H138.84V35.8472H48.0142C35.9042 35.8472 29.8491 41.9022 29.8491 54.0122V72.1773C29.8491 84.2873 35.9042 90.3424 48.0142 90.3424H138.84V108.507ZM138.84 54.0122V72.1773H48.0142V54.0122H138.84Z" fill="#E1FFF9"/>
</svg>
