<svg width="382" height="340" viewBox="0 0 382 340" fill="none" xmlns="http://www.w3.org/2000/svg">
<path d="M326.057 384.546L258.824 336.152" stroke="#515BE0" stroke-width="3"/>
<path d="M203.157 383.079L153.275 331.753" stroke="#515BE0" stroke-width="3"/>
<path d="M87.4877 139.646L66.5225 126.448" stroke="#515BE0" stroke-width="3"/>
<path d="M73.0294 157.244L23.1469 124.982M141.708 69.256L49.1726 3.26514" stroke="#515BE0" stroke-width="3"/>
<path d="M381 474C381 474 106.284 246.698 120.02 224.701C133.756 202.704 163.396 163.11 172.794 149.912C182.193 136.713 -5.04771 -7 -5.04771 -7L-13 26.7287C-13 26.7287 128.695 123.515 120.02 136.713C111.345 149.912 39.7743 215.902 37.6055 239.366C35.4367 262.829 120.02 474 120.02 474" stroke="#FFB800" stroke-width="3"/>
</svg>
