<svg width="370" height="340" viewBox="0 0 370 340" fill="none" xmlns="http://www.w3.org/2000/svg">
<path d="M2.6794 383.374C2.6794 383.374 1.15075 195.154 2.6794 153.875C4.20805 112.596 6.5028 113.52 49.3386 129.847C92.1743 146.173 91.2221 117.812 122.004 117.525C201.816 116.778 131.947 199.159 190.081 195.154C248.215 191.149 248.98 161.268 333.118 117.525C417.256 73.781 304.053 37.4311 308.641 19.5637C313.229 1.69633 360.655 -2 360.655 -2" stroke="#515BE0" stroke-width="2.02528"/>
<path d="M11.4388 390.766C11.4388 390.766 9.91015 202.545 11.4388 161.266C12.9674 119.987 15.2622 120.911 58.098 137.238C100.934 153.565 99.9815 125.204 130.764 124.916C210.575 124.17 140.706 206.55 198.84 202.545C256.974 198.541 257.739 168.66 341.877 124.916C426.016 81.1726 312.812 44.8227 317.4 26.9553C321.989 9.08794 369.414 5.3916 369.414 5.3916" stroke="#E1FFF9" stroke-width="2.02528"/>
<path d="M20.9043 400.619C20.9043 400.619 19.3756 212.398 20.9043 171.119C22.4329 129.84 24.7277 130.764 67.5634 147.091C110.399 163.418 109.447 135.057 140.229 134.769C220.04 134.023 150.172 216.403 208.306 212.399C266.44 208.394 267.205 178.513 351.343 134.769C435.481 91.0256 322.278 54.6757 326.866 36.8083C331.454 18.941 378.879 15.2446 378.879 15.2446" stroke="#FFB800" stroke-width="2.02528"/>
</svg>
