<svg width="167" height="228" viewBox="0 0 167 228" fill="none" xmlns="http://www.w3.org/2000/svg">
<mask id="path-1-inside-1_269_1402" fill="white">
<path d="M61.6286 138.684V133.163C61.6286 129.806 60.0301 126.612 57.2742 124.609C46.5259 116.706 39.5809 104.146 39.5809 89.9629C39.5809 64.4111 62.1246 44.0564 88.6921 46.9255C108.094 49.0368 124.189 64.0863 127.22 83.0336C129.921 99.9779 122.535 115.46 110.078 124.609C107.322 126.612 105.724 129.806 105.724 133.217V138.739"/>
</mask>
<path d="M57.2742 124.609L54.6197 128.262L54.6095 128.254L54.5993 128.247L57.2742 124.609ZM88.6921 46.9255L89.1768 42.4365L89.1805 42.4369L88.6921 46.9255ZM127.22 83.0336L131.679 82.3203L131.679 82.3229L127.22 83.0336ZM110.078 124.609L112.751 128.248L112.742 128.255L112.733 128.262L110.078 124.609ZM57.1135 138.684V133.163H66.1437V138.684H57.1135ZM57.1135 133.163C57.1135 131.237 56.1951 129.407 54.6197 128.262L59.9286 120.957C63.8651 123.818 66.1437 128.376 66.1437 133.163H57.1135ZM54.5993 128.247C42.7638 119.544 35.0658 105.667 35.0658 89.9629H44.096C44.096 102.626 50.288 113.868 59.949 120.972L54.5993 128.247ZM35.0658 89.9629C35.0658 61.6599 60.0053 39.2861 89.1768 42.4365L88.2073 51.4145C64.244 48.8266 44.096 67.1624 44.096 89.9629H35.0658ZM89.1805 42.4369C110.548 44.7621 128.317 61.3071 131.679 82.3203L122.762 83.7469C120.061 66.8655 105.64 53.3115 88.2036 51.4141L89.1805 42.4369ZM131.679 82.3229C134.664 101.05 126.477 118.168 112.751 128.248L107.406 120.97C118.594 112.753 125.178 98.9062 122.762 83.7443L131.679 82.3229ZM112.733 128.262C111.167 129.399 110.239 131.224 110.239 133.217H101.209C101.209 128.388 103.477 123.825 107.424 120.957L112.733 128.262ZM110.239 133.217V138.739H101.209V133.217H110.239Z" fill="#515BE0" mask="url(#path-1-inside-1_269_1402)"/>
<path d="M80.2181 95.4619H85.7524V138.814H80.2181V95.4619Z" fill="#515BE0"/>
<path d="M61.7243 145.732H105.63C108.661 145.732 111.118 146.403 111.118 147.231V150.229C111.118 151.056 108.661 151.727 105.63 151.727H61.7243C58.6932 151.727 56.2361 151.056 56.2361 150.229V147.231C56.2361 146.403 58.6932 145.732 61.7243 145.732Z" fill="#515BE0"/>
<path d="M61.6318 151.577C61.6318 163.541 71.4981 173.231 83.6794 173.231C95.8607 173.231 105.727 163.541 105.727 151.577" fill="#FFB800"/>
<path d="M83.6788 100.792C77.5905 100.792 72.655 95.9448 72.655 89.9652C72.655 83.9856 77.5905 79.1382 83.6788 79.1382C89.7671 79.1382 94.7026 83.9856 94.7026 89.9652C94.7026 95.9448 89.7671 100.792 83.6788 100.792Z" fill="#FFB800"/>
<path d="M84.5751 12.9136H89.187V34.5676H84.5751V12.9136Z" fill="#FFB800"/>
<path d="M142.742 37.2894L146.032 40.521L130.442 55.8327L127.152 52.6011L142.742 37.2894Z" fill="#FFB800"/>
<path d="M144.307 88.7051H166.354V93.317H144.307V88.7051Z" fill="#FFB800"/>
<path d="M0.892958 88.5439H23.0303V93.1559H0.892958V88.5439Z" fill="#FFB800"/>
<path d="M29.1023 32.8797L44.6924 48.1914L41.402 51.423L25.812 36.1113L29.1023 32.8797Z" fill="#FFB800"/>
<circle cx="87.4698" cy="187.351" r="3.79254" fill="#515BE0"/>
<circle cx="95.0547" cy="201.004" r="3.79254" fill="#515BE0"/>
<circle cx="105.674" cy="211.624" r="3.79254" fill="#515BE0"/>
</svg>
