<svg width="246" height="268" viewBox="0 0 246 268" fill="none" xmlns="http://www.w3.org/2000/svg">
<path d="M101.297 169.063V124.085H82.0209V169.063H101.297Z" stroke="#FFB800" stroke-width="6.42551"/>
<path d="M-22.5255 265.775H101.166C101.166 265.775 89.1886 234.38 101.166 222.403C113.142 210.426 132.561 234.38 144.538 222.403C156.515 210.426 132.109 190.538 144.538 179.031C156.045 168.375 184.697 179.031 184.697 179.031V265.775H244.133V97.1055H215.218C215.218 97.1055 193.933 67.5588 173.452 60.1588C154.573 53.3372 122.048 60.1588 122.048 60.1588C122.048 60.1588 129.796 33.6353 122.048 19.9994C108.413 -3.99979 65.0037 -3.99979 51.3678 19.9994C43.6202 33.6353 51.3678 60.1588 51.3678 60.1588C51.3678 60.1588 22.2581 52.6278 6.38927 60.1588C-10.1632 68.0142 -17.6808 79.4357 -22.5255 97.1055C-25.8431 109.205 -22.5255 129.233 -22.5255 129.233H59.3997C59.3997 129.233 53.6745 108.27 59.3997 97.1055C70.5639 75.3353 110.884 75.3353 122.048 97.1055C127.774 108.27 122.048 129.233 122.048 129.233H215.218V162.967H122.048C122.048 162.967 127.774 183.93 122.048 195.094C110.884 216.865 70.5639 216.865 59.3997 195.094C53.6745 183.93 59.3997 162.967 59.3997 162.967H-22.5255V265.775Z" stroke="#515BE0" stroke-width="3.21275"/>
</svg>
