<svg width="485" height="166" viewBox="0 0 485 166" fill="none" xmlns="http://www.w3.org/2000/svg">
<path d="M470.279 0.816406V15.1642H484.564V165.816H445.279V133.534H430.993V165.816H391.707V15.1642H405.993V0.816406H470.279ZM463.136 29.5121H455.993V36.686H463.136V29.5121ZM448.85 29.5121H441.707V36.686H448.85V29.5121ZM434.564 29.5121H427.422V36.686H434.564V29.5121ZM420.279 29.5121H413.136V36.686H420.279V29.5121ZM384.564 43.8599V58.2077H377.422V65.3816H384.564V72.5555H377.422V79.7295H384.564V86.9034H377.422V94.0773H384.564V101.251H377.422V108.425H384.564V115.599H377.422V122.773H384.564V129.947H377.422V137.121H384.564V144.295H377.422V151.469H384.564V165.816H334.564V43.8599H384.564ZM463.136 47.4468H455.993V61.7947H463.136V47.4468ZM448.85 47.4468H441.707V61.7947H448.85V47.4468ZM434.564 47.4468H427.422V61.7947H434.564V47.4468ZM420.279 47.4468H413.136V61.7947H420.279V47.4468ZM370.279 58.2077H363.136V65.3816H370.279V58.2077ZM355.993 58.2077H348.85V65.3816H355.993V58.2077ZM463.136 68.9686H455.993V83.3164H463.136V68.9686ZM448.85 68.9686H441.707V83.3164H448.85V68.9686ZM434.564 68.9686H427.422V83.3164H434.564V68.9686ZM420.279 68.9686H413.136V83.3164H420.279V68.9686ZM370.279 72.5555H363.136V79.7295H370.279V72.5555ZM355.993 72.5555H348.85V79.7295H355.993V72.5555ZM370.279 86.9034H363.136V94.0773H370.279V86.9034ZM355.993 86.9034H348.85V94.0773H355.993V86.9034ZM463.136 90.4903H455.993V104.838H463.136V90.4903ZM448.85 90.4903H441.707V104.838H448.85V90.4903ZM434.564 90.4903H427.422V104.838H434.564V90.4903ZM420.279 90.4903H413.136V104.838H420.279V90.4903ZM370.279 101.251H363.136V108.425H370.279V101.251ZM355.993 101.251H348.85V108.425H355.993V101.251ZM463.136 112.012H455.993V126.36H463.136V112.012ZM448.85 112.012H441.707V126.36H448.85V112.012ZM434.564 112.012H427.422V126.36H434.564V112.012ZM420.279 112.012H413.136V126.36H420.279V112.012ZM370.279 115.599H363.136V122.773H370.279V115.599ZM355.993 115.599H348.85V122.773H355.993V115.599ZM370.279 129.947H363.136V137.121H370.279V129.947ZM355.993 129.947H348.85V137.121H355.993V129.947ZM463.136 133.534H455.993V151.469H463.136V133.534ZM420.279 133.534H413.136V151.469H420.279V133.534ZM370.279 144.295H363.136V151.469H370.279V144.295ZM355.993 144.295H348.85V151.469H355.993V144.295Z" fill="#E1FFF9"/>
<mask id="path-2-inside-1_102_4757" fill="white">
<path fill-rule="evenodd" clip-rule="evenodd" d="M271.23 150.651V99.568C271.23 95.8224 274.231 92.7754 277.921 92.7754H304.686C308.375 92.7754 311.377 95.8224 311.377 99.568V150.651H311.377V161.972C311.377 163.223 310.379 164.236 309.147 164.236H291.303V164.237H273.46C272.228 164.237 271.229 163.223 271.229 161.972V150.651H271.23ZM282.693 134.481H300.255C301.467 134.481 302.45 131.974 302.45 128.879V106.472C302.45 103.377 301.467 100.87 300.255 100.87H282.693C281.48 100.87 280.498 103.377 280.498 106.472V128.88C280.498 131.974 281.48 134.481 282.693 134.481Z"/>
</mask>
<path fill-rule="evenodd" clip-rule="evenodd" d="M271.23 150.651V99.568C271.23 95.8224 274.231 92.7754 277.921 92.7754H304.686C308.375 92.7754 311.377 95.8224 311.377 99.568V150.651H311.377V161.972C311.377 163.223 310.379 164.236 309.147 164.236H291.303V164.237H273.46C272.228 164.237 271.229 163.223 271.229 161.972V150.651H271.23ZM282.693 134.481H300.255C301.467 134.481 302.45 131.974 302.45 128.879V106.472C302.45 103.377 301.467 100.87 300.255 100.87H282.693C281.48 100.87 280.498 103.377 280.498 106.472V128.88C280.498 131.974 281.48 134.481 282.693 134.481Z" fill="#515BE0"/>
<path d="M271.23 150.651H274.366V153.787H271.23V150.651ZM311.377 150.651V153.787H308.241V150.651H311.377ZM311.377 150.651V147.515H314.513V150.651H311.377ZM291.303 164.236H288.167V161.1H291.303V164.236ZM291.303 164.237H294.439V167.373H291.303V164.237ZM271.229 150.651H268.093V147.515H271.229V150.651ZM274.366 99.568V150.651H268.094V99.568H274.366ZM277.921 95.9114C276.007 95.9114 274.366 97.5098 274.366 99.568H268.094C268.094 94.1351 272.455 89.6394 277.921 89.6394V95.9114ZM304.686 95.9114H277.921V89.6394H304.686V95.9114ZM308.241 99.568C308.241 97.5098 306.599 95.9114 304.686 95.9114V89.6394C310.152 89.6394 314.513 94.1351 314.513 99.568H308.241ZM308.241 150.651V99.568H314.513V150.651H308.241ZM311.377 153.787H311.377V147.515H311.377V153.787ZM308.241 161.972V150.651H314.513V161.972H308.241ZM309.147 161.1C308.602 161.1 308.241 161.536 308.241 161.972H314.513C314.513 164.91 312.155 167.372 309.147 167.372V161.1ZM291.303 161.1H309.147V167.372H291.303V161.1ZM288.167 164.237V164.236H294.439V164.237H288.167ZM273.46 161.101H291.303V167.373H273.46V161.101ZM274.366 161.972C274.366 161.536 274.004 161.101 273.46 161.101V167.373C270.452 167.373 268.093 164.91 268.093 161.972H274.366ZM274.366 150.651V161.972H268.093V150.651H274.366ZM271.23 153.787H271.229V147.515H271.23V153.787ZM300.255 137.617H282.693V131.345H300.255V137.617ZM305.586 128.879C305.586 130.717 305.3 132.523 304.727 133.985C304.444 134.707 304.03 135.503 303.409 136.173C302.785 136.846 301.722 137.617 300.255 137.617V131.345C299.393 131.345 298.908 131.803 298.809 131.91C298.714 132.012 298.773 131.989 298.887 131.697C299.109 131.131 299.314 130.137 299.314 128.879H305.586ZM305.586 106.472V128.879H299.314V106.472H305.586ZM300.255 97.7341C301.722 97.7341 302.785 98.5052 303.409 99.1786C304.03 99.8481 304.444 100.645 304.727 101.366C305.3 102.829 305.586 104.635 305.586 106.472H299.314C299.314 105.215 299.109 104.22 298.887 103.655C298.773 103.363 298.714 103.339 298.809 103.442C298.908 103.548 299.393 104.006 300.255 104.006V97.7341ZM282.693 97.7341H300.255V104.006H282.693V97.7341ZM277.362 106.472C277.362 104.635 277.648 102.829 278.221 101.366C278.503 100.645 278.918 99.8481 279.538 99.1786C280.162 98.5052 281.225 97.7341 282.693 97.7341V104.006C283.554 104.006 284.04 103.548 284.138 103.442C284.233 103.339 284.175 103.363 284.06 103.655C283.839 104.22 283.634 105.215 283.634 106.472H277.362ZM277.362 128.88V106.472H283.634V128.88H277.362ZM282.693 137.617C281.225 137.617 280.162 136.846 279.538 136.173C278.918 135.503 278.503 134.707 278.221 133.985C277.648 132.523 277.362 130.717 277.362 128.88H283.634C283.634 130.137 283.839 131.132 284.06 131.697C284.175 131.989 284.233 132.012 284.138 131.91C284.04 131.803 283.554 131.345 282.693 131.345V137.617Z" fill="#515BE0" mask="url(#path-2-inside-1_102_4757)"/>
<g filter="url(#filter0_d_102_4757)">
<path d="M294.386 58.0801H286.523L285.489 69.0468H289.213L285.489 81.3329L296.042 64.9084H289.834L294.386 58.0801Z" fill="#FFB800"/>
<path d="M294.386 58.0801H286.523L285.489 69.0468H289.213L285.489 81.3329L296.042 64.9084H289.834L294.386 58.0801Z" stroke="#FFB800" stroke-width="1.08492"/>
</g>
<path d="M271.09 118.8C274.226 118.8 272.658 117.232 267.954 118.8C263.25 120.368 267.301 126.948 264.818 131.345C256.687 145.74 227.184 128.208 222.48 132.912" stroke="#515BE0" stroke-width="3.13604"/>
<path d="M218.108 124.523L218.077 125.289L217.26 125.037C215.889 124.619 214.145 123.873 213.626 122.699C212.705 120.631 212.352 116.574 212.015 112.648L211.936 111.757C211.85 110.744 212.119 109.937 212.743 109.367C213.585 108.596 214.916 108.374 215.635 108.307L216.067 108.269L216.264 108.614C218.676 112.717 218.393 118.55 218.184 122.804C218.153 123.405 218.126 123.978 218.108 124.523ZM215.33 109.494C214.812 109.576 214.093 109.762 213.656 110.16C213.294 110.492 213.148 110.987 213.208 111.671L213.287 112.569C213.618 116.407 213.961 120.375 214.812 122.284C215.028 122.768 215.759 123.267 216.862 123.692C216.878 123.388 216.894 123.075 216.909 122.76C217.104 118.754 217.37 113.315 215.33 109.494Z" fill="#515BE0"/>
<path d="M188.589 124.836C201.097 124.836 211.236 133.846 211.236 144.958C211.236 156.071 201.098 165.077 188.589 165.077C176.082 165.077 165.939 156.073 165.939 144.958C165.939 133.844 176.082 124.836 188.589 124.836ZM179.42 133.434C179.468 133.439 179.815 133.476 180.323 133.587C180.88 133.709 181.607 133.916 182.382 134.234C183.151 134.56 183.951 134.999 184.689 135.543C185.06 135.817 185.422 136.109 185.754 136.433C186.101 136.742 186.402 137.097 186.711 137.443C186.988 137.809 187.273 138.169 187.502 138.559C187.748 138.938 187.946 139.339 188.129 139.733C188.483 140.527 188.707 141.336 188.815 142.086C188.916 142.838 188.916 143.519 188.869 144.026C188.862 144.131 188.851 144.22 188.841 144.305C189.077 143.983 189.409 143.545 189.816 143.017C190.67 141.934 191.811 140.487 192.958 139.042C194.151 137.631 195.34 136.223 196.239 135.163C197.132 134.132 197.749 133.46 197.775 133.44C195.178 131.805 192.02 130.834 188.592 130.834C185.167 130.836 182.012 131.804 179.42 133.434ZM198.094 133.655C198.104 133.706 198.175 134.005 198.207 134.457C198.254 134.969 198.249 135.645 198.149 136.397C198.041 137.145 197.816 137.956 197.459 138.754C197.288 139.153 197.081 139.548 196.838 139.925C196.608 140.315 196.325 140.677 196.05 141.044C195.74 141.395 195.446 141.744 195.101 142.058C194.771 142.384 194.405 142.675 194.037 142.952C193.299 143.496 192.501 143.936 191.731 144.257C190.955 144.574 190.229 144.784 189.668 144.904C189.56 144.928 189.46 144.947 189.362 144.964C189.78 145.065 190.358 145.21 191.043 145.387C192.47 145.777 194.371 146.296 196.268 146.815C198.147 147.386 200.025 147.96 201.437 148.39C202.84 148.837 203.769 149.155 203.769 149.155L203.748 149.211C204.224 147.866 204.486 146.435 204.486 144.955C204.485 140.325 201.965 136.229 198.094 133.655ZM203.632 149.489C203.59 149.513 203.288 149.666 202.798 149.844C202.272 150.034 201.542 150.242 200.705 150.387C199.871 150.527 198.934 150.589 197.976 150.536C197.495 150.511 197.006 150.464 196.525 150.375C196.036 150.298 195.561 150.173 195.085 150.052C194.618 149.9 194.147 149.758 193.702 149.566C193.254 149.389 192.828 149.168 192.422 148.938C191.608 148.486 190.892 147.944 190.313 147.396C189.73 146.84 189.28 146.289 188.98 145.859C188.922 145.77 188.872 145.693 188.823 145.617C188.841 146.001 188.867 146.53 188.887 147.167C188.912 148.489 188.942 150.257 188.974 152.021C188.942 153.785 188.911 155.549 188.887 156.875C188.844 158.168 188.789 159.025 188.786 159.073C195.695 158.995 201.524 155.014 203.632 149.489L203.632 149.489ZM188.386 159.069C188.356 159.045 188.093 158.836 187.755 158.47C187.384 158.081 186.936 157.532 186.52 156.872C186.114 156.212 185.759 155.44 185.519 154.613C185.396 154.198 185.296 153.771 185.243 153.337C185.171 152.903 185.162 152.463 185.142 152.02C185.158 151.581 185.165 151.137 185.238 150.702C185.286 150.268 185.392 149.841 185.51 149.427C185.746 148.598 186.102 147.829 186.512 147.167C186.929 146.503 187.378 145.951 187.749 145.565C187.82 145.489 187.889 145.421 187.956 145.355C187.553 145.492 186.993 145.677 186.318 145.892C184.909 146.323 183.03 146.894 181.147 147.466C179.248 147.986 177.346 148.502 175.924 148.892C174.536 149.254 173.599 149.471 173.542 149.483C175.645 155.005 181.475 158.989 188.386 159.069ZM173.432 149.214L173.414 149.158C173.414 149.158 173.56 148.853 173.863 148.428C174.162 147.997 174.614 147.445 175.195 146.891C175.779 146.343 176.495 145.804 177.308 145.349C177.711 145.116 178.136 144.898 178.586 144.721C179.03 144.522 179.501 144.379 179.965 144.23C180.446 144.108 180.917 143.977 181.406 143.901C181.887 143.808 182.376 143.769 182.857 143.736C183.81 143.683 184.751 143.746 185.584 143.882C186.423 144.031 187.153 144.241 187.682 144.435C187.787 144.476 187.876 144.507 187.967 144.544C187.7 144.245 187.329 143.831 186.887 143.327C185.994 142.267 184.799 140.855 183.606 139.441C182.465 138 181.322 136.555 180.464 135.471C179.661 134.428 179.146 133.71 179.098 133.641C175.216 136.214 172.692 140.317 172.692 144.956C172.694 146.441 172.956 147.87 173.432 149.213L173.432 149.214Z" fill="#E1FFF9"/>
<path d="M36.9916 124.836C49.4982 124.836 59.6411 133.846 59.6411 144.958C59.6411 156.071 49.4978 165.077 36.9916 165.077C24.485 165.077 14.3422 156.073 14.3422 144.958C14.3422 133.844 24.4867 124.836 36.9916 124.836ZM27.823 133.434C27.8716 133.439 28.2229 133.476 28.7263 133.587C29.2848 133.709 30.01 133.916 30.787 134.234C31.5511 134.56 32.3507 134.999 33.0921 135.543C33.4628 135.817 33.8302 136.109 34.1588 136.433C34.502 136.742 34.8047 137.097 35.1107 137.443C35.3891 137.809 35.674 138.169 35.9023 138.559C36.1532 138.938 36.3507 139.339 36.532 139.733C36.8865 140.527 37.1098 141.336 37.2183 142.086C37.3186 142.838 37.3186 143.519 37.2733 144.026C37.2636 144.127 37.2555 144.22 37.2426 144.305C37.4838 143.983 37.814 143.545 38.217 143.017C39.0734 141.934 40.2097 140.487 41.3574 139.042C42.5521 137.631 43.7483 136.223 44.6419 135.163C45.5354 134.132 46.1522 133.46 46.1765 133.44C43.5848 131.805 40.4217 130.834 36.9966 130.834C33.5746 130.836 30.413 131.804 27.823 133.434ZM46.4955 133.655C46.5068 133.706 46.5764 134.005 46.612 134.457C46.6558 134.969 46.6509 135.645 46.5489 136.397C46.4421 137.145 46.2155 137.956 45.8642 138.754C45.6878 139.153 45.4854 139.548 45.2426 139.925C45.0127 140.315 44.7278 140.677 44.451 141.044C44.1418 141.395 43.8505 141.744 43.5024 142.058C43.1754 142.384 42.808 142.675 42.4389 142.952C41.704 143.496 40.9011 143.936 40.1306 144.257C39.3584 144.574 38.6316 144.784 38.0715 144.904C37.9582 144.928 37.8578 144.947 37.7655 144.964C38.1816 145.065 38.7562 145.21 39.4458 145.387C40.8703 145.777 42.7691 146.296 44.6681 146.815C46.5507 147.386 48.4301 147.96 49.8398 148.39C51.2432 148.837 52.1692 149.155 52.1692 149.155L52.1482 149.211C52.6257 147.871 52.883 146.435 52.883 144.955C52.8847 140.325 50.3659 136.229 46.4955 133.655ZM52.0348 149.489C51.9959 149.513 51.6932 149.666 51.2011 149.844C50.6718 150.034 49.9434 150.242 49.1097 150.387C48.2761 150.527 47.3388 150.589 46.3789 150.536C45.8981 150.511 45.4093 150.464 44.9285 150.375C44.4396 150.298 43.9653 150.173 43.4878 150.052C43.0216 149.9 42.5505 149.758 42.1054 149.566C41.6619 149.389 41.2312 149.168 40.8217 148.938C40.0123 148.486 39.2952 147.944 38.7092 147.396C38.1313 146.84 37.6813 146.289 37.3818 145.859C37.322 145.77 37.2702 145.693 37.2216 145.617C37.2426 146.005 37.2702 146.53 37.2896 147.167C37.3122 148.489 37.3414 150.257 37.3753 152.021C37.3397 153.785 37.3122 155.549 37.2896 156.875C37.2475 158.168 37.1892 159.025 37.1827 159.073C44.0949 158.995 49.9305 155.014 52.0348 149.489L52.0348 149.489ZM36.7894 159.069C36.7619 159.045 36.4964 158.836 36.1581 158.47C35.7874 158.081 35.3406 157.532 34.923 156.872C34.5167 156.212 34.1589 155.44 33.921 154.613C33.7996 154.198 33.7008 153.771 33.6474 153.337C33.5762 152.903 33.5665 152.463 33.547 152.02C33.5648 151.581 33.5681 151.137 33.6393 150.702C33.6879 150.268 33.7947 149.841 33.9129 149.427C34.1525 148.598 34.5053 147.829 34.9149 147.167C35.3309 146.503 35.7777 145.951 36.15 145.565C36.2245 145.489 36.2941 145.421 36.3605 145.355C35.9542 145.492 35.3925 145.677 34.7223 145.892C33.3108 146.323 31.4314 146.894 29.5535 147.466C27.6531 147.986 25.7494 148.502 24.325 148.892C22.9393 149.254 22.0021 149.471 21.947 149.483C24.0498 155.005 29.8793 158.989 36.7894 159.069ZM21.8275 149.192L21.8178 149.159C21.8178 149.159 21.9667 148.854 22.2678 148.43C22.5672 147.999 23.0173 147.446 23.5951 146.893C24.1795 146.345 24.8998 145.805 25.7076 145.351C26.1139 145.118 26.5413 144.899 26.9913 144.722C27.4316 144.524 27.9027 144.38 28.3672 144.232C28.8497 144.11 29.3239 143.979 29.808 143.903C30.2904 143.809 30.7776 143.77 31.26 143.737C32.2166 143.686 33.1539 143.75 33.9859 143.886C34.8212 144.034 35.5545 144.244 36.0838 144.438C36.1907 144.479 36.2813 144.51 36.3687 144.547C36.0968 144.248 35.7325 143.834 35.2922 143.33C34.3971 142.27 33.2008 140.858 32.011 139.444C30.8698 138.003 29.727 136.558 28.869 135.474C28.0645 134.431 27.5465 133.711 27.4996 133.644C23.6194 136.217 21.0942 140.32 21.0942 144.96C21.0974 146.432 21.3564 147.853 21.8275 149.192Z" fill="#E1FFF9"/>
<path d="M4.75172 129.498L5.10461 129.095L4.99777 128.592C4.92978 128.262 3.45671 120.394 13.2228 117.846C24.0813 115.007 52.9762 109.942 53.2609 109.89L53.5976 109.83L53.8501 109.631C54.1172 109.426 80.9739 88.9665 106.404 86.4383C114.016 85.6818 123.002 85.2979 133.11 85.2979C154.533 85.2979 177.986 87.0423 192.863 89.7387C193.104 89.7775 198.216 90.5929 204.225 90.5929C205.814 90.5929 207.336 90.5325 208.751 90.4203C207.16 91.2343 204.77 92.2683 202.548 93.055L200.733 93.7007L202.13 94.9188C202.211 94.9907 209.949 101.762 214.187 106.819C213.249 107.029 212.205 107.422 211.372 108.18C210.669 108.823 209.863 109.988 210.03 111.889L210.106 112.778C210.47 117.016 210.818 121.014 211.846 123.325C212.958 125.821 216.893 126.788 218.144 127.035L222.259 130.064C222.501 130.339 224.246 132.451 223.935 137.216C223.893 137.837 223.864 138.467 223.83 139.1C223.567 144.194 223.316 149.006 218.862 150.601C218.46 150.744 217.52 150.967 215.328 151.272C215.958 149.19 216.275 147.073 216.275 144.951C216.275 131.39 203.854 120.355 188.589 120.355C173.324 120.355 160.904 131.39 160.904 144.951C160.904 148.466 161.755 151.951 163.382 155.128C158.854 155.381 155.976 155.526 155.976 155.526L61.6172 156.143C63.6228 152.676 64.6734 148.846 64.6734 144.952C64.6734 131.39 52.2509 120.355 36.9865 120.355C21.7233 120.355 9.30412 131.39 9.30412 144.952C9.30412 148.513 10.188 152.04 11.8682 155.269L10.2883 155.236C10.2446 155.231 3.89743 154.957 2.91158 151.048L2.77884 150.529C1.5826 145.806 -0.916779 135.969 4.74886 129.497L4.75172 129.498ZM99.2848 90.5092L84.3468 102.696L83.293 109.401L122.823 106.808L128.181 87.8547C115.843 87.2219 99.2852 90.5095 99.2852 90.5095L99.2848 90.5092ZM109.433 117.412C109.509 118.126 110.224 118.649 111.027 118.579L121.371 117.707C122.174 117.641 122.763 117.008 122.687 116.294C122.612 115.579 121.899 115.057 121.092 115.124L110.749 115.994C109.946 116.065 109.356 116.698 109.433 117.412ZM172.123 89.8604C156.078 87.3351 136.135 87.9118 136.135 87.9118L133.213 106.014L175.341 103.271L172.123 89.8604ZM180.256 93.8267C180.256 93.8267 181.593 97.7197 182.567 99.6481C183.542 101.578 186.517 101.568 186.517 101.568C186.517 101.568 194.742 101.135 198.474 100.941C202.209 100.75 200.152 98.3955 198.474 96.1806C196.797 93.9659 193.982 93.7286 193.982 93.7286L182.565 92.0934C179.637 91.6735 180.255 93.8264 180.255 93.8264L180.256 93.8267ZM167.069 115.222L177.421 114.442C178.224 114.382 178.823 113.756 178.753 113.04C178.685 112.327 177.978 111.795 177.175 111.855L166.82 112.635C166.016 112.695 165.418 113.321 165.486 114.037C165.556 114.749 166.267 115.279 167.069 115.222ZM66.4157 131.628C66.6958 131.894 66.9224 132.203 67.1749 132.485C67.4307 132.767 67.6395 133.076 67.8564 133.384C68.0701 133.693 68.3016 133.988 68.4861 134.314C68.8924 134.943 69.2518 135.59 69.5901 136.249C69.7682 136.571 69.9074 136.913 70.0676 137.242C70.2279 137.576 70.3816 137.914 70.5128 138.252C71.0906 139.604 71.5634 140.99 71.9842 142.388C72.3905 143.782 72.7887 145.198 73.0656 146.596L73.1675 147.124L73.8086 147.128C80.5102 147.17 87.2086 147.157 93.907 147.095C100.604 147.058 107.302 146.947 113.999 146.838L124.043 146.628C127.392 146.556 130.738 146.484 134.087 146.379L144.131 146.078L154.171 145.712L154.972 145.679L155 144.957L155.044 143.71C155.034 143.287 155.134 142.873 155.193 142.454C155.264 142.04 155.309 141.622 155.439 141.209L155.777 139.968C156.081 139.161 156.353 138.341 156.73 137.547C157.064 136.741 157.503 135.968 157.917 135.184C158.801 133.638 159.817 132.151 160.931 130.715C161.488 129.993 162.072 129.294 162.67 128.598C163.265 127.9 163.885 127.22 164.544 126.568C163.099 127.761 161.744 129.052 160.502 130.426C159.26 131.803 158.1 133.244 157.065 134.766C156.577 135.54 156.055 136.303 155.643 137.123C155.429 137.529 155.186 137.921 155.018 138.348L154.467 139.608L154.03 140.901C153.868 141.333 153.789 141.784 153.687 142.231C153.596 142.683 153.464 143.126 153.443 143.583L153.384 144.212L144.093 144.22L134.045 144.292C130.696 144.312 127.345 144.368 123.999 144.422L113.953 144.591C107.257 144.735 100.562 144.878 93.8678 145.09C87.3655 145.276 80.8627 145.509 74.3666 145.791C74.0121 144.531 73.6122 143.298 73.1396 142.082C72.5989 140.684 71.9951 139.306 71.2926 137.975C71.1275 137.632 70.9445 137.303 70.7519 136.977C70.5593 136.647 70.3942 136.312 70.1789 135.993C69.7791 135.346 69.3582 134.709 68.8936 134.096C68.4338 133.483 67.932 132.892 67.3736 132.347C67.0838 132.085 66.8264 131.795 66.5156 131.553L65.5784 130.836L66.4157 131.628ZM66.5857 109.974C69.2729 109.974 71.4388 109.902 72.1316 109.879L93.3096 92.2245L90.7406 92.0447C85.9572 93.7331 80.9587 95.9119 75.8935 98.5222L67.9196 102.939C63.2302 105.717 59.5864 108.196 57.5513 109.643C60.0183 109.859 63.1052 109.974 66.5857 109.974ZM14.7815 125.627C19.1684 123.824 30.7732 116.252 19.2865 118.346C7.80136 120.434 7.68161 126.058 7.68161 126.058C7.67999 126.058 10.3995 127.433 14.7815 125.627Z" fill="#515BE0"/>
<path d="M367.697 15.6977C366.854 14.7939 365.835 14.0724 364.702 13.5775C363.57 13.0829 362.349 12.8256 361.113 12.8212C359.877 12.8171 358.654 13.066 357.518 13.5529C356.382 14.0398 355.357 14.7541 354.508 15.6521M371.667 10.1867C370.318 8.74051 368.688 7.58599 366.876 6.7944C365.064 6.00277 363.108 5.59097 361.13 5.58407C359.153 5.57716 357.196 5.97566 355.378 6.75463C353.561 7.53352 351.923 8.67501 350.564 10.1118M361.081 23.6771C362.081 23.6771 362.891 22.8671 362.891 21.8678C362.891 20.8687 362.081 20.0585 361.081 20.0585C360.082 20.0585 359.272 20.8687 359.272 21.8678C359.272 22.8671 360.082 23.6771 361.081 23.6771Z" stroke="#E1FFF9" stroke-width="3.61863" stroke-linecap="round" stroke-linejoin="round"/>
<defs>
<filter id="filter0_d_102_4757" x="278.509" y="53.9918" width="24.9093" height="36.8546" filterUnits="userSpaceOnUse" color-interpolation-filters="sRGB">
<feFlood flood-opacity="0" result="BackgroundImageFix"/>
<feColorMatrix in="SourceAlpha" type="matrix" values="0 0 0 0 0 0 0 0 0 0 0 0 0 0 0 0 0 0 127 0" result="hardAlpha"/>
<feOffset dy="2.83706"/>
<feGaussianBlur stdDeviation="3.19169"/>
<feComposite in2="hardAlpha" operator="out"/>
<feColorMatrix type="matrix" values="0 0 0 0 1 0 0 0 0 0.72 0 0 0 0 0 0 0 0 0.34 0"/>
<feBlend mode="normal" in2="BackgroundImageFix" result="effect1_dropShadow_102_4757"/>
<feBlend mode="normal" in="SourceGraphic" in2="effect1_dropShadow_102_4757" result="shape"/>
</filter>
</defs>
</svg>
