<svg width="485" height="191" viewBox="0 0 485 191" fill="none" xmlns="http://www.w3.org/2000/svg">
<path d="M470.714 26V40.3478H485V191H445.714V158.717H431.429V191H392.143V40.3478H406.429V26H470.714ZM463.571 54.6957H456.429V61.8696H463.571V54.6957ZM449.286 54.6957H442.143V61.8696H449.286V54.6957ZM435 54.6957H427.857V61.8696H435V54.6957ZM420.714 54.6957H413.571V61.8696H420.714V54.6957ZM385 69.0435V83.3913H377.857V90.5652H385V97.7391H377.857V104.913H385V112.087H377.857V119.261H385V126.435H377.857V133.609H385V140.783H377.857V147.957H385V155.13H377.857V162.304H385V169.478H377.857V176.652H385V191H335V69.0435H385ZM463.571 72.6304H456.429V86.9783H463.571V72.6304ZM449.286 72.6304H442.143V86.9783H449.286V72.6304ZM435 72.6304H427.857V86.9783H435V72.6304ZM420.714 72.6304H413.571V86.9783H420.714V72.6304ZM370.714 83.3913H363.571V90.5652H370.714V83.3913ZM356.429 83.3913H349.286V90.5652H356.429V83.3913ZM463.571 94.1522H456.429V108.5H463.571V94.1522ZM449.286 94.1522H442.143V108.5H449.286V94.1522ZM435 94.1522H427.857V108.5H435V94.1522ZM420.714 94.1522H413.571V108.5H420.714V94.1522ZM370.714 97.7391H363.571V104.913H370.714V97.7391ZM356.429 97.7391H349.286V104.913H356.429V97.7391ZM370.714 112.087H363.571V119.261H370.714V112.087ZM356.429 112.087H349.286V119.261H356.429V112.087ZM463.571 115.674H456.429V130.022H463.571V115.674ZM449.286 115.674H442.143V130.022H449.286V115.674ZM435 115.674H427.857V130.022H435V115.674ZM420.714 115.674H413.571V130.022H420.714V115.674ZM370.714 126.435H363.571V133.609H370.714V126.435ZM356.429 126.435H349.286V133.609H356.429V126.435ZM463.571 137.196H456.429V151.543H463.571V137.196ZM449.286 137.196H442.143V151.543H449.286V137.196ZM435 137.196H427.857V151.543H435V137.196ZM420.714 137.196H413.571V151.543H420.714V137.196ZM370.714 140.783H363.571V147.957H370.714V140.783ZM356.429 140.783H349.286V147.957H356.429V140.783ZM370.714 155.13H363.571V162.304H370.714V155.13ZM356.429 155.13H349.286V162.304H356.429V155.13ZM463.571 158.717H456.429V176.652H463.571V158.717ZM420.714 158.717H413.571V176.652H420.714V158.717ZM370.714 169.478H363.571V176.652H370.714V169.478ZM356.429 169.478H349.286V176.652H356.429V169.478Z" fill="#E1FFF9"/>
<mask id="path-2-inside-1_102_4780" fill="white">
<path fill-rule="evenodd" clip-rule="evenodd" d="M271.23 175.652V124.569C271.23 120.823 274.231 117.776 277.921 117.776H304.686C308.375 117.776 311.377 120.823 311.377 124.569V175.652H311.377V186.973C311.377 188.224 310.379 189.237 309.147 189.237H291.303V189.238H273.46C272.228 189.238 271.229 188.224 271.229 186.973V175.652H271.23ZM282.693 159.482H300.255C301.467 159.482 302.45 156.975 302.45 153.88V131.473C302.45 128.378 301.467 125.871 300.255 125.871H282.693C281.48 125.871 280.498 128.378 280.498 131.473V153.881C280.498 156.975 281.48 159.482 282.693 159.482Z"/>
</mask>
<path fill-rule="evenodd" clip-rule="evenodd" d="M271.23 175.652V124.569C271.23 120.823 274.231 117.776 277.921 117.776H304.686C308.375 117.776 311.377 120.823 311.377 124.569V175.652H311.377V186.973C311.377 188.224 310.379 189.237 309.147 189.237H291.303V189.238H273.46C272.228 189.238 271.229 188.224 271.229 186.973V175.652H271.23ZM282.693 159.482H300.255C301.467 159.482 302.45 156.975 302.45 153.88V131.473C302.45 128.378 301.467 125.871 300.255 125.871H282.693C281.48 125.871 280.498 128.378 280.498 131.473V153.881C280.498 156.975 281.48 159.482 282.693 159.482Z" fill="#515BE0"/>
<path d="M271.23 175.652H274.366V178.788H271.23V175.652ZM311.377 175.652V178.788H308.241V175.652H311.377ZM311.377 175.652V172.516H314.513V175.652H311.377ZM291.303 189.237H288.167V186.101H291.303V189.237ZM291.303 189.238H294.439V192.374H291.303V189.238ZM271.229 175.652H268.093V172.516H271.229V175.652ZM274.366 124.569V175.652H268.094V124.569H274.366ZM277.921 120.912C276.007 120.912 274.366 122.511 274.366 124.569H268.094C268.094 119.136 272.455 114.64 277.921 114.64V120.912ZM304.686 120.912H277.921V114.64H304.686V120.912ZM308.241 124.569C308.241 122.511 306.599 120.912 304.686 120.912V114.64C310.152 114.64 314.513 119.136 314.513 124.569H308.241ZM308.241 175.652V124.569H314.513V175.652H308.241ZM311.377 178.788H311.377V172.516H311.377V178.788ZM308.241 186.973V175.652H314.513V186.973H308.241ZM309.147 186.101C308.602 186.101 308.241 186.536 308.241 186.973H314.513C314.513 189.911 312.155 192.373 309.147 192.373V186.101ZM291.303 186.101H309.147V192.373H291.303V186.101ZM288.167 189.238V189.237H294.439V189.238H288.167ZM273.46 186.101H291.303V192.374H273.46V186.101ZM274.366 186.973C274.366 186.537 274.004 186.101 273.46 186.101V192.374C270.452 192.374 268.093 189.911 268.093 186.973H274.366ZM274.366 175.652V186.973H268.093V175.652H274.366ZM271.23 178.788H271.229V172.516H271.23V178.788ZM300.255 162.618H282.693V156.346H300.255V162.618ZM305.586 153.88C305.586 155.718 305.3 157.524 304.727 158.986C304.444 159.708 304.03 160.504 303.409 161.174C302.785 161.847 301.722 162.618 300.255 162.618V156.346C299.393 156.346 298.908 156.804 298.809 156.911C298.714 157.013 298.773 156.99 298.887 156.698C299.109 156.132 299.314 155.138 299.314 153.88H305.586ZM305.586 131.473V153.88H299.314V131.473H305.586ZM300.255 122.735C301.722 122.735 302.785 123.506 303.409 124.18C304.03 124.849 304.444 125.646 304.727 126.367C305.3 127.83 305.586 129.636 305.586 131.473H299.314C299.314 130.216 299.109 129.221 298.887 128.656C298.773 128.364 298.714 128.34 298.809 128.443C298.908 128.549 299.393 129.007 300.255 129.007V122.735ZM282.693 122.735H300.255V129.007H282.693V122.735ZM277.362 131.473C277.362 129.636 277.648 127.83 278.221 126.367C278.503 125.646 278.918 124.849 279.538 124.18C280.162 123.506 281.225 122.735 282.693 122.735V129.007C283.554 129.007 284.04 128.549 284.138 128.443C284.233 128.34 284.175 128.364 284.06 128.656C283.839 129.221 283.634 130.216 283.634 131.473H277.362ZM277.362 153.881V131.473H283.634V153.881H277.362ZM282.693 162.618C281.225 162.618 280.162 161.847 279.538 161.174C278.918 160.504 278.503 159.708 278.221 158.986C277.648 157.524 277.362 155.718 277.362 153.881H283.634C283.634 155.138 283.839 156.132 284.06 156.698C284.175 156.99 284.233 157.013 284.138 156.911C284.04 156.804 283.554 156.346 282.693 156.346V162.618Z" fill="#515BE0" mask="url(#path-2-inside-1_102_4780)"/>
<g filter="url(#filter0_d_102_4780)">
<path d="M281.673 68.7832H294.371L296.042 86.493H290.027L296.042 106.334L279 79.8101H289.024L281.673 68.7832Z" fill="#FFB800"/>
<path d="M281.673 68.7832H294.371L296.042 86.493H290.027L296.042 106.334L279 79.8101H289.024L281.673 68.7832Z" stroke="#FFB800" stroke-width="1.75201"/>
</g>
<path d="M271.09 143.801C274.226 143.801 272.658 142.233 267.954 143.801C263.25 145.369 267.301 151.949 264.818 156.346C256.687 170.741 227.184 153.209 222.48 157.913" stroke="#515BE0" stroke-width="3.13604"/>
<path d="M218.108 149.524L218.077 150.29L217.26 150.038C215.889 149.62 214.145 148.873 213.626 147.7C212.705 145.632 212.352 141.575 212.015 137.649L211.936 136.758C211.85 135.745 212.119 134.938 212.743 134.368C213.585 133.597 214.916 133.375 215.635 133.308L216.067 133.27L216.264 133.615C218.676 137.718 218.393 143.551 218.184 147.805C218.153 148.406 218.126 148.978 218.108 149.524ZM215.33 134.495C214.812 134.577 214.093 134.763 213.656 135.161C213.294 135.493 213.148 135.988 213.208 136.672L213.287 137.57C213.618 141.408 213.961 145.376 214.812 147.285C215.028 147.769 215.759 148.268 216.862 148.693C216.878 148.389 216.894 148.076 216.909 147.761C217.104 143.755 217.37 138.316 215.33 134.495Z" fill="#515BE0"/>
<path d="M188.589 149.837C201.097 149.837 211.236 158.847 211.236 169.959C211.236 181.072 201.098 190.078 188.589 190.078C176.082 190.078 165.939 181.073 165.939 169.959C165.939 158.845 176.082 149.837 188.589 149.837ZM179.42 158.435C179.468 158.44 179.815 158.477 180.323 158.588C180.88 158.71 181.607 158.917 182.382 159.235C183.151 159.561 183.951 160 184.689 160.544C185.06 160.818 185.422 161.11 185.754 161.434C186.101 161.743 186.402 162.098 186.711 162.444C186.988 162.81 187.273 163.17 187.502 163.56C187.748 163.939 187.946 164.34 188.129 164.734C188.483 165.528 188.707 166.337 188.815 167.087C188.916 167.839 188.916 168.52 188.869 169.027C188.862 169.132 188.851 169.221 188.841 169.306C189.077 168.984 189.409 168.546 189.816 168.018C190.67 166.935 191.811 165.488 192.958 164.043C194.151 162.632 195.34 161.224 196.239 160.164C197.132 159.133 197.749 158.461 197.775 158.441C195.178 156.806 192.02 155.835 188.592 155.835C185.167 155.837 182.012 156.805 179.42 158.435ZM198.094 158.656C198.104 158.707 198.175 159.006 198.207 159.458C198.254 159.97 198.249 160.646 198.149 161.398C198.041 162.146 197.816 162.957 197.459 163.755C197.288 164.154 197.081 164.549 196.838 164.926C196.608 165.316 196.325 165.678 196.05 166.045C195.74 166.396 195.446 166.745 195.101 167.059C194.771 167.385 194.405 167.676 194.037 167.953C193.299 168.497 192.501 168.937 191.731 169.258C190.955 169.575 190.229 169.785 189.668 169.905C189.56 169.929 189.46 169.948 189.362 169.965C189.78 170.066 190.358 170.211 191.043 170.388C192.47 170.778 194.371 171.297 196.268 171.816C198.147 172.387 200.025 172.961 201.437 173.391C202.84 173.838 203.769 174.156 203.769 174.156L203.748 174.212C204.224 172.867 204.486 171.436 204.486 169.956C204.485 165.326 201.965 161.23 198.094 158.656ZM203.632 174.49C203.59 174.514 203.288 174.666 202.798 174.845C202.272 175.035 201.542 175.243 200.705 175.388C199.871 175.528 198.934 175.59 197.976 175.537C197.495 175.512 197.006 175.465 196.525 175.376C196.036 175.299 195.561 175.174 195.085 175.053C194.618 174.901 194.147 174.759 193.702 174.567C193.254 174.39 192.828 174.169 192.422 173.939C191.608 173.487 190.892 172.945 190.313 172.397C189.73 171.841 189.28 171.29 188.98 170.86C188.922 170.771 188.872 170.694 188.823 170.618C188.841 171.002 188.867 171.531 188.887 172.168C188.912 173.49 188.942 175.258 188.974 177.022C188.942 178.786 188.911 180.55 188.887 181.876C188.844 183.169 188.789 184.026 188.786 184.074C195.695 183.996 201.524 180.015 203.632 174.49L203.632 174.49ZM188.386 184.07C188.356 184.046 188.093 183.837 187.755 183.471C187.384 183.082 186.936 182.533 186.52 181.873C186.114 181.213 185.759 180.441 185.519 179.614C185.396 179.199 185.296 178.772 185.243 178.338C185.171 177.904 185.162 177.464 185.142 177.021C185.158 176.582 185.165 176.138 185.238 175.703C185.286 175.269 185.392 174.842 185.51 174.428C185.746 173.599 186.102 172.83 186.512 172.168C186.929 171.504 187.378 170.952 187.749 170.566C187.82 170.49 187.889 170.422 187.956 170.356C187.553 170.493 186.993 170.678 186.318 170.893C184.909 171.324 183.03 171.895 181.147 172.467C179.248 172.987 177.346 173.503 175.924 173.893C174.536 174.255 173.599 174.472 173.542 174.484C175.645 180.006 181.475 183.99 188.386 184.07ZM173.432 174.215L173.414 174.158C173.414 174.158 173.56 173.854 173.863 173.429C174.162 172.998 174.614 172.446 175.195 171.892C175.779 171.344 176.495 170.805 177.308 170.35C177.711 170.117 178.136 169.899 178.586 169.722C179.03 169.523 179.501 169.38 179.965 169.231C180.446 169.109 180.917 168.978 181.406 168.902C181.887 168.809 182.376 168.77 182.857 168.737C183.81 168.683 184.751 168.747 185.584 168.883C186.423 169.032 187.153 169.241 187.682 169.436C187.787 169.477 187.876 169.508 187.967 169.545C187.7 169.246 187.329 168.832 186.887 168.328C185.994 167.268 184.799 165.856 183.606 164.442C182.465 163.001 181.322 161.556 180.464 160.472C179.661 159.429 179.146 158.711 179.098 158.642C175.216 161.215 172.692 165.318 172.692 169.957C172.694 171.442 172.956 172.871 173.432 174.214L173.432 174.215Z" fill="#E1FFF9"/>
<path d="M36.9916 149.837C49.4982 149.837 59.6411 158.847 59.6411 169.959C59.6411 181.072 49.4978 190.078 36.9916 190.078C24.485 190.078 14.3422 181.073 14.3422 169.959C14.3422 158.845 24.4867 149.837 36.9916 149.837ZM27.823 158.435C27.8716 158.44 28.2229 158.477 28.7263 158.588C29.2848 158.71 30.01 158.917 30.787 159.235C31.5511 159.561 32.3507 160 33.0921 160.544C33.4628 160.818 33.8302 161.11 34.1588 161.434C34.502 161.743 34.8047 162.098 35.1107 162.444C35.3891 162.81 35.674 163.17 35.9023 163.56C36.1532 163.939 36.3507 164.34 36.532 164.734C36.8865 165.528 37.1098 166.337 37.2183 167.087C37.3186 167.839 37.3186 168.52 37.2733 169.027C37.2636 169.128 37.2555 169.221 37.2426 169.306C37.4838 168.984 37.814 168.546 38.217 168.018C39.0734 166.935 40.2097 165.488 41.3574 164.043C42.5521 162.632 43.7483 161.224 44.6419 160.164C45.5354 159.133 46.1522 158.461 46.1765 158.441C43.5848 156.806 40.4217 155.835 36.9966 155.835C33.5746 155.837 30.413 156.805 27.823 158.435ZM46.4955 158.656C46.5068 158.707 46.5764 159.006 46.612 159.458C46.6558 159.97 46.6509 160.646 46.5489 161.398C46.4421 162.146 46.2155 162.957 45.8642 163.755C45.6878 164.154 45.4854 164.549 45.2426 164.926C45.0127 165.316 44.7278 165.678 44.451 166.045C44.1418 166.396 43.8505 166.745 43.5024 167.059C43.1754 167.385 42.808 167.676 42.4389 167.953C41.704 168.497 40.9011 168.937 40.1306 169.258C39.3584 169.575 38.6316 169.785 38.0715 169.905C37.9582 169.929 37.8578 169.948 37.7655 169.965C38.1816 170.066 38.7562 170.211 39.4458 170.388C40.8703 170.778 42.7691 171.297 44.6681 171.816C46.5507 172.387 48.4301 172.961 49.8398 173.391C51.2432 173.838 52.1692 174.156 52.1692 174.156L52.1482 174.212C52.6257 172.872 52.883 171.436 52.883 169.956C52.8847 165.326 50.3659 161.23 46.4955 158.656ZM52.0348 174.49C51.9959 174.514 51.6932 174.666 51.2011 174.845C50.6718 175.035 49.9434 175.243 49.1097 175.388C48.2761 175.528 47.3388 175.59 46.3789 175.537C45.8981 175.512 45.4093 175.465 44.9285 175.376C44.4396 175.299 43.9653 175.174 43.4878 175.053C43.0216 174.901 42.5505 174.759 42.1054 174.567C41.6619 174.39 41.2312 174.169 40.8217 173.939C40.0123 173.487 39.2952 172.945 38.7092 172.397C38.1313 171.841 37.6813 171.29 37.3818 170.86C37.322 170.771 37.2702 170.694 37.2216 170.618C37.2426 171.006 37.2702 171.531 37.2896 172.168C37.3122 173.49 37.3414 175.258 37.3753 177.022C37.3397 178.786 37.3122 180.55 37.2896 181.876C37.2475 183.169 37.1892 184.026 37.1827 184.074C44.0949 183.996 49.9305 180.015 52.0348 174.49L52.0348 174.49ZM36.7894 184.07C36.7619 184.046 36.4964 183.837 36.1581 183.471C35.7874 183.082 35.3406 182.533 34.923 181.873C34.5167 181.213 34.1589 180.441 33.921 179.614C33.7996 179.199 33.7008 178.772 33.6474 178.338C33.5762 177.904 33.5665 177.464 33.547 177.021C33.5648 176.582 33.5681 176.138 33.6393 175.703C33.6879 175.269 33.7947 174.842 33.9129 174.428C34.1525 173.599 34.5053 172.83 34.9149 172.168C35.3309 171.504 35.7777 170.952 36.15 170.566C36.2245 170.49 36.2941 170.422 36.3605 170.356C35.9542 170.493 35.3925 170.678 34.7223 170.893C33.3108 171.324 31.4314 171.895 29.5535 172.467C27.6531 172.987 25.7494 173.503 24.325 173.893C22.9393 174.255 22.0021 174.472 21.947 174.484C24.0498 180.006 29.8793 183.99 36.7894 184.07ZM21.8275 174.193L21.8178 174.16C21.8178 174.16 21.9667 173.855 22.2678 173.431C22.5672 173 23.0173 172.447 23.5951 171.894C24.1795 171.346 24.8998 170.806 25.7076 170.352C26.1139 170.119 26.5413 169.9 26.9913 169.723C27.4316 169.525 27.9027 169.381 28.3672 169.233C28.8497 169.111 29.3239 168.98 29.808 168.904C30.2904 168.81 30.7776 168.771 31.26 168.738C32.2166 168.687 33.1539 168.751 33.9859 168.886C34.8212 169.035 35.5545 169.245 36.0838 169.439C36.1907 169.48 36.2813 169.511 36.3687 169.548C36.0968 169.249 35.7325 168.835 35.2922 168.331C34.3971 167.271 33.2008 165.859 32.011 164.445C30.8698 163.004 29.727 161.559 28.869 160.475C28.0645 159.432 27.5465 158.712 27.4996 158.645C23.6194 161.218 21.0942 165.321 21.0942 169.961C21.0974 171.433 21.3564 172.854 21.8275 174.193Z" fill="#E1FFF9"/>
<path d="M4.75172 154.499L5.10461 154.096L4.99777 153.593C4.92978 153.263 3.45671 145.395 13.2228 142.847C24.0813 140.008 52.9762 134.943 53.2609 134.891L53.5976 134.831L53.8501 134.632C54.1172 134.427 80.9739 113.967 106.404 111.439C114.016 110.683 123.002 110.299 133.11 110.299C154.533 110.299 177.986 112.043 192.863 114.74C193.104 114.778 198.216 115.594 204.225 115.594C205.814 115.594 207.336 115.533 208.751 115.421C207.16 116.235 204.77 117.269 202.548 118.056L200.733 118.702L202.13 119.92C202.211 119.992 209.949 126.763 214.187 131.82C213.249 132.03 212.205 132.423 211.372 133.181C210.669 133.824 209.863 134.989 210.03 136.89L210.106 137.779C210.47 142.017 210.818 146.015 211.846 148.326C212.958 150.822 216.893 151.789 218.144 152.036L222.259 155.065C222.501 155.34 224.246 157.452 223.935 162.217C223.893 162.838 223.864 163.468 223.83 164.101C223.567 169.195 223.316 174.007 218.862 175.601C218.46 175.745 217.52 175.968 215.328 176.273C215.958 174.191 216.275 172.074 216.275 169.952C216.275 156.391 203.854 145.356 188.589 145.356C173.324 145.356 160.904 156.391 160.904 169.952C160.904 173.467 161.755 176.952 163.382 180.129C158.854 180.382 155.976 180.527 155.976 180.527L61.6172 181.144C63.6228 177.677 64.6734 173.847 64.6734 169.953C64.6734 156.391 52.2509 145.356 36.9865 145.356C21.7233 145.356 9.30412 156.391 9.30412 169.953C9.30412 173.514 10.188 177.041 11.8682 180.27L10.2883 180.237C10.2446 180.232 3.89743 179.958 2.91158 176.049L2.77884 175.53C1.5826 170.807 -0.916779 160.97 4.74886 154.498L4.75172 154.499ZM99.2848 115.51L84.3468 127.697L83.293 134.402L122.823 131.809L128.181 112.856C115.843 112.223 99.2852 115.51 99.2852 115.51L99.2848 115.51ZM109.433 142.413C109.509 143.127 110.224 143.65 111.027 143.58L121.371 142.708C122.174 142.642 122.763 142.009 122.687 141.295C122.612 140.58 121.899 140.058 121.092 140.125L110.749 140.995C109.946 141.066 109.356 141.699 109.433 142.413ZM172.123 114.861C156.078 112.336 136.135 112.913 136.135 112.913L133.213 131.015L175.341 128.272L172.123 114.861ZM180.256 118.828C180.256 118.828 181.593 122.721 182.567 124.649C183.542 126.579 186.517 126.569 186.517 126.569C186.517 126.569 194.742 126.136 198.474 125.942C202.209 125.751 200.152 123.396 198.474 121.182C196.797 118.967 193.982 118.73 193.982 118.73L182.565 117.094C179.637 116.674 180.255 118.827 180.255 118.827L180.256 118.828ZM167.069 140.223L177.421 139.443C178.224 139.383 178.823 138.757 178.753 138.041C178.685 137.328 177.978 136.796 177.175 136.856L166.82 137.636C166.016 137.696 165.418 138.322 165.486 139.038C165.556 139.75 166.267 140.28 167.069 140.223ZM66.4157 156.629C66.6958 156.895 66.9224 157.204 67.1749 157.486C67.4307 157.768 67.6395 158.077 67.8564 158.385C68.0701 158.694 68.3016 158.989 68.4861 159.315C68.8924 159.944 69.2518 160.591 69.5901 161.25C69.7682 161.572 69.9074 161.914 70.0676 162.243C70.2279 162.577 70.3816 162.915 70.5128 163.253C71.0906 164.605 71.5634 165.991 71.9842 167.389C72.3905 168.783 72.7887 170.199 73.0656 171.597L73.1675 172.125L73.8086 172.129C80.5102 172.171 87.2086 172.158 93.907 172.096C100.604 172.059 107.302 171.948 113.999 171.839L124.043 171.629C127.392 171.557 130.738 171.485 134.087 171.38L144.131 171.079L154.171 170.713L154.972 170.68L155 169.958L155.044 168.711C155.034 168.288 155.134 167.874 155.193 167.455C155.264 167.041 155.309 166.623 155.439 166.21L155.777 164.969C156.081 164.162 156.353 163.342 156.73 162.548C157.064 161.742 157.503 160.969 157.917 160.185C158.801 158.639 159.817 157.152 160.931 155.716C161.488 154.994 162.072 154.295 162.67 153.599C163.265 152.901 163.885 152.221 164.544 151.569C163.099 152.762 161.744 154.053 160.502 155.427C159.26 156.804 158.1 158.245 157.065 159.767C156.577 160.541 156.055 161.304 155.643 162.124C155.429 162.53 155.186 162.922 155.018 163.349L154.467 164.609L154.03 165.902C153.868 166.334 153.789 166.785 153.687 167.232C153.596 167.684 153.464 168.127 153.443 168.584L153.384 169.213L144.093 169.221L134.045 169.293C130.696 169.313 127.345 169.369 123.999 169.423L113.953 169.592C107.257 169.736 100.562 169.879 93.8678 170.091C87.3655 170.277 80.8627 170.51 74.3666 170.792C74.0121 169.532 73.6122 168.299 73.1396 167.083C72.5989 165.685 71.9951 164.307 71.2926 162.976C71.1275 162.633 70.9445 162.304 70.7519 161.978C70.5593 161.648 70.3942 161.313 70.1789 160.994C69.7791 160.347 69.3582 159.71 68.8936 159.097C68.4338 158.484 67.932 157.893 67.3736 157.348C67.0838 157.086 66.8264 156.796 66.5156 156.554L65.5784 155.837L66.4157 156.629ZM66.5857 134.975C69.2729 134.975 71.4388 134.903 72.1316 134.88L93.3096 117.225L90.7406 117.046C85.9572 118.734 80.9587 120.913 75.8935 123.523L67.9196 127.94C63.2302 130.718 59.5864 133.197 57.5513 134.644C60.0183 134.86 63.1052 134.975 66.5857 134.975ZM14.7815 150.628C19.1684 148.824 30.7732 141.253 19.2865 143.347C7.80136 145.435 7.68161 151.059 7.68161 151.059C7.67999 151.059 10.3995 152.434 14.7815 150.628Z" fill="#FFB800"/>
<path d="M382.451 25.1673C380.707 23.2972 378.599 21.8041 376.255 20.7801C373.912 19.7565 371.385 19.2241 368.828 19.2151C366.271 19.2065 363.739 19.7217 361.388 20.7292C359.038 21.7367 356.918 23.2148 355.161 25.0729M390.667 13.7635C387.876 10.771 384.502 8.38196 380.753 6.74393C377.003 5.10583 372.955 4.25371 368.863 4.23944C364.771 4.22514 360.722 5.04975 356.961 6.66164C353.2 8.27338 349.812 10.6354 347 13.6085M368.763 41.6789C370.83 41.6789 372.507 40.0028 372.507 37.935C372.507 35.8676 370.83 34.191 368.763 34.191C366.695 34.191 365.019 35.8676 365.019 37.935C365.019 40.0028 366.695 41.6789 368.763 41.6789Z" stroke="#E1FFF9" stroke-width="7.48794" stroke-linecap="round" stroke-linejoin="round"/>
<defs>
<filter id="filter0_d_102_4780" x="267.088" y="62.1804" width="40.2246" height="59.5161" filterUnits="userSpaceOnUse" color-interpolation-filters="sRGB">
<feFlood flood-opacity="0" result="BackgroundImageFix"/>
<feColorMatrix in="SourceAlpha" type="matrix" values="0 0 0 0 0 0 0 0 0 0 0 0 0 0 0 0 0 0 127 0" result="hardAlpha"/>
<feOffset dy="4.58148"/>
<feGaussianBlur stdDeviation="5.15417"/>
<feComposite in2="hardAlpha" operator="out"/>
<feColorMatrix type="matrix" values="0 0 0 0 1 0 0 0 0 0.72 0 0 0 0 0 0 0 0 0.34 0"/>
<feBlend mode="normal" in2="BackgroundImageFix" result="effect1_dropShadow_102_4780"/>
<feBlend mode="normal" in="SourceGraphic" in2="effect1_dropShadow_102_4780" result="shape"/>
</filter>
</defs>
</svg>
