<svg width="208" height="309" viewBox="0 0 208 309" fill="none" xmlns="http://www.w3.org/2000/svg">
<g clip-path="url(#clip0_526_3303)">
<rect width="200" height="300" transform="translate(0 9)" fill="#171C26"/>
<line x1="128.248" y1="36.9471" x2="163.232" y2="36.9471" stroke="#FFB800" stroke-width="1.02873"/>
<path d="M170.253 39.9458L170.426 39.0817L173.051 37.0242C173.271 36.8486 173.441 36.695 173.561 36.5633C173.688 36.4317 173.775 36.3082 173.825 36.193C173.874 36.0723 173.899 35.9488 173.899 35.8227C173.899 35.6306 173.827 35.477 173.685 35.3618C173.542 35.2466 173.331 35.189 173.051 35.189C172.821 35.189 172.598 35.2411 172.384 35.3453C172.176 35.4496 171.989 35.5977 171.825 35.7897L170.928 35.1396C171.164 34.8214 171.485 34.5662 171.891 34.3742C172.297 34.1822 172.749 34.0862 173.249 34.0862C173.655 34.0862 174.009 34.1547 174.31 34.2919C174.612 34.4236 174.845 34.6046 175.01 34.8351C175.18 35.0655 175.265 35.3316 175.265 35.6334C175.265 35.8583 175.224 36.0778 175.141 36.2918C175.059 36.5057 174.922 36.7252 174.73 36.9501C174.543 37.1696 174.28 37.411 173.94 37.6744L171.784 39.345L171.57 38.8595H174.829L174.615 39.9458H170.253ZM177.988 40.0446C177.56 40.0446 177.189 39.9595 176.877 39.7894C176.569 39.6139 176.331 39.3642 176.161 39.0405C175.991 38.7113 175.906 38.319 175.906 37.8637C175.906 37.3424 175.977 36.8541 176.12 36.3987C176.268 35.9434 176.473 35.5428 176.737 35.1972C177 34.846 177.316 34.5745 177.683 34.3824C178.056 34.1849 178.465 34.0862 178.909 34.0862C179.337 34.0862 179.705 34.1739 180.012 34.3495C180.325 34.5196 180.566 34.7665 180.736 35.0902C180.907 35.4139 180.992 35.8062 180.992 36.2671C180.992 36.7883 180.918 37.2766 180.769 37.732C180.627 38.1874 180.424 38.5906 180.16 38.9418C179.897 39.2874 179.582 39.559 179.214 39.7565C178.846 39.9485 178.438 40.0446 177.988 40.0446ZM178.111 38.9171C178.364 38.9171 178.586 38.8348 178.778 38.6702C178.97 38.5001 179.129 38.2806 179.255 38.0118C179.387 37.7429 179.486 37.4576 179.551 37.1559C179.617 36.8541 179.65 36.5688 179.65 36.3C179.65 35.9214 179.573 35.6471 179.42 35.477C179.266 35.3014 179.055 35.2136 178.786 35.2136C178.534 35.2136 178.311 35.2987 178.119 35.4688C177.927 35.6334 177.766 35.8501 177.634 36.1189C177.508 36.3878 177.412 36.6731 177.346 36.9748C177.28 37.2766 177.247 37.5619 177.247 37.8307C177.247 38.2038 177.324 38.4781 177.477 38.6537C177.637 38.8293 177.848 38.9171 178.111 38.9171ZM181.147 39.9458L181.319 39.0817L183.945 37.0242C184.164 36.8486 184.334 36.695 184.455 36.5633C184.581 36.4317 184.669 36.3082 184.718 36.193C184.768 36.0723 184.792 35.9488 184.792 35.8227C184.792 35.6306 184.721 35.477 184.578 35.3618C184.436 35.2466 184.225 35.189 183.945 35.189C183.714 35.189 183.492 35.2411 183.278 35.3453C183.07 35.4496 182.883 35.5977 182.718 35.7897L181.821 35.1396C182.057 34.8214 182.378 34.5662 182.784 34.3742C183.19 34.1822 183.643 34.0862 184.142 34.0862C184.548 34.0862 184.902 34.1547 185.204 34.2919C185.506 34.4236 185.739 34.6046 185.903 34.8351C186.073 35.0655 186.159 35.3316 186.159 35.6334C186.159 35.8583 186.117 36.0778 186.035 36.2918C185.953 36.5057 185.816 36.7252 185.624 36.9501C185.437 37.1696 185.174 37.411 184.834 37.6744L182.677 39.345L182.463 38.8595H185.722L185.508 39.9458H181.147ZM188.248 40.0446C187.825 40.0446 187.43 39.9869 187.063 39.8717C186.695 39.7565 186.388 39.5919 186.141 39.3779L186.783 38.3986C186.969 38.5632 187.197 38.6921 187.466 38.7854C187.74 38.8787 188.031 38.9253 188.338 38.9253C188.602 38.9253 188.824 38.8924 189.005 38.8265C189.191 38.7607 189.331 38.6647 189.424 38.5385C189.523 38.4123 189.573 38.2642 189.573 38.0941C189.573 37.8856 189.493 37.732 189.334 37.6332C189.18 37.529 188.944 37.4769 188.626 37.4769H188.017L188.19 36.5963L190.132 34.7775L190.223 35.2548H187.186L187.408 34.1849H191.441L191.276 35.049L189.334 36.8678L188.708 36.4893H189.005C189.405 36.4893 189.748 36.5524 190.033 36.6786C190.319 36.7993 190.538 36.9748 190.692 37.2053C190.846 37.4302 190.922 37.6991 190.922 38.0118C190.922 38.4013 190.807 38.7497 190.577 39.057C190.352 39.3642 190.036 39.6056 189.63 39.7812C189.23 39.9568 188.769 40.0446 188.248 40.0446Z" fill="#E1FFF9"/>
<g opacity="0.5" filter="url(#filter0_f_526_3303)">
<ellipse cx="48.4078" cy="146.506" rx="19.8888" ry="18.1742" fill="#E1FFF9"/>
</g>
<g opacity="0.5" filter="url(#filter1_f_526_3303)">
<ellipse cx="79.9557" cy="221.261" rx="19.8888" ry="18.1742" fill="#FFB800"/>
</g>
<g opacity="0.5" filter="url(#filter2_f_526_3303)">
<ellipse cx="183.101" cy="128.332" rx="58.5669" ry="58.2947" fill="#515BE0"/>
</g>
<path d="M106.56 277.156H171.874C189.291 277.156 198 268.447 198 251.03V237.967C198 220.55 189.291 211.842 171.874 211.842H106.56V224.905H171.874C180.583 224.905 184.937 229.259 184.937 237.967V251.03C184.937 259.739 180.583 264.093 171.874 264.093H106.56V277.156ZM106.56 237.967V251.03H171.874V237.967H106.56Z" fill="#515BE0"/>
<path d="M93.4974 277.156H28.1833C10.7662 277.156 2.05762 268.447 2.05762 251.03V237.967C2.05762 220.55 10.7662 211.842 28.1833 211.842H93.4974V224.905H28.1833C19.4747 224.905 15.1204 229.259 15.1204 237.967V251.03C15.1204 259.739 19.4747 264.093 28.1833 264.093H93.4974V277.156ZM93.4974 237.967V251.03H28.1833V237.967H93.4974Z" fill="#E1FFF9"/>
<line x1="90.7572" y1="175.787" x2="90.7572" y2="158.287" stroke="#FFB800" stroke-width="1.04996"/>
<line x1="93.6337" y1="171.583" x2="93.6337" y2="162.833" stroke="#FFB800" stroke-width="1.04996"/>
<path d="M90.455 167.388C90.455 167.388 65.5922 167.991 52.4815 167.388C10.6581 165.463 152.928 21.2681 45.6568 88.6405C-61.614 156.013 204.026 88.6406 204.026 88.6406" stroke="#FFB800" stroke-width="1.04996"/>
<path d="M110.643 155.221V150.42H111.754V155.221H110.643ZM113.1 155.221V150.42H114.019L116.851 153.876H116.405V150.42H117.503V155.221H116.59L113.751 151.764H114.197V155.221H113.1ZM119.873 152.58H122.177V153.472H119.873V152.58ZM119.955 155.221H118.844V150.42H122.472V151.312H119.955V155.221ZM123.43 155.221V150.42H125.508C125.938 150.42 126.308 150.491 126.619 150.633C126.93 150.77 127.17 150.969 127.339 151.229C127.508 151.49 127.593 151.801 127.593 152.162C127.593 152.519 127.508 152.827 127.339 153.088C127.17 153.344 126.93 153.54 126.619 153.678C126.308 153.815 125.938 153.883 125.508 153.883H124.047L124.541 153.396V155.221H123.43ZM126.482 155.221L125.282 153.479H126.468L127.682 155.221H126.482ZM124.541 153.52L124.047 152.999H125.446C125.789 152.999 126.045 152.925 126.214 152.779C126.384 152.628 126.468 152.423 126.468 152.162C126.468 151.897 126.384 151.691 126.214 151.545C126.045 151.398 125.789 151.325 125.446 151.325H124.047L124.541 150.797V153.52ZM128.048 155.221L130.188 150.42H131.285L133.432 155.221H132.266L130.51 150.982H130.949L129.186 155.221H128.048ZM129.118 154.192L129.413 153.348H131.882L132.183 154.192H129.118ZM135.713 155.303C135.329 155.303 134.961 155.253 134.609 155.152C134.257 155.047 133.973 154.912 133.758 154.747L134.135 153.911C134.341 154.057 134.584 154.178 134.862 154.274C135.146 154.366 135.432 154.411 135.72 154.411C135.939 154.411 136.115 154.391 136.248 154.35C136.385 154.304 136.486 154.242 136.55 154.165C136.614 154.087 136.646 153.998 136.646 153.897C136.646 153.769 136.595 153.668 136.495 153.595C136.394 153.518 136.261 153.456 136.097 153.41C135.932 153.36 135.749 153.314 135.548 153.273C135.352 153.227 135.153 153.172 134.952 153.108C134.755 153.044 134.574 152.962 134.41 152.861C134.245 152.761 134.11 152.628 134.005 152.464C133.905 152.299 133.854 152.089 133.854 151.833C133.854 151.558 133.927 151.309 134.074 151.085C134.225 150.857 134.449 150.676 134.746 150.543C135.048 150.406 135.425 150.338 135.877 150.338C136.179 150.338 136.476 150.374 136.769 150.447C137.062 150.516 137.32 150.621 137.544 150.763L137.201 151.606C136.977 151.478 136.753 151.385 136.529 151.325C136.305 151.261 136.085 151.229 135.871 151.229C135.656 151.229 135.48 151.254 135.342 151.305C135.205 151.355 135.107 151.421 135.048 151.504C134.988 151.581 134.958 151.673 134.958 151.778C134.958 151.901 135.009 152.002 135.109 152.08C135.21 152.153 135.342 152.212 135.507 152.258C135.672 152.304 135.852 152.349 136.049 152.395C136.25 152.441 136.449 152.493 136.646 152.553C136.847 152.612 137.03 152.692 137.194 152.793C137.359 152.893 137.491 153.026 137.592 153.191C137.697 153.355 137.75 153.563 137.75 153.815C137.75 154.085 137.674 154.331 137.523 154.555C137.373 154.779 137.146 154.96 136.844 155.097C136.547 155.234 136.17 155.303 135.713 155.303ZM139.642 155.221V151.325H138.106V150.42H142.289V151.325H140.753V155.221H139.642ZM143.093 155.221V150.42H145.171C145.601 150.42 145.971 150.491 146.282 150.633C146.593 150.77 146.833 150.969 147.002 151.229C147.171 151.49 147.256 151.801 147.256 152.162C147.256 152.519 147.171 152.827 147.002 153.088C146.833 153.344 146.593 153.54 146.282 153.678C145.971 153.815 145.601 153.883 145.171 153.883H143.71L144.204 153.396V155.221H143.093ZM146.145 155.221L144.945 153.479H146.131L147.345 155.221H146.145ZM144.204 153.52L143.71 152.999H145.109C145.452 152.999 145.708 152.925 145.877 152.779C146.046 152.628 146.131 152.423 146.131 152.162C146.131 151.897 146.046 151.691 145.877 151.545C145.708 151.398 145.452 151.325 145.109 151.325H143.71L144.204 150.797V153.52ZM150.475 155.303C149.793 155.303 149.261 155.113 148.877 154.734C148.493 154.354 148.301 153.812 148.301 153.108V150.42H149.412V153.067C149.412 153.524 149.505 153.854 149.693 154.055C149.88 154.256 150.143 154.357 150.482 154.357C150.82 154.357 151.083 154.256 151.27 154.055C151.458 153.854 151.551 153.524 151.551 153.067V150.42H152.649V153.108C152.649 153.812 152.457 154.354 152.073 154.734C151.689 155.113 151.156 155.303 150.475 155.303ZM156.25 155.303C155.88 155.303 155.534 155.244 155.214 155.125C154.899 155.001 154.625 154.827 154.391 154.603C154.158 154.379 153.975 154.117 153.843 153.815C153.715 153.513 153.651 153.182 153.651 152.82C153.651 152.459 153.715 152.128 153.843 151.826C153.975 151.524 154.158 151.261 154.391 151.037C154.629 150.813 154.906 150.642 155.221 150.523C155.537 150.399 155.882 150.338 156.257 150.338C156.673 150.338 157.048 150.411 157.382 150.557C157.72 150.699 158.003 150.909 158.232 151.188L157.519 151.846C157.354 151.659 157.171 151.52 156.97 151.428C156.769 151.332 156.549 151.284 156.312 151.284C156.088 151.284 155.882 151.321 155.694 151.394C155.507 151.467 155.345 151.572 155.207 151.709C155.07 151.846 154.963 152.009 154.885 152.196C154.812 152.384 154.775 152.592 154.775 152.82C154.775 153.049 154.812 153.257 154.885 153.444C154.963 153.632 155.07 153.794 155.207 153.931C155.345 154.069 155.507 154.174 155.694 154.247C155.882 154.32 156.088 154.357 156.312 154.357C156.549 154.357 156.769 154.311 156.97 154.219C157.171 154.123 157.354 153.979 157.519 153.787L158.232 154.446C158.003 154.725 157.72 154.937 157.382 155.084C157.048 155.23 156.671 155.303 156.25 155.303ZM160.136 155.221V151.325H158.599V150.42H162.783V151.325H161.247V155.221H160.136ZM165.639 155.303C164.958 155.303 164.425 155.113 164.041 154.734C163.657 154.354 163.465 153.812 163.465 153.108V150.42H164.576V153.067C164.576 153.524 164.67 153.854 164.857 154.055C165.044 154.256 165.307 154.357 165.646 154.357C165.984 154.357 166.247 154.256 166.434 154.055C166.622 153.854 166.716 153.524 166.716 153.067V150.42H167.813V153.108C167.813 153.812 167.621 154.354 167.237 154.734C166.853 155.113 166.32 155.303 165.639 155.303ZM169.117 155.221V150.42H171.195C171.624 150.42 171.995 150.491 172.306 150.633C172.616 150.77 172.857 150.969 173.026 151.229C173.195 151.49 173.279 151.801 173.279 152.162C173.279 152.519 173.195 152.827 173.026 153.088C172.857 153.344 172.616 153.54 172.306 153.678C171.995 153.815 171.624 153.883 171.195 153.883H169.734L170.228 153.396V155.221H169.117ZM172.168 155.221L170.968 153.479H172.155L173.369 155.221H172.168ZM170.228 153.52L169.734 152.999H171.133C171.476 152.999 171.732 152.925 171.901 152.779C172.07 152.628 172.155 152.423 172.155 152.162C172.155 151.897 172.07 151.691 171.901 151.545C171.732 151.398 171.476 151.325 171.133 151.325H169.734L170.228 150.797V153.52ZM175.387 152.354H177.699V153.218H175.387V152.354ZM175.47 154.329H178.083V155.221H174.365V150.42H177.993V151.312H175.47V154.329ZM110.643 165.221V160.42H112.824C113.346 160.42 113.805 160.521 114.203 160.722C114.601 160.918 114.912 161.195 115.136 161.552C115.36 161.908 115.472 162.331 115.472 162.82C115.472 163.305 115.36 163.728 115.136 164.089C114.912 164.446 114.601 164.725 114.203 164.926C113.805 165.122 113.346 165.221 112.824 165.221H110.643ZM111.754 164.309H112.769C113.09 164.309 113.366 164.249 113.599 164.13C113.837 164.007 114.02 163.833 114.148 163.609C114.281 163.385 114.347 163.122 114.347 162.82C114.347 162.514 114.281 162.251 114.148 162.032C114.02 161.808 113.837 161.636 113.599 161.517C113.366 161.394 113.09 161.332 112.769 161.332H111.754V164.309ZM117.537 162.354H119.848V163.218H117.537V162.354ZM117.619 164.329H120.232V165.221H116.515V160.42H120.143V161.312H117.619V164.329ZM123.47 165.221V160.42H125.548C125.978 160.42 126.348 160.491 126.659 160.633C126.97 160.77 127.21 160.969 127.379 161.229C127.548 161.49 127.633 161.801 127.633 162.162C127.633 162.519 127.548 162.827 127.379 163.088C127.21 163.344 126.97 163.54 126.659 163.678C126.348 163.815 125.978 163.883 125.548 163.883H124.087L124.581 163.396V165.221H123.47ZM126.522 165.221L125.322 163.479H126.508L127.722 165.221H126.522ZM124.581 163.52L124.087 162.999H125.486C125.829 162.999 126.085 162.925 126.255 162.779C126.424 162.628 126.508 162.423 126.508 162.162C126.508 161.897 126.424 161.691 126.255 161.545C126.085 161.398 125.829 161.325 125.486 161.325H124.087L124.581 160.797V163.52ZM129.741 162.354H132.052V163.218H129.741V162.354ZM129.823 164.329H132.436V165.221H128.719V160.42H132.347V161.312H129.823V164.329ZM135.823 165.303C135.453 165.303 135.108 165.244 134.788 165.125C134.472 165.001 134.198 164.827 133.965 164.603C133.732 164.379 133.549 164.117 133.416 163.815C133.288 163.513 133.224 163.182 133.224 162.82C133.224 162.459 133.288 162.128 133.416 161.826C133.549 161.524 133.732 161.261 133.965 161.037C134.203 160.813 134.479 160.642 134.795 160.523C135.11 160.399 135.455 160.338 135.83 160.338C136.246 160.338 136.621 160.411 136.955 160.557C137.293 160.699 137.577 160.909 137.805 161.188L137.092 161.846C136.928 161.659 136.745 161.52 136.544 161.428C136.342 161.332 136.123 161.284 135.885 161.284C135.661 161.284 135.455 161.321 135.268 161.394C135.081 161.467 134.918 161.572 134.781 161.709C134.644 161.846 134.536 162.009 134.459 162.196C134.386 162.384 134.349 162.592 134.349 162.82C134.349 163.049 134.386 163.257 134.459 163.444C134.536 163.632 134.644 163.794 134.781 163.931C134.918 164.069 135.081 164.174 135.268 164.247C135.455 164.32 135.661 164.357 135.885 164.357C136.123 164.357 136.342 164.311 136.544 164.219C136.745 164.123 136.928 163.979 137.092 163.787L137.805 164.446C137.577 164.725 137.293 164.937 136.955 165.084C136.621 165.23 136.244 165.303 135.823 165.303ZM142.053 160.42H143.164V165.221H142.053V160.42ZM139.873 165.221H138.762V160.42H139.873V165.221ZM142.136 163.252H139.79V162.313H142.136V163.252ZM143.875 165.221L146.015 160.42H147.112L149.259 165.221H148.093L146.337 160.982H146.776L145.014 165.221H143.875ZM144.945 164.192L145.24 163.348H147.709L148.011 164.192H144.945ZM149.963 165.221V160.42H152.041C152.47 160.42 152.841 160.491 153.152 160.633C153.463 160.77 153.703 160.969 153.872 161.229C154.041 161.49 154.126 161.801 154.126 162.162C154.126 162.519 154.041 162.827 153.872 163.088C153.703 163.344 153.463 163.54 153.152 163.678C152.841 163.815 152.47 163.883 152.041 163.883H150.58L151.074 163.396V165.221H149.963ZM153.015 165.221L151.814 163.479H153.001L154.215 165.221H153.015ZM151.074 163.52L150.58 162.999H151.979C152.322 162.999 152.578 162.925 152.747 162.779C152.916 162.628 153.001 162.423 153.001 162.162C153.001 161.897 152.916 161.691 152.747 161.545C152.578 161.398 152.322 161.325 151.979 161.325H150.58L151.074 160.797V163.52ZM157.53 165.303C157.15 165.303 156.8 165.244 156.48 165.125C156.165 165.001 155.888 164.827 155.65 164.603C155.417 164.379 155.234 164.117 155.102 163.815C154.974 163.513 154.91 163.182 154.91 162.82C154.91 162.459 154.974 162.128 155.102 161.826C155.234 161.524 155.42 161.261 155.657 161.037C155.895 160.813 156.174 160.642 156.494 160.523C156.814 160.399 157.166 160.338 157.55 160.338C157.975 160.338 158.357 160.409 158.696 160.55C159.038 160.692 159.326 160.898 159.56 161.168L158.846 161.826C158.673 161.643 158.483 161.508 158.277 161.421C158.071 161.33 157.847 161.284 157.605 161.284C157.372 161.284 157.159 161.321 156.967 161.394C156.775 161.467 156.608 161.572 156.467 161.709C156.329 161.846 156.222 162.009 156.144 162.196C156.071 162.384 156.035 162.592 156.035 162.82C156.035 163.044 156.071 163.25 156.144 163.438C156.222 163.625 156.329 163.79 156.467 163.931C156.608 164.069 156.773 164.174 156.96 164.247C157.152 164.32 157.363 164.357 157.591 164.357C157.811 164.357 158.023 164.322 158.229 164.254C158.439 164.181 158.643 164.059 158.84 163.89L159.47 164.693C159.21 164.889 158.906 165.04 158.558 165.145C158.215 165.25 157.873 165.303 157.53 165.303ZM158.455 164.549V162.745H159.47V164.693L158.455 164.549ZM161.73 162.354H164.041V163.218H161.73V162.354ZM161.812 164.329H164.425V165.221H160.708V160.42H164.336V161.312H161.812V164.329ZM110.643 175.221V170.42H112.721C113.151 170.42 113.522 170.491 113.833 170.633C114.143 170.77 114.383 170.969 114.553 171.229C114.722 171.49 114.806 171.801 114.806 172.162C114.806 172.519 114.722 172.827 114.553 173.088C114.383 173.348 114.143 173.55 113.833 173.691C113.522 173.828 113.151 173.897 112.721 173.897H111.261L111.754 173.396V175.221H110.643ZM111.754 173.52L111.261 172.992H112.66C113.003 172.992 113.259 172.919 113.428 172.772C113.597 172.626 113.682 172.423 113.682 172.162C113.682 171.897 113.597 171.691 113.428 171.545C113.259 171.398 113.003 171.325 112.66 171.325H111.261L111.754 170.797V173.52ZM118.204 175.303C117.825 175.303 117.473 175.241 117.148 175.118C116.828 174.994 116.549 174.821 116.311 174.597C116.078 174.373 115.895 174.11 115.763 173.808C115.635 173.506 115.571 173.177 115.571 172.82C115.571 172.464 115.635 172.135 115.763 171.833C115.895 171.531 116.08 171.268 116.318 171.044C116.556 170.82 116.835 170.646 117.155 170.523C117.475 170.399 117.822 170.338 118.197 170.338C118.577 170.338 118.924 170.399 119.24 170.523C119.56 170.646 119.836 170.82 120.07 171.044C120.307 171.268 120.492 171.531 120.625 171.833C120.758 172.13 120.824 172.459 120.824 172.82C120.824 173.177 120.758 173.508 120.625 173.815C120.492 174.117 120.307 174.379 120.07 174.603C119.836 174.823 119.56 174.994 119.24 175.118C118.924 175.241 118.579 175.303 118.204 175.303ZM118.197 174.357C118.412 174.357 118.609 174.32 118.787 174.247C118.97 174.174 119.13 174.069 119.267 173.931C119.404 173.794 119.509 173.632 119.583 173.444C119.66 173.257 119.699 173.049 119.699 172.82C119.699 172.592 119.66 172.384 119.583 172.196C119.509 172.009 119.404 171.846 119.267 171.709C119.135 171.572 118.977 171.467 118.794 171.394C118.611 171.321 118.412 171.284 118.197 171.284C117.982 171.284 117.783 171.321 117.601 171.394C117.422 171.467 117.265 171.572 117.127 171.709C116.99 171.846 116.883 172.009 116.805 172.196C116.732 172.384 116.695 172.592 116.695 172.82C116.695 173.044 116.732 173.252 116.805 173.444C116.883 173.632 116.988 173.794 117.12 173.931C117.258 174.069 117.418 174.174 117.601 174.247C117.783 174.32 117.982 174.357 118.197 174.357ZM123.998 175.303C123.316 175.303 122.784 175.113 122.4 174.734C122.016 174.354 121.823 173.812 121.823 173.108V170.42H122.935V173.067C122.935 173.524 123.028 173.854 123.216 174.055C123.403 174.256 123.666 174.357 124.004 174.357C124.343 174.357 124.606 174.256 124.793 174.055C124.981 173.854 125.074 173.524 125.074 173.067V170.42H126.172V173.108C126.172 173.812 125.98 174.354 125.595 174.734C125.211 175.113 124.679 175.303 123.998 175.303ZM127.475 175.221V170.42H129.553C129.983 170.42 130.353 170.491 130.664 170.633C130.975 170.77 131.215 170.969 131.384 171.229C131.554 171.49 131.638 171.801 131.638 172.162C131.638 172.519 131.554 172.827 131.384 173.088C131.215 173.344 130.975 173.54 130.664 173.678C130.353 173.815 129.983 173.883 129.553 173.883H128.092L128.586 173.396V175.221H127.475ZM130.527 175.221L129.327 173.479H130.513L131.727 175.221H130.527ZM128.586 173.52L128.092 172.999H129.492C129.834 172.999 130.09 172.925 130.26 172.779C130.429 172.628 130.513 172.423 130.513 172.162C130.513 171.897 130.429 171.691 130.26 171.545C130.09 171.398 129.834 171.325 129.492 171.325H128.092L128.586 170.797V173.52ZM136.312 175.221L134.241 170.42H135.441L137.252 174.672H136.546L138.384 170.42H139.488L137.41 175.221H136.312ZM141.116 172.354H143.427V173.218H141.116V172.354ZM141.198 174.329H143.811V175.221H140.094V170.42H143.722V171.312H141.198V174.329ZM148.193 170.42H149.304V175.221H148.193V170.42ZM146.012 175.221H144.901V170.42H146.012V175.221ZM148.275 173.252H145.93V172.313H148.275V173.252ZM150.646 175.221V170.42H151.757V175.221H150.646ZM155.399 175.303C155.029 175.303 154.684 175.244 154.364 175.125C154.048 175.001 153.774 174.827 153.541 174.603C153.308 174.379 153.125 174.117 152.992 173.815C152.864 173.513 152.8 173.182 152.8 172.82C152.8 172.459 152.864 172.128 152.992 171.826C153.125 171.524 153.308 171.261 153.541 171.037C153.779 170.813 154.055 170.642 154.371 170.523C154.686 170.399 155.031 170.338 155.406 170.338C155.822 170.338 156.197 170.411 156.531 170.557C156.869 170.699 157.153 170.909 157.381 171.188L156.668 171.846C156.504 171.659 156.321 171.52 156.119 171.428C155.918 171.332 155.699 171.284 155.461 171.284C155.237 171.284 155.031 171.321 154.844 171.394C154.656 171.467 154.494 171.572 154.357 171.709C154.22 171.846 154.112 172.009 154.035 172.196C153.961 172.384 153.925 172.592 153.925 172.82C153.925 173.049 153.961 173.257 154.035 173.444C154.112 173.632 154.22 173.794 154.357 173.931C154.494 174.069 154.656 174.174 154.844 174.247C155.031 174.32 155.237 174.357 155.461 174.357C155.699 174.357 155.918 174.311 156.119 174.219C156.321 174.123 156.504 173.979 156.668 173.787L157.381 174.446C157.153 174.725 156.869 174.937 156.531 175.084C156.197 175.23 155.82 175.303 155.399 175.303ZM160.443 175.303C159.762 175.303 159.23 175.113 158.846 174.734C158.461 174.354 158.269 173.812 158.269 173.108V170.42H159.38V173.067C159.38 173.524 159.474 173.854 159.662 174.055C159.849 174.256 160.112 174.357 160.45 174.357C160.789 174.357 161.052 174.256 161.239 174.055C161.426 173.854 161.52 173.524 161.52 173.067V170.42H162.618V173.108C162.618 173.812 162.426 174.354 162.041 174.734C161.657 175.113 161.125 175.303 160.443 175.303ZM163.921 175.221V170.42H165.032V174.315H167.439V175.221H163.921ZM169.288 172.354H171.599V173.218H169.288V172.354ZM169.37 174.329H171.983V175.221H168.266V170.42H171.894V171.312H169.37V174.329ZM174.65 175.303C174.266 175.303 173.898 175.253 173.546 175.152C173.194 175.047 172.911 174.912 172.696 174.747L173.073 173.911C173.279 174.057 173.521 174.178 173.8 174.274C174.083 174.366 174.369 174.411 174.657 174.411C174.877 174.411 175.053 174.391 175.185 174.35C175.322 174.304 175.423 174.242 175.487 174.165C175.551 174.087 175.583 173.998 175.583 173.897C175.583 173.769 175.533 173.668 175.432 173.595C175.331 173.518 175.199 173.456 175.034 173.41C174.87 173.36 174.687 173.314 174.486 173.273C174.289 173.227 174.09 173.172 173.889 173.108C173.692 173.044 173.512 172.962 173.347 172.861C173.183 172.761 173.048 172.628 172.943 172.464C172.842 172.299 172.792 172.089 172.792 171.833C172.792 171.558 172.865 171.309 173.011 171.085C173.162 170.857 173.386 170.676 173.683 170.543C173.985 170.406 174.362 170.338 174.815 170.338C175.117 170.338 175.414 170.374 175.706 170.447C175.999 170.516 176.257 170.621 176.481 170.763L176.138 171.606C175.914 171.478 175.69 171.385 175.466 171.325C175.242 171.261 175.023 171.229 174.808 171.229C174.593 171.229 174.417 171.254 174.28 171.305C174.143 171.355 174.044 171.421 173.985 171.504C173.926 171.581 173.896 171.673 173.896 171.778C173.896 171.901 173.946 172.002 174.047 172.08C174.147 172.153 174.28 172.212 174.444 172.258C174.609 172.304 174.79 172.349 174.986 172.395C175.187 172.441 175.386 172.493 175.583 172.553C175.784 172.612 175.967 172.692 176.132 172.793C176.296 172.893 176.429 173.026 176.529 173.191C176.635 173.355 176.687 173.563 176.687 173.815C176.687 174.085 176.612 174.331 176.461 174.555C176.31 174.779 176.084 174.96 175.782 175.097C175.485 175.234 175.107 175.303 174.65 175.303ZM111.665 182.354H113.977V183.218H111.665V182.354ZM111.748 184.329H114.361V185.221H110.643V180.42H114.271V181.312H111.748V184.329ZM115.45 185.221V180.42H116.561V184.315H118.969V185.221H115.45ZM120.817 182.354H123.128V183.218H120.817V182.354ZM120.899 184.329H123.512V185.221H119.795V180.42H123.423V181.312H120.899V184.329ZM126.9 185.303C126.529 185.303 126.184 185.244 125.864 185.125C125.548 185.001 125.274 184.827 125.041 184.603C124.808 184.379 124.625 184.117 124.492 183.815C124.364 183.513 124.3 183.182 124.3 182.82C124.3 182.459 124.364 182.128 124.492 181.826C124.625 181.524 124.808 181.261 125.041 181.037C125.279 180.813 125.555 180.642 125.871 180.523C126.186 180.399 126.531 180.338 126.906 180.338C127.322 180.338 127.697 180.411 128.031 180.557C128.369 180.699 128.653 180.909 128.882 181.188L128.168 181.846C128.004 181.659 127.821 181.52 127.62 181.428C127.418 181.332 127.199 181.284 126.961 181.284C126.737 181.284 126.531 181.321 126.344 181.394C126.157 181.467 125.994 181.572 125.857 181.709C125.72 181.846 125.612 182.009 125.535 182.196C125.462 182.384 125.425 182.592 125.425 182.82C125.425 183.049 125.462 183.257 125.535 183.444C125.612 183.632 125.72 183.794 125.857 183.931C125.994 184.069 126.157 184.174 126.344 184.247C126.531 184.32 126.737 184.357 126.961 184.357C127.199 184.357 127.418 184.311 127.62 184.219C127.821 184.123 128.004 183.979 128.168 183.787L128.882 184.446C128.653 184.725 128.369 184.937 128.031 185.084C127.697 185.23 127.32 185.303 126.9 185.303ZM130.785 185.221V181.325H129.249V180.42H133.432V181.325H131.896V185.221H130.785ZM134.236 185.221V180.42H136.314C136.744 180.42 137.114 180.491 137.425 180.633C137.736 180.77 137.976 180.969 138.145 181.229C138.314 181.49 138.399 181.801 138.399 182.162C138.399 182.519 138.314 182.827 138.145 183.088C137.976 183.344 137.736 183.54 137.425 183.678C137.114 183.815 136.744 183.883 136.314 183.883H134.853L135.347 183.396V185.221H134.236ZM137.288 185.221L136.088 183.479H137.274L138.488 185.221H137.288ZM135.347 183.52L134.853 182.999H136.252C136.595 182.999 136.851 182.925 137.02 182.779C137.19 182.628 137.274 182.423 137.274 182.162C137.274 181.897 137.19 181.691 137.02 181.545C136.851 181.398 136.595 181.325 136.252 181.325H134.853L135.347 180.797V183.52ZM139.485 185.221V180.42H140.596V185.221H139.485ZM144.266 185.303C143.891 185.303 143.541 185.241 143.217 185.118C142.897 184.994 142.618 184.821 142.38 184.597C142.147 184.373 141.964 184.11 141.831 183.808C141.703 183.506 141.639 183.177 141.639 182.82C141.639 182.464 141.703 182.135 141.831 181.833C141.964 181.531 142.149 181.268 142.387 181.044C142.624 180.82 142.903 180.646 143.223 180.523C143.543 180.399 143.891 180.338 144.266 180.338C144.645 180.338 144.993 180.399 145.308 180.523C145.628 180.646 145.905 180.82 146.138 181.044C146.376 181.264 146.561 181.524 146.694 181.826C146.826 182.128 146.893 182.459 146.893 182.82C146.893 183.177 146.826 183.508 146.694 183.815C146.561 184.117 146.376 184.379 146.138 184.603C145.905 184.823 145.628 184.994 145.308 185.118C144.993 185.241 144.645 185.303 144.266 185.303ZM145.836 186.325C145.649 186.325 145.471 186.304 145.301 186.263C145.137 186.222 144.972 186.156 144.808 186.064C144.648 185.973 144.478 185.849 144.3 185.694C144.126 185.538 143.937 185.346 143.731 185.118L144.897 184.823C145.02 184.992 145.135 185.127 145.24 185.228C145.345 185.328 145.445 185.399 145.541 185.44C145.642 185.481 145.747 185.502 145.857 185.502C146.15 185.502 146.41 185.383 146.639 185.145L147.133 185.735C146.808 186.128 146.376 186.325 145.836 186.325ZM144.266 184.357C144.481 184.357 144.677 184.32 144.856 184.247C145.039 184.174 145.199 184.069 145.336 183.931C145.473 183.794 145.578 183.632 145.651 183.444C145.729 183.252 145.768 183.044 145.768 182.82C145.768 182.592 145.729 182.384 145.651 182.196C145.578 182.009 145.473 181.846 145.336 181.709C145.199 181.572 145.039 181.467 144.856 181.394C144.677 181.321 144.481 181.284 144.266 181.284C144.051 181.284 143.852 181.321 143.669 181.394C143.486 181.467 143.326 181.572 143.189 181.709C143.057 181.846 142.951 182.009 142.874 182.196C142.8 182.384 142.764 182.592 142.764 182.82C142.764 183.044 142.8 183.252 142.874 183.444C142.951 183.632 143.057 183.794 143.189 183.931C143.326 184.069 143.486 184.174 143.669 184.247C143.852 184.32 144.051 184.357 144.266 184.357ZM150.066 185.303C149.385 185.303 148.852 185.113 148.468 184.734C148.084 184.354 147.892 183.812 147.892 183.108V180.42H149.003V183.067C149.003 183.524 149.097 183.854 149.284 184.055C149.472 184.256 149.735 184.357 150.073 184.357C150.411 184.357 150.674 184.256 150.862 184.055C151.049 183.854 151.143 183.524 151.143 183.067V180.42H152.24V183.108C152.24 183.812 152.048 184.354 151.664 184.734C151.28 185.113 150.747 185.303 150.066 185.303ZM154.566 182.354H156.877V183.218H154.566V182.354ZM154.648 184.329H157.261V185.221H153.544V180.42H157.172V181.312H154.648V184.329ZM159.928 185.303C159.544 185.303 159.176 185.253 158.824 185.152C158.472 185.047 158.188 184.912 157.974 184.747L158.351 183.911C158.557 184.057 158.799 184.178 159.078 184.274C159.361 184.366 159.647 184.411 159.935 184.411C160.154 184.411 160.331 184.391 160.463 184.35C160.6 184.304 160.701 184.242 160.765 184.165C160.829 184.087 160.861 183.998 160.861 183.897C160.861 183.769 160.811 183.668 160.71 183.595C160.609 183.518 160.477 183.456 160.312 183.41C160.148 183.36 159.965 183.314 159.764 183.273C159.567 183.227 159.368 183.172 159.167 183.108C158.97 183.044 158.79 182.962 158.625 182.861C158.461 182.761 158.326 182.628 158.22 182.464C158.12 182.299 158.07 182.089 158.07 181.833C158.07 181.558 158.143 181.309 158.289 181.085C158.44 180.857 158.664 180.676 158.961 180.543C159.263 180.406 159.64 180.338 160.093 180.338C160.395 180.338 160.692 180.374 160.984 180.447C161.277 180.516 161.535 180.621 161.759 180.763L161.416 181.606C161.192 181.478 160.968 181.385 160.744 181.325C160.52 181.261 160.301 181.229 160.086 181.229C159.871 181.229 159.695 181.254 159.558 181.305C159.421 181.355 159.322 181.421 159.263 181.504C159.203 181.581 159.174 181.673 159.174 181.778C159.174 181.901 159.224 182.002 159.325 182.08C159.425 182.153 159.558 182.212 159.722 182.258C159.887 182.304 160.068 182.349 160.264 182.395C160.465 182.441 160.664 182.493 160.861 182.553C161.062 182.612 161.245 182.692 161.41 182.793C161.574 182.893 161.707 183.026 161.807 183.191C161.912 183.355 161.965 183.563 161.965 183.815C161.965 184.085 161.89 184.331 161.739 184.555C161.588 184.779 161.362 184.96 161.06 185.097C160.763 185.234 160.385 185.303 159.928 185.303Z" fill="#E1FFF9"/>
<path fill-rule="evenodd" clip-rule="evenodd" d="M40.3948 25.8062L23.2177 22.1439C21.7271 21.8261 20.3262 22.9587 20.3262 24.4818V27.1203H19.6206V24.4793C19.6206 22.5083 21.4334 21.0425 23.3625 21.4538L40.5396 25.1161C43.8297 25.8176 43.8297 30.5151 40.5396 31.1935L23.3625 34.735C21.4334 35.1327 19.6206 33.6542 19.6206 31.6831V28.8508H20.3262V31.6856C20.3262 33.2087 21.7271 34.3512 23.2177 34.0438L40.3948 30.5023C42.9371 29.9782 42.9371 26.3483 40.3948 25.8062Z" fill="#515BE0"/>
<rect x="16.0522" y="28.4199" width="8.05196" height="0.786599" fill="#FFB800"/>
<rect x="17.8823" y="26.6479" width="4.39198" height="0.786599" fill="#FFB800"/>
<path d="M45.4772 37.7637C45.0068 37.7637 44.7715 37.9989 44.7715 38.4694V39.175C44.7715 39.6454 45.0068 39.8806 45.4772 39.8806H47.5941C48.0645 39.8806 48.2997 39.6454 48.2997 39.175V38.4694C48.2997 37.9989 48.0645 37.7637 47.5941 37.7637H45.4772ZM45.4772 37.0581H47.5941C48.5349 37.0581 49.0053 37.5285 49.0053 38.4694V39.175C49.0053 40.1158 48.5349 40.5862 47.5941 40.5862H45.4772C44.5363 40.5862 44.0659 40.1158 44.0659 39.175V38.4694C44.0659 37.5285 44.5363 37.0581 45.4772 37.0581Z" fill="#FFB800"/>
<path d="M43.3603 40.5862H39.8322C38.8913 40.5862 38.4209 40.1158 38.4209 39.175V38.4694C38.4209 37.5285 38.8913 37.0581 39.8322 37.0581H43.3603V37.7637H39.8322C39.3617 37.7637 39.1265 37.9989 39.1265 38.4694V39.175C39.1265 39.6454 39.3617 39.8806 39.8322 39.8806H43.3603V40.5862ZM43.3603 38.4694V39.175H39.8322V38.4694H43.3603Z" fill="#E1FFF9"/>
<path d="M37.7153 40.5862H32.7759L35.9512 37.7637H32.7759V37.0581H37.7153L34.5399 39.8806H37.7153V40.5862Z" fill="#E1FFF9"/>
<path d="M27.1309 40.5862H30.659C31.5998 40.5862 32.0702 40.1158 32.0702 39.175V38.4694C32.0702 37.5285 31.5998 37.0581 30.659 37.0581H27.1309V37.7637H30.659C31.1294 37.7637 31.3646 37.9989 31.3646 38.4694V39.175C31.3646 39.6454 31.1294 39.8806 30.659 39.8806H27.1309V40.5862ZM27.1309 38.4694V39.175H30.659V38.4694H27.1309Z" fill="#515BE0"/>
<path d="M26.4252 40.5862H22.8971C21.9563 40.5862 21.4858 40.1158 21.4858 39.175V38.4694C21.4858 37.5285 21.9563 37.0581 22.8971 37.0581H26.4252V37.7637H22.8971C22.4267 37.7637 22.1915 37.9989 22.1915 38.4694V39.175C22.1915 39.6454 22.4267 39.8806 22.8971 39.8806H26.4252V40.5862ZM26.4252 38.4694V39.175H22.8971V38.4694H26.4252Z" fill="#E1FFF9"/>
<path d="M18.6633 39.175H16.5464V40.5862H15.8408V37.0581H19.369C20.3098 37.0581 20.7802 37.4109 20.7802 38.1165C20.7802 38.8222 20.3098 39.175 19.369 39.175C19.369 39.6454 19.6042 39.8806 20.0746 39.8806H20.7802V40.5862H20.0746C19.1337 40.5862 18.6633 40.1158 18.6633 39.175ZM19.369 38.4694C19.8394 38.4694 20.0746 38.3518 20.0746 38.1165C20.0746 37.8813 19.8394 37.7637 19.369 37.7637H16.5464V38.4694H19.369Z" fill="#E1FFF9"/>
<path d="M13.7239 38.4694C14.1944 38.4694 14.4296 38.3518 14.4296 38.1165C14.4296 37.8813 14.1944 37.7637 13.7239 37.7637H10.9014V38.4694H13.7239ZM10.9014 40.5862H10.1958V37.0581H13.7239C14.6648 37.0581 15.1352 37.4109 15.1352 38.1165C15.1352 38.8222 14.6648 39.175 13.7239 39.175H10.9014V40.5862Z" fill="#E1FFF9"/>
<path d="M81.5222 39.9458V34.1849H82.1312V39.4191H85.3573V39.9458H81.5222ZM88.2629 39.9869C87.813 39.9869 87.4179 39.8937 87.0778 39.7071C86.7376 39.5151 86.4715 39.2545 86.2795 38.9253C86.0875 38.5906 85.9914 38.2093 85.9914 37.7814C85.9914 37.3534 86.082 36.9748 86.263 36.6456C86.4496 36.3164 86.7019 36.0586 87.0202 35.872C87.3439 35.68 87.706 35.584 88.1065 35.584C88.5125 35.584 88.8719 35.6773 89.1846 35.8638C89.5028 36.0449 89.7525 36.3027 89.9335 36.6374C90.1146 36.9666 90.2051 37.3479 90.2051 37.7814C90.2051 37.8088 90.2024 37.839 90.1969 37.8719C90.1969 37.8993 90.1969 37.9295 90.1969 37.9624H86.4358V37.5262H89.8841L89.6537 37.6991C89.6537 37.3863 89.5851 37.1093 89.448 36.8678C89.3163 36.6209 89.1352 36.4289 88.9048 36.2918C88.6744 36.1546 88.4083 36.086 88.1065 36.086C87.8102 36.086 87.5441 36.1546 87.3082 36.2918C87.0723 36.4289 86.8885 36.6209 86.7568 36.8678C86.6251 37.1147 86.5593 37.3973 86.5593 37.7155V37.806C86.5593 38.1352 86.6306 38.426 86.7733 38.6784C86.9214 38.9253 87.1244 39.1201 87.3823 39.2627C87.6456 39.3999 87.9446 39.4685 88.2793 39.4685C88.5427 39.4685 88.7868 39.4218 89.0118 39.3286C89.2422 39.2353 89.4397 39.0926 89.6043 38.9006L89.9335 39.2792C89.7415 39.5096 89.5001 39.6852 89.2093 39.8059C88.924 39.9266 88.6085 39.9869 88.2629 39.9869ZM95.8856 41.5835C95.4906 41.5835 95.112 41.5259 94.7499 41.4107C94.3878 41.2955 94.0943 41.1309 93.8693 40.9169L94.1656 40.4725C94.3686 40.6536 94.6182 40.7962 94.9145 40.9005C95.2163 41.0102 95.5345 41.0651 95.8692 41.0651C96.4178 41.0651 96.8211 40.9361 97.079 40.6783C97.3368 40.4259 97.4658 40.0308 97.4658 39.4932V38.4151L97.5481 37.6744L97.4904 36.9337V35.6251H98.0501V39.4191C98.0501 40.1653 97.8663 40.7112 97.4987 41.0568C97.1366 41.408 96.5989 41.5835 95.8856 41.5835ZM95.7786 39.7812C95.3671 39.7812 94.9968 39.6934 94.6676 39.5178C94.3384 39.3368 94.0778 39.0872 93.8858 38.7689C93.6992 38.4507 93.606 38.0859 93.606 37.6744C93.606 37.2629 93.6992 36.9008 93.8858 36.588C94.0778 36.2698 94.3384 36.0229 94.6676 35.8473C94.9968 35.6718 95.3671 35.584 95.7786 35.584C96.1627 35.584 96.5084 35.6635 96.8156 35.8227C97.1228 35.9818 97.367 36.2177 97.5481 36.5304C97.7291 36.8432 97.8196 37.2245 97.8196 37.6744C97.8196 38.1243 97.7291 38.5056 97.5481 38.8183C97.367 39.131 97.1228 39.3697 96.8156 39.5343C96.5084 39.6989 96.1627 39.7812 95.7786 39.7812ZM95.8362 39.2627C96.1545 39.2627 96.437 39.1969 96.6839 39.0652C96.9308 38.928 97.1256 38.7415 97.2682 38.5056C97.4109 38.2642 97.4822 37.9871 97.4822 37.6744C97.4822 37.3616 97.4109 37.0873 97.2682 36.8514C97.1256 36.6155 96.9308 36.4317 96.6839 36.3C96.437 36.1628 96.1545 36.0942 95.8362 36.0942C95.5235 36.0942 95.241 36.1628 94.9886 36.3C94.7417 36.4317 94.5469 36.6155 94.4043 36.8514C94.2671 37.0873 94.1985 37.3616 94.1985 37.6744C94.1985 37.9871 94.2671 38.2642 94.4043 38.5056C94.5469 38.7415 94.7417 38.928 94.9886 39.0652C95.241 39.1969 95.5235 39.2627 95.8362 39.2627ZM101.709 39.9869C101.341 39.9869 101.02 39.9184 100.746 39.7812C100.472 39.644 100.258 39.4383 100.104 39.164C99.9559 38.8896 99.8818 38.5467 99.8818 38.1352V35.6251H100.466V38.0694C100.466 38.5303 100.579 38.8787 100.804 39.1146C101.034 39.345 101.355 39.4602 101.766 39.4602C102.068 39.4602 102.329 39.3999 102.548 39.2792C102.773 39.153 102.943 38.9719 103.059 38.736C103.179 38.5001 103.24 38.2175 103.24 37.8883V35.6251H103.824V39.9458H103.264V38.7607L103.355 38.9747C103.218 39.2929 103.004 39.5425 102.713 39.7236C102.428 39.8992 102.093 39.9869 101.709 39.9869ZM105.699 39.9458V35.6251H106.284V39.9458H105.699ZM105.996 34.6705C105.875 34.6705 105.773 34.6293 105.691 34.547C105.609 34.4647 105.568 34.366 105.568 34.2508C105.568 34.1355 105.609 34.0395 105.691 33.9627C105.773 33.8804 105.875 33.8393 105.996 33.8393C106.116 33.8393 106.218 33.8777 106.3 33.9545C106.382 34.0313 106.423 34.1273 106.423 34.2425C106.423 34.3632 106.382 34.4647 106.3 34.547C106.223 34.6293 106.122 34.6705 105.996 34.6705ZM109.876 39.9869C109.465 39.9869 109.095 39.8937 108.765 39.7071C108.442 39.5206 108.186 39.2627 108 38.9335C107.813 38.5989 107.72 38.2148 107.72 37.7814C107.72 37.3424 107.813 36.9584 108 36.6292C108.186 36.3 108.442 36.0449 108.765 35.8638C109.095 35.6773 109.465 35.584 109.876 35.584C110.255 35.584 110.592 35.669 110.889 35.8391C111.19 36.0092 111.429 36.2588 111.605 36.588C111.786 36.9117 111.876 37.3095 111.876 37.7814C111.876 38.2477 111.788 38.6455 111.613 38.9747C111.437 39.3039 111.199 39.5563 110.897 39.7318C110.601 39.9019 110.26 39.9869 109.876 39.9869ZM109.917 39.4685C110.225 39.4685 110.499 39.3999 110.74 39.2627C110.987 39.1201 111.179 38.9226 111.317 38.6702C111.459 38.4123 111.531 38.116 111.531 37.7814C111.531 37.4412 111.459 37.1449 111.317 36.8925C111.179 36.6402 110.987 36.4454 110.74 36.3082C110.499 36.1656 110.225 36.0942 109.917 36.0942C109.616 36.0942 109.344 36.1656 109.103 36.3082C108.861 36.4454 108.669 36.6402 108.527 36.8925C108.384 37.1449 108.313 37.4412 108.313 37.7814C108.313 38.116 108.384 38.4123 108.527 38.6702C108.669 38.9226 108.861 39.1201 109.103 39.2627C109.344 39.3999 109.616 39.4685 109.917 39.4685ZM111.547 39.9458V38.6455L111.605 37.7731L111.522 36.9008V33.8393H112.107V39.9458H111.547ZM115.816 39.9869C115.366 39.9869 114.971 39.8937 114.631 39.7071C114.291 39.5151 114.025 39.2545 113.833 38.9253C113.641 38.5906 113.545 38.2093 113.545 37.7814C113.545 37.3534 113.635 36.9748 113.816 36.6456C114.003 36.3164 114.255 36.0586 114.573 35.872C114.897 35.68 115.259 35.584 115.66 35.584C116.066 35.584 116.425 35.6773 116.738 35.8638C117.056 36.0449 117.306 36.3027 117.487 36.6374C117.668 36.9666 117.758 37.3479 117.758 37.7814C117.758 37.8088 117.756 37.839 117.75 37.8719C117.75 37.8993 117.75 37.9295 117.75 37.9624H113.989V37.5262H117.437L117.207 37.6991C117.207 37.3863 117.138 37.1093 117.001 36.8678C116.87 36.6209 116.688 36.4289 116.458 36.2918C116.228 36.1546 115.961 36.086 115.66 36.086C115.363 36.086 115.097 36.1546 114.861 36.2918C114.626 36.4289 114.442 36.6209 114.31 36.8678C114.178 37.1147 114.113 37.3973 114.113 37.7155V37.806C114.113 38.1352 114.184 38.426 114.326 38.6784C114.475 38.9253 114.678 39.1201 114.936 39.2627C115.199 39.3999 115.498 39.4685 115.833 39.4685C116.096 39.4685 116.34 39.4218 116.565 39.3286C116.795 39.2353 116.993 39.0926 117.158 38.9006L117.487 39.2792C117.295 39.5096 117.053 39.6852 116.763 39.8059C116.477 39.9266 116.162 39.9869 115.816 39.9869Z" fill="#E1FFF9"/>
</g>
<path d="M2.5 4.5H198.5C201.261 4.5 203.5 6.73858 203.5 9.5V306.5" stroke="#515BE0"/>
<path d="M9 1H202C204.761 1 207 3.23858 207 6V300" stroke="#515BE0"/>
<defs>
<filter id="filter0_f_526_3303" x="-22.9174" y="76.8951" width="142.65" height="139.222" filterUnits="userSpaceOnUse" color-interpolation-filters="sRGB">
<feFlood flood-opacity="0" result="BackgroundImageFix"/>
<feBlend mode="normal" in="SourceGraphic" in2="BackgroundImageFix" result="shape"/>
<feGaussianBlur stdDeviation="25.7182" result="effect1_foregroundBlur_526_3303"/>
</filter>
<filter id="filter1_f_526_3303" x="8.63042" y="151.65" width="142.65" height="139.222" filterUnits="userSpaceOnUse" color-interpolation-filters="sRGB">
<feFlood flood-opacity="0" result="BackgroundImageFix"/>
<feBlend mode="normal" in="SourceGraphic" in2="BackgroundImageFix" result="shape"/>
<feGaussianBlur stdDeviation="25.7182" result="effect1_foregroundBlur_526_3303"/>
</filter>
<filter id="filter2_f_526_3303" x="78.7783" y="24.2822" width="208.645" height="208.1" filterUnits="userSpaceOnUse" color-interpolation-filters="sRGB">
<feFlood flood-opacity="0" result="BackgroundImageFix"/>
<feBlend mode="normal" in="SourceGraphic" in2="BackgroundImageFix" result="shape"/>
<feGaussianBlur stdDeviation="22.8777" result="effect1_foregroundBlur_526_3303"/>
</filter>
<clipPath id="clip0_526_3303">
<rect width="200" height="300" fill="white" transform="translate(0 9)"/>
</clipPath>
</defs>
</svg>
