<svg width="573" height="171" viewBox="0 0 573 171" fill="none" xmlns="http://www.w3.org/2000/svg">
<path d="M572.5 107.985C572.5 107.954 572.5 107.954 572.5 107.985C572.435 106.457 572.305 104.96 572.078 103.432C571.786 101.717 571.299 100.033 570.878 98.3804C570.131 97.1954 569.093 97.1642 568.282 97.3513C568.217 97.3825 568.152 97.3825 568.087 97.4137C567.665 97.5384 567.243 97.4448 566.919 97.133L547.449 78.4536C547.254 78.2665 547.125 77.9859 547.125 77.7052L546.54 58.9635V58.8075L546.313 58.371C546.216 58.1838 543.847 53.5686 539.272 53.0384C536.092 52.6642 532.944 54.317 529.861 57.9032L529.31 58.5581V58.9946C529.31 59.4624 529.05 59.8366 528.596 59.9925C528.174 60.1796 527.687 60.0861 527.363 59.7742L507.244 40.5647C506.79 40.0346 505.297 38.5066 502.766 38.1947C500.3 37.8829 497.704 38.7872 495.075 40.9078C489.364 45.4607 438.483 95.0125 432.707 100.626L432.577 100.782L432.35 101.125C431.961 101.779 428.684 107.517 431.507 111.634C433.324 114.316 437.023 115.376 442.54 114.814L443.383 114.721L500.754 59.556C501.208 59.1194 501.922 59.1194 502.344 59.556L560.299 114.814L561.078 114.939C561.24 114.97 562.019 115.064 563.122 115.064C565.621 115.064 569.06 114.565 571.235 112.226C571.819 111.602 572.241 110.885 572.565 110.106C572.533 109.357 572.533 108.671 572.5 107.985ZM441.469 109.95C441.274 110.137 441.014 110.262 440.755 110.262C437.997 110.417 436.147 109.981 435.53 109.045C434.784 107.954 435.401 105.522 436.342 103.744C436.374 103.65 436.439 103.588 436.536 103.495C438.84 101.249 492.674 48.7974 498.191 44.4004C499.683 43.2154 501.079 42.6229 502.149 42.7165C503.026 42.81 503.512 43.3713 503.545 43.4025L529.504 68.2252C530.283 68.9736 531.386 69.1919 532.392 68.8177L532.555 68.9736V68.7865C533.561 68.3499 534.145 67.4456 534.145 66.3853V60.6474C534.145 60.3667 534.242 60.0861 534.469 59.899C535.572 58.7763 537.227 57.4666 538.72 57.6225C540.051 57.7785 541.089 58.9946 541.608 59.7119C541.738 59.8678 541.803 60.0861 541.803 60.3044L542.387 79.0461C542.419 79.7322 542.679 80.3559 543.198 80.8236L567.86 104.524L567.957 104.867C568.509 106.831 568.411 108.266 567.665 109.077C566.562 110.293 564.063 110.386 563.025 110.386C562.733 110.386 562.441 110.262 562.214 110.074L503.48 54.0675C503.227 53.8229 502.926 53.6289 502.595 53.4964C502.263 53.364 501.908 53.2958 501.549 53.2958C501.19 53.2958 500.835 53.364 500.504 53.4964C500.172 53.6289 499.871 53.8229 499.618 54.0675L441.469 109.95Z" fill="#E1FFF9"/>
<path d="M556.406 118.682L506.206 70.1588C504.064 68.0695 500.56 68.0695 498.386 70.1276L447.894 118.245C446.856 119.243 446.239 120.615 446.239 122.018V164.304C446.239 166.456 447.57 168.483 449.679 169.231C450.717 169.605 452.08 169.886 453.832 169.917C459.446 170.073 493.713 169.98 507.277 169.948C510.327 169.948 512.793 167.547 512.793 164.616V125.324C512.793 122.392 515.26 119.991 518.342 119.991H533.399C536.449 119.991 538.948 122.361 538.948 125.324V164.71C538.948 167.641 541.414 170.042 544.497 170.042H552.025C552.706 170.042 553.42 169.917 554.037 169.668C555.4 169.138 557.476 167.828 557.996 164.928C558.677 161.123 558.19 130.719 558.028 122.33C557.996 120.958 557.412 119.648 556.406 118.682ZM485.86 145.001H471.453C468.402 145.001 465.904 142.631 465.904 139.669V125.324C465.904 122.392 468.37 119.991 471.453 119.991H485.86C488.91 119.991 491.409 122.361 491.409 125.324V139.669C491.377 142.6 488.91 145.001 485.86 145.001Z" fill="#515BE0"/>
<mask id="path-3-inside-1_86_4185" fill="white">
<path fill-rule="evenodd" clip-rule="evenodd" d="M371.851 155.107V110.807C371.851 107.559 374.559 104.916 377.889 104.916H402.043C405.372 104.916 408.081 107.559 408.081 110.807V155.107H408.081V164.925C408.081 166.01 407.18 166.889 406.068 166.889H389.964H373.863H373.862C372.75 166.889 371.849 166.01 371.849 164.925V155.107H371.851ZM382.195 141.085H398.044C399.138 141.085 400.025 138.911 400.025 136.227V116.794C400.025 114.111 399.138 111.936 398.044 111.936H382.195C381.101 111.936 380.214 114.111 380.214 116.794V136.227C380.214 138.911 381.101 141.085 382.195 141.085Z"/>
</mask>
<path fill-rule="evenodd" clip-rule="evenodd" d="M371.851 155.107V110.807C371.851 107.559 374.559 104.916 377.889 104.916H402.043C405.372 104.916 408.081 107.559 408.081 110.807V155.107H408.081V164.925C408.081 166.01 407.18 166.889 406.068 166.889H389.964H373.863H373.862C372.75 166.889 371.849 166.01 371.849 164.925V155.107H371.851ZM382.195 141.085H398.044C399.138 141.085 400.025 138.911 400.025 136.227V116.794C400.025 114.111 399.138 111.936 398.044 111.936H382.195C381.101 111.936 380.214 114.111 380.214 116.794V136.227C380.214 138.911 381.101 141.085 382.195 141.085Z" fill="#FFB800"/>
<path d="M371.851 155.107H374.57V157.827H371.851V155.107ZM408.081 155.107V157.827H405.361V155.107H408.081ZM408.081 155.107V152.388H410.801V155.107H408.081ZM371.849 155.107H369.129V152.388H371.849V155.107ZM374.57 110.807V155.107H369.131V110.807H374.57ZM377.889 107.636C375.997 107.636 374.57 109.124 374.57 110.807H369.131C369.131 105.993 373.121 102.196 377.889 102.196V107.636ZM402.043 107.636H377.889V102.196H402.043V107.636ZM405.361 110.807C405.361 109.124 403.934 107.636 402.043 107.636V102.196C406.81 102.196 410.801 105.993 410.801 110.807H405.361ZM405.361 155.107V110.807H410.801V155.107H405.361ZM408.081 157.827H408.081V152.388H408.081V157.827ZM405.361 164.925V155.107H410.801V164.925H405.361ZM406.068 164.169C405.742 164.169 405.361 164.445 405.361 164.925H410.801C410.801 167.575 408.618 169.609 406.068 169.609V164.169ZM389.964 164.169H406.068V169.609H389.964V164.169ZM373.863 164.169H389.964V169.609H373.863V164.169ZM373.862 164.169H373.863V169.609H373.862V164.169ZM374.569 164.925C374.569 164.445 374.188 164.169 373.862 164.169V169.609C371.312 169.609 369.129 167.575 369.129 164.925H374.569ZM374.569 155.107V164.925H369.129V155.107H374.569ZM371.851 157.827H371.849V152.388H371.851V157.827ZM398.044 143.805H382.195V138.366H398.044V143.805ZM402.745 136.227C402.745 137.832 402.484 139.411 401.963 140.69C401.705 141.322 401.329 142.014 400.773 142.592C400.209 143.177 399.286 143.805 398.044 143.805V138.366C397.349 138.366 396.947 138.722 396.857 138.816C396.775 138.901 396.826 138.882 396.926 138.636C397.122 138.156 397.305 137.306 397.305 136.227H402.745ZM402.745 116.794V136.227H397.305V116.794H402.745ZM398.044 109.216C399.286 109.216 400.209 109.845 400.773 110.43C401.329 111.007 401.705 111.699 401.963 112.332C402.484 113.611 402.745 115.19 402.745 116.794H397.305C397.305 115.715 397.122 114.865 396.926 114.386C396.826 114.139 396.775 114.12 396.857 114.206C396.947 114.299 397.349 114.656 398.044 114.656V109.216ZM382.195 109.216H398.044V114.656H382.195V109.216ZM377.495 116.794C377.495 115.19 377.755 113.611 378.276 112.332C378.534 111.699 378.91 111.007 379.466 110.43C380.03 109.845 380.953 109.216 382.195 109.216V114.656C382.89 114.656 383.292 114.299 383.382 114.206C383.464 114.12 383.413 114.139 383.313 114.386C383.117 114.865 382.934 115.715 382.934 116.794H377.495ZM377.495 136.227V116.794H382.934V136.227H377.495ZM382.195 143.805C380.953 143.805 380.03 143.177 379.466 142.592C378.91 142.014 378.534 141.322 378.276 140.69C377.755 139.411 377.495 137.832 377.495 136.227H382.934C382.934 137.306 383.117 138.156 383.313 138.636C383.413 138.882 383.464 138.901 383.382 138.816C383.292 138.722 382.89 138.366 382.195 138.366V143.805Z" fill="#FFB800" mask="url(#path-3-inside-1_86_4185)"/>
<g filter="url(#filter0_d_86_4185)">
<path d="M385.586 118.092H392.682L393.615 127.603H390.254L393.615 138.258L384.092 124.014H389.694L385.586 118.092Z" fill="#FFB800"/>
<path d="M385.586 118.092H392.682L393.615 127.603H390.254L393.615 138.258L384.092 124.014H389.694L385.586 118.092Z" stroke="#FFB800" stroke-width="0.9409"/>
</g>
<path d="M371.725 127.485C374.555 127.485 373.14 126.125 368.895 127.485C364.65 128.845 368.306 134.551 366.065 138.364C358.727 150.849 332.103 135.644 327.858 139.724" stroke="#FFB800" stroke-width="2.71972"/>
<path d="M36.6627 134.161C26.572 134.161 18.3916 141.953 18.3916 151.57C18.3916 161.184 26.572 168.98 36.6627 168.98C46.7518 168.98 54.9309 161.184 54.9309 151.57C54.9309 141.954 46.7522 134.161 36.6627 134.161ZM48.3162 151.568C48.3162 152.906 48.0555 154.183 47.5997 155.367L40.6933 151.568L47.5997 147.77C48.0539 148.957 48.3162 150.229 48.3162 151.568ZM25.0109 151.568C25.0109 150.229 25.2667 148.956 25.7225 147.77L32.6289 151.568L25.7225 155.367C25.2667 154.183 25.0109 152.906 25.0109 151.568ZM45.594 144.438L38.6776 148.245V140.641C41.4372 141.101 43.8654 142.476 45.594 144.438ZM34.6491 140.641V148.245L27.7314 144.437C29.458 142.476 31.8847 141.101 34.6491 140.641ZM27.728 158.701L34.6457 154.898V162.502C31.8845 162.042 29.4579 160.666 27.728 158.701ZM38.678 162.498V154.895L45.5911 158.698C43.8661 160.665 41.4377 162.042 38.678 162.498Z" fill="#FFB800"/>
<path d="M215.969 124.313L215.79 122.508C215.581 120.453 215.281 118.8 214.895 117.589C214.197 115.419 211.012 110.437 208.466 106.642L207.705 105.509L204.919 113.537L215.969 124.313ZM208.092 108.47C211.189 113.145 213.139 116.497 213.61 117.966C213.852 118.711 214.056 119.656 214.226 120.78L206.456 113.202L208.092 108.47Z" fill="#FFB800"/>
<path d="M220.952 137.27C220.95 137.259 220.319 131.679 216.123 129.54L215.413 129.177L215.414 128.407C215.414 128.385 215.414 127.621 215.372 126.487L202.616 114.042L206.014 104.233C205.397 103.341 204.85 102.562 204.432 101.975L203.953 101.303L206.931 96.5136C200.67 95.1713 179.407 90.7725 165.8 89.8649C154.26 89.0961 141.59 88.9805 135.067 88.9805C132.521 88.9805 131.002 88.9977 130.998 88.9977C130.834 89.0023 111.859 89.557 102.336 91.4712C95.5815 92.826 84.5875 97.2667 74.8884 101.182C70.8022 102.831 66.9406 104.392 63.6941 105.6C61.082 106.572 58.8584 107.497 56.7071 108.391C49.9842 111.185 44.6716 113.388 34.6334 113.897C21.5405 114.558 3.80667 124.582 1.42283 136.028C-0.848181 146.939 2.10495 148.622 2.13282 148.635L4.14803 149.329L2.52799 150.722C2.30991 150.933 1.677 151.697 1.69992 152.374C1.70484 152.499 1.72287 152.88 2.29514 153.351C3.50361 154.341 9.45255 155.143 15.0472 155.473C14.7865 154.169 14.652 152.865 14.652 151.576C14.652 140.019 24.5182 130.617 36.6468 130.617C48.7726 130.617 58.6404 140.019 58.6404 151.576C58.6404 152.898 58.4994 154.235 58.2239 155.57H169.21C168.938 154.232 168.793 152.898 168.793 151.576C168.793 140.019 178.661 130.617 190.788 130.617C202.915 130.617 212.783 140.019 212.783 151.576C212.783 152.066 212.76 152.558 212.714 153.083C213.322 153.007 213.659 152.949 213.849 152.908C217.55 152.108 221.614 147.538 220.95 137.27L220.952 137.27ZM22.5248 129.446H9.28916C9.28916 129.446 15.5382 123.654 25.0371 118.923C34.5359 114.192 29.7705 126.536 22.5248 129.446ZM66.1467 111.55C69.9525 111.55 72.6073 113.101 72.6073 114.495C72.6073 115.013 72.24 115.553 71.5825 116.028C71.5497 116.05 71.512 116.074 71.4759 116.094C71.307 116.213 71.1135 116.327 70.9069 116.434C70.7708 116.502 70.6249 116.567 70.4741 116.627C70.3609 116.677 70.2462 116.725 70.1265 116.77C69.8985 116.853 69.664 116.931 69.4148 116.999C69.3558 117.016 69.3 117.03 69.241 117.049C68.9475 117.125 68.6442 117.192 68.3261 117.245C68.3031 117.25 68.2769 117.255 68.2539 117.259C67.9129 117.316 67.5603 117.358 67.198 117.389H67.1586C66.8241 117.416 66.5011 117.442 66.1452 117.442C62.3395 117.442 59.688 115.891 59.688 114.494C59.6896 113.101 62.3408 111.55 66.1467 111.55ZM72.1103 152.484C72.1103 152.484 69.6491 152.501 65.9532 152.526C64.9218 152.531 64.002 151.829 63.3608 151.016C62.7066 150.199 62.1884 149.188 61.9031 148.123C61.5604 147.068 61.2046 145.977 60.8472 144.866C60.4897 143.757 60.347 142.579 60.0863 141.427L59.76 139.689C59.7059 139.105 59.6502 138.522 59.5961 137.944C59.5141 136.788 59.3452 135.655 59.3403 134.548C59.3255 133.448 59.3124 132.38 59.2976 131.367C59.3206 130.359 59.3895 129.403 59.4272 128.52C59.4534 127.64 59.5665 126.837 59.6321 126.122C59.701 125.412 59.7731 124.789 59.8584 124.281C60.0011 123.257 60.1175 122.681 60.1175 122.681L60.3815 122.726C60.3815 122.726 60.3979 122.876 60.4307 123.16C60.4536 123.445 60.5454 123.862 60.5864 124.376C60.6963 125.398 60.857 126.856 61.0488 128.611C61.1636 129.478 61.2505 130.409 61.3358 131.391C61.4719 132.369 61.6277 133.395 61.7047 134.455C61.7703 135.517 62.0802 136.585 62.1671 137.689C62.236 138.238 62.3065 138.791 62.3737 139.347L62.7312 140.986C62.9476 142.08 63.0444 143.211 63.3494 144.261C63.6741 145.307 63.879 146.369 64.1365 147.388C64.1971 147.646 64.2594 147.901 64.3168 148.154C64.3529 148.309 64.366 148.349 64.3922 148.444L64.489 148.744C64.6284 149.146 64.7989 149.53 64.9842 149.855C65.3892 150.518 65.7057 150.852 65.9533 150.987C69.6492 151.504 72.1104 152.232 72.1104 152.232L72.1071 152.484L72.1103 152.484ZM119.414 123.412L107.385 123.887C106.836 123.912 106.37 123.504 106.349 122.979C106.327 122.456 106.754 122.012 107.301 121.988L119.335 121.513C119.883 121.492 120.348 121.901 120.366 122.421C120.389 122.946 119.966 123.387 119.414 123.412ZM119.94 113.549L69.4926 118.321C69.8189 118.24 70.1337 118.149 70.4322 118.042C70.4371 118.042 70.442 118.042 70.4469 118.04C70.7126 117.946 70.9716 117.843 71.2127 117.731C71.3143 117.684 71.4094 117.637 71.5062 117.587C71.621 117.531 71.7325 117.47 71.8423 117.406C72.2605 117.167 72.6228 116.899 72.9262 116.61C72.9803 116.559 73.0344 116.507 73.0819 116.454C73.1672 116.367 73.2459 116.278 73.3213 116.187C73.4033 116.079 73.4771 115.968 73.5476 115.856C73.6001 115.768 73.646 115.679 73.6903 115.587C73.7444 115.468 73.7968 115.349 73.8329 115.226C73.8509 115.168 73.8706 115.109 73.8821 115.046C73.9247 114.865 73.9526 114.684 73.9526 114.493C73.9526 114.251 73.9051 114.016 73.8378 113.785C73.828 113.756 73.8231 113.724 73.8149 113.696C73.7394 113.477 73.6312 113.271 73.5 113.066C73.4771 113.031 73.4525 112.995 73.4295 112.959C73.2885 112.762 73.1246 112.566 72.9343 112.385C72.9016 112.355 72.8704 112.329 72.8376 112.298C72.631 112.112 72.4047 111.935 72.1538 111.77C72.1358 111.76 72.1145 111.749 72.0981 111.738C71.8341 111.57 71.5504 111.416 71.2372 111.273C71.2208 111.263 71.2044 111.255 71.188 111.248C70.8749 111.107 70.542 110.98 70.1895 110.869C70.1452 110.855 70.1042 110.84 70.0599 110.827C69.7123 110.719 69.3434 110.627 68.963 110.552C68.9138 110.541 68.8613 110.532 68.8121 110.523C68.4219 110.446 68.0169 110.387 67.5987 110.346C67.584 110.344 67.5758 110.341 67.561 110.34C95.6097 94.5531 120.015 93.3874 124.67 93.311L119.94 113.549ZM180.961 125.231L178.946 126.77C178.297 127.301 177.69 127.883 177.065 128.434C176.426 128.967 175.894 129.612 175.309 130.195C174.712 130.769 174.209 131.425 173.692 132.064C173.171 132.7 172.62 133.309 172.185 134.006L170.808 136.025L169.605 138.107C169.18 138.769 168.847 139.547 168.49 140.302L167.432 142.529C167.063 143.321 166.679 144.115 166.217 144.869C165.792 145.644 165.258 146.371 164.726 147.09C164.179 147.802 163.551 148.46 162.9 149.098C162.228 149.713 161.518 150.306 160.747 150.823C159.981 151.345 159.16 151.804 158.3 152.188C157.395 152.554 156.577 152.854 155.454 153.024L155.372 153.038L155.295 153.034C153.468 152.987 151.64 152.968 149.818 152.885C147.992 152.813 146.165 152.76 144.342 152.652C140.692 152.481 137.038 152.234 133.387 151.868C137.037 151.506 140.69 151.257 144.342 151.082C146.165 150.974 147.992 150.926 149.818 150.849C151.597 150.771 153.38 150.746 155.162 150.706C155.747 150.581 156.546 150.288 157.207 149.973C157.907 149.638 158.584 149.254 159.218 148.804C159.86 148.359 160.453 147.848 161.024 147.312C161.576 146.758 162.096 146.171 162.58 145.557C163.057 144.933 163.539 144.307 163.926 143.619C164.354 142.957 164.705 142.246 165.053 141.529C165.454 140.722 165.807 140.021 166.209 139.268C166.599 138.53 166.958 137.791 167.466 137.055L168.888 134.85L170.514 132.82C171.031 132.13 171.665 131.525 172.267 130.9C172.869 130.273 173.482 129.661 174.171 129.119C174.858 128.58 175.473 127.965 176.209 127.49C176.942 127.006 177.641 126.498 178.388 126.045C179.149 125.62 179.923 125.214 180.687 124.809L183.096 123.812L180.961 125.231ZM169.411 111.657L134.649 113.036L135.402 92.7231C166.522 93.5559 180.174 100.514 183.104 102.246C176.999 108.544 170.293 111.312 169.409 111.657L169.411 111.657Z" fill="#515BE0"/>
<path d="M190.808 134.161C180.714 134.161 172.539 141.953 172.539 151.57C172.539 161.184 180.716 168.98 190.808 168.98C200.896 168.98 209.077 161.184 209.077 151.57C209.077 141.954 200.896 134.161 190.808 134.161ZM202.46 151.568C202.46 152.906 202.2 154.183 201.744 155.367L194.837 151.568L201.744 147.77C202.2 148.957 202.46 150.229 202.46 151.568ZM179.157 151.568C179.157 150.229 179.412 148.956 179.868 147.77L186.776 151.568L179.868 155.367C179.412 154.183 179.157 152.906 179.157 151.568ZM199.738 144.438L192.823 148.245V140.641C195.583 141.101 198.013 142.476 199.738 144.438ZM188.792 140.641V148.245L181.875 144.442C183.603 142.476 186.027 141.101 188.792 140.641ZM181.874 158.701L188.79 154.898V162.502C186.027 162.042 183.604 160.666 181.874 158.701ZM192.824 162.498V154.895L199.74 158.698C198.014 160.665 195.584 162.042 192.824 162.498Z" fill="#FFB800"/>
<defs>
<filter id="filter0_d_86_4185" x="377.675" y="114.546" width="21.9948" height="31.9704" filterUnits="userSpaceOnUse" color-interpolation-filters="sRGB">
<feFlood flood-opacity="0" result="BackgroundImageFix"/>
<feColorMatrix in="SourceAlpha" type="matrix" values="0 0 0 0 0 0 0 0 0 0 0 0 0 0 0 0 0 0 127 0" result="hardAlpha"/>
<feOffset dy="2.46043"/>
<feGaussianBlur stdDeviation="2.76799"/>
<feComposite in2="hardAlpha" operator="out"/>
<feColorMatrix type="matrix" values="0 0 0 0 1 0 0 0 0 0.72 0 0 0 0 0 0 0 0 0.34 0"/>
<feBlend mode="normal" in2="BackgroundImageFix" result="effect1_dropShadow_86_4185"/>
<feBlend mode="normal" in="SourceGraphic" in2="effect1_dropShadow_86_4185" result="shape"/>
</filter>
</defs>
</svg>
