<svg width="474" height="175" viewBox="0 0 474 175" fill="none" xmlns="http://www.w3.org/2000/svg">
<path d="M446.035 112.027C446.035 111.996 446.035 111.996 446.035 112.027C445.972 110.499 445.848 109.002 445.629 107.474C445.349 105.759 444.881 104.075 444.475 102.422C443.758 101.237 442.76 101.206 441.981 101.393C441.918 101.424 441.856 101.424 441.794 101.456C441.388 101.58 440.983 101.487 440.671 101.175L421.96 82.4956C421.773 82.3085 421.649 82.0278 421.649 81.7472L421.087 63.0054V62.8495L420.869 62.4129C420.775 62.2258 418.499 57.6106 414.102 57.0804C411.046 56.7062 408.021 58.359 405.058 61.9452L404.528 62.6V63.0366C404.528 63.5044 404.279 63.8786 403.842 64.0345C403.437 64.2216 402.969 64.1281 402.657 63.8162L383.323 44.6067C382.886 44.0766 381.452 42.5486 379.02 42.2367C376.65 41.9249 374.155 42.8292 371.629 44.9498C366.141 49.5027 317.244 99.0545 311.693 104.668L311.568 104.824L311.35 105.167C310.976 105.821 307.826 111.559 310.539 115.676C312.285 118.358 315.84 119.418 321.142 118.856L321.952 118.763L377.086 63.5979C377.523 63.1614 378.209 63.1614 378.614 63.5979L434.309 118.856L435.058 118.981C435.214 119.012 435.962 119.106 437.022 119.106C439.424 119.106 442.729 118.607 444.818 116.268C445.38 115.644 445.785 114.927 446.097 114.148C446.066 113.399 446.066 112.713 446.035 112.027ZM320.113 113.992C319.925 114.179 319.676 114.304 319.427 114.304C316.776 114.459 314.998 114.023 314.406 113.087C313.689 111.996 314.281 109.564 315.185 107.786C315.217 107.692 315.279 107.63 315.373 107.537C317.587 105.291 369.321 52.8394 374.623 48.4424C376.057 47.2574 377.398 46.6649 378.427 46.7584C379.269 46.852 379.737 47.4133 379.768 47.4445L404.715 72.2672C405.464 73.0156 406.524 73.2339 407.491 72.8597L407.647 73.0156V72.8285C408.614 72.3919 409.175 71.4876 409.175 70.4273V64.6894C409.175 64.4087 409.268 64.1281 409.487 63.941C410.547 62.8183 412.137 61.5086 413.572 61.6645C414.85 61.8204 415.848 63.0366 416.347 63.7539C416.472 63.9098 416.534 64.1281 416.534 64.3464L417.096 83.0881C417.127 83.7742 417.376 84.3979 417.875 84.8656L441.575 108.566L441.669 108.909C442.199 110.873 442.105 112.308 441.388 113.119C440.328 114.335 437.927 114.428 436.929 114.428C436.648 114.428 436.367 114.304 436.149 114.116L379.706 58.1095C379.463 57.8649 379.173 57.6708 378.855 57.5384C378.537 57.406 378.195 57.3378 377.85 57.3378C377.505 57.3378 377.164 57.406 376.845 57.5384C376.527 57.6708 376.238 57.8649 375.995 58.1095L320.113 113.992Z" fill="#E1FFF9"/>
<path d="M430.568 122.724L382.326 74.2008C380.268 72.1115 376.9 72.1115 374.81 74.1696L326.288 122.287C325.29 123.285 324.697 124.657 324.697 126.06V168.346C324.697 170.498 325.976 172.525 328.003 173.273C329.001 173.647 330.31 173.928 331.994 173.959C337.389 174.115 370.32 174.022 383.355 173.99C386.286 173.99 388.656 171.589 388.656 168.658V129.366C388.656 126.434 391.026 124.033 393.989 124.033H408.458C411.39 124.033 413.791 126.403 413.791 129.366V168.752C413.791 171.683 416.161 174.084 419.123 174.084H426.358C427.013 174.084 427.699 173.959 428.291 173.71C429.601 173.18 431.597 171.87 432.096 168.97C432.751 165.165 432.283 134.761 432.127 126.372C432.096 125 431.535 123.69 430.568 122.724ZM362.773 149.043H348.927C345.996 149.043 343.595 146.673 343.595 143.711V129.366C343.595 126.434 345.965 124.033 348.927 124.033H362.773C365.705 124.033 368.106 126.403 368.106 129.366V143.711C368.075 146.642 365.705 149.043 362.773 149.043Z" fill="#515BE0"/>
<mask id="path-3-inside-1_86_4188" fill="white">
<path fill-rule="evenodd" clip-rule="evenodd" d="M253.209 159.149V114.849C253.209 111.601 255.812 108.958 259.012 108.958H282.223C285.423 108.958 288.026 111.601 288.026 114.849V159.149H288.026V168.968C288.026 170.052 287.161 170.931 286.092 170.931H255.143L255.111 170.931C254.056 170.914 253.207 170.042 253.207 168.967V159.149H253.209ZM263.15 145.128H278.38C279.432 145.128 280.284 142.953 280.284 140.269V120.837C280.284 118.153 279.432 115.978 278.38 115.978H263.15C262.098 115.978 261.246 118.153 261.246 120.837V140.27C261.246 142.953 262.098 145.128 263.15 145.128Z"/>
</mask>
<path fill-rule="evenodd" clip-rule="evenodd" d="M253.209 159.149V114.849C253.209 111.601 255.812 108.958 259.012 108.958H282.223C285.423 108.958 288.026 111.601 288.026 114.849V159.149H288.026V168.968C288.026 170.052 287.161 170.931 286.092 170.931H255.143L255.111 170.931C254.056 170.914 253.207 170.042 253.207 168.967V159.149H253.209ZM263.15 145.128H278.38C279.432 145.128 280.284 142.953 280.284 140.269V120.837C280.284 118.153 279.432 115.978 278.38 115.978H263.15C262.098 115.978 261.246 118.153 261.246 120.837V140.27C261.246 142.953 262.098 145.128 263.15 145.128Z" fill="#FFB800"/>
<path d="M253.209 159.149H255.928V161.869H253.209V159.149ZM288.026 159.149V161.869H285.307V159.149H288.026ZM288.026 159.149V156.43H290.746V159.149H288.026ZM255.143 170.931V173.651H255.132L255.12 173.651L255.143 170.931ZM255.111 170.931L255.088 173.651L255.078 173.65L255.067 173.65L255.111 170.931ZM253.207 159.149H250.487V156.43H253.207V159.149ZM255.928 114.849V159.149H250.489V114.849H255.928ZM259.012 111.678C257.352 111.678 255.928 113.064 255.928 114.849H250.489C250.489 110.137 254.271 106.238 259.012 106.238V111.678ZM282.223 111.678H259.012V106.238H282.223V111.678ZM285.307 114.849C285.307 113.064 283.883 111.678 282.223 111.678V106.238C286.964 106.238 290.746 110.137 290.746 114.849H285.307ZM285.307 159.149V114.849H290.746V159.149H285.307ZM288.026 156.43H288.026V161.869H288.026V156.43ZM290.746 159.149V168.968H285.307V159.149H290.746ZM290.746 168.968C290.746 171.516 288.701 173.651 286.092 173.651V168.211C285.62 168.211 285.307 168.589 285.307 168.968H290.746ZM286.092 173.651H255.143V168.211H286.092V173.651ZM255.12 173.651L255.088 173.651L255.133 168.211L255.166 168.212L255.12 173.651ZM255.067 173.65C252.493 173.609 250.487 171.492 250.487 168.967H255.927C255.927 168.592 255.62 168.219 255.154 168.212L255.067 173.65ZM250.487 168.967V159.149H255.927V168.967H250.487ZM253.207 156.43H253.209V161.869H253.207V156.43ZM278.38 147.847H263.15V142.408H278.38V147.847ZM283.004 140.269C283.004 141.863 282.756 143.429 282.259 144.697C282.014 145.323 281.654 146.014 281.116 146.595C280.575 147.179 279.653 147.847 278.38 147.847V142.408C277.634 142.408 277.212 142.805 277.127 142.897C277.044 142.986 277.095 142.966 277.195 142.713C277.387 142.222 277.565 141.36 277.565 140.269H283.004ZM283.004 120.837V140.269H277.565V120.837H283.004ZM278.38 113.258C279.653 113.258 280.575 113.927 281.116 114.511C281.654 115.092 282.014 115.783 282.259 116.409C282.756 117.677 283.004 119.243 283.004 120.837H277.565C277.565 119.746 277.387 118.883 277.195 118.393C277.095 118.14 277.044 118.12 277.127 118.209C277.212 118.301 277.634 118.698 278.38 118.698V113.258ZM263.15 113.258H278.38V118.698H263.15V113.258ZM258.526 120.837C258.526 119.243 258.775 117.677 259.272 116.409C259.517 115.783 259.876 115.092 260.414 114.511C260.955 113.927 261.877 113.258 263.15 113.258V118.698C263.897 118.698 264.318 118.301 264.404 118.209C264.486 118.12 264.435 118.14 264.336 118.393C264.144 118.883 263.966 119.746 263.966 120.837H258.526ZM258.526 140.27V120.837H263.966V140.27H258.526ZM263.15 147.847C261.877 147.847 260.955 147.179 260.414 146.595C259.876 146.014 259.517 145.323 259.272 144.697C258.775 143.429 258.526 141.863 258.526 140.27H263.966C263.966 141.36 264.144 142.222 264.336 142.713C264.435 142.966 264.486 142.986 264.404 142.897C264.318 142.805 263.897 142.408 263.15 142.408V147.847Z" fill="#FFB800" mask="url(#path-3-inside-1_86_4188)"/>
<g filter="url(#filter0_d_86_4188)">
<path d="M273.689 76.1338H266.87L265.973 85.6446H269.203L265.973 96.2998L275.125 82.0556H269.741L273.689 76.1338Z" fill="#FFB800"/>
<path d="M273.689 76.1338H266.87L265.973 85.6446H269.203L265.973 96.2998L275.125 82.0556H269.741L273.689 76.1338Z" stroke="#FFB800" stroke-width="0.9409"/>
</g>
<path d="M253.088 131.528C255.808 131.528 254.448 130.168 250.368 131.528C246.289 132.888 249.802 138.594 247.649 142.407C240.597 154.892 215.011 139.687 210.932 143.767" stroke="#FFB800" stroke-width="2.71972"/>
<path d="M34.69 137.894C24.9927 137.894 17.1313 145.632 17.1313 155.182C17.1313 164.73 24.9927 172.472 34.69 172.472C44.3856 172.472 52.2458 164.73 52.2458 155.182C52.2458 145.633 44.386 137.894 34.69 137.894ZM45.8891 155.181C45.8891 156.509 45.6385 157.777 45.2005 158.953L38.5634 155.181L45.2005 151.408C45.637 152.588 45.8891 153.851 45.8891 155.181ZM23.4925 155.181C23.4925 153.851 23.7383 152.586 24.1764 151.408L30.8135 155.181L24.1764 158.953C23.7383 157.777 23.4925 156.509 23.4925 155.181ZM43.2731 148.1L36.6263 151.88V144.329C39.2783 144.785 41.6119 146.151 43.2731 148.1ZM32.7549 144.329V151.88L26.1069 148.098C27.7662 146.151 30.0983 144.785 32.7549 144.329ZM26.1037 162.264L32.7517 158.487V166.038C30.0981 165.582 27.7661 164.215 26.1037 162.264ZM36.6267 166.035V158.484L43.2702 162.261C41.6125 164.215 39.2788 165.582 36.6267 166.035Z" fill="#FFB800"/>
<path d="M207.005 128.113L206.833 126.32C206.632 124.28 206.343 122.638 205.973 121.435C205.302 119.28 202.242 114.333 199.795 110.564L199.063 109.438L196.386 117.411L207.005 128.113ZM199.435 112.379C202.412 117.022 204.285 120.351 204.738 121.809C204.971 122.55 205.166 123.488 205.33 124.604L197.862 117.078L199.435 112.379Z" fill="#FFB800"/>
<path d="M211.793 140.979C211.792 140.969 211.185 135.427 207.152 133.303L206.47 132.943L206.472 132.178C206.472 132.156 206.472 131.397 206.431 130.271L194.173 117.912L197.438 108.17C196.845 107.284 196.319 106.512 195.917 105.928L195.457 105.261L198.319 100.505C192.302 99.1715 171.868 94.8031 158.792 93.9017C147.702 93.1382 135.526 93.0234 129.258 93.0234C126.81 93.0234 125.351 93.0405 125.347 93.0405C125.189 93.0452 106.954 93.596 97.8022 95.497C91.3116 96.8424 80.7462 101.252 71.4253 105.141C67.4985 106.778 63.7874 108.329 60.6675 109.528C58.1573 110.493 56.0204 111.412 53.953 112.3C47.4922 115.074 42.3868 117.262 32.74 117.768C20.1576 118.425 3.11533 128.379 0.824437 139.746C-1.35802 150.582 1.47996 152.253 1.50674 152.266L3.44337 152.955L1.8865 154.339C1.67692 154.549 1.0687 155.308 1.09072 155.979C1.09545 156.104 1.11278 156.482 1.66274 156.949C2.82408 157.933 8.54105 158.729 13.9175 159.057C13.667 157.762 13.5378 156.467 13.5378 155.186C13.5378 143.709 23.0192 134.372 34.6749 134.372C46.3279 134.372 55.8109 143.709 55.8109 155.186C55.8109 156.499 55.6754 157.828 55.4107 159.153H162.069C161.807 157.825 161.669 156.499 161.669 155.186C161.669 143.709 171.152 134.372 182.806 134.372C194.46 134.372 203.943 143.709 203.943 155.186C203.943 155.674 203.921 156.163 203.877 156.684C204.461 156.608 204.784 156.551 204.967 156.51C208.524 155.716 212.43 151.177 211.792 140.98L211.793 140.979ZM21.1035 133.21H8.38403C8.38403 133.21 14.3894 127.457 23.5179 122.76C32.6463 118.061 28.0667 130.32 21.1035 133.21ZM63.0245 115.437C66.6819 115.437 69.2332 116.978 69.2332 118.362C69.2332 118.876 68.8802 119.413 68.2484 119.884C68.2168 119.906 68.1806 119.929 68.1459 119.95C67.9836 120.068 67.7977 120.181 67.5991 120.288C67.4683 120.355 67.3281 120.42 67.1831 120.479C67.0744 120.528 66.9641 120.577 66.8491 120.622C66.63 120.704 66.4047 120.781 66.1652 120.848C66.1085 120.865 66.0549 120.879 65.9982 120.898C65.7161 120.974 65.4246 121.041 65.1189 121.093C65.0968 121.098 65.0716 121.103 65.0495 121.107C64.7218 121.163 64.383 121.205 64.0348 121.236H63.9969C63.6755 121.262 63.3651 121.289 63.0231 121.289C59.3657 121.289 56.8176 119.748 56.8176 118.361C56.8192 116.978 59.367 115.437 63.0245 115.437ZM68.7556 156.088C68.7556 156.088 66.3903 156.105 62.8386 156.13C61.8474 156.135 60.9634 155.438 60.3473 154.631C59.7185 153.82 59.2206 152.816 58.9464 151.757C58.617 150.71 58.2751 149.627 57.9316 148.523C57.5881 147.422 57.451 146.252 57.2004 145.108L56.8869 143.382C56.8349 142.802 56.7813 142.223 56.7293 141.649C56.6505 140.501 56.4882 139.376 56.4835 138.277C56.4693 137.184 56.4567 136.123 56.4425 135.117C56.4646 134.117 56.5307 133.167 56.567 132.29C56.5922 131.417 56.7009 130.619 56.764 129.908C56.8301 129.204 56.8995 128.584 56.9814 128.08C57.1185 127.064 57.2304 126.491 57.2304 126.491L57.4841 126.536C57.4841 126.536 57.4998 126.685 57.5314 126.967C57.5534 127.25 57.6417 127.664 57.681 128.175C57.7866 129.19 57.941 130.637 58.1254 132.38C58.2357 133.241 58.3192 134.166 58.4012 135.141C58.532 136.112 58.6817 137.132 58.7557 138.184C58.8188 139.239 59.1166 140.299 59.2001 141.396C59.2663 141.941 59.3341 142.49 59.3987 143.042L59.7422 144.67C59.9502 145.757 60.0432 146.88 60.3363 147.923C60.6483 148.961 60.8452 150.016 61.0926 151.028C61.1509 151.284 61.2108 151.537 61.266 151.788C61.3006 151.942 61.3132 151.982 61.3385 152.077L61.4314 152.375C61.5654 152.774 61.7292 153.155 61.9073 153.478C62.2965 154.136 62.6007 154.468 62.8386 154.602C66.3904 155.115 68.7556 155.838 68.7556 155.838L68.7525 156.088L68.7556 156.088ZM114.214 127.217L102.655 127.689C102.127 127.714 101.679 127.309 101.659 126.787C101.638 126.268 102.048 125.827 102.574 125.804L114.139 125.332C114.665 125.31 115.113 125.717 115.13 126.233C115.152 126.755 114.745 127.192 114.214 127.217ZM114.72 117.423L66.24 122.162C66.5535 122.081 66.8561 121.991 67.1429 121.884C67.1476 121.884 67.1523 121.884 67.1571 121.882C67.4123 121.789 67.6613 121.687 67.8929 121.575C67.9906 121.529 68.082 121.482 68.175 121.432C68.2853 121.377 68.3925 121.316 68.498 121.252C68.8999 121.015 69.2481 120.75 69.5396 120.463C69.5916 120.411 69.6436 120.36 69.6893 120.307C69.7712 120.221 69.8469 120.132 69.9193 120.042C69.9981 119.935 70.0691 119.825 70.1368 119.713C70.1872 119.626 70.2314 119.538 70.2739 119.446C70.3259 119.328 70.3763 119.21 70.411 119.088C70.4283 119.03 70.4472 118.971 70.4583 118.909C70.4992 118.729 70.526 118.549 70.526 118.36C70.526 118.119 70.4803 117.887 70.4157 117.657C70.4063 117.628 70.4015 117.596 70.3937 117.569C70.3212 117.351 70.2172 117.146 70.0911 116.943C70.0691 116.907 70.0454 116.872 70.0234 116.836C69.8878 116.641 69.7303 116.447 69.5475 116.267C69.516 116.237 69.486 116.211 69.4545 116.18C69.256 115.995 69.0385 115.82 68.7974 115.655C68.7801 115.646 68.7596 115.635 68.7438 115.624C68.4901 115.457 68.2175 115.304 67.9165 115.162C67.9008 115.152 67.885 115.145 67.8693 115.137C67.5683 114.997 67.2484 114.872 66.9096 114.761C66.8671 114.747 66.8277 114.732 66.7851 114.719C66.4511 114.612 66.0965 114.521 65.7309 114.446C65.6837 114.435 65.6333 114.426 65.586 114.417C65.2109 114.341 64.8217 114.282 64.4199 114.242C64.4057 114.24 64.3979 114.237 64.3837 114.235C91.3386 98.5576 114.792 97.4 119.266 97.3241L114.72 117.423ZM173.362 129.024L171.425 130.552C170.801 131.08 170.218 131.657 169.618 132.205C169.003 132.734 168.493 133.375 167.93 133.954C167.357 134.523 166.873 135.175 166.377 135.81C165.875 136.441 165.346 137.046 164.928 137.738L163.605 139.743L162.448 141.81C162.04 142.468 161.72 143.241 161.377 143.991L160.36 146.202C160.006 146.989 159.637 147.777 159.193 148.527C158.785 149.296 158.271 150.018 157.76 150.732C157.234 151.439 156.63 152.093 156.005 152.726C155.359 153.337 154.676 153.925 153.936 154.439C153.2 154.957 152.411 155.413 151.585 155.795C150.715 156.158 149.929 156.456 148.849 156.625L148.771 156.639L148.696 156.635C146.941 156.588 145.184 156.569 143.433 156.487C141.678 156.416 139.923 156.363 138.17 156.256C134.663 156.085 131.152 155.84 127.642 155.477C131.15 155.117 134.661 154.87 138.17 154.696C139.923 154.589 141.678 154.541 143.433 154.465C145.143 154.388 146.856 154.363 148.569 154.322C149.131 154.198 149.899 153.908 150.534 153.595C151.206 153.263 151.857 152.881 152.467 152.434C153.083 151.992 153.654 151.484 154.202 150.952C154.733 150.403 155.233 149.819 155.697 149.209C156.156 148.59 156.619 147.968 156.991 147.285C157.402 146.627 157.74 145.921 158.074 145.209C158.46 144.408 158.799 143.711 159.185 142.963C159.56 142.231 159.905 141.497 160.393 140.766L161.759 138.577L163.323 136.561C163.819 135.875 164.429 135.274 165.007 134.654C165.585 134.031 166.175 133.423 166.837 132.885C167.497 132.349 168.088 131.739 168.795 131.268C169.5 130.787 170.171 130.282 170.889 129.832C171.621 129.41 172.364 129.007 173.099 128.605L175.413 127.615L173.362 129.024ZM162.262 115.543L128.856 116.913L129.579 96.7402C159.486 97.5673 172.606 104.478 175.421 106.197C169.555 112.452 163.11 115.2 162.26 115.543L162.262 115.543Z" fill="#515BE0"/>
<path d="M182.825 137.894C173.125 137.894 165.268 145.632 165.268 155.182C165.268 164.73 173.126 172.472 182.825 172.472C192.519 172.472 200.381 164.73 200.381 155.182C200.381 145.633 192.52 137.894 182.825 137.894ZM194.023 155.181C194.023 156.509 193.772 157.777 193.334 158.953L186.697 155.181L193.334 151.408C193.772 152.588 194.023 153.851 194.023 155.181ZM171.628 155.181C171.628 153.851 171.873 152.586 172.311 151.408L178.95 155.181L172.311 158.953C171.873 157.777 171.628 156.509 171.628 155.181ZM191.407 148.1L184.761 151.88V144.329C187.413 144.785 189.749 146.151 191.407 148.1ZM180.887 144.329V151.88L174.24 148.103C175.901 146.151 178.23 144.785 180.887 144.329ZM174.239 162.264L180.886 158.487V166.038C178.23 165.582 175.902 164.215 174.239 162.264ZM184.762 166.035V158.484L191.409 162.261C189.749 164.215 187.414 165.582 184.762 166.035Z" fill="#FFB800"/>
<path d="M432.452 25.9507C434.278 23.993 436.486 22.4299 438.939 21.3579C441.392 20.2864 444.037 19.729 446.714 19.7196C449.391 19.7106 452.041 20.2499 454.502 21.3046C456.963 22.3593 459.182 23.9067 461.022 25.8519M423.852 14.0126C426.773 10.8798 430.305 8.37882 434.23 6.66404C438.156 4.94918 442.393 4.05712 446.677 4.04218C450.961 4.02721 455.199 4.89046 459.137 6.57789C463.074 8.26515 466.621 10.7379 469.565 13.8503M446.782 43.2361C444.618 43.2361 442.863 41.4814 442.863 39.3167C442.863 37.1524 444.618 35.3973 446.782 35.3973C448.947 35.3973 450.702 37.1524 450.702 39.3167C450.702 41.4814 448.947 43.2361 446.782 43.2361Z" stroke="#E1FFF9" stroke-width="7.83882" stroke-linecap="round" stroke-linejoin="round"/>
<defs>
<filter id="filter0_d_86_4188" x="259.92" y="72.5875" width="21.6022" height="31.9626" filterUnits="userSpaceOnUse" color-interpolation-filters="sRGB">
<feFlood flood-opacity="0" result="BackgroundImageFix"/>
<feColorMatrix in="SourceAlpha" type="matrix" values="0 0 0 0 0 0 0 0 0 0 0 0 0 0 0 0 0 0 127 0" result="hardAlpha"/>
<feOffset dy="2.46043"/>
<feGaussianBlur stdDeviation="2.76799"/>
<feComposite in2="hardAlpha" operator="out"/>
<feColorMatrix type="matrix" values="0 0 0 0 1 0 0 0 0 0.72 0 0 0 0 0 0 0 0 0.34 0"/>
<feBlend mode="normal" in2="BackgroundImageFix" result="effect1_dropShadow_86_4188"/>
<feBlend mode="normal" in="SourceGraphic" in2="effect1_dropShadow_86_4188" result="shape"/>
</filter>
</defs>
</svg>
