<svg width="474" height="175" viewBox="0 0 474 175" fill="none" xmlns="http://www.w3.org/2000/svg">
<path d="M446.035 112.069C446.035 112.038 446.035 112.038 446.035 112.069C445.972 110.541 445.848 109.044 445.629 107.516C445.349 105.801 444.881 104.117 444.475 102.464C443.758 101.279 442.76 101.248 441.981 101.435C441.918 101.466 441.856 101.466 441.794 101.498C441.388 101.622 440.983 101.529 440.671 101.217L421.96 82.5376C421.773 82.3505 421.649 82.0698 421.649 81.7892L421.087 63.0474V62.8915L420.869 62.4549C420.775 62.2678 418.499 57.6526 414.102 57.1224C411.046 56.7482 408.021 58.401 405.058 61.9872L404.528 62.642V63.0786C404.528 63.5464 404.279 63.9206 403.842 64.0765C403.437 64.2636 402.969 64.1701 402.657 63.8582L383.323 44.6487C382.886 44.1186 381.452 42.5906 379.02 42.2787C376.65 41.9669 374.155 42.8712 371.629 44.9918C366.141 49.5447 317.244 99.0964 311.693 104.71L311.568 104.866L311.35 105.209C310.976 105.863 307.826 111.601 310.539 115.718C312.285 118.399 315.84 119.46 321.142 118.898L321.952 118.805L377.086 63.6399C377.523 63.2034 378.209 63.2034 378.614 63.6399L434.309 118.898L435.058 119.023C435.214 119.054 435.962 119.148 437.022 119.148C439.424 119.148 442.729 118.649 444.818 116.31C445.38 115.686 445.785 114.969 446.097 114.19C446.066 113.441 446.066 112.755 446.035 112.069ZM320.113 114.034C319.925 114.221 319.676 114.346 319.427 114.346C316.776 114.501 314.998 114.065 314.406 113.129C313.689 112.038 314.281 109.606 315.185 107.828C315.217 107.734 315.279 107.672 315.373 107.579C317.587 105.333 369.321 52.8814 374.623 48.4844C376.057 47.2994 377.398 46.7069 378.427 46.8004C379.269 46.894 379.737 47.4553 379.768 47.4865L404.715 72.3092C405.464 73.0576 406.524 73.2759 407.491 72.9017L407.647 73.0576V72.8705C408.614 72.4339 409.175 71.5296 409.175 70.4693V64.7314C409.175 64.4507 409.268 64.1701 409.487 63.983C410.547 62.8603 412.137 61.5506 413.572 61.7065C414.85 61.8624 415.848 63.0786 416.347 63.7959C416.472 63.9518 416.534 64.1701 416.534 64.3884L417.096 83.1301C417.127 83.8162 417.376 84.4398 417.875 84.9076L441.575 108.608L441.669 108.951C442.199 110.915 442.105 112.35 441.388 113.161C440.328 114.377 437.927 114.47 436.929 114.47C436.648 114.47 436.367 114.346 436.149 114.158L379.706 58.1515C379.463 57.9069 379.173 57.7128 378.855 57.5804C378.537 57.4479 378.195 57.3798 377.85 57.3798C377.505 57.3798 377.164 57.4479 376.845 57.5804C376.527 57.7128 376.238 57.9069 375.995 58.1515L320.113 114.034Z" fill="#E1FFF9"/>
<path d="M430.568 122.766L382.326 74.2428C380.268 72.1535 376.9 72.1535 374.81 74.2116L326.288 122.329C325.29 123.327 324.697 124.699 324.697 126.102V168.388C324.697 170.54 325.976 172.567 328.003 173.315C329.001 173.689 330.31 173.97 331.994 174.001C337.389 174.157 370.32 174.064 383.355 174.032C386.286 174.032 388.656 171.631 388.656 168.7V129.408C388.656 126.476 391.026 124.075 393.989 124.075H408.458C411.39 124.075 413.791 126.445 413.791 129.408V168.793C413.791 171.725 416.161 174.126 419.123 174.126H426.358C427.013 174.126 427.699 174.001 428.291 173.752C429.601 173.222 431.597 171.912 432.096 169.012C432.751 165.207 432.283 134.803 432.127 126.414C432.096 125.042 431.535 123.732 430.568 122.766ZM362.773 149.085H348.927C345.996 149.085 343.595 146.715 343.595 143.753V129.408C343.595 126.476 345.965 124.075 348.927 124.075H362.773C365.705 124.075 368.106 126.445 368.106 129.408V143.753C368.075 146.684 365.705 149.085 362.773 149.085Z" fill="#515BE0"/>
<mask id="path-3-inside-1_102_4397" fill="white">
<path fill-rule="evenodd" clip-rule="evenodd" d="M253.209 159.191V114.891C253.209 111.643 255.812 109 259.012 109H282.223C285.423 109 288.026 111.643 288.026 114.891V159.191H288.026V169.01C288.026 170.094 287.161 170.973 286.092 170.973H255.143L255.111 170.973C254.056 170.956 253.207 170.084 253.207 169.009V159.191H253.209ZM263.15 145.17H278.38C279.432 145.17 280.284 142.995 280.284 140.311V120.879C280.284 118.195 279.432 116.02 278.38 116.02H263.15C262.098 116.02 261.246 118.195 261.246 120.879V140.312C261.246 142.995 262.098 145.17 263.15 145.17Z"/>
</mask>
<path fill-rule="evenodd" clip-rule="evenodd" d="M253.209 159.191V114.891C253.209 111.643 255.812 109 259.012 109H282.223C285.423 109 288.026 111.643 288.026 114.891V159.191H288.026V169.01C288.026 170.094 287.161 170.973 286.092 170.973H255.143L255.111 170.973C254.056 170.956 253.207 170.084 253.207 169.009V159.191H253.209ZM263.15 145.17H278.38C279.432 145.17 280.284 142.995 280.284 140.311V120.879C280.284 118.195 279.432 116.02 278.38 116.02H263.15C262.098 116.02 261.246 118.195 261.246 120.879V140.312C261.246 142.995 262.098 145.17 263.15 145.17Z" fill="#FFB800"/>
<path d="M253.209 159.191H255.928V161.911H253.209V159.191ZM288.026 159.191V161.911H285.307V159.191H288.026ZM288.026 159.191V156.472H290.746V159.191H288.026ZM255.143 170.973V173.693H255.132L255.12 173.693L255.143 170.973ZM255.111 170.973L255.088 173.693L255.078 173.692L255.067 173.692L255.111 170.973ZM253.207 159.191H250.487V156.472H253.207V159.191ZM255.928 114.891V159.191H250.489V114.891H255.928ZM259.012 111.72C257.352 111.72 255.928 113.106 255.928 114.891H250.489C250.489 110.179 254.271 106.28 259.012 106.28V111.72ZM282.223 111.72H259.012V106.28H282.223V111.72ZM285.307 114.891C285.307 113.106 283.883 111.72 282.223 111.72V106.28C286.964 106.28 290.746 110.179 290.746 114.891H285.307ZM285.307 159.191V114.891H290.746V159.191H285.307ZM288.026 156.472H288.026V161.911H288.026V156.472ZM290.746 159.191V169.01H285.307V159.191H290.746ZM290.746 169.01C290.746 171.558 288.701 173.693 286.092 173.693V168.253C285.62 168.253 285.307 168.631 285.307 169.01H290.746ZM286.092 173.693H255.143V168.253H286.092V173.693ZM255.12 173.693L255.088 173.693L255.133 168.253L255.166 168.254L255.12 173.693ZM255.067 173.692C252.493 173.651 250.487 171.534 250.487 169.009H255.927C255.927 168.634 255.62 168.261 255.154 168.254L255.067 173.692ZM250.487 169.009V159.191H255.927V169.009H250.487ZM253.207 156.472H253.209V161.911H253.207V156.472ZM278.38 147.889H263.15V142.45H278.38V147.889ZM283.004 140.311C283.004 141.905 282.756 143.471 282.259 144.739C282.014 145.365 281.654 146.056 281.116 146.637C280.575 147.221 279.653 147.889 278.38 147.889V142.45C277.634 142.45 277.212 142.847 277.127 142.939C277.044 143.028 277.095 143.008 277.195 142.755C277.387 142.264 277.565 141.402 277.565 140.311H283.004ZM283.004 120.879V140.311H277.565V120.879H283.004ZM278.38 113.3C279.653 113.3 280.575 113.969 281.116 114.553C281.654 115.134 282.014 115.825 282.259 116.451C282.756 117.719 283.004 119.285 283.004 120.879H277.565C277.565 119.788 277.387 118.925 277.195 118.435C277.095 118.182 277.044 118.162 277.127 118.251C277.212 118.343 277.634 118.74 278.38 118.74V113.3ZM263.15 113.3H278.38V118.74H263.15V113.3ZM258.526 120.879C258.526 119.285 258.775 117.719 259.272 116.451C259.517 115.825 259.876 115.134 260.414 114.553C260.955 113.969 261.877 113.3 263.15 113.3V118.74C263.897 118.74 264.318 118.343 264.404 118.251C264.486 118.162 264.435 118.182 264.336 118.435C264.144 118.925 263.966 119.788 263.966 120.879H258.526ZM258.526 140.312V120.879H263.966V140.312H258.526ZM263.15 147.889C261.877 147.889 260.955 147.221 260.414 146.637C259.876 146.056 259.517 145.365 259.272 144.739C258.775 143.471 258.526 141.905 258.526 140.312H263.966C263.966 141.402 264.144 142.264 264.336 142.755C264.435 143.008 264.486 143.028 264.404 142.939C264.318 142.847 263.897 142.45 263.15 142.45V147.889Z" fill="#FFB800" mask="url(#path-3-inside-1_102_4397)"/>
<g filter="url(#filter0_d_102_4397)">
<path d="M264.408 77.1758H271.227L272.125 86.6866H268.894L272.125 97.3418L262.973 83.0976H268.356L264.408 77.1758Z" fill="#FFB800"/>
<path d="M264.408 77.1758H271.227L272.125 86.6866H268.894L272.125 97.3418L262.973 83.0976H268.356L264.408 77.1758Z" stroke="#FFB800" stroke-width="0.9409"/>
</g>
<path d="M253.088 131.57C255.808 131.57 254.448 130.21 250.368 131.57C246.289 132.93 249.802 138.636 247.649 142.449C240.597 154.934 215.011 139.729 210.932 143.809" stroke="#FFB800" stroke-width="2.71972"/>
<path d="M34.69 137.935C24.9927 137.935 17.1313 145.673 17.1313 155.223C17.1313 164.771 24.9927 172.513 34.69 172.513C44.3856 172.513 52.2458 164.771 52.2458 155.223C52.2458 145.674 44.386 137.935 34.69 137.935ZM45.8891 155.222C45.8891 156.55 45.6385 157.818 45.2005 158.994L38.5634 155.222L45.2005 151.449C45.637 152.629 45.8891 153.892 45.8891 155.222ZM23.4925 155.222C23.4925 153.892 23.7383 152.627 24.1764 151.449L30.8135 155.222L24.1764 158.994C23.7383 157.818 23.4925 156.55 23.4925 155.222ZM43.2731 148.141L36.6263 151.921V144.37C39.2783 144.826 41.6119 146.192 43.2731 148.141ZM32.7549 144.37V151.921L26.1069 148.139C27.7662 146.192 30.0983 144.826 32.7549 144.37ZM26.1037 162.305L32.7517 158.528V166.079C30.0981 165.623 27.7661 164.256 26.1037 162.305ZM36.6267 166.076V158.525L43.2702 162.302C41.6125 164.256 39.2788 165.623 36.6267 166.076Z" fill="#515BE0"/>
<path d="M207.005 128.154L206.833 126.361C206.632 124.321 206.343 122.679 205.973 121.476C205.302 119.321 202.242 114.374 199.795 110.605L199.063 109.479L196.386 117.452L207.005 128.154ZM199.435 112.42C202.412 117.063 204.285 120.392 204.738 121.85C204.971 122.591 205.166 123.529 205.33 124.645L197.862 117.119L199.435 112.42Z" fill="#515BE0"/>
<path d="M211.793 141.02C211.792 141.01 211.185 135.468 207.153 133.344L206.47 132.984L206.472 132.219C206.472 132.197 206.472 131.438 206.431 130.312L194.173 117.953L197.438 108.212C196.845 107.325 196.319 106.553 195.917 105.969L195.457 105.302L198.319 100.546C192.302 99.2126 171.868 94.8441 158.792 93.9428C147.702 93.1793 135.526 93.0645 129.258 93.0645C126.81 93.0645 125.347 93.0815 125.347 93.0815C125.189 93.0862 106.954 93.6371 97.8022 95.538C91.3116 96.8834 80.7462 101.293 71.4253 105.182C67.4985 106.819 63.7874 108.37 60.6675 109.569C58.1573 110.534 56.0204 111.453 53.953 112.341C47.4922 115.115 42.3868 117.303 32.74 117.809C20.1576 118.466 3.11533 128.42 0.824437 139.787C-1.35802 150.623 1.47996 152.294 1.50674 152.307L3.44337 152.996L1.8865 154.38C1.67692 154.59 1.0687 155.349 1.09072 156.02C1.09545 156.145 1.11278 156.523 1.66274 156.99C2.82408 157.974 8.54105 158.77 13.9175 159.098C13.667 157.803 13.5378 156.508 13.5378 155.228C13.5378 143.75 23.0192 134.413 34.6749 134.413C46.3279 134.413 55.8109 143.75 55.8109 155.228C55.8109 156.54 55.6754 157.869 55.4107 159.194H162.069C161.807 157.866 161.669 156.54 161.669 155.228C161.669 143.75 171.152 134.413 182.806 134.413C194.46 134.413 203.943 143.75 203.943 155.228C203.943 155.715 203.921 156.204 203.877 156.725C204.461 156.649 204.784 156.592 204.967 156.551C208.524 155.757 212.431 151.217 211.793 141.02ZM21.1035 133.251H8.38403C8.38403 133.251 14.3894 127.498 23.5179 122.801C32.6463 118.102 28.0667 130.361 21.1035 133.251ZM63.0245 115.478C66.6819 115.478 69.2332 117.019 69.2332 118.403C69.2332 118.917 68.8802 119.454 68.2484 119.925C68.2168 119.947 68.1806 119.97 68.1459 119.991C67.9836 120.109 67.7977 120.222 67.5991 120.329C67.4683 120.396 67.3281 120.461 67.1831 120.52C67.0744 120.569 66.9641 120.618 66.8491 120.663C66.63 120.745 66.4047 120.822 66.1652 120.889C66.1085 120.906 66.0549 120.92 65.9982 120.939C65.7161 121.015 65.4246 121.082 65.1189 121.134C65.0968 121.139 65.0716 121.144 65.0495 121.148C64.7218 121.204 64.383 121.246 64.0348 121.277H63.9969C63.6755 121.303 63.3651 121.33 63.0231 121.33C59.3657 121.33 56.8177 119.789 56.8177 118.402C56.8192 117.019 59.367 115.478 63.0245 115.478ZM68.7556 156.129C68.7556 156.129 66.3903 156.146 62.8386 156.171C61.8474 156.176 60.9634 155.479 60.3473 154.672C59.7185 153.861 59.2206 152.857 58.9464 151.798C58.617 150.751 58.2751 149.668 57.9316 148.564C57.5881 147.463 57.451 146.293 57.2004 145.149L56.8869 143.423C56.8349 142.843 56.7813 142.264 56.7293 141.69C56.6505 140.542 56.4882 139.417 56.4835 138.318C56.4693 137.225 56.4567 136.164 56.4425 135.159C56.4646 134.158 56.5307 133.208 56.567 132.331C56.5922 131.458 56.7009 130.66 56.764 129.949C56.8301 129.245 56.8995 128.625 56.9814 128.121C57.1185 127.105 57.2304 126.532 57.2304 126.532L57.4841 126.577C57.4841 126.577 57.4998 126.726 57.5313 127.009C57.5534 127.291 57.6417 127.705 57.681 128.216C57.7866 129.231 57.941 130.678 58.1254 132.421C58.2357 133.282 58.3192 134.207 58.4012 135.182C58.532 136.153 58.6817 137.173 58.7557 138.225C58.8188 139.28 59.1166 140.34 59.2001 141.437C59.2663 141.982 59.3341 142.531 59.3987 143.083L59.7422 144.711C59.9502 145.798 60.0432 146.921 60.3363 147.964C60.6483 149.002 60.8452 150.057 61.0926 151.069C61.1509 151.325 61.2108 151.578 61.266 151.829C61.3006 151.983 61.3132 152.023 61.3385 152.118L61.4314 152.416C61.5654 152.815 61.7292 153.196 61.9073 153.519C62.2965 154.177 62.6007 154.509 62.8386 154.643C66.3904 155.156 68.7556 155.879 68.7556 155.879L68.7525 156.129L68.7556 156.129ZM114.214 127.258L102.655 127.73C102.127 127.755 101.679 127.35 101.659 126.828C101.638 126.309 102.048 125.868 102.574 125.845L114.139 125.373C114.665 125.351 115.113 125.758 115.13 126.274C115.152 126.796 114.745 127.233 114.214 127.258ZM114.72 117.464L66.24 122.203C66.5535 122.122 66.8561 122.032 67.1429 121.925L67.1571 121.924C67.4123 121.83 67.6613 121.728 67.8929 121.616C67.9906 121.57 68.082 121.523 68.175 121.473C68.2853 121.418 68.3925 121.357 68.498 121.293C68.8999 121.056 69.2481 120.791 69.5396 120.504C69.5916 120.452 69.6436 120.401 69.6893 120.348C69.7712 120.262 69.8469 120.173 69.9193 120.083C69.9981 119.976 70.0691 119.866 70.1368 119.754C70.1872 119.667 70.2314 119.579 70.2739 119.487C70.3259 119.369 70.3763 119.251 70.411 119.129C70.4283 119.071 70.4472 119.012 70.4583 118.95C70.4992 118.77 70.526 118.59 70.526 118.401C70.526 118.16 70.4803 117.928 70.4157 117.698C70.4063 117.669 70.4015 117.637 70.3937 117.61C70.3212 117.392 70.2172 117.187 70.0911 116.984C70.0691 116.949 70.0454 116.913 70.0234 116.877C69.8878 116.682 69.7303 116.488 69.5475 116.308C69.516 116.278 69.486 116.252 69.4545 116.221C69.256 116.036 69.0385 115.861 68.7974 115.696C68.7801 115.687 68.7596 115.676 68.7438 115.665C68.4901 115.498 68.2175 115.346 67.9165 115.203C67.9008 115.193 67.885 115.186 67.8693 115.178C67.5683 115.038 67.2484 114.913 66.9096 114.802C66.8671 114.788 66.8277 114.773 66.7851 114.76C66.4511 114.653 66.0965 114.562 65.7309 114.487C65.6837 114.476 65.6333 114.467 65.586 114.458C65.2109 114.382 64.8217 114.323 64.4199 114.283C64.4057 114.281 64.3979 114.278 64.3837 114.276C91.3386 98.5986 114.792 97.441 119.266 97.3651L114.72 117.464ZM173.362 129.065L171.425 130.593C170.801 131.121 170.218 131.698 169.618 132.246C169.003 132.775 168.493 133.416 167.93 133.995C167.357 134.564 166.873 135.216 166.377 135.851C165.875 136.482 165.346 137.087 164.928 137.78L163.605 139.784L162.448 141.851C162.04 142.509 161.72 143.282 161.377 144.032L160.36 146.243C160.006 147.03 159.637 147.818 159.193 148.568C158.785 149.337 158.271 150.059 157.76 150.773C157.234 151.48 156.63 152.134 156.005 152.767C155.359 153.378 154.676 153.966 153.936 154.48C153.2 154.998 152.411 155.454 151.585 155.836C150.715 156.199 149.929 156.497 148.849 156.666L148.771 156.68L148.696 156.676C146.941 156.629 145.184 156.61 143.433 156.528C141.678 156.457 139.923 156.404 138.17 156.297C134.663 156.126 131.152 155.881 127.642 155.518C131.15 155.158 134.661 154.911 138.17 154.737C139.923 154.63 141.678 154.582 143.433 154.506C145.143 154.429 146.856 154.404 148.569 154.363C149.131 154.239 149.899 153.949 150.534 153.636C151.206 153.304 151.857 152.922 152.467 152.475C153.083 152.033 153.654 151.525 154.202 150.993C154.733 150.444 155.233 149.86 155.697 149.25C156.156 148.631 156.619 148.009 156.991 147.326C157.402 146.668 157.74 145.962 158.074 145.25C158.46 144.449 158.799 143.752 159.185 143.004C159.56 142.272 159.905 141.538 160.393 140.807L161.759 138.618L163.323 136.602C163.819 135.916 164.429 135.315 165.007 134.695C165.585 134.072 166.175 133.464 166.837 132.926C167.497 132.39 168.088 131.78 168.795 131.309C169.5 130.828 170.171 130.323 170.889 129.873C171.621 129.451 172.364 129.048 173.099 128.646L175.413 127.656L173.362 129.065ZM162.262 115.584L128.856 116.954L129.579 96.7812C159.486 97.6083 172.606 104.519 175.421 106.238C169.555 112.493 163.111 115.241 162.262 115.584Z" fill="#FFB800"/>
<path d="M182.825 137.935C173.125 137.935 165.268 145.673 165.268 155.223C165.268 164.771 173.126 172.513 182.825 172.513C192.519 172.513 200.381 164.771 200.381 155.223C200.381 145.674 192.52 137.935 182.825 137.935ZM194.023 155.222C194.023 156.55 193.772 157.818 193.334 158.994L186.697 155.222L193.334 151.449C193.772 152.629 194.023 153.892 194.023 155.222ZM171.628 155.222C171.628 153.892 171.873 152.627 172.311 151.449L178.95 155.222L172.311 158.994C171.873 157.818 171.628 156.55 171.628 155.222ZM191.407 148.141L184.761 151.921V144.37C187.413 144.826 189.749 146.192 191.407 148.141ZM180.887 144.37V151.921L174.24 148.144C175.901 146.192 178.23 144.826 180.887 144.37ZM174.239 162.305L180.886 158.528V166.079C178.23 165.623 175.902 164.256 174.239 162.305ZM184.762 166.076V158.525L191.409 162.302C189.749 164.256 187.414 165.623 184.762 166.076Z" fill="#515BE0"/>
<path d="M432.452 25.9927C434.278 24.0349 436.486 22.4719 438.939 21.3999C441.392 20.3284 444.037 19.771 446.714 19.7616C449.391 19.7526 452.041 20.2919 454.502 21.3466C456.963 22.4013 459.182 23.9487 461.022 25.8939M423.852 14.0546C426.773 10.9218 430.305 8.42081 434.23 6.70603C438.156 4.99117 442.393 4.09911 446.677 4.08418C450.961 4.0692 455.199 4.93245 459.137 6.61988C463.074 8.30714 466.621 10.7799 469.565 13.8923M446.782 43.2781C444.618 43.2781 442.863 41.5234 442.863 39.3587C442.863 37.1944 444.618 35.4393 446.782 35.4393C448.947 35.4393 450.702 37.1944 450.702 39.3587C450.702 41.5234 448.947 43.2781 446.782 43.2781Z" stroke="#E1FFF9" stroke-width="7.83882" stroke-linecap="round" stroke-linejoin="round"/>
<defs>
<filter id="filter0_d_102_4397" x="256.575" y="73.6295" width="21.6022" height="31.9626" filterUnits="userSpaceOnUse" color-interpolation-filters="sRGB">
<feFlood flood-opacity="0" result="BackgroundImageFix"/>
<feColorMatrix in="SourceAlpha" type="matrix" values="0 0 0 0 0 0 0 0 0 0 0 0 0 0 0 0 0 0 127 0" result="hardAlpha"/>
<feOffset dy="2.46043"/>
<feGaussianBlur stdDeviation="2.76799"/>
<feComposite in2="hardAlpha" operator="out"/>
<feColorMatrix type="matrix" values="0 0 0 0 1 0 0 0 0 0.72 0 0 0 0 0 0 0 0 0.34 0"/>
<feBlend mode="normal" in2="BackgroundImageFix" result="effect1_dropShadow_102_4397"/>
<feBlend mode="normal" in="SourceGraphic" in2="effect1_dropShadow_102_4397" result="shape"/>
</filter>
</defs>
</svg>
