<svg width="447" height="174" viewBox="0 0 447 174" fill="none" xmlns="http://www.w3.org/2000/svg">
<path fill-rule="evenodd" clip-rule="evenodd" d="M268.807 159.624V108.985C268.807 105.272 271.783 102.251 275.44 102.251H301.974C305.632 102.251 308.607 105.272 308.607 108.985V159.625H308.607V170.848C308.607 172.088 307.618 173.092 306.396 173.092H271.018L270.989 173.092C269.78 173.077 268.805 172.078 268.805 170.848V159.624H268.807ZM280.171 143.596H297.581C298.784 143.596 299.758 141.11 299.758 138.043V115.829C299.758 112.761 298.784 110.275 297.581 110.275H280.171C278.969 110.275 277.995 112.761 277.995 115.829V138.043C277.995 141.11 278.969 143.596 280.171 143.596Z" fill="#E1FFF9"/>
<g filter="url(#filter0_d_392_1442)">
<path d="M283.61 65.8721H291.405L292.43 76.744H288.738L292.43 88.9239L281.969 72.6414H288.122L283.61 65.8721Z" fill="#FFB800"/>
<path d="M283.61 65.8721H291.405L292.43 76.744H288.738L292.43 88.9239L281.969 72.6414H288.122L283.61 65.8721Z" stroke="#FFB800" stroke-width="1.07555"/>
</g>
<path d="M268.669 128.049C271.778 128.049 270.224 126.495 265.56 128.049C260.897 129.604 264.913 136.126 262.451 140.485C254.391 154.756 225.143 137.376 220.48 142.039" stroke="#E1FFF9" stroke-width="3.10893"/>
<path d="M292.418 17.9915C293.661 16.6591 295.163 15.5952 296.833 14.8656C298.503 14.1363 300.303 13.757 302.125 13.7506C303.947 13.7444 305.751 14.1115 307.426 14.8293C309.101 15.5472 310.611 16.6004 311.863 17.9243M286.564 9.86623C288.553 7.734 290.957 6.0318 293.628 4.86469C296.3 3.69752 299.184 3.09037 302.1 3.08021C305.015 3.07002 307.9 3.65756 310.58 4.80605C313.26 5.95444 315.674 7.63744 317.678 9.75579M302.172 29.7563C300.698 29.7563 299.504 28.562 299.504 27.0886C299.504 25.6156 300.698 24.421 302.172 24.421C303.645 24.421 304.839 25.6156 304.839 27.0886C304.839 28.562 303.645 29.7563 302.172 29.7563Z" stroke="#E1FFF9" stroke-width="5.33524" stroke-linecap="round" stroke-linejoin="round"/>
<path d="M445.726 93.494L436.182 58.2339C435.888 57.1567 435.436 56.1394 434.892 55.1815C435.7 54.0279 436.182 52.6302 436.182 51.1162C436.182 47.1852 432.988 44 429.052 44H347.373C343.435 44 340.245 47.1866 340.245 51.1162C340.245 53.0829 341.042 54.8621 342.337 56.1514C341.805 57.0909 341.366 58.0914 341.079 59.1468L331.536 94.407C330.245 99.1808 332.121 103.21 335.798 104.17V174H442.062V103.025C445.322 101.792 446.94 97.9908 445.726 93.494ZM415.114 64.1424L423.178 93.9338C423.302 94.3976 423.487 94.8421 423.664 95.288C420.063 101.173 414.83 103.728 409.129 102.313C404.124 101.074 400.631 97.2403 400.556 94.5213V65.5154C400.556 65.046 400.485 64.5933 400.415 64.1427L415.114 64.1424ZM354.085 94.8483L362.395 64.1424H376.387C376.317 64.5933 376.247 65.0457 376.247 65.5151V95.0662L376.229 95.0574C372.902 101.338 367.76 104.142 362.127 102.745C357.458 101.589 354.203 97.9911 354.203 95.4875H353.852C353.927 95.2718 354.025 95.0677 354.085 94.8483ZM412.022 166.752H354.692V143.866H364.98C365.966 141.645 368.185 140.091 370.778 140.091C373.366 140.091 375.589 141.645 376.573 143.866H397.512C397.806 140.641 400.493 138.108 403.801 138.108C407.106 138.108 409.794 140.641 410.086 143.866H412.022V166.752H412.022ZM366.496 135.626C366.496 133.163 368.499 131.165 370.968 131.165C373.437 131.165 375.439 133.164 375.439 135.626C375.439 138.093 373.437 140.091 370.968 140.091C368.499 140.091 366.496 138.093 366.496 135.626ZM399.519 133.643C399.519 131.18 401.521 129.18 403.989 129.18C406.458 129.18 408.461 131.18 408.461 133.643C408.461 136.108 406.458 138.108 403.989 138.108C401.521 138.108 399.519 136.108 399.519 133.643ZM436.559 168.508H429.527V122.201H348.807V168.508H341.302V104.47L342.917 104.501C346.741 104.578 350.728 101.711 352.888 97.7256C354.122 100.705 357.579 103.507 361.688 104.525C362.491 104.723 363.611 104.917 364.926 104.917C368.164 104.917 372.573 103.728 376.261 98.5172C376.33 103.483 380.397 105.72 385.42 105.72H391.382C395.715 105.72 399.321 102.714 400.284 98.6838C402.059 101.12 405.158 103.218 408.69 104.091C409.548 104.305 410.751 104.512 412.157 104.512C415.715 104.512 420.585 103.168 424.599 97.2221C426.802 100.992 430.651 103.658 434.344 103.586L436.559 103.543V168.508Z" fill="#515BE0"/>
<path d="M6.39053 133.298L6.42128 134.064L7.23877 133.813C8.60986 133.394 10.3532 132.648 10.8729 131.474C11.7939 129.406 12.1468 125.349 12.4835 121.423L12.5628 120.533C12.6486 119.519 12.3799 118.712 11.7551 118.143C10.9133 117.372 9.58271 117.149 8.86397 117.083L8.43175 117.044L8.23426 117.389C5.82233 121.492 6.10561 127.325 6.31443 131.579C6.34519 132.18 6.37272 132.753 6.39053 133.298ZM9.16829 118.269C9.68629 118.351 10.405 118.537 10.8421 118.935C11.2047 119.268 11.3504 119.762 11.2905 120.447L11.2112 121.344C10.8809 125.183 10.5378 129.15 9.68629 131.059C9.471 131.544 8.7393 132.043 7.63696 132.467C7.62077 132.163 7.60458 131.85 7.59001 131.535C7.39414 127.53 7.12866 122.091 9.16829 118.269Z" fill="#515BE0"/>
<path d="M35.91 133.613C23.4018 133.613 13.2622 142.623 13.2622 153.736C13.2622 164.848 23.4005 173.854 35.91 173.854C48.4166 173.854 58.5595 164.85 58.5595 153.736C58.5595 142.622 48.4162 133.613 35.91 133.613ZM45.0786 142.212C45.0301 142.216 44.6836 142.253 44.1754 142.364C43.6185 142.486 42.8917 142.694 42.1163 143.011C41.3474 143.338 40.5477 143.776 39.8096 144.32C39.4389 144.595 39.0763 144.887 38.7444 145.21C38.398 145.52 38.0969 145.875 37.7877 146.22C37.5109 146.587 37.226 146.946 36.9962 147.336C36.7501 147.716 36.5526 148.117 36.3697 148.511C36.0152 149.305 35.7918 150.113 35.6834 150.864C35.583 151.616 35.583 152.296 35.63 152.804C35.6364 152.909 35.6478 152.998 35.6575 153.083C35.4211 152.761 35.0893 152.322 34.683 151.794C33.8283 150.711 32.6871 149.264 31.541 147.819C30.348 146.408 29.1582 145 28.2598 143.94C27.3662 142.909 26.7495 142.238 26.7236 142.218C29.3201 140.582 32.4784 139.612 35.9067 139.612C39.332 139.613 42.487 140.581 45.0786 142.212ZM26.4045 142.432C26.3948 142.484 26.3236 142.783 26.2912 143.234C26.2442 143.746 26.2491 144.422 26.3495 145.174C26.4579 145.922 26.6829 146.733 27.0391 147.532C27.2106 147.93 27.4178 148.325 27.6607 148.702C27.8905 149.092 28.1738 149.454 28.449 149.821C28.7582 150.172 29.0528 150.521 29.3976 150.835C29.7278 151.161 30.0936 151.452 30.4611 151.73C31.1992 152.273 31.9973 152.713 32.7678 153.034C33.5432 153.352 34.27 153.562 34.8301 153.681C34.9386 153.706 35.0389 153.724 35.1361 153.741C34.7184 153.842 34.1405 153.987 33.4558 154.164C32.0281 154.554 30.1277 155.073 28.2306 155.592C26.3512 156.163 24.4735 156.737 23.0618 157.167C21.6584 157.614 20.7292 157.932 20.7292 157.932L20.7502 157.988C20.2743 156.644 20.0121 155.213 20.0121 153.733C20.0137 149.102 22.534 145.006 26.4045 142.432ZM20.8669 158.266C20.909 158.29 21.21 158.443 21.7005 158.621C22.2266 158.811 22.9566 159.02 23.7936 159.165C24.6272 159.304 25.5645 159.366 26.5228 159.313C27.0036 159.288 27.4924 159.241 27.9732 159.152C28.462 159.076 28.9379 158.951 29.4139 158.83C29.8801 158.677 30.3511 158.535 30.7963 158.344C31.2447 158.167 31.6704 157.945 32.0767 157.715C32.8909 157.264 33.6064 156.721 34.1859 156.173C34.7686 155.617 35.2187 155.066 35.5181 154.636C35.5764 154.547 35.6266 154.471 35.6751 154.395C35.6573 154.778 35.6314 155.308 35.612 155.945C35.5861 157.266 35.557 159.034 35.5246 160.799C35.557 162.562 35.5877 164.326 35.612 165.653C35.6541 166.945 35.7091 167.803 35.7124 167.85C28.8035 167.772 22.9745 163.792 20.8669 158.266L20.8669 158.266ZM36.1122 167.847C36.143 167.822 36.4052 167.614 36.7435 167.247C37.1142 166.859 37.5626 166.309 37.9787 165.649C38.385 164.989 38.7395 164.217 38.9791 163.39C39.1021 162.976 39.2025 162.549 39.2559 162.114C39.3271 161.68 39.3368 161.24 39.3562 160.797C39.34 160.358 39.3336 159.914 39.2607 159.48C39.2122 159.045 39.1069 158.618 38.9888 158.204C38.7524 157.376 38.3963 156.606 37.9868 155.945C37.5691 155.28 37.1207 154.728 36.75 154.343C36.6788 154.266 36.6092 154.199 36.5428 154.133C36.9459 154.269 37.506 154.455 38.181 154.669C39.5893 155.101 41.4687 155.671 43.3515 156.244C45.2502 156.763 47.1523 157.279 48.575 157.669C49.9623 158.031 50.8995 158.249 50.9562 158.26C48.8534 163.783 43.024 167.766 36.1122 167.847ZM51.0663 157.991L51.0841 157.935C51.0841 157.935 50.9384 157.63 50.6357 157.206C50.3362 156.774 49.8846 156.222 49.3035 155.668C48.7191 155.12 48.0037 154.581 47.191 154.127C46.7879 153.894 46.3622 153.675 45.9122 153.498C45.4687 153.3 44.9976 153.156 44.5331 153.008C44.0523 152.886 43.5812 152.755 43.0923 152.678C42.6116 152.585 42.1227 152.546 41.6419 152.513C40.6885 152.46 39.748 152.523 38.9144 152.66C38.0759 152.808 37.3458 153.018 36.8165 153.212C36.7112 153.254 36.6222 153.284 36.5316 153.321C36.7986 153.022 37.1694 152.608 37.6113 152.105C38.5048 151.045 39.6995 149.632 40.8925 148.219C42.0337 146.778 43.1765 145.332 44.0345 144.248C44.8374 143.205 45.3522 142.488 45.4007 142.419C49.2825 144.991 51.8061 149.095 51.8061 153.734C51.8045 155.218 51.5422 156.648 51.0663 157.991L51.0663 157.991Z" fill="#FFB800"/>
<path d="M187.507 133.613C175.001 133.613 164.858 142.623 164.858 153.736C164.858 164.848 175.001 173.854 187.507 173.854C200.014 173.854 210.157 164.85 210.157 153.736C210.157 142.622 200.012 133.613 187.507 133.613ZM196.676 142.212C196.627 142.216 196.276 142.253 195.773 142.364C195.214 142.486 194.489 142.694 193.712 143.011C192.948 143.338 192.148 143.776 191.407 144.32C191.036 144.595 190.669 144.887 190.34 145.21C189.997 145.52 189.694 145.875 189.388 146.22C189.11 146.587 188.825 146.946 188.597 147.336C188.346 147.716 188.148 148.117 187.967 148.511C187.613 149.305 187.389 150.113 187.281 150.864C187.18 151.616 187.18 152.296 187.226 152.804C187.235 152.904 187.244 152.998 187.256 153.083C187.015 152.761 186.685 152.322 186.282 151.794C185.426 150.711 184.289 149.264 183.142 147.819C181.947 146.408 180.751 145 179.857 143.94C178.964 142.909 178.347 142.238 178.323 142.218C180.914 140.582 184.077 139.612 187.502 139.612C190.924 139.613 194.086 140.581 196.676 142.212ZM178.004 142.432C177.992 142.484 177.923 142.783 177.887 143.234C177.843 143.746 177.848 144.422 177.95 145.174C178.057 145.922 178.284 146.733 178.635 147.532C178.811 147.93 179.014 148.325 179.256 148.702C179.486 149.092 179.771 149.454 180.048 149.821C180.357 150.172 180.649 150.521 180.997 150.835C181.324 151.161 181.691 151.452 182.06 151.73C182.795 152.273 183.598 152.713 184.368 153.034C185.141 153.352 185.867 153.562 186.428 153.681C186.541 153.706 186.641 153.724 186.733 153.741C186.317 153.842 185.743 153.987 185.053 154.164C183.629 154.554 181.73 155.073 179.831 155.592C177.948 156.163 176.069 156.737 174.659 157.167C173.256 157.614 172.33 157.932 172.33 157.932L172.351 157.988C171.873 156.648 171.616 155.213 171.616 153.733C171.614 149.102 174.133 145.006 178.004 142.432ZM172.464 158.266C172.503 158.29 172.806 158.443 173.298 158.621C173.827 158.811 174.556 159.02 175.389 159.165C176.223 159.304 177.16 159.366 178.12 159.313C178.601 159.288 179.09 159.241 179.571 159.152C180.059 159.076 180.534 158.951 181.011 158.83C181.477 158.677 181.948 158.535 182.394 158.344C182.837 158.167 183.268 157.945 183.677 157.715C184.487 157.264 185.204 156.721 185.79 156.173C186.368 155.617 186.818 155.066 187.117 154.636C187.177 154.547 187.229 154.471 187.277 154.395C187.256 154.783 187.229 155.308 187.209 155.945C187.187 157.266 187.158 159.034 187.124 160.799C187.159 162.562 187.187 164.326 187.209 165.653C187.252 166.945 187.31 167.803 187.316 167.85C180.404 167.772 174.569 163.792 172.464 158.266L172.464 158.266ZM187.71 167.847C187.737 167.822 188.003 167.614 188.341 167.247C188.712 166.859 189.158 166.309 189.576 165.649C189.982 164.989 190.34 164.217 190.578 163.39C190.699 162.976 190.798 162.549 190.852 162.114C190.923 161.68 190.933 161.24 190.952 160.797C190.934 160.358 190.931 159.914 190.86 159.48C190.811 159.045 190.704 158.618 190.586 158.204C190.347 157.376 189.994 156.606 189.584 155.945C189.168 155.28 188.721 154.728 188.349 154.343C188.275 154.266 188.205 154.199 188.139 154.133C188.545 154.269 189.107 154.455 189.777 154.669C191.188 155.101 193.068 155.671 194.946 156.244C196.846 156.763 198.75 157.279 200.174 157.669C201.56 158.031 202.497 158.249 202.552 158.26C200.449 163.783 194.62 167.766 187.71 167.847ZM202.672 157.97L202.681 157.937C202.681 157.937 202.532 157.632 202.231 157.207C201.932 156.776 201.482 156.224 200.904 155.67C200.319 155.122 199.599 154.583 198.791 154.128C198.385 153.895 197.958 153.677 197.508 153.5C197.067 153.301 196.596 153.158 196.132 153.009C195.649 152.887 195.175 152.756 194.691 152.68C194.209 152.587 193.721 152.548 193.239 152.515C192.282 152.463 191.345 152.528 190.513 152.663C189.678 152.811 188.944 153.021 188.415 153.215C188.308 153.257 188.218 153.287 188.13 153.324C188.402 153.025 188.766 152.611 189.207 152.108C190.102 151.048 191.298 149.636 192.488 148.222C193.629 146.781 194.772 145.335 195.63 144.251C196.435 143.208 196.952 142.488 196.999 142.422C200.88 144.995 203.405 149.098 203.405 153.737C203.402 155.21 203.143 156.631 202.672 157.97Z" fill="#FFB800"/>
<path d="M219.747 138.273L219.394 137.871L219.501 137.367C219.569 137.038 221.042 129.17 211.276 126.621C200.417 123.782 171.522 118.717 171.238 118.665L170.901 118.605L170.648 118.407C170.381 118.201 143.525 97.7419 118.094 95.2137C110.483 94.4572 101.497 94.0732 91.3881 94.0732C69.9657 94.0732 46.5127 95.8177 31.6357 98.514C31.3945 98.5529 26.2825 99.3683 20.2737 99.3683C18.6841 99.3683 17.1624 99.3079 15.7476 99.1957C17.3388 100.01 19.7281 101.044 21.9508 101.83L23.7654 102.476L22.3684 103.694C22.2875 103.766 14.5499 110.537 10.3118 115.595C11.2491 115.805 12.2932 116.197 13.1268 116.955C13.8294 117.598 14.6355 118.763 14.4688 120.664L14.3927 121.553C14.0285 125.791 13.6805 129.789 12.6526 132.1C11.5405 134.597 7.60518 135.563 6.3541 135.81L2.23923 138.839C1.99803 139.114 0.253007 141.227 0.563807 145.991C0.605894 146.612 0.635033 147.242 0.669026 147.875C0.931263 152.969 1.18218 157.781 5.63686 159.376C6.03831 159.52 6.97881 159.743 9.17058 160.048C8.5409 157.965 8.22359 155.848 8.22359 153.727C8.22359 140.165 20.6444 129.13 35.9093 129.13C51.1741 129.13 63.5949 140.165 63.5949 153.727C63.5949 157.242 62.7435 160.726 61.1166 163.903C65.6444 164.156 68.5224 164.302 68.5224 164.302L162.881 164.919C160.876 161.451 159.825 157.622 159.825 153.727C159.825 140.165 172.248 129.13 187.512 129.13C202.775 129.13 215.194 140.165 215.194 153.727C215.194 157.288 214.311 160.816 212.63 164.044L214.21 164.011C214.254 164.007 220.601 163.732 221.587 159.823L221.72 159.304C222.916 154.581 225.415 144.744 219.75 138.273L219.747 138.273ZM125.214 99.2845L140.152 111.472L141.206 118.176L101.675 115.583L96.3173 96.6301C108.655 95.9973 125.213 99.2849 125.213 99.2849L125.214 99.2845ZM115.066 126.188C114.99 126.901 114.274 127.425 113.471 127.354L103.128 126.483C102.325 126.416 101.736 125.784 101.812 125.069C101.886 124.354 102.6 123.832 103.406 123.9L113.75 124.77C114.553 124.84 115.142 125.473 115.066 126.188ZM52.3755 98.6358C68.4206 96.1104 88.3637 96.6871 88.3637 96.6871L91.2855 114.789L49.1576 112.047L52.3755 98.6358ZM44.2429 102.602C44.2429 102.602 42.9058 106.495 41.9313 108.424C40.9568 110.353 37.9816 110.343 37.9816 110.343C37.9816 110.343 29.7565 109.911 26.024 109.716C22.2896 109.525 24.347 107.171 26.024 104.956C27.7011 102.741 30.5161 102.504 30.5161 102.504L41.9333 100.869C44.8616 100.449 44.2432 102.602 44.2432 102.602L44.2429 102.602ZM57.4291 123.997L47.0774 123.218C46.2745 123.157 45.6755 122.532 45.7451 121.816C45.8131 121.102 46.5205 120.57 47.3234 120.631L57.6785 121.41C58.483 121.47 59.0803 122.096 59.0123 122.812C58.9427 123.524 58.232 124.055 57.4291 123.997ZM158.083 140.403C157.803 140.669 157.576 140.979 157.324 141.261C157.068 141.542 156.859 141.852 156.642 142.159C156.428 142.469 156.197 142.763 156.012 143.09C155.606 143.718 155.247 144.365 154.908 145.024C154.73 145.346 154.591 145.689 154.431 146.018C154.271 146.352 154.117 146.689 153.986 147.027C153.408 148.379 152.935 149.766 152.514 151.163C152.108 152.557 151.71 153.974 151.433 155.372L151.331 155.899L150.69 155.904C143.988 155.945 137.29 155.932 130.592 155.871C123.895 155.833 117.196 155.722 110.5 155.613L100.456 155.403C97.1064 155.331 93.7605 155.259 90.4113 155.154L80.3671 154.854L70.3274 154.487L69.5261 154.454L69.4986 153.732L69.4549 152.485C69.4646 152.062 69.3642 151.648 69.306 151.23C69.2347 150.816 69.1894 150.397 69.0599 149.984L68.7216 148.743C68.4172 147.936 68.1453 147.117 67.7681 146.323C67.4347 145.516 66.996 144.744 66.5816 143.96C65.6977 142.414 64.6812 140.927 63.5675 139.49C63.0106 138.768 62.4263 138.069 61.8289 137.373C61.2332 136.676 60.6133 135.995 59.9544 135.344C61.4 136.536 62.7549 137.828 63.9965 139.201C65.238 140.579 66.3987 142.02 67.4331 143.541C67.9219 144.315 68.4432 145.079 68.856 145.898C69.0696 146.304 69.3125 146.697 69.4808 147.124L70.0312 148.384L70.4682 149.676C70.6301 150.108 70.7094 150.559 70.8114 151.007C70.9021 151.458 71.0348 151.901 71.0558 152.359L71.1141 152.987L80.4058 152.996L90.4533 153.068C93.8025 153.088 97.1534 153.144 100.499 153.197L110.545 153.367C117.242 153.511 123.937 153.653 130.631 153.866C137.133 154.051 143.636 154.284 150.132 154.566C150.486 153.306 150.886 152.074 151.359 150.857C151.9 149.459 152.503 148.082 153.206 146.75C153.371 146.408 153.554 146.078 153.747 145.752C153.939 145.423 154.104 145.088 154.32 144.768C154.719 144.121 155.14 143.484 155.605 142.871C156.065 142.259 156.567 141.668 157.125 141.123C157.415 140.861 157.672 140.57 157.983 140.329L158.92 139.611L158.083 140.403ZM157.913 118.749C155.226 118.749 153.06 118.678 152.367 118.655L131.189 101L133.758 100.82C138.541 102.508 143.54 104.687 148.605 107.298L156.579 111.714C161.268 114.493 164.912 116.972 166.947 118.419C164.48 118.634 161.393 118.749 157.913 118.749ZM209.717 134.402C205.33 132.599 193.725 125.027 205.212 127.121C216.697 129.209 216.817 134.834 216.817 134.834C216.819 134.834 214.099 136.209 209.717 134.402Z" fill="#515BE0"/>
<defs>
<filter id="filter0_d_392_1442" x="274.656" y="61.8183" width="24.6935" height="36.5373" filterUnits="userSpaceOnUse" color-interpolation-filters="sRGB">
<feFlood flood-opacity="0" result="BackgroundImageFix"/>
<feColorMatrix in="SourceAlpha" type="matrix" values="0 0 0 0 0 0 0 0 0 0 0 0 0 0 0 0 0 0 127 0" result="hardAlpha"/>
<feOffset dy="2.81253"/>
<feGaussianBlur stdDeviation="3.1641"/>
<feComposite in2="hardAlpha" operator="out"/>
<feColorMatrix type="matrix" values="0 0 0 0 1 0 0 0 0 0.72 0 0 0 0 0 0 0 0 0.34 0"/>
<feBlend mode="normal" in2="BackgroundImageFix" result="effect1_dropShadow_392_1442"/>
<feBlend mode="normal" in="SourceGraphic" in2="effect1_dropShadow_392_1442" result="shape"/>
</filter>
</defs>
</svg>
