<svg width="594" height="158" viewBox="0 0 594 158" fill="none" xmlns="http://www.w3.org/2000/svg">
<path fill-rule="evenodd" clip-rule="evenodd" d="M416.807 142.699V92.0591C416.807 88.3459 419.783 85.3252 423.44 85.3252H449.974C453.632 85.3252 456.607 88.3459 456.607 92.0591V142.699H456.607V153.922C456.607 155.162 455.618 156.166 454.396 156.166H419.018L418.989 156.166C417.78 156.151 416.805 155.153 416.805 153.922V142.699H416.807ZM428.171 126.67H445.581C446.784 126.67 447.758 124.185 447.758 121.117V98.9032C447.758 95.8353 446.784 93.3496 445.581 93.3496H428.171C426.969 93.3496 425.995 95.8353 425.995 98.9032V121.117C425.995 124.185 426.969 126.67 428.171 126.67Z" fill="#E1FFF9"/>
<g filter="url(#filter0_d_392_1441)">
<path d="M438.789 97.9473H430.994L429.969 108.819H433.661L429.969 120.999L440.43 104.717H434.276L438.789 97.9473Z" fill="#FFB800"/>
<path d="M438.789 97.9473H430.994L429.969 108.819H433.661L429.969 120.999L440.43 104.717H434.276L438.789 97.9473Z" stroke="#FFB800" stroke-width="1.07555"/>
</g>
<path d="M416.669 111.124C419.778 111.124 418.224 109.57 413.56 111.124C408.897 112.679 412.913 119.201 410.451 123.56C402.391 137.832 373.143 120.451 368.48 125.114" stroke="#E1FFF9" stroke-width="3.10893"/>
<path d="M455.352 8.02139C455.86 7.47669 456.474 7.04181 457.157 6.74356C457.839 6.44542 458.575 6.29035 459.32 6.28773C460.065 6.28523 460.802 6.43528 461.487 6.72873C462.172 7.02218 462.789 7.4527 463.301 7.99391M452.959 4.69987C453.772 3.82825 454.755 3.13241 455.847 2.65531C456.939 2.17819 458.118 1.92999 459.31 1.92583C460.501 1.92167 461.681 2.16185 462.776 2.63134C463.872 3.10078 464.859 3.78877 465.678 4.65473M459.339 12.8307C458.737 12.8307 458.248 12.3425 458.248 11.7402C458.248 11.138 458.737 10.6497 459.339 10.6497C459.941 10.6497 460.429 11.138 460.429 11.7402C460.429 12.3425 459.941 12.8307 459.339 12.8307Z" stroke="#E1FFF9" stroke-width="2.18098" stroke-linecap="round" stroke-linejoin="round"/>
<path d="M592.726 76.2294L583.182 40.9692C582.888 39.892 582.436 38.8747 581.892 37.9168C582.7 36.7632 583.182 35.3656 583.182 33.8515C583.182 29.9205 579.988 26.7354 576.052 26.7354H494.373C490.435 26.7354 487.245 29.922 487.245 33.8515C487.245 35.8182 488.042 37.5975 489.337 38.8868C488.805 39.8262 488.366 40.8267 488.079 41.8822L478.536 77.1424C477.245 81.9162 479.121 85.9453 482.798 86.905V156.735H589.062V85.7602C592.322 84.5271 593.94 80.7262 592.726 76.2294ZM562.114 46.8778L570.178 76.6691C570.302 77.133 570.487 77.5774 570.664 78.0233C567.063 83.9081 561.83 86.4638 556.129 85.0485C551.124 83.8091 547.631 79.9756 547.556 77.2566V48.2508C547.556 47.7814 547.485 47.3287 547.415 46.8781L562.114 46.8778ZM501.085 77.5836L509.395 46.8778H523.387C523.317 47.3287 523.247 47.7811 523.247 48.2505V77.8016L523.229 77.7928C519.902 84.0738 514.76 86.8771 509.127 85.4803C504.458 84.3247 501.203 80.7265 501.203 78.2228H500.852C500.927 78.0072 501.025 77.803 501.085 77.5836ZM559.022 149.488H501.692V126.601H511.98C512.966 124.38 515.185 122.827 517.778 122.827C520.366 122.827 522.589 124.38 523.573 126.601H544.512C544.806 123.377 547.493 120.843 550.801 120.843C554.106 120.843 556.794 123.377 557.086 126.601H559.022V149.488H559.022ZM513.496 118.362C513.496 115.899 515.499 113.9 517.968 113.9C520.437 113.9 522.439 115.899 522.439 118.362C522.439 120.828 520.437 122.827 517.968 122.827C515.499 122.827 513.496 120.828 513.496 118.362ZM546.519 116.378C546.519 113.915 548.521 111.916 550.989 111.916C553.458 111.916 555.461 113.916 555.461 116.378C555.461 118.844 553.458 120.843 550.989 120.843C548.521 120.843 546.519 118.844 546.519 116.378ZM583.559 151.243H576.527V104.937H495.807V151.243H488.302V87.2049L489.917 87.2361C493.741 87.3133 497.728 84.446 499.888 80.4609C501.122 83.4402 504.579 86.242 508.688 87.2599C509.491 87.4581 510.611 87.6526 511.926 87.6526C515.164 87.6526 519.573 86.4638 523.261 81.2526C523.33 86.2188 527.397 88.4554 532.42 88.4554H538.382C542.715 88.4554 546.321 85.4489 547.284 81.4191C549.059 83.855 552.158 85.9535 555.69 86.8266C556.548 87.0401 557.751 87.2478 559.157 87.2478C562.715 87.2478 567.585 85.903 571.599 79.9574C573.802 83.7269 577.651 86.3936 581.344 86.3216L583.559 86.2787V151.243Z" fill="#515BE0"/>
<path d="M6.39053 117.372L6.42128 118.139L7.23877 117.887C8.60986 117.469 10.3532 116.722 10.8729 115.549C11.7939 113.481 12.1468 109.423 12.4835 105.497L12.5628 104.607C12.6486 103.593 12.3799 102.786 11.7551 102.217C10.9133 101.446 9.58271 101.223 8.86397 101.157L8.43175 101.118L8.23426 101.463C5.82233 105.567 6.10561 111.399 6.31443 115.653C6.34519 116.255 6.37272 116.827 6.39053 117.372ZM9.16829 102.344C9.68629 102.426 10.405 102.611 10.8421 103.01C11.2047 103.342 11.3504 103.836 11.2905 104.521L11.2112 105.418C10.8809 109.257 10.5378 113.225 9.68629 115.133C9.471 115.618 8.7393 116.117 7.63696 116.541C7.62077 116.238 7.60458 115.924 7.59001 115.609C7.39414 111.604 7.12866 106.165 9.16829 102.344Z" fill="#515BE0"/>
<path d="M35.91 117.688C23.4018 117.688 13.2622 126.698 13.2622 137.81C13.2622 148.922 23.4005 157.928 35.91 157.928C48.4166 157.928 58.5595 148.924 58.5595 137.81C58.5595 126.696 48.4162 117.688 35.91 117.688ZM45.0786 126.286C45.0301 126.29 44.6836 126.328 44.1754 126.438C43.6185 126.561 42.8917 126.768 42.1163 127.086C41.3474 127.412 40.5477 127.851 39.8096 128.394C39.4389 128.669 39.0763 128.961 38.7444 129.285C38.398 129.594 38.0969 129.949 37.7877 130.294C37.5109 130.661 37.226 131.02 36.9962 131.41C36.7501 131.79 36.5526 132.191 36.3697 132.585C36.0152 133.379 35.7918 134.187 35.6834 134.938C35.583 135.69 35.583 136.37 35.63 136.878C35.6364 136.983 35.6478 137.072 35.6575 137.157C35.4211 136.835 35.0893 136.396 34.683 135.868C33.8283 134.785 32.6871 133.339 31.541 131.893C30.348 130.482 29.1582 129.074 28.2598 128.015C27.3662 126.983 26.7495 126.312 26.7236 126.292C29.3201 124.657 32.4784 123.686 35.9067 123.686C39.332 123.687 42.487 124.655 45.0786 126.286ZM26.4045 126.506C26.3948 126.558 26.3236 126.857 26.2912 127.309C26.2442 127.821 26.2491 128.497 26.3495 129.249C26.4579 129.996 26.6829 130.808 27.0391 131.606C27.2106 132.004 27.4178 132.4 27.6607 132.776C27.8905 133.166 28.1738 133.529 28.449 133.895C28.7582 134.246 29.0528 134.596 29.3976 134.909C29.7278 135.236 30.0936 135.526 30.4611 135.804C31.1992 136.347 31.9973 136.787 32.7678 137.108C33.5432 137.426 34.27 137.636 34.8301 137.755C34.9386 137.78 35.0389 137.798 35.1361 137.816C34.7184 137.916 34.1405 138.062 33.4558 138.239C32.0281 138.628 30.1277 139.147 28.2306 139.667C26.3512 140.238 24.4735 140.811 23.0618 141.241C21.6584 141.689 20.7292 142.006 20.7292 142.006L20.7502 142.063C20.2743 140.718 20.0121 139.287 20.0121 137.807C20.0137 133.176 22.534 129.08 26.4045 126.506ZM20.8669 142.34C20.909 142.365 21.21 142.517 21.7005 142.695C22.2266 142.885 22.9566 143.094 23.7936 143.239C24.6272 143.379 25.5645 143.44 26.5228 143.387C27.0036 143.363 27.4924 143.315 27.9732 143.226C28.462 143.15 28.9379 143.025 29.4139 142.904C29.8801 142.752 30.3511 142.609 30.7963 142.418C31.2447 142.241 31.6704 142.019 32.0767 141.789C32.8909 141.338 33.6064 140.796 34.1859 140.248C34.7686 139.691 35.2187 139.14 35.5181 138.71C35.5764 138.621 35.6266 138.545 35.6751 138.469C35.6573 138.853 35.6314 139.382 35.612 140.019C35.5861 141.341 35.557 143.108 35.5246 144.873C35.557 146.636 35.5877 148.401 35.612 149.727C35.6541 151.02 35.7091 151.877 35.7124 151.924C28.8035 151.847 22.9745 147.866 20.8669 142.341L20.8669 142.34ZM36.1122 151.921C36.143 151.896 36.4052 151.688 36.7435 151.321C37.1142 150.933 37.5626 150.384 37.9787 149.723C38.385 149.063 38.7395 148.291 38.9791 147.464C39.1021 147.05 39.2025 146.623 39.2559 146.189C39.3271 145.754 39.3368 145.314 39.3562 144.871C39.34 144.433 39.3336 143.988 39.2607 143.554C39.2122 143.12 39.1069 142.692 38.9888 142.278C38.7524 141.45 38.3963 140.68 37.9868 140.019C37.5691 139.355 37.1207 138.802 36.75 138.417C36.6788 138.341 36.6092 138.273 36.5428 138.207C36.9459 138.343 37.506 138.529 38.181 138.743C39.5893 139.175 41.4687 139.746 43.3515 140.318C45.2502 140.837 47.1523 141.353 48.575 141.743C49.9623 142.106 50.8995 142.323 50.9562 142.334C48.8534 147.857 43.024 151.84 36.1122 151.921ZM51.0663 142.065L51.0841 142.009C51.0841 142.009 50.9384 141.704 50.6357 141.28C50.3362 140.848 49.8846 140.296 49.3035 139.743C48.7191 139.195 48.0037 138.655 47.191 138.201C46.7879 137.968 46.3622 137.749 45.9122 137.572C45.4687 137.374 44.9976 137.23 44.5331 137.082C44.0523 136.96 43.5812 136.829 43.0923 136.753C42.6116 136.659 42.1227 136.62 41.6419 136.587C40.6885 136.534 39.748 136.597 38.9144 136.734C38.0759 136.882 37.3458 137.092 36.8165 137.286C36.7112 137.328 36.6222 137.358 36.5316 137.396C36.7986 137.096 37.1694 136.682 37.6113 136.179C38.5048 135.119 39.6995 133.707 40.8925 132.293C42.0337 130.852 43.1765 129.407 44.0345 128.322C44.8374 127.28 45.3522 126.562 45.4007 126.493C49.2825 129.066 51.8061 133.169 51.8061 137.808C51.8045 139.292 51.5422 140.722 51.0663 142.065L51.0663 142.065Z" fill="#FFB800"/>
<path d="M187.507 117.688C175.001 117.688 164.858 126.698 164.858 137.81C164.858 148.922 175.001 157.928 187.507 157.928C200.014 157.928 210.157 148.924 210.157 137.81C210.157 126.696 200.012 117.688 187.507 117.688ZM196.676 126.286C196.627 126.29 196.276 126.328 195.773 126.438C195.214 126.561 194.489 126.768 193.712 127.086C192.948 127.412 192.148 127.851 191.407 128.394C191.036 128.669 190.669 128.961 190.34 129.285C189.997 129.594 189.694 129.949 189.388 130.294C189.11 130.661 188.825 131.02 188.597 131.41C188.346 131.79 188.148 132.191 187.967 132.585C187.613 133.379 187.389 134.187 187.281 134.938C187.18 135.69 187.18 136.37 187.226 136.878C187.235 136.979 187.244 137.072 187.256 137.157C187.015 136.835 186.685 136.396 186.282 135.868C185.426 134.785 184.289 133.339 183.142 131.893C181.947 130.482 180.751 129.074 179.857 128.015C178.964 126.983 178.347 126.312 178.323 126.292C180.914 124.657 184.077 123.686 187.502 123.686C190.924 123.687 194.086 124.655 196.676 126.286ZM178.004 126.506C177.992 126.558 177.923 126.857 177.887 127.309C177.843 127.821 177.848 128.497 177.95 129.249C178.057 129.996 178.284 130.808 178.635 131.606C178.811 132.004 179.014 132.4 179.256 132.776C179.486 133.166 179.771 133.529 180.048 133.895C180.357 134.246 180.649 134.596 180.997 134.909C181.324 135.236 181.691 135.526 182.06 135.804C182.795 136.347 183.598 136.787 184.368 137.108C185.141 137.426 185.867 137.636 186.428 137.755C186.541 137.78 186.641 137.798 186.733 137.816C186.317 137.916 185.743 138.062 185.053 138.239C183.629 138.628 181.73 139.147 179.831 139.667C177.948 140.238 176.069 140.811 174.659 141.241C173.256 141.689 172.33 142.006 172.33 142.006L172.351 142.063C171.873 140.722 171.616 139.287 171.616 137.807C171.614 133.176 174.133 129.08 178.004 126.506ZM172.464 142.34C172.503 142.365 172.806 142.517 173.298 142.695C173.827 142.885 174.556 143.094 175.389 143.239C176.223 143.379 177.16 143.44 178.12 143.387C178.601 143.363 179.09 143.315 179.571 143.226C180.059 143.15 180.534 143.025 181.011 142.904C181.477 142.752 181.948 142.609 182.394 142.418C182.837 142.241 183.268 142.019 183.677 141.789C184.487 141.338 185.204 140.796 185.79 140.248C186.368 139.691 186.818 139.14 187.117 138.71C187.177 138.621 187.229 138.545 187.277 138.469C187.256 138.857 187.229 139.382 187.209 140.019C187.187 141.341 187.158 143.108 187.124 144.873C187.159 146.636 187.187 148.401 187.209 149.727C187.252 151.02 187.31 151.877 187.316 151.924C180.404 151.847 174.569 147.866 172.464 142.341L172.464 142.34ZM187.71 151.921C187.737 151.896 188.003 151.688 188.341 151.321C188.712 150.933 189.158 150.384 189.576 149.723C189.982 149.063 190.34 148.291 190.578 147.464C190.699 147.05 190.798 146.623 190.852 146.189C190.923 145.754 190.933 145.314 190.952 144.871C190.934 144.433 190.931 143.988 190.86 143.554C190.811 143.12 190.704 142.692 190.586 142.278C190.347 141.45 189.994 140.68 189.584 140.019C189.168 139.355 188.721 138.802 188.349 138.417C188.275 138.341 188.205 138.273 188.139 138.207C188.545 138.343 189.107 138.529 189.777 138.743C191.188 139.175 193.068 139.746 194.946 140.318C196.846 140.837 198.75 141.353 200.174 141.743C201.56 142.106 202.497 142.323 202.552 142.334C200.449 147.857 194.62 151.84 187.71 151.921ZM202.672 142.044L202.681 142.011C202.681 142.011 202.532 141.706 202.231 141.282C201.932 140.85 201.482 140.298 200.904 139.744C200.319 139.196 199.599 138.657 198.791 138.203C198.385 137.97 197.958 137.751 197.508 137.574C197.067 137.376 196.596 137.232 196.132 137.084C195.649 136.961 195.175 136.831 194.691 136.754C194.209 136.661 193.721 136.622 193.239 136.589C192.282 136.537 191.345 136.602 190.513 136.737C189.678 136.885 188.944 137.095 188.415 137.289C188.308 137.331 188.218 137.361 188.13 137.399C188.402 137.099 188.766 136.685 189.207 136.182C190.102 135.122 191.298 133.71 192.488 132.296C193.629 130.855 194.772 129.41 195.63 128.325C196.435 127.283 196.952 126.562 196.999 126.496C200.88 129.069 203.405 133.172 203.405 137.811C203.402 139.284 203.143 140.705 202.672 142.044Z" fill="#FFB800"/>
<path d="M219.747 122.347L219.394 121.945L219.501 121.441C219.569 121.112 221.042 113.244 211.276 110.695C200.417 107.856 171.522 102.791 171.238 102.74L170.901 102.679L170.648 102.481C170.381 102.275 143.525 81.8161 118.094 79.2879C110.483 78.5315 101.497 78.1475 91.3881 78.1475C69.9657 78.1475 46.5127 79.8919 31.6357 82.5883C31.3945 82.6271 26.2825 83.4425 20.2737 83.4425C18.6841 83.4425 17.1624 83.3821 15.7476 83.2699C17.3388 84.0839 19.7281 85.1179 21.9508 85.9046L23.7654 86.5503L22.3684 87.7684C22.2875 87.8403 14.5499 94.6111 10.3118 99.669C11.2491 99.879 12.2932 100.272 13.1268 101.029C13.8294 101.672 14.6355 102.837 14.4688 104.738L14.3927 105.627C14.0285 109.865 13.6805 113.863 12.6526 116.174C11.5405 118.671 7.60518 119.637 6.3541 119.885L2.23923 122.913C1.99803 123.188 0.253007 125.301 0.563807 130.065C0.605894 130.687 0.635033 131.317 0.669026 131.949C0.931263 137.043 1.18218 141.855 5.63686 143.45C6.03831 143.594 6.97881 143.817 9.17058 144.122C8.5409 142.039 8.22359 139.922 8.22359 137.801C8.22359 124.239 20.6444 113.204 35.9093 113.204C51.1741 113.204 63.5949 124.239 63.5949 137.801C63.5949 141.316 62.7435 144.801 61.1166 147.978C65.6444 148.231 68.5224 148.376 68.5224 148.376L162.881 148.993C160.876 145.525 159.825 141.696 159.825 137.801C159.825 124.24 172.248 113.205 187.512 113.205C202.775 113.205 215.194 124.24 215.194 137.801C215.194 141.362 214.311 144.89 212.63 148.118L214.21 148.085C214.254 148.081 220.601 147.806 221.587 143.898L221.72 143.378C222.916 138.655 225.415 128.818 219.75 122.347L219.747 122.347ZM125.214 83.3588L140.152 95.5458L141.206 102.25L101.675 99.6574L96.3173 80.7043C108.655 80.0715 125.213 83.3591 125.213 83.3591L125.214 83.3588ZM115.066 110.262C114.99 110.975 114.274 111.499 113.471 111.428L103.128 110.557C102.325 110.491 101.736 109.858 101.812 109.143C101.886 108.428 102.6 107.906 103.406 107.974L113.75 108.844C114.553 108.915 115.142 109.547 115.066 110.262ZM52.3755 82.7101C68.4206 80.1847 88.3637 80.7614 88.3637 80.7614L91.2855 98.8633L49.1576 96.1208L52.3755 82.7101ZM44.2429 86.6763C44.2429 86.6763 42.9058 90.5693 41.9313 92.4977C40.9568 94.4277 37.9816 94.4176 37.9816 94.4176C37.9816 94.4176 29.7565 93.9847 26.024 93.7906C22.2896 93.5993 24.347 91.2451 26.024 89.0302C27.7011 86.8155 30.5161 86.5782 30.5161 86.5782L41.9333 84.943C44.8616 84.5231 44.2432 86.676 44.2432 86.676L44.2429 86.6763ZM57.4291 108.071L47.0774 107.292C46.2745 107.232 45.6755 106.606 45.7451 105.89C45.8131 105.176 46.5205 104.644 47.3234 104.705L57.6785 105.484C58.483 105.545 59.0803 106.17 59.0123 106.886C58.9427 107.598 58.232 108.129 57.4291 108.071ZM158.083 124.478C157.803 124.744 157.576 125.053 157.324 125.335C157.068 125.617 156.859 125.926 156.642 126.234C156.428 126.543 156.197 126.838 156.012 127.164C155.606 127.793 155.247 128.44 154.908 129.098C154.73 129.42 154.591 129.763 154.431 130.092C154.271 130.426 154.117 130.764 153.986 131.102C153.408 132.454 152.935 133.84 152.514 135.238C152.108 136.631 151.71 138.048 151.433 139.446L151.331 139.974L150.69 139.978C143.988 140.02 137.29 140.007 130.592 139.945C123.895 139.907 117.196 139.797 110.5 139.687L100.456 139.477C97.1064 139.406 93.7605 139.334 90.4113 139.229L80.3671 138.928L70.3274 138.561L69.5261 138.528L69.4986 137.806L69.4549 136.559C69.4646 136.137 69.3642 135.722 69.306 135.304C69.2347 134.89 69.1894 134.471 69.0599 134.058L68.7216 132.817C68.4172 132.011 68.1453 131.191 67.7681 130.397C67.4347 129.59 66.996 128.818 66.5816 128.034C65.6977 126.488 64.6812 125.001 63.5675 123.564C63.0106 122.842 62.4263 122.143 61.8289 121.447C61.2332 120.75 60.6133 120.07 59.9544 119.418C61.4 120.61 62.7549 121.902 63.9965 123.275C65.238 124.653 66.3987 126.094 67.4331 127.616C67.9219 128.389 68.4432 129.153 68.856 129.973C69.0696 130.378 69.3125 130.771 69.4808 131.198L70.0312 132.458L70.4682 133.751C70.6301 134.182 70.7094 134.634 70.8114 135.081C70.9021 135.533 71.0348 135.976 71.0558 136.433L71.1141 137.061L80.4058 137.07L90.4533 137.142C93.8025 137.162 97.1534 137.218 100.499 137.271L110.545 137.441C117.242 137.585 123.937 137.727 130.631 137.94C137.133 138.126 143.636 138.359 150.132 138.64C150.486 137.381 150.886 136.148 151.359 134.931C151.9 133.534 152.503 132.156 153.206 130.824C153.371 130.482 153.554 130.153 153.747 129.826C153.939 129.497 154.104 129.162 154.32 128.842C154.719 128.195 155.14 127.558 155.605 126.946C156.065 126.333 156.567 125.742 157.125 125.197C157.415 124.935 157.672 124.645 157.983 124.403L158.92 123.685L158.083 124.478ZM157.913 102.824C155.226 102.824 153.06 102.752 152.367 102.729L131.189 85.0741L133.758 84.8943C138.541 86.5827 143.54 88.7616 148.605 91.3718L156.579 95.7883C161.268 98.5668 164.912 101.046 166.947 102.493C164.48 102.709 161.393 102.824 157.913 102.824ZM209.717 118.477C205.33 116.673 193.725 109.101 205.212 111.195C216.697 113.284 216.817 118.908 216.817 118.908C216.819 118.908 214.099 120.283 209.717 118.477Z" fill="#515BE0"/>
<defs>
<filter id="filter0_d_392_1441" x="423.05" y="93.8935" width="24.6935" height="36.5373" filterUnits="userSpaceOnUse" color-interpolation-filters="sRGB">
<feFlood flood-opacity="0" result="BackgroundImageFix"/>
<feColorMatrix in="SourceAlpha" type="matrix" values="0 0 0 0 0 0 0 0 0 0 0 0 0 0 0 0 0 0 127 0" result="hardAlpha"/>
<feOffset dy="2.81253"/>
<feGaussianBlur stdDeviation="3.1641"/>
<feComposite in2="hardAlpha" operator="out"/>
<feColorMatrix type="matrix" values="0 0 0 0 1 0 0 0 0 0.72 0 0 0 0 0 0 0 0 0.34 0"/>
<feBlend mode="normal" in2="BackgroundImageFix" result="effect1_dropShadow_392_1441"/>
<feBlend mode="normal" in="SourceGraphic" in2="effect1_dropShadow_392_1441" result="shape"/>
</filter>
</defs>
</svg>
