
<svg width="445" height="174" viewBox="0 0 445 174" fill="none" xmlns="http://www.w3.org/2000/svg">
<path fill-rule="evenodd" clip-rule="evenodd" d="M267.807 158.55V107.911C267.807 104.197 270.783 101.177 274.44 101.177H300.974C304.632 101.177 307.607 104.197 307.607 107.911V158.55H307.607V169.773C307.607 171.013 306.618 172.018 305.396 172.018H270.018L269.989 172.018C268.78 172.003 267.805 171.004 267.805 169.773V158.55H267.807ZM279.171 142.522H296.581C297.784 142.522 298.758 140.036 298.758 136.968V114.755C298.758 111.687 297.784 109.201 296.581 109.201H279.171C277.969 109.201 276.995 111.687 276.995 114.755V136.969C276.995 140.036 277.969 142.522 279.171 142.522Z" fill="#E1FFF9"/>
<g filter="url(#filter0_d_392_1443)">
<path d="M282.61 64.7979H290.405L291.43 75.6697H287.738L291.43 87.8497L280.969 71.5671H287.122L282.61 64.7979Z" fill="#FFB800"/>
<path d="M282.61 64.7979H290.405L291.43 75.6697H287.738L291.43 87.8497L280.969 71.5671H287.122L282.61 64.7979Z" stroke="#FFB800" stroke-width="1.07555"/>
</g>
<path d="M267.669 126.975C270.778 126.975 269.224 125.421 264.56 126.975C259.897 128.529 263.913 135.052 261.451 139.411C253.391 153.682 224.143 136.302 219.48 140.965" stroke="#E1FFF9" stroke-width="3.10893"/>
<path d="M289.418 17.9173C290.661 16.5848 292.163 15.521 293.833 14.7914C295.503 14.0621 297.303 13.6827 299.125 13.6763C300.947 13.6702 302.751 14.0373 304.426 14.7551C306.101 15.473 307.611 16.5262 308.863 17.8501M283.564 9.79201C285.553 7.65978 287.957 5.95758 290.628 4.79047C293.3 3.6233 296.184 3.01615 299.1 3.00599C302.015 2.9958 304.9 3.58334 307.58 4.73183C310.26 5.88022 312.674 7.56322 314.678 9.68157M299.172 29.682C297.698 29.682 296.504 28.4878 296.504 27.0144C296.504 25.5414 297.698 24.3468 299.172 24.3468C300.645 24.3468 301.839 25.5414 301.839 27.0144C301.839 28.4878 300.645 29.682 299.172 29.682Z" stroke="#E1FFF9" stroke-width="5.33524" stroke-linecap="round" stroke-linejoin="round"/>
<path d="M443.956 93.3456L434.412 58.0854C434.118 57.0082 433.666 55.991 433.122 55.033C433.93 53.8794 434.412 52.4818 434.412 50.9678C434.412 47.0367 431.218 43.8516 427.281 43.8516H345.603C341.665 43.8516 338.475 47.0382 338.475 50.9678C338.475 52.9344 339.272 54.7137 340.567 56.003C340.035 56.9424 339.596 57.9429 339.309 58.9984L329.766 94.2586C328.475 99.0324 330.351 103.062 334.028 104.021V173.852H440.292V102.876C443.552 101.643 445.17 97.8424 443.956 93.3456ZM413.344 63.994L421.408 93.7854C421.532 94.2492 421.717 94.6936 421.894 95.1396C418.293 101.024 413.06 103.58 407.359 102.165C402.354 100.925 398.861 97.0919 398.786 94.3729V65.367C398.786 64.8976 398.715 64.4449 398.645 63.9943L413.344 63.994ZM352.315 94.6998L360.625 63.994H374.617C374.546 64.4449 374.477 64.8973 374.477 65.3667V94.9178L374.459 94.909C371.132 101.19 365.99 103.993 360.357 102.597C355.688 101.441 352.433 97.8427 352.433 95.339H352.082C352.157 95.1234 352.255 94.9192 352.315 94.6998ZM410.252 166.604H352.922V143.717H363.21C364.196 141.496 366.415 139.943 369.008 139.943C371.596 139.943 373.819 141.496 374.803 143.717H395.742C396.036 140.493 398.723 137.96 402.031 137.96C405.336 137.96 408.024 140.493 408.316 143.717H410.252V166.604H410.252ZM364.726 135.478C364.726 133.015 366.729 131.016 369.198 131.016C371.667 131.016 373.669 133.015 373.669 135.478C373.669 137.944 371.667 139.943 369.198 139.943C366.729 139.943 364.726 137.944 364.726 135.478ZM397.748 133.494C397.748 131.032 399.751 129.032 402.219 129.032C404.688 129.032 406.691 131.032 406.691 133.494C406.691 135.96 404.688 137.96 402.219 137.96C399.751 137.96 397.748 135.96 397.748 133.494ZM434.789 168.359H427.757V122.053H347.037V168.359H339.532V104.321L341.147 104.352C344.971 104.43 348.958 101.562 351.118 97.5771C352.352 100.556 355.809 103.358 359.918 104.376C360.721 104.574 361.841 104.769 363.156 104.769C366.394 104.769 370.803 103.58 374.491 98.3688C374.56 103.335 378.627 105.572 383.65 105.572H389.612C393.945 105.572 397.551 102.565 398.514 98.5354C400.289 100.971 403.388 103.07 406.919 103.943C407.778 104.156 408.981 104.364 410.387 104.364C413.945 104.364 418.815 103.019 422.829 97.0736C425.032 100.843 428.881 103.51 432.574 103.438L434.789 103.395V168.359Z" fill="#515BE0"/>
<path d="M6.39053 132.224L6.42128 132.99L7.23877 132.739C8.60986 132.32 10.3532 131.574 10.8729 130.4C11.7939 128.332 12.1468 124.275 12.4835 120.349L12.5628 119.459C12.6486 118.445 12.3799 117.638 11.7551 117.068C10.9133 116.298 9.58271 116.075 8.86397 116.009L8.43175 115.97L8.23426 116.315C5.82233 120.418 6.10561 126.251 6.31443 130.505C6.34519 131.106 6.37272 131.679 6.39053 132.224ZM9.16829 117.195C9.68629 117.277 10.405 117.463 10.8421 117.861C11.2047 118.193 11.3504 118.688 11.2905 119.373L11.2112 120.27C10.8809 124.109 10.5378 128.076 9.68629 129.985C9.471 130.469 8.7393 130.968 7.63696 131.393C7.62077 131.089 7.60458 130.776 7.59001 130.461C7.39414 126.456 7.12866 121.016 9.16829 117.195Z" fill="#515BE0"/>
<path d="M35.91 132.539C23.4018 132.539 13.2622 141.549 13.2622 152.661C13.2622 163.774 23.4005 172.78 35.91 172.78C48.4166 172.78 58.5595 163.776 58.5595 152.661C58.5595 141.547 48.4162 132.539 35.91 132.539ZM45.0786 141.138C45.0301 141.142 44.6836 141.179 44.1754 141.29C43.6185 141.412 42.8917 141.619 42.1163 141.937C41.3474 142.264 40.5477 142.702 39.8096 143.246C39.4389 143.521 39.0763 143.813 38.7444 144.136C38.398 144.445 38.0969 144.801 37.7877 145.146C37.5109 145.512 37.226 145.872 36.9962 146.262C36.7501 146.641 36.5526 147.043 36.3697 147.437C36.0152 148.23 35.7918 149.039 35.6834 149.789C35.583 150.542 35.583 151.222 35.63 151.729C35.6364 151.834 35.6478 151.924 35.6575 152.008C35.4211 151.686 35.0893 151.248 34.683 150.72C33.8283 149.637 32.6871 148.19 31.541 146.745C30.348 145.334 29.1582 143.926 28.2598 142.866C27.3662 141.835 26.7495 141.163 26.7236 141.143C29.3201 139.508 32.4784 138.537 35.9067 138.537C39.332 138.539 42.487 139.507 45.0786 141.138ZM26.4045 141.358C26.3948 141.409 26.3236 141.709 26.2912 142.16C26.2442 142.672 26.2491 143.348 26.3495 144.1C26.4579 144.848 26.6829 145.659 27.0391 146.457C27.2106 146.856 27.4178 147.251 27.6607 147.628C27.8905 148.018 28.1738 148.38 28.449 148.747C28.7582 149.098 29.0528 149.447 29.3976 149.761C29.7278 150.087 30.0936 150.378 30.4611 150.655C31.1992 151.199 31.9973 151.639 32.7678 151.96C33.5432 152.278 34.27 152.488 34.8301 152.607C34.9386 152.631 35.0389 152.65 35.1361 152.667C34.7184 152.768 34.1405 152.913 33.4558 153.09C32.0281 153.48 30.1277 153.999 28.2306 154.518C26.3512 155.089 24.4735 155.663 23.0618 156.093C21.6584 156.54 20.7292 156.858 20.7292 156.858L20.7502 156.914C20.2743 155.569 20.0121 154.138 20.0121 152.658C20.0137 148.028 22.534 143.932 26.4045 141.358ZM20.8669 157.192C20.909 157.216 21.21 157.369 21.7005 157.547C22.2266 157.737 22.9566 157.945 23.7936 158.091C24.6272 158.23 25.5645 158.292 26.5228 158.239C27.0036 158.214 27.4924 158.167 27.9732 158.078C28.462 158.001 28.9379 157.876 29.4139 157.756C29.8801 157.603 30.3511 157.461 30.7963 157.269C31.2447 157.093 31.6704 156.871 32.0767 156.641C32.8909 156.189 33.6064 155.647 34.1859 155.099C34.7686 154.543 35.2187 153.992 35.5181 153.562C35.5764 153.473 35.6266 153.397 35.6751 153.32C35.6573 153.704 35.6314 154.234 35.612 154.871C35.5861 156.192 35.557 157.96 35.5246 159.724C35.557 161.488 35.5877 163.252 35.612 164.578C35.6541 165.871 35.7091 166.728 35.7124 166.776C28.8035 166.698 22.9745 162.718 20.8669 157.192L20.8669 157.192ZM36.1122 166.772C36.143 166.748 36.4052 166.54 36.7435 166.173C37.1142 165.784 37.5626 165.235 37.9787 164.575C38.385 163.915 38.7395 163.143 38.9791 162.316C39.1021 161.902 39.2025 161.474 39.2559 161.04C39.3271 160.606 39.3368 160.166 39.3562 159.723C39.34 159.284 39.3336 158.84 39.2607 158.405C39.2122 157.971 39.1069 157.544 38.9888 157.13C38.7524 156.301 38.3963 155.532 37.9868 154.871C37.5691 154.206 37.1207 153.654 36.75 153.268C36.6788 153.192 36.6092 153.125 36.5428 153.058C36.9459 153.195 37.506 153.381 38.181 153.595C39.5893 154.026 41.4687 154.597 43.3515 155.17C45.2502 155.689 47.1523 156.205 48.575 156.595C49.9623 156.957 50.8995 157.174 50.9562 157.186C48.8534 162.708 43.024 166.692 36.1122 166.772ZM51.0663 156.917L51.0841 156.861C51.0841 156.861 50.9384 156.556 50.6357 156.131C50.3362 155.7 49.8846 155.148 49.3035 154.594C48.7191 154.046 48.0037 153.507 47.191 153.052C46.7879 152.819 46.3622 152.601 45.9122 152.424C45.4687 152.225 44.9976 152.082 44.5331 151.934C44.0523 151.811 43.5812 151.68 43.0923 151.604C42.6116 151.511 42.1227 151.472 41.6419 151.439C40.6885 151.386 39.748 151.449 38.9144 151.586C38.0759 151.734 37.3458 151.944 36.8165 152.138C36.7112 152.179 36.6222 152.21 36.5316 152.247C36.7986 151.948 37.1694 151.534 37.6113 151.03C38.5048 149.97 39.6995 148.558 40.8925 147.144C42.0337 145.703 43.1765 144.258 44.0345 143.174C44.8374 142.131 45.3522 141.414 45.4007 141.344C49.2825 143.917 51.8061 148.02 51.8061 152.66C51.8045 154.144 51.5422 155.573 51.0663 156.916L51.0663 156.917Z" fill="#515BE0"/>
<path d="M187.507 132.539C175.001 132.539 164.858 141.549 164.858 152.661C164.858 163.774 175.001 172.78 187.507 172.78C200.014 172.78 210.157 163.776 210.157 152.661C210.157 141.547 200.012 132.539 187.507 132.539ZM196.676 141.138C196.627 141.142 196.276 141.179 195.773 141.29C195.214 141.412 194.489 141.619 193.712 141.937C192.948 142.264 192.148 142.702 191.407 143.246C191.036 143.521 190.669 143.813 190.34 144.136C189.997 144.445 189.694 144.801 189.388 145.146C189.11 145.512 188.825 145.872 188.597 146.262C188.346 146.641 188.148 147.043 187.967 147.437C187.613 148.23 187.389 149.039 187.281 149.789C187.18 150.542 187.18 151.222 187.226 151.729C187.235 151.83 187.244 151.924 187.256 152.008C187.015 151.686 186.685 151.248 186.282 150.72C185.426 149.637 184.289 148.19 183.142 146.745C181.947 145.334 180.751 143.926 179.857 142.866C178.964 141.835 178.347 141.163 178.323 141.143C180.914 139.508 184.077 138.537 187.502 138.537C190.924 138.539 194.086 139.507 196.676 141.138ZM178.004 141.358C177.992 141.409 177.923 141.709 177.887 142.16C177.843 142.672 177.848 143.348 177.95 144.1C178.057 144.848 178.284 145.659 178.635 146.457C178.811 146.856 179.014 147.251 179.256 147.628C179.486 148.018 179.771 148.38 180.048 148.747C180.357 149.098 180.649 149.447 180.997 149.761C181.324 150.087 181.691 150.378 182.06 150.655C182.795 151.199 183.598 151.639 184.368 151.96C185.141 152.278 185.867 152.488 186.428 152.607C186.541 152.631 186.641 152.65 186.733 152.667C186.317 152.768 185.743 152.913 185.053 153.09C183.629 153.48 181.73 153.999 179.831 154.518C177.948 155.089 176.069 155.663 174.659 156.093C173.256 156.54 172.33 156.858 172.33 156.858L172.351 156.914C171.873 155.574 171.616 154.138 171.616 152.658C171.614 148.028 174.133 143.932 178.004 141.358ZM172.464 157.192C172.503 157.216 172.806 157.369 173.298 157.547C173.827 157.737 174.556 157.945 175.389 158.091C176.223 158.23 177.16 158.292 178.12 158.239C178.601 158.214 179.09 158.167 179.571 158.078C180.059 158.001 180.534 157.876 181.011 157.756C181.477 157.603 181.948 157.461 182.394 157.269C182.837 157.093 183.268 156.871 183.677 156.641C184.487 156.189 185.204 155.647 185.79 155.099C186.368 154.543 186.818 153.992 187.117 153.562C187.177 153.473 187.229 153.397 187.277 153.32C187.256 153.709 187.229 154.234 187.209 154.871C187.187 156.192 187.158 157.96 187.124 159.724C187.159 161.488 187.187 163.252 187.209 164.578C187.252 165.871 187.31 166.728 187.316 166.776C180.404 166.698 174.569 162.718 172.464 157.192L172.464 157.192ZM187.71 166.772C187.737 166.748 188.003 166.54 188.341 166.173C188.712 165.784 189.158 165.235 189.576 164.575C189.982 163.915 190.34 163.143 190.578 162.316C190.699 161.902 190.798 161.474 190.852 161.04C190.923 160.606 190.933 160.166 190.952 159.723C190.934 159.284 190.931 158.84 190.86 158.405C190.811 157.971 190.704 157.544 190.586 157.13C190.347 156.301 189.994 155.532 189.584 154.871C189.168 154.206 188.721 153.654 188.349 153.268C188.275 153.192 188.205 153.125 188.139 153.058C188.545 153.195 189.107 153.381 189.777 153.595C191.188 154.026 193.068 154.597 194.946 155.17C196.846 155.689 198.75 156.205 200.174 156.595C201.56 156.957 202.497 157.174 202.552 157.186C200.449 162.708 194.62 166.692 187.71 166.772ZM202.672 156.895L202.681 156.862C202.681 156.862 202.532 156.557 202.231 156.133C201.932 155.702 201.482 155.149 200.904 154.596C200.319 154.048 199.599 153.509 198.791 153.054C198.385 152.821 197.958 152.602 197.508 152.426C197.067 152.227 196.596 152.083 196.132 151.935C195.649 151.813 195.175 151.682 194.691 151.606C194.209 151.512 193.721 151.474 193.239 151.44C192.282 151.389 191.345 151.453 190.513 151.589C189.678 151.737 188.944 151.947 188.415 152.141C188.308 152.183 188.218 152.213 188.13 152.25C188.402 151.951 188.766 151.537 189.207 151.034C190.102 149.974 191.298 148.561 192.488 147.148C193.629 145.706 194.772 144.261 195.63 143.177C196.435 142.134 196.952 141.414 196.999 141.348C200.88 143.92 203.405 148.023 203.405 152.663C203.402 154.135 203.143 155.557 202.672 156.895Z" fill="#515BE0"/>
<path d="M219.747 137.199L219.394 136.796L219.501 136.293C219.569 135.964 221.042 128.095 211.276 125.547C200.417 122.708 171.522 117.643 171.238 117.591L170.901 117.531L170.648 117.332C170.381 117.127 143.525 96.6677 118.094 94.1395C110.483 93.383 101.497 92.999 91.3881 92.999C69.9657 92.999 46.5127 94.7435 31.6357 97.4398C31.3945 97.4787 26.2825 98.2941 20.2737 98.2941C18.6841 98.2941 17.1624 98.2337 15.7476 98.1215C17.3388 98.9355 19.7281 99.9695 21.9508 100.756L23.7654 101.402L22.3684 102.62C22.2875 102.692 14.5499 109.463 10.3118 114.521C11.2491 114.731 12.2932 115.123 13.1268 115.881C13.8294 116.524 14.6355 117.689 14.4688 119.59L14.3927 120.479C14.0285 124.717 13.6805 128.715 12.6526 131.026C11.5405 133.522 7.60518 134.489 6.3541 134.736L2.23923 137.765C1.99803 138.04 0.253007 140.152 0.563807 144.917C0.605894 145.538 0.635033 146.168 0.669026 146.801C0.931263 151.895 1.18218 156.707 5.63686 158.302C6.03831 158.445 6.97881 158.668 9.17058 158.973C8.5409 156.891 8.22359 154.774 8.22359 152.653C8.22359 139.091 20.6444 128.056 35.9093 128.056C51.1741 128.056 63.5949 139.091 63.5949 152.653C63.5949 156.167 62.7435 159.652 61.1166 162.829C65.6444 163.082 68.5224 163.227 68.5224 163.227L162.881 163.844C160.876 160.377 159.825 156.547 159.825 152.653C159.825 139.091 172.248 128.056 187.512 128.056C202.775 128.056 215.194 139.091 215.194 152.653C215.194 156.214 214.311 159.742 212.63 162.97L214.21 162.937C214.254 162.933 220.601 162.658 221.587 158.749L221.72 158.23C222.916 153.507 225.415 143.67 219.75 137.198L219.747 137.199ZM125.214 98.2103L140.152 110.397L141.206 117.102L101.675 114.509L96.3173 95.5559C108.655 94.9231 125.213 98.2107 125.213 98.2107L125.214 98.2103ZM115.066 125.114C114.99 125.827 114.274 126.35 113.471 126.28L103.128 125.408C102.325 125.342 101.736 124.71 101.812 123.995C101.886 123.28 102.6 122.758 103.406 122.826L113.75 123.696C114.553 123.766 115.142 124.399 115.066 125.114ZM52.3755 97.5616C68.4206 95.0362 88.3637 95.6129 88.3637 95.6129L91.2855 113.715L49.1576 110.972L52.3755 97.5616ZM44.2429 101.528C44.2429 101.528 42.9058 105.421 41.9313 107.349C40.9568 109.279 37.9816 109.269 37.9816 109.269C37.9816 109.269 29.7565 108.836 26.024 108.642C22.2896 108.451 24.347 106.097 26.024 103.882C27.7011 101.667 30.5161 101.43 30.5161 101.43L41.9333 99.7946C44.8616 99.3746 44.2432 101.528 44.2432 101.528L44.2429 101.528ZM57.4291 122.923L47.0774 122.144C46.2745 122.083 45.6755 121.458 45.7451 120.741C45.8131 120.028 46.5205 119.496 47.3234 119.556L57.6785 120.336C58.483 120.396 59.0803 121.022 59.0123 121.738C58.9427 122.45 58.232 122.981 57.4291 122.923ZM158.083 139.329C157.803 139.595 157.576 139.904 157.324 140.186C157.068 140.468 156.859 140.777 156.642 141.085C156.428 141.394 156.197 141.689 156.012 142.016C155.606 142.644 155.247 143.291 154.908 143.95C154.73 144.272 154.591 144.614 154.431 144.944C154.271 145.277 154.117 145.615 153.986 145.953C153.408 147.305 152.935 148.691 152.514 150.089C152.108 151.483 151.71 152.899 151.433 154.297L151.331 154.825L150.69 154.829C143.988 154.871 137.29 154.858 130.592 154.796C123.895 154.759 117.196 154.648 110.5 154.539L100.456 154.329C97.1064 154.257 93.7605 154.185 90.4113 154.08L80.3671 153.78L70.3274 153.413L69.5261 153.38L69.4986 152.658L69.4549 151.411C69.4646 150.988 69.3642 150.574 69.306 150.155C69.2347 149.741 69.1894 149.323 69.0599 148.91L68.7216 147.669C68.4172 146.862 68.1453 146.042 67.7681 145.249C67.4347 144.442 66.996 143.669 66.5816 142.886C65.6977 141.34 64.6812 139.853 63.5675 138.416C63.0106 137.694 62.4263 136.995 61.8289 136.299C61.2332 135.601 60.6133 134.921 59.9544 134.27C61.4 135.462 62.7549 136.753 63.9965 138.127C65.238 139.505 66.3987 140.946 67.4331 142.467C67.9219 143.241 68.4432 144.005 68.856 144.824C69.0696 145.23 69.3125 145.622 69.4808 146.05L70.0312 147.309L70.4682 148.602C70.6301 149.034 70.7094 149.485 70.8114 149.933C70.9021 150.384 71.0348 150.827 71.0558 151.284L71.1141 151.913L80.4058 151.922L90.4533 151.993C93.8025 152.014 97.1534 152.07 100.499 152.123L110.545 152.293C117.242 152.436 123.937 152.579 130.631 152.792C137.133 152.977 143.636 153.21 150.132 153.492C150.486 152.232 150.886 151 151.359 149.783C151.9 148.385 152.503 147.007 153.206 145.676C153.371 145.334 153.554 145.004 153.747 144.678C153.939 144.348 154.104 144.013 154.32 143.694C154.719 143.047 155.14 142.41 155.605 141.797C156.065 141.184 156.567 140.593 157.125 140.048C157.415 139.787 157.672 139.496 157.983 139.255L158.92 138.537L158.083 139.329ZM157.913 117.675C155.226 117.675 153.06 117.603 152.367 117.58L131.189 99.9257L133.758 99.7459C138.541 101.434 143.54 103.613 148.605 106.223L156.579 110.64C161.268 113.418 164.912 115.898 166.947 117.345C164.48 117.56 161.393 117.675 157.913 117.675ZM209.717 133.328C205.33 131.525 193.725 123.953 205.212 126.047C216.697 128.135 216.817 133.76 216.817 133.76C216.819 133.76 214.099 135.134 209.717 133.328Z" fill="#FFB800"/>
<defs>
<filter id="filter0_d_392_1443" x="273.656" y="60.7441" width="24.6935" height="36.5373" filterUnits="userSpaceOnUse" color-interpolation-filters="sRGB">
<feFlood flood-opacity="0" result="BackgroundImageFix"/>
<feColorMatrix in="SourceAlpha" type="matrix" values="0 0 0 0 0 0 0 0 0 0 0 0 0 0 0 0 0 0 127 0" result="hardAlpha"/>
<feOffset dy="2.81253"/>
<feGaussianBlur stdDeviation="3.1641"/>
<feComposite in2="hardAlpha" operator="out"/>
<feColorMatrix type="matrix" values="0 0 0 0 1 0 0 0 0 0.72 0 0 0 0 0 0 0 0 0.34 0"/>
<feBlend mode="normal" in2="BackgroundImageFix" result="effect1_dropShadow_392_1443"/>
<feBlend mode="normal" in="SourceGraphic" in2="effect1_dropShadow_392_1443" result="shape"/>
</filter>
</defs>
</svg>
