<svg width="1440" height="1090" viewBox="0 0 1440 1090" fill="none" xmlns="http://www.w3.org/2000/svg">
<path d="M-9.06086 10.7027C-9.06086 10.7027 781.142 2.30123 954.471 5.76306C1127.8 9.2249 1123.95 15.7753 1056.03 138.031C988.11 260.287 1107.17 256.967 1108.82 344.563C1113.12 571.678 766.237 374.615 783.899 539.97C801.56 705.324 927.025 706.858 1111.91 945.362C1296.79 1183.87 1447.75 860.922 1522.83 873.595C1597.91 886.268 1614.12 1021.15 1614.12 1021.15" stroke="#515BE0" stroke-width="7.75403"/>
<path d="M-39.9665 35.7896C-39.9665 35.7896 750.237 27.3881 923.565 30.85C1096.89 34.3118 1093.05 40.8623 1025.13 163.118C957.204 285.374 1076.26 282.054 1077.92 369.65C1082.22 596.765 735.332 399.702 752.993 565.056C770.654 730.411 896.119 731.945 1081 970.449C1265.88 1208.95 1416.84 886.009 1491.92 898.682C1567 911.355 1583.21 1046.24 1583.21 1046.24" stroke="#E1FFF9" stroke-width="7.75403"/>
<path d="M-81.1939 62.939C-81.1939 62.939 709.009 54.5376 882.338 57.9994C1055.67 61.4612 1051.82 68.0117 983.899 190.268C915.977 312.523 1035.03 309.203 1036.69 396.799C1040.99 623.914 694.104 426.851 711.766 592.206C729.427 757.56 854.891 759.094 1039.77 997.598C1224.65 1236.1 1375.61 913.159 1450.69 925.832C1525.78 938.505 1541.99 1073.39 1541.99 1073.39" stroke="#FFB800" stroke-width="7.75403"/>
</svg>
