<svg width="191" height="96" viewBox="0 0 191 96" fill="none" xmlns="http://www.w3.org/2000/svg">
<path fill-rule="evenodd" clip-rule="evenodd" d="M172.489 31.3334L50.7741 5.38253C40.2115 3.13048 30.2854 11.1562 30.2854 21.9486V40.6448H25.2854V21.931C25.2854 7.96443 38.131 -2.42185 51.8002 0.492565L173.515 26.4434C196.828 31.414 196.828 64.7002 173.515 69.5069L51.8002 94.6016C38.131 97.4198 25.2854 86.9432 25.2854 72.9766V52.907H30.2854V72.9942C30.2854 83.7866 40.2115 91.8821 50.7741 89.7044L172.489 64.6097C190.504 60.8955 190.504 35.1743 172.489 31.3334Z" fill="#515BE0"/>
<rect y="49.8531" width="57.0554" height="5.57376" fill="#FFB800"/>
<rect x="12.9673" y="37.3007" width="31.1211" height="5.57376" fill="#FFB800"/>
</svg>
