<svg width="277" height="39" viewBox="0 0 277 39" fill="none" xmlns="http://www.w3.org/2000/svg">
<path d="M251.5 15.0001C248.167 15.0001 246.5 16.6667 246.5 20.0001V25.0001C246.5 28.3334 248.167 30.0001 251.5 30.0001H266.5C269.834 30.0001 271.5 28.3334 271.5 25.0001V20.0001C271.5 16.6667 269.834 15.0001 266.5 15.0001H251.5ZM251.5 10.0001H266.5C273.167 10.0001 276.5 13.3334 276.5 20.0001V25.0001C276.5 31.6667 273.167 35.0001 266.5 35.0001H251.5C244.834 35.0001 241.5 31.6667 241.5 25.0001V20.0001C241.5 13.3334 244.834 10.0001 251.5 10.0001Z" fill="#FFB800"/>
<path d="M236.5 35.0001H211.5C204.834 35.0001 201.5 31.6668 201.5 25.0001V20.0001C201.5 13.3335 204.834 10.0001 211.5 10.0001H236.5V15.0001H211.5C208.167 15.0001 206.5 16.6668 206.5 20.0001V25.0001C206.5 28.3335 208.167 30.0001 211.5 30.0001H236.5V35.0001ZM236.5 20.0001V25.0001H211.5V20.0001H236.5Z" fill="#E1FFF9"/>
<path d="M196.5 35H161.5L184 15H161.5V10H196.5L174 30H196.5V35Z" fill="#E1FFF9"/>
<path d="M121.5 35.0001H146.5C153.167 35.0001 156.5 31.6668 156.5 25.0001V20.0001C156.5 13.3335 153.167 10.0001 146.5 10.0001H121.5V15.0001H146.5C149.833 15.0001 151.5 16.6668 151.5 20.0001V25.0001C151.5 28.3335 149.833 30.0001 146.5 30.0001H121.5V35.0001ZM121.5 20.0001V25.0001H146.5V20.0001H121.5Z" fill="#515BE0"/>
<path d="M116.5 35H91.5C84.8333 35 81.5 31.6667 81.5 25V20C81.5 13.3333 84.8333 10 91.5 10H116.5V15H91.5C88.1667 15 86.5 16.6667 86.5 20V25C86.5 28.3333 88.1667 30 91.5 30H116.5V35ZM116.5 20V25H91.5V20H116.5Z" fill="#E1FFF9"/>
<path d="M61.5 25H46.5V35H41.5V10H66.5C73.1667 10 76.5 12.5 76.5 17.5C76.5 22.5 73.1667 25 66.5 25C66.5 28.3333 68.1667 30 71.5 30H76.5V35H71.5C64.8333 35 61.5 31.6667 61.5 25ZM66.5 20C69.8333 20 71.5 19.1667 71.5 17.5C71.5 15.8333 69.8333 15 66.5 15H46.5V20H66.5Z" fill="#E1FFF9"/>
<path d="M26.5 20C29.8333 20 31.5 19.1667 31.5 17.5C31.5 15.8333 29.8333 15 26.5 15H6.5V20H26.5ZM6.5 35H1.5V10H26.5C33.1667 10 36.5 12.5 36.5 17.5C36.5 22.5 33.1667 25 26.5 25H6.5V35Z" fill="#E1FFF9"/>
</svg>
