<svg width="150" height="76" viewBox="0 0 150 76" fill="none" xmlns="http://www.w3.org/2000/svg">
<path d="M136.191 62.816C134.385 62.816 133.483 63.7185 133.483 65.5236V68.2311C133.483 70.0362 134.385 70.9387 136.191 70.9387H144.313C146.118 70.9387 147.021 70.0362 147.021 68.2311V65.5236C147.021 63.7185 146.118 62.816 144.313 62.816H136.191ZM136.191 60.1084H144.313C147.923 60.1084 149.728 61.9135 149.728 65.5236V68.2311C149.728 71.8412 147.923 73.6463 144.313 73.6463H136.191C132.58 73.6463 130.775 71.8412 130.775 68.2311V65.5236C130.775 61.9135 132.58 60.1084 136.191 60.1084Z" fill="#FFB800"/>
<path d="M128.068 73.6463H114.53C110.92 73.6463 109.115 71.8412 109.115 68.2311V65.5236C109.115 61.9135 110.92 60.1084 114.53 60.1084H128.068V62.816H114.53C112.725 62.816 111.823 63.7185 111.823 65.5236V68.2311C111.823 70.0362 112.725 70.9387 114.53 70.9387H128.068V73.6463ZM128.068 65.5236V68.2311H114.53V65.5236H128.068Z" fill="#E1FFF9"/>
<path d="M106.408 73.6463H87.4551L99.6392 62.816H87.4551V60.1084H106.408L94.224 70.9387H106.408V73.6463Z" fill="#E1FFF9"/>
<path d="M65.7949 73.6463H79.3328C82.9429 73.6463 84.748 71.8412 84.748 68.2311V65.5236C84.748 61.9135 82.9429 60.1084 79.3328 60.1084H65.7949V62.816H79.3328C81.1379 62.816 82.0404 63.7185 82.0404 65.5236V68.2311C82.0404 70.0362 81.1379 70.9387 79.3328 70.9387H65.7949V73.6463ZM65.7949 65.5236V68.2311H79.3328V65.5236H65.7949Z" fill="#515BE0"/>
<path d="M63.0859 73.6463H49.548C45.9379 73.6463 44.1328 71.8413 44.1328 68.2311V65.5236C44.1328 61.9135 45.9379 60.1084 49.548 60.1084H63.0859V62.816H49.548C47.7429 62.816 46.8404 63.7185 46.8404 65.5236V68.2311C46.8404 70.0362 47.7429 70.9387 49.548 70.9387H63.0859V73.6463ZM63.0859 65.5236V68.2311H49.548V65.5236H63.0859Z" fill="#E1FFF9"/>
<path d="M33.303 68.2311H25.1802V73.6463H22.4727V60.1084H36.0106C39.6207 60.1084 41.4257 61.4622 41.4257 64.1698C41.4257 66.8774 39.6207 68.2311 36.0106 68.2311C36.0106 70.0362 36.9131 70.9387 38.7181 70.9387H41.4257V73.6463H38.7181C35.108 73.6463 33.303 71.8413 33.303 68.2311ZM36.0106 65.5236C37.8156 65.5236 38.7181 65.0723 38.7181 64.1698C38.7181 63.2672 37.8156 62.816 36.0106 62.816H25.1802V65.5236H36.0106Z" fill="#E1FFF9"/>
<path d="M14.3504 65.5236C16.1555 65.5236 17.058 65.0723 17.058 64.1698C17.058 63.2672 16.1555 62.816 14.3504 62.816H3.52008V65.5236H14.3504ZM3.52008 73.6463H0.8125V60.1084H14.3504C17.9605 60.1084 19.7656 61.4622 19.7656 64.1698C19.7656 66.8774 17.9605 68.2311 14.3504 68.2311H3.52008V73.6463Z" fill="#E1FFF9"/>
<path fill-rule="evenodd" clip-rule="evenodd" d="M116.692 16.9675L50.7811 2.91473C45.0613 1.69521 39.6861 6.04128 39.6861 11.8855V22.0098H36.9785V11.876C36.9785 4.31287 43.9346 -1.31147 51.3367 0.266734L117.247 14.3196C129.872 17.0112 129.872 35.0362 117.247 37.6391L51.3367 51.2283C43.9346 52.7544 36.9785 47.0811 36.9785 39.518V28.65H39.6861V39.5275C39.6861 45.3718 45.0613 49.7557 50.7811 48.5764L116.692 34.9872C126.447 32.9759 126.447 19.0475 116.692 16.9675Z" fill="#515BE0"/>
<rect x="23.2852" y="26.9963" width="30.8964" height="3.01828" fill="#FFB800"/>
<rect x="30.3066" y="20.199" width="16.8526" height="3.01828" fill="#FFB800"/>
</svg>
